<svg xmlns="http://www.w3.org/2000/svg" width="52" height="52" viewBox="0 0 52 52">
  <g id="Grupo_128324" data-name="Grupo 128324" transform="translate(-184 -683)">
    <path id="Trazado_265079" data-name="Trazado 265079" d="M26,0A26,26,0,1,1,0,26,26,26,0,0,1,26,0Z" transform="translate(184 683)" fill="#fece16"/>
    <path id="Trazado_265080" data-name="Trazado 265080" d="M9.814,32V29.715H9.756a4.907,4.907,0,0,1-4.57,2.651,4.376,4.376,0,0,1-3.325-1.26,4.68,4.68,0,0,1-1.2-3.369q0-4.424,5.435-5.127l3.721-.483a1.419,1.419,0,0,0-.659-1.2,3,3,0,0,0-1.772-.469,11.674,11.674,0,0,0-5.317,1.436V17.835a14.225,14.225,0,0,1,3.047-.864,17.732,17.732,0,0,1,3.135-.337q3.823,0,5.544,1.633t1.721,5.457V32ZM6.123,26.9a1.383,1.383,0,0,0,.388,1.011,1.48,1.48,0,0,0,1.106.4,1.966,1.966,0,0,0,1.589-.732A2.838,2.838,0,0,0,9.814,25.7V25.13l-2.109.293Q6.123,25.687,6.123,26.9Z" transform="translate(202 690.35)" fill="#12263f"/>
  </g>
</svg>
