<svg xmlns="http://www.w3.org/2000/svg" width="216.279" height="247.157" viewBox="0 0 216.279 247.157">
  <g id="Grupo_128333" data-name="Grupo 128333" transform="translate(-421.733 -5749.343)">
    <path id="Trazado_263649" data-name="Trazado 263649" d="M484.461,366.9l-65.231-37.661,73.8-42.6L558.257,324.3Z" transform="translate(29.4 5629.602)" opacity="0.3"/>
    <path id="Trazado_263650" data-name="Trazado 263650" d="M530.684,314.584l-55.412,32.924L425.41,320.493l59.052-34.084Z" transform="translate(37.59 5629.302)" fill="#d9af6f"/>
    <g id="Grupo_128066" data-name="Grupo 128066" transform="translate(522.167 5841.466)">
      <path id="Trazado_263651" data-name="Trazado 263651" d="M481.358,254.479l-30.5,33.389,61.718,35.642,30.51-33.4Z" transform="translate(-450.855 -254.479)" fill="#f7e6bb"/>
      <path id="Trazado_263652" data-name="Trazado 263652" d="M477.607,303.2l30.508-33.4v.961l-30.508,33.4-.368-.42Z" transform="translate(-415.888 -234.171)" fill="#c79d5c"/>
    </g>
    <g id="Grupo_128067" data-name="Grupo 128067" transform="translate(452.241 5874.854)">
      <path id="Trazado_263653" data-name="Trazado 263653" d="M421.093,309.5v43.741l69.924-40.5V269.017Z" transform="translate(-420.373 -268.6)" fill="#c79d5c"/>
      <path id="Trazado_263654" data-name="Trazado 263654" d="M421.5,309.732l69.924-40.479-.718-.416-69.927,40.488Z" transform="translate(-420.783 -268.838)" fill="#d9af6f"/>
      <path id="Trazado_263655" data-name="Trazado 263655" d="M421.5,330.4V286.656l-.72-.406v43.733Z" transform="translate(-420.783 -245.762)" fill="#efc58b"/>
    </g>
    <g id="Grupo_128068" data-name="Grupo 128068" transform="translate(522.167 5875.27)">
      <path id="Trazado_263656" data-name="Trazado 263656" d="M450.855,269.2v43.725l60.271,34.81V304Z" transform="translate(-450.855 -268.778)" fill="#efc58b"/>
      <path id="Trazado_263657" data-name="Trazado 263657" d="M511.127,304.237l-60.271-34.8.718-.42,60.278,34.809Z" transform="translate(-450.854 -269.017)" fill="#f7e6bb"/>
      <path id="Trazado_263658" data-name="Trazado 263658" d="M476.775,328.13V284.4l.724-.411v43.733Z" transform="translate(-416.503 -249.178)" fill="#c79d5c"/>
    </g>
    <g id="Grupo_128069" data-name="Grupo 128069" transform="translate(452.961 5915.342)">
      <path id="Trazado_263659" data-name="Trazado 263659" d="M421.093,286.425v43.734l60.285,34.814V321.237Z" transform="translate(-421.093 -286.018)" fill="#efc58b"/>
      <path id="Trazado_263660" data-name="Trazado 263660" d="M481.378,321.468l-60.285-34.811.733-.406,60.269,34.816Z" transform="translate(-421.093 -286.25)" fill="#f7e6bb"/>
      <path id="Trazado_263661" data-name="Trazado 263661" d="M447.019,345.362V301.625l.717-.4v43.722Z" transform="translate(-386.734 -266.407)" fill="#efc58b"/>
    </g>
    <g id="Grupo_128071" data-name="Grupo 128071" transform="translate(513.246 5910.079)">
      <path id="Trazado_263662" data-name="Trazado 263662" d="M447.327,324.649v43.734l69.921-40.49V284.163Z" transform="translate(-446.61 -283.752)" fill="#c79d5c"/>
      <g id="Grupo_128070" data-name="Grupo 128070" transform="translate(7.735 31.026)">
        <path id="Trazado_263663" data-name="Trazado 263663" d="M450.345,328.12l13.2-7.627V305.244l-13.2,7.629Zm.579-14.9,12.031-6.953v13.882l-12.031,6.95Z" transform="translate(-450.345 -286.839)" fill="#995d43"/>
        <path id="Trazado_263664" data-name="Trazado 263664" d="M452.549,318.233l1.149-.645v-7.394l.566-.327-1.129-1.882L452,311.18l.552-.327Z" transform="translate(-448.155 -283.206)" fill="#995d43"/>
        <path id="Trazado_263665" data-name="Trazado 263665" d="M452,315.948l5.52-3.186v-1.317l-5.52,3.2Z" transform="translate(-448.155 -278.621)" fill="#995d43"/>
        <path id="Trazado_263666" data-name="Trazado 263666" d="M453.391,310.374l.568-.332v7.407l1.142-.668V309.4l.57-.34-1.133-1.88Z" transform="translate(-446.309 -284.278)" fill="#995d43"/>
        <path id="Trazado_263667" data-name="Trazado 263667" d="M457.211,324.155l13.2-7.629V301.281l-13.2,7.625ZM469.83,302.3v13.884L457.8,323.129V309.247Z" transform="translate(-441.246 -292.092)" fill="#995d43"/>
        <path id="Trazado_263668" data-name="Trazado 263668" d="M461.652,314.975l-.956.188-.459.275v-4.033l.459-.259.956-1.669V304.2l-3.281,1.9v5.277l.956.568.459-.273v4.022l-.459.266-.956.913v.066l3.281-1.9Z" transform="translate(-439.708 -288.223)" fill="#995d43"/>
        <path id="Trazado_263669" data-name="Trazado 263669" d="M463.6,313.848l-.965.188-.456.263v-4.016l.456-.27.965-1.656v-5.283l-3.288,1.9v5.269l.972.558.446-.267v4.023l-.446.27-.972.916v.058l3.288-1.9Zm-2.316-3.39-.674-.384V305.14l2.695-1.563v4.7l-.879,1.523Z" transform="translate(-437.131 -289.714)" fill="#995d43"/>
        <path id="Trazado_263670" data-name="Trazado 263670" d="M477.283,297.329l-13.2,7.615v15.247l13.2-7.627Zm-.593,14.9-12.033,6.943V305.289l12.033-6.95Z" transform="translate(-432.14 -297.329)" fill="#995d43"/>
        <path id="Trazado_263671" data-name="Trazado 263671" d="M469.065,309.532l-.8,1.385-.461.254-.806-.466v-.772l-.127-.075-.172.1-.136.22v.988l1.063.622.82-.466,1.058-1.844v-4.916l3.974-2.293v-.893l-1.126-1.41-1.933-.063-.917.529v-.445l-.125-.066-.18.1-.127.213v.427l-.9.538-1.951,2.3-1.119,2.716v.886l3.969-2.3Z" transform="translate(-430.796 -293.916)" fill="#995d43"/>
      </g>
      <path id="Trazado_263672" data-name="Trazado 263672" d="M447.736,324.883,517.658,284.4l-.722-.411-69.917,40.481Z" transform="translate(-447.019 -283.986)" fill="#ac8854"/>
      <path id="Trazado_263673" data-name="Trazado 263673" d="M447.736,345.544V301.811l-.717-.415v43.738Z" transform="translate(-447.019 -260.914)" fill="#efc58b"/>
    </g>
    <g id="Grupo_128072" data-name="Grupo 128072" transform="translate(513.246 5881.428)">
      <path id="Trazado_263674" data-name="Trazado 263674" d="M467.541,312.41l-20.214,28.475,69.921-40.479,20.221-28.5Z" transform="translate(-446.61 -271.339)" fill="#ac8854"/>
      <path id="Trazado_263675" data-name="Trazado 263675" d="M456.29,312.737l69.927-40.5-.472-.572-69.926,40.486Z" transform="translate(-435.358 -271.665)" fill="#f7e6bb"/>
      <path id="Trazado_263676" data-name="Trazado 263676" d="M447.736,318.138l20.215-28.476-.472-.586-20.46,28.646Z" transform="translate(-447.019 -248.59)" fill="#efc58b"/>
    </g>
    <g id="Grupo_128073" data-name="Grupo 128073" transform="translate(441.53 5834.371)">
      <path id="Trazado_263677" data-name="Trazado 263677" d="M416.472,291.911l10.745,40.895,69.924-40.495-10.75-40.883Z" transform="translate(-415.786 -251.427)" fill="#d9af6f"/>
      <path id="Trazado_263678" data-name="Trazado 263678" d="M416.863,291.911l69.92-40.484-.688.2-69.917,40.49Z" transform="translate(-416.177 -251.428)" fill="#f7e6bb"/>
      <path id="Trazado_263679" data-name="Trazado 263679" d="M427.608,309.732l-10.745-40.895-.686.2,10.711,40.284Z" transform="translate(-416.177 -228.354)" fill="#efc58b"/>
    </g>
    <g id="Grupo_128074" data-name="Grupo 128074" transform="translate(421.733 5915.342)">
      <path id="Trazado_263680" data-name="Trazado 263680" d="M438.171,286.25l-30.508,33.389L469.4,355.288l30.494-33.405Z" transform="translate(-407.663 -286.25)" fill="#f7e6bb"/>
      <path id="Trazado_263681" data-name="Trazado 263681" d="M434.213,334.98l30.494-33.406v.967L434.74,335.323Z" transform="translate(-372.477 -265.941)" fill="#c79d5c"/>
    </g>
    <g id="Grupo_128100" data-name="Grupo 128100" transform="translate(469.894 5749.343)">
      <g id="Grupo_128075" data-name="Grupo 128075" transform="translate(7.58 110.181)">
        <path id="Trazado_263682" data-name="Trazado 263682" d="M458.035,283.7h-7.748l-3.061,3.406,3.061,5.252h7.748l2.484-5Z" transform="translate(-410.971 -233.816)" fill="#ab281f"/>
        <path id="Trazado_263683" data-name="Trazado 263683" d="M491.194,273.934l-39.319,22.7v8.658l39.319-22.7Z" transform="translate(-404.811 -246.755)" fill="#8a1c14"/>
        <path id="Trazado_263684" data-name="Trazado 263684" d="M470.951,296.635l-39.316-22.7v8.661l39.316,22.7Z" transform="translate(-431.635 -246.755)" fill="#c84030"/>
        <path id="Trazado_263685" data-name="Trazado 263685" d="M518.018,289.424l.007-4.473L478.7,262.245h-7.748l-39.316,22.706v4.473l39.316,22.706,7.748,0Z" transform="translate(-431.635 -262.245)" fill="#fa5c52"/>
      </g>
      <g id="Grupo_128076" data-name="Grupo 128076" transform="translate(5.777 126.492)">
        <path id="Trazado_263686" data-name="Trazado 263686" d="M519.045,269.26V275.2H432.662V269.26l-1.8,1.036v5.334l40.375,23.305h9.237l40.375-23.305V270.3Z" transform="translate(-430.859 -269.26)" fill="#574943"/>
        <path id="Trazado_263687" data-name="Trazado 263687" d="M458.4,286.99h-9.237l-1.649-2.814,1.649-2.155H458.4l1.249,2.486Z" transform="translate(-408.788 -252.347)" fill="#211a1a"/>
        <path id="Trazado_263688" data-name="Trazado 263688" d="M492.57,276.974l-40.375,23.3V295.3L492.57,272Z" transform="translate(-402.583 -265.63)" fill="#0a0808"/>
        <path id="Trazado_263689" data-name="Trazado 263689" d="M471.234,300.273l-40.375-23.3V272L471.234,295.3Z" transform="translate(-430.859 -265.63)" fill="#362c29"/>
      </g>
      <g id="Grupo_128077" data-name="Grupo 128077" transform="translate(7.58 96.593)">
        <rect id="Rectángulo_44088" data-name="Rectángulo 44088" width="7.748" height="8.656" transform="translate(39.316 49.882)" fill="#ab281f"/>
        <path id="Trazado_263690" data-name="Trazado 263690" d="M491.194,268.09l-39.319,22.7v8.656l39.319-22.7Z" transform="translate(-404.811 -240.911)" fill="#8a1c14"/>
        <path id="Trazado_263691" data-name="Trazado 263691" d="M470.951,290.793l-39.316-22.7v8.659l39.316,22.7Z" transform="translate(-431.635 -240.911)" fill="#c84030"/>
        <path id="Trazado_263692" data-name="Trazado 263692" d="M518.018,283.58l.007-4.469L478.7,256.4h-7.748l-39.316,22.71v4.469l39.316,22.706,7.748,0Z" transform="translate(-431.635 -256.401)" fill="#fa5c52"/>
      </g>
      <g id="Grupo_128093" data-name="Grupo 128093" transform="translate(32.002 48.414)">
        <g id="Grupo_128092" data-name="Grupo 128092">
          <path id="Trazado_263694" data-name="Trazado 263694" d="M442.382,271.094v-5.225l48.752-26.584,50.184,29.461-44.364,27.074H481.044Z" transform="translate(-441.814 -230.907)" fill="#d9af6f"/>
          <path id="Trazado_263695" data-name="Trazado 263695" d="M517.618,277.149l-54.06-31.212-1.328-3.879,1.328-5.922,10.411,5.532,23.255,13.3,20.394,12.392Z" transform="translate(-415.51 -235.079)" fill="#efc58b"/>
          <path id="Trazado_263696" data-name="Trazado 263696" d="M516.861,267.712,462.8,236.5v-.363l54.06,31.228Z" transform="translate(-414.753 -235.079)" fill="#d9af6f"/>
          <path id="Trazado_263697" data-name="Trazado 263697" d="M489.862,245.938l-46.733,26.981-.747-9.96,47.48-26.823Z" transform="translate(-441.814 -235.079)" fill="#c79d5c"/>
          <g id="Grupo_128078" data-name="Grupo 128078" transform="translate(12.9 16.458)">
            <path id="Trazado_263698" data-name="Trazado 263698" d="M447.686,254.282l4.841,11.4,13.091,7.076,17.026,2.9,17.172-2.9,12.83-8.029,3.808-10.371v-2.747l-68.769-.075Z" transform="translate(-447.686 -231.134)" fill="#853e2a"/>
            <path id="Trazado_263699" data-name="Trazado 263699" d="M447.686,251.532l4.841,11.406,13.091,7.069,17.026,2.909,17.172-2.909,12.83-8.02,3.808-10.38Z" transform="translate(-447.686 -231.134)" fill="#b57355"/>
            <path id="Trazado_263700" data-name="Trazado 263700" d="M451.591,263.708l-3.906-.55,5.1-10.843,13.466-6.547,16.4-3.009,16.384,3.009,12.667,6.547,4.76,10.918-2.761.475Z" transform="translate(-447.686 -242.76)" fill="#b57355"/>
            <path id="Trazado_263701" data-name="Trazado 263701" d="M511.467,262l-.25.561H449.622l-.257-.561,4.156-8.967,11.372-6.563,15.518-2.416,15.541,2.416,11.356,6.563Z" transform="translate(-445.459 -241.049)" fill="#944e39"/>
            <path id="Trazado_263702" data-name="Trazado 263702" d="M511.07,261.915l-3.908,8.4-11.356,6.554-15.541,2.409-15.518-2.409-11.372-6.554-3.9-8.4,3.9-8.4,11.372-6.56,15.518-2.416,15.541,2.416,11.356,6.56Z" transform="translate(-445.313 -240.406)" fill="#efc58b"/>
          </g>
          <g id="Grupo_128079" data-name="Grupo 128079" transform="translate(37.236 23.577)">
            <path id="Trazado_263703" data-name="Trazado 263703" d="M458.294,248.588l2,1.521,2.543.134,3.007-1.6-.12-.8-3.554-1.676-4.015,1.617Z" transform="translate(-458.151 -245.363)" fill="#944e39"/>
            <path id="Trazado_263704" data-name="Trazado 263704" d="M464.78,246.573l-2.752-.752-2.977.881-.9,1.54,2.014,1.519,2.548.139,3.007-1.6Z" transform="translate(-458.151 -245.821)" fill="#d18067"/>
          </g>
          <g id="Grupo_128080" data-name="Grupo 128080" transform="translate(49.04 24.267)">
            <path id="Trazado_263705" data-name="Trazado 263705" d="M463.357,248.873l2.01,1.526,2.548.134,3-1.594-.125-.8-3.556-1.673-4.008,1.6Z" transform="translate(-463.228 -245.663)" fill="#944e39"/>
            <path id="Trazado_263706" data-name="Trazado 263706" d="M469.847,246.865l-2.736-.747-2.975.863-.908,1.54,2.005,1.537,2.539.127,3.02-1.594Z" transform="translate(-463.228 -246.118)" fill="#d18067"/>
          </g>
          <g id="Grupo_128081" data-name="Grupo 128081" transform="translate(37.236 33.421)">
            <path id="Trazado_263707" data-name="Trazado 263707" d="M458.294,252.812l2,1.531,2.543.127,3.007-1.59-.12-.8-3.554-1.676-4.015,1.614Z" transform="translate(-458.151 -249.597)" fill="#944e39"/>
            <path id="Trazado_263708" data-name="Trazado 263708" d="M464.78,250.815l-2.752-.761-2.977.876-.9,1.542L460.165,254l2.548.141,3.007-1.6Z" transform="translate(-458.151 -250.055)" fill="#d18067"/>
          </g>
          <g id="Grupo_128082" data-name="Grupo 128082" transform="translate(27.619 27.512)">
            <path id="Trazado_263709" data-name="Trazado 263709" d="M454.147,250.267l2,1.526,2.55.138,3-1.6-.12-.8-3.561-1.676-4,1.61Z" transform="translate(-454.016 -247.063)" fill="#944e39"/>
            <path id="Trazado_263710" data-name="Trazado 263710" d="M460.64,248.256l-2.748-.742-2.972.861-.9,1.54,2.014,1.537,2.543.127,3-1.6Z" transform="translate(-454.016 -247.514)" fill="#d18067"/>
          </g>
          <g id="Grupo_128083" data-name="Grupo 128083" transform="translate(22.472 36.059)">
            <path id="Trazado_263711" data-name="Trazado 263711" d="M451.931,253.937l2.021,1.533,2.53.136,3.013-1.6-.143-.811-3.547-1.667-4,1.61Z" transform="translate(-451.802 -250.735)" fill="#944e39"/>
            <path id="Trazado_263712" data-name="Trazado 263712" d="M458.432,251.936l-2.757-.747-2.966.863L451.8,253.6l2.005,1.528,2.541.136,3-1.608Z" transform="translate(-451.802 -251.189)" fill="#d18067"/>
          </g>
          <g id="Grupo_128084" data-name="Grupo 128084" transform="translate(31.466 42.867)">
            <path id="Trazado_263713" data-name="Trazado 263713" d="M455.793,256.881l2.016,1.517,2.537.139,3.013-1.6-.132-.8-3.558-1.676-4,1.612Z" transform="translate(-455.67 -253.663)" fill="#944e39"/>
            <path id="Trazado_263714" data-name="Trazado 263714" d="M462.294,254.864l-2.754-.747-2.966.87-.9,1.54,2,1.53,2.541.134,3.016-1.6Z" transform="translate(-455.67 -254.117)" fill="#d18067"/>
          </g>
          <g id="Grupo_128085" data-name="Grupo 128085" transform="translate(42.67 47.549)">
            <path id="Trazado_263715" data-name="Trazado 263715" d="M460.62,258.886l2,1.521,2.543.139,3.009-1.594-.129-.808-3.554-1.669-4,1.605Z" transform="translate(-460.488 -255.675)" fill="#944e39"/>
            <path id="Trazado_263716" data-name="Trazado 263716" d="M467.11,256.882l-2.754-.752-2.97.874-.9,1.531,2.007,1.524,2.543.15,3.007-1.61Z" transform="translate(-460.488 -256.131)" fill="#d18067"/>
          </g>
          <g id="Grupo_128086" data-name="Grupo 128086" transform="translate(46.31 39.693)">
            <path id="Trazado_263717" data-name="Trazado 263717" d="M462.174,255.508l2.016,1.524,2.543.145,2.993-1.606-.129-.8-3.558-1.671-3.985,1.619Z" transform="translate(-462.054 -252.295)" fill="#944e39"/>
            <path id="Trazado_263718" data-name="Trazado 263718" d="M468.673,253.5l-2.75-.752-2.966.867-.9,1.553,2,1.517,2.536.139,3.007-1.6Z" transform="translate(-462.054 -252.752)" fill="#d18067"/>
          </g>
          <g id="Grupo_128087" data-name="Grupo 128087" transform="translate(57.703 44.709)">
            <path id="Trazado_263719" data-name="Trazado 263719" d="M467.076,257.666l2.014,1.517,2.555.143,3-1.606-.12-.795-3.572-1.671-4,1.612Z" transform="translate(-466.953 -254.451)" fill="#944e39"/>
            <path id="Trazado_263720" data-name="Trazado 263720" d="M473.584,255.654l-2.759-.745-2.957.879-.915,1.537,2.026,1.524,2.523.141,3.02-1.606Z" transform="translate(-466.953 -254.909)" fill="#d18067"/>
          </g>
          <g id="Grupo_128088" data-name="Grupo 128088" transform="translate(66.731 38.441)">
            <path id="Trazado_263721" data-name="Trazado 263721" d="M470.974,254.976l2.005,1.524,2.532.136,3.009-1.6-.127-.8-3.558-1.676-4,1.617Z" transform="translate(-470.836 -251.756)" fill="#944e39"/>
            <path id="Trazado_263722" data-name="Trazado 263722" d="M477.455,252.972l-2.75-.758-2.959.879-.911,1.542,2.007,1.515,2.55.138,3-1.594Z" transform="translate(-470.836 -252.214)" fill="#d18067"/>
          </g>
          <g id="Grupo_128089" data-name="Grupo 128089" transform="translate(54.571 33.021)">
            <path id="Trazado_263723" data-name="Trazado 263723" d="M465.741,252.645l2.01,1.528,2.543.134,3-1.6-.111-.8-3.57-1.676-4,1.619Z" transform="translate(-465.606 -249.427)" fill="#944e39"/>
            <path id="Trazado_263724" data-name="Trazado 263724" d="M472.237,250.637l-2.75-.754-2.97.881-.911,1.537,2.005,1.528,2.548.129,3.02-1.6Z" transform="translate(-465.606 -249.883)" fill="#d18067"/>
          </g>
          <g id="Grupo_128090" data-name="Grupo 128090" transform="translate(59.878 26.71)">
            <path id="Trazado_263725" data-name="Trazado 263725" d="M468.023,249.914l2.012,1.537,2.543.127,2.991-1.6-.116-.8-3.558-1.667-4.005,1.6Z" transform="translate(-467.889 -246.712)" fill="#944e39"/>
            <path id="Trazado_263726" data-name="Trazado 263726" d="M474.515,247.921l-2.75-.752-2.97.863-.906,1.54L469.9,251.1l2.532.134,3.02-1.6Z" transform="translate(-467.889 -247.169)" fill="#d18067"/>
          </g>
          <path id="Trazado_263727" data-name="Trazado 263727" d="M467.814,252.895l-.861.531v.743l.861.536,1.213-.011.863-.525v-.743l-.865-.531Z" transform="translate(-409.25 -212.871)" fill="#d1641b"/>
          <path id="Trazado_263728" data-name="Trazado 263728" d="M472.238,249.84l-.856.538v.731l.87.532,1.206,0,.854-.529v-.731l-.867-.538Z" transform="translate(-403.381 -216.919)" fill="#d1641b"/>
          <path id="Trazado_263729" data-name="Trazado 263729" d="M463.9,249.84l-.851.538v.731l.851.532,1.215,0,.867-.529v-.731l-.867-.538Z" transform="translate(-414.428 -216.919)" fill="#d1641b"/>
          <path id="Trazado_263730" data-name="Trazado 263730" d="M459.769,248.727l-.849.534v.749l.863.525h1.208l.852-.525v-.749l-.852-.534Z" transform="translate(-419.897 -218.394)" fill="#d1641b"/>
          <path id="Trazado_263731" data-name="Trazado 263731" d="M456.915,251.249l-.856.538v.733l.863.536h1.219l.849-.536v-.733l-.863-.538Z" transform="translate(-423.689 -215.051)" fill="#d1641b"/>
          <path id="Trazado_263732" data-name="Trazado 263732" d="M460.639,253.73l-.858.522v.742l.858.538h1.21l.861-.538v-.742l-.861-.522Z" transform="translate(-418.756 -211.764)" fill="#d1641b"/>
          <path id="Trazado_263733" data-name="Trazado 263733" d="M466.076,256.088l-.858.527v.74l.858.531,1.21-.007.868-.525v-.74l-.868-.527Z" transform="translate(-411.55 -208.638)" fill="#d1641b"/>
          <path id="Trazado_263734" data-name="Trazado 263734" d="M458.564,256.717l-.847.527v.749l.847.529h1.229l.854-.529v-.747l-.87-.529Z" transform="translate(-421.491 -207.805)" fill="#d1641b"/>
          <path id="Trazado_263735" data-name="Trazado 263735" d="M453.835,254.866l-.854.522v.745l.854.527h1.222l.854-.527V255.4l-.87-.534Z" transform="translate(-427.767 -210.258)" fill="#d1641b"/>
          <path id="Trazado_263736" data-name="Trazado 263736" d="M452.882,249.221l-.856.522v.749l.858.534,1.217-.011.849-.522v-.749l-.856-.522Z" transform="translate(-429.032 -217.739)" fill="#d1641b"/>
          <path id="Trazado_263737" data-name="Trazado 263737" d="M457.313,246.315l-.863.522v.747l.87.529h1.213l.863-.529v-.747l-.87-.522Z" transform="translate(-423.17 -221.59)" fill="#d1641b"/>
          <path id="Trazado_263738" data-name="Trazado 263738" d="M463,245.436l-.856.525v.749l.863.534h1.21l.863-.534v-.733l-.867-.541Z" transform="translate(-415.63 -222.756)" fill="#d1641b"/>
          <path id="Trazado_263739" data-name="Trazado 263739" d="M468.122,246.213l-.861.516v.745l.865.536,1.21-.011.854-.525v-.745l-.867-.516Z" transform="translate(-408.843 -221.726)" fill="#d1641b"/>
          <path id="Trazado_263740" data-name="Trazado 263740" d="M474.372,251.146l-.861.527v.74l.87.531,1.206,0,.856-.527v-.74l-.856-.527Z" transform="translate(-400.56 -215.189)" fill="#d1641b"/>
          <path id="Trazado_263741" data-name="Trazado 263741" d="M546.094,267.966l-55.909-32.284-48.047,27.729v9.162L482.193,295.7h15.872l48.029-27.734Z" transform="translate(-442.137 -235.682)" fill="#fbe979"/>
          <g id="Grupo_128091" data-name="Grupo 128091" transform="translate(23.498 11.547)">
            <path id="Trazado_263742" data-name="Trazado 263742" d="M469.287,248.805l-3.867-.019-5-2.888-6.327,3.653-1.849-1.067,13.568-7.836,6.85,3.958.019,2.244Zm-1.074-1.514,1.8-1.037.04-1.021-4.241-2.451-3.544,2.049,4.292,2.481Z" transform="translate(-452.243 -240.648)" fill="#c84030"/>
            <path id="Trazado_263743" data-name="Trazado 263743" d="M458.57,252.138l-1.849-1.07,13.568-7.834,1.849,1.067Z" transform="translate(-446.308 -237.221)" fill="#c84030"/>
            <path id="Trazado_263744" data-name="Trazado 263744" d="M466.958,256.979l-8.362-4.83,1.846-1.084,16.089-2.1-6.216-3.588,1.849-1.067,8.362,4.83-1.849,1.067-16.112,2.1,6.241,3.6Z" transform="translate(-443.823 -235.787)" fill="#c84030"/>
            <path id="Trazado_263745" data-name="Trazado 263745" d="M471.511,259.606l-8.364-4.827,1.846-1.086,16.089-2.093-6.215-3.588,1.849-1.067,8.364,4.83-1.849,1.065-16.114,2.1,6.243,3.6Z" transform="translate(-437.792 -232.303)" fill="#c84030"/>
            <path id="Trazado_263746" data-name="Trazado 263746" d="M479.513,262.608l-1.946-1.123,2.421-2.99-5.151-2.974-5.178,1.4-1.967-1.135,18.488-5,1.984,1.146Zm1.635-5.576,3.321-4.1-7.094,1.916Z" transform="translate(-431.77 -227.208)" fill="#c84030"/>
          </g>
          <path id="Trazado_263747" data-name="Trazado 263747" d="M496.841,274.872l-48.089-27.765,3.972-2.291,48.089,27.763Z" transform="translate(-433.371 -223.578)" fill="#c84030"/>
          <path id="Trazado_263748" data-name="Trazado 263748" d="M515.8,259.351l-48.038,27.735L465,281.669l2.757-4.369,48.027-27.733Z" transform="translate(-411.832 -217.281)" fill="#cc934c"/>
          <path id="Trazado_263749" data-name="Trazado 263749" d="M476.281,271.28H460.409l-1.833-5.893,1.833-3.894h15.873Z" transform="translate(-420.352 -201.475)" fill="#d6a950"/>
          <path id="Trazado_263750" data-name="Trazado 263750" d="M482.194,284.462l-40.057-23.121v-9.794l40.057,23.128Z" transform="translate(-442.138 -214.656)" fill="#e3bd5e"/>
        </g>
      </g>
      <path id="Trazado_263751" data-name="Trazado 263751" d="M453.922,230.635l-1.86,3.238v3.045l56.486,32.622,5.668-2.7-5.638-6.7-46.326-29Z" transform="translate(-396.982 -193.957)" fill="#a483a0"/>
      <path id="Trazado_263753" data-name="Trazado 263753" d="M478.23,262.036l-1.869,3.234-.007,3.054,1.878,1.072,52.809-30.485,1.864-3.236v-3.05l-1.864-1.072Z" transform="translate(-364.789 -192.74)" fill="#73556f"/>
      <path id="Trazado_263754" data-name="Trazado 263754" d="M478.064,261.817l-.411.709v.668l.411.232,49.549-28.6.409-.711v-.665l-.409-.238Z" transform="translate(-363.067 -190.544)" opacity="0.3"/>
      <path id="Trazado_263755" data-name="Trazado 263755" d="M543.507,239.364l-20.051-11.576-17.783-10.262-52.812,30.483,56.5,32.617,52.812-30.483Z" transform="translate(-395.922 -211.331)" fill="#d6b2d2"/>
      <g id="Grupo_128094" data-name="Grupo 128094" transform="translate(0 69.534)">
        <path id="Trazado_263758" data-name="Trazado 263758" d="M444.367,255.2l-4.174-1.5-10.6-6.869,4.619-2.053,13.691,7.912Z" transform="translate(-426.764 -244.741)" fill="#dde65c"/>
        <path id="Trazado_263759" data-name="Trazado 263759" d="M443.382,252.648l-3.854,2.936-3.583-5.352,3.533-2.051Z" transform="translate(-418.342 -240.236)" fill="#dde65c"/>
        <path id="Trazado_263760" data-name="Trazado 263760" d="M442.274,268.746l-3.543,2.048-1.95-13.057,1.95-5.593,3.543-2.042Z" transform="translate(-417.234 -237.69)" fill="#92a145"/>
        <path id="Trazado_263761" data-name="Trazado 263761" d="M435.821,244.806l-3.551,2.048-2.55.777-1.344-.822,3.538-2.044Z" transform="translate(-428.375 -244.765)" fill="#dde65c"/>
        <path id="Trazado_263762" data-name="Trazado 263762" d="M445.978,253.6l-13.709-7.907-3.894-.045V264.3l10.752,16.813,10.745-4.41v-18.65Z" transform="translate(-428.375 -243.6)" fill="#b4c342"/>
      </g>
      <g id="Grupo_128095" data-name="Grupo 128095" transform="translate(1.118 73.299)">
        <path id="Trazado_263763" data-name="Trazado 263763" d="M446.542,257.338v15.5l-8.052,3.3-8.057-12.6v-15.5l16.11,9.294Zm.953-.553-18.019-10.4-.621.356.6,2.128-.281,14.675L438.49,277.6l7.7-3.169.681-.174.623-.358V256.785Z" transform="translate(-428.856 -246.384)" fill="#d1d1d1"/>
        <path id="Trazado_263764" data-name="Trazado 263764" d="M443.436,257.029v-1.015l-.629-1.083-.874-.506-6.054,3.483-3.774-6.542-.879-.509-1.262.736.179,1.394,5.289,7.639.9.511Z" transform="translate(-427.388 -240.455)" fill="#d1d1d1"/>
        <path id="Trazado_263765" data-name="Trazado 263765" d="M445.919,257.5v15.489l-8.055,3.313-8.046-12.608V248.2l16.1,9.3Zm.953-.539-18.016-10.42v17.109l9.008,14.1,9.008-3.695v-17.1Z" transform="translate(-428.856 -246.181)" fill="#fff"/>
        <path id="Trazado_263766" data-name="Trazado 263766" d="M442.528,257.35v-1.022l-.62-1.083-.883-.506-6.052,3.493-3.772-6.542-.883-.516-.622.361v1.024l4.848,8.388.876.511Z" transform="translate(-427.742 -240.036)" fill="#fff"/>
      </g>
      <g id="Grupo_128096" data-name="Grupo 128096" transform="translate(17.167 35.631)">
        <path id="Trazado_263767" data-name="Trazado 263767" d="M451.744,240.626l-4.169-1.508-10.6-6.867L441.6,230.2l13.691,7.909Z" transform="translate(-434.15 -230.16)" fill="#dde65c"/>
        <path id="Trazado_263768" data-name="Trazado 263768" d="M450.766,238.066,446.912,241l-3.588-5.343,3.543-2.05Z" transform="translate(-425.73 -225.656)" fill="#dde65c"/>
        <path id="Trazado_263769" data-name="Trazado 263769" d="M449.654,254.171l-3.538,2.044-1.953-13.053,1.953-5.593,3.538-2.048Z" transform="translate(-424.618 -223.112)" fill="#92a145"/>
        <path id="Trazado_263770" data-name="Trazado 263770" d="M443.2,230.228l-3.549,2.044-2.555.777-1.342-.815,3.536-2.048Z" transform="translate(-435.758 -230.185)" fill="#dde65c"/>
        <path id="Trazado_263771" data-name="Trazado 263771" d="M453.352,239.013l-13.7-7.909-3.9-.039v18.648l10.748,16.817,10.75-4.41V243.475Z" transform="translate(-435.758 -229.017)" fill="#b4c342"/>
      </g>
      <g id="Grupo_128097" data-name="Grupo 128097" transform="translate(18.281 39.397)">
        <path id="Trazado_263772" data-name="Trazado 263772" d="M453.923,242.761v15.491l-8.052,3.309-8.052-12.6v-15.5l16.1,9.3Zm.953-.556L436.86,231.8l-.623.356.6,2.125-.274,14.677,9.313,14.054,7.708-3.162.677-.181.621-.351V242.2Z" transform="translate(-436.237 -231.804)" fill="#d1d1d1"/>
        <path id="Trazado_263773" data-name="Trazado 263773" d="M450.813,242.447v-1.015l-.627-1.088-.872-.5-6.061,3.486-3.767-6.54-.879-.513-1.26.734.177,1.4,5.289,7.639.89.506Z" transform="translate(-434.765 -225.876)" fill="#d1d1d1"/>
        <path id="Trazado_263774" data-name="Trazado 263774" d="M453.3,242.921v15.486l-8.062,3.311L437.2,249.113V233.62l16.107,9.3Zm.951-.544-18.019-10.42v17.109l9.006,14.1,9.013-3.7V242.377Z" transform="translate(-436.237 -231.601)" fill="#fff"/>
        <path id="Trazado_263775" data-name="Trazado 263775" d="M449.916,242.769v-1.02l-.629-1.081-.881-.509-6.052,3.486-3.767-6.533-.881-.52-.629.363v1.026l4.848,8.384.881.506Z" transform="translate(-435.124 -225.457)" fill="#fff"/>
      </g>
      <g id="Grupo_128098" data-name="Grupo 128098" transform="translate(32.456)">
        <path id="Trazado_263776" data-name="Trazado 263776" d="M458.321,225.3l-4.169-1.5-10.6-6.869,4.626-2.05,13.686,7.9Z" transform="translate(-440.724 -214.838)" fill="#dde65c"/>
        <path id="Trazado_263777" data-name="Trazado 263777" d="M457.344,222.745l-3.858,2.927-3.586-5.343,3.538-2.053Z" transform="translate(-432.304 -210.335)" fill="#dde65c"/>
        <path id="Trazado_263778" data-name="Trazado 263778" d="M456.236,238.844l-3.54,2.048-1.96-13.055,1.96-5.6,3.54-2.042Z" transform="translate(-431.196 -207.788)" fill="#92a145"/>
        <path id="Trazado_263779" data-name="Trazado 263779" d="M449.781,214.9l-3.556,2.041-2.552.781-1.34-.82,3.536-2.044Z" transform="translate(-442.333 -214.861)" fill="#dde65c"/>
        <path id="Trazado_263780" data-name="Trazado 263780" d="M459.929,223.69l-13.7-7.912-3.892-.039v18.652l10.745,16.813,10.754-4.405V228.148Z" transform="translate(-442.333 -213.697)" fill="#b4c342"/>
      </g>
      <g id="Grupo_128099" data-name="Grupo 128099" transform="translate(33.575 3.764)">
        <path id="Trazado_263781" data-name="Trazado 263781" d="M460.493,227.434v15.491l-8.052,3.311-8.048-12.605v-15.5l16.1,9.3Zm.958-.551-18.019-10.4-.619.36.593,2.118-.274,14.673,9.308,14.059,7.708-3.165.681-.17.621-.36V226.883Z" transform="translate(-442.814 -216.48)" fill="#d1d1d1"/>
        <path id="Trazado_263782" data-name="Trazado 263782" d="M457.392,227.124v-1.015l-.622-1.088-.883-.5-6.047,3.486-3.776-6.542-.883-.511-1.258.736.182,1.392,5.289,7.641.89.506Z" transform="translate(-441.346 -210.551)" fill="#d1d1d1"/>
        <path id="Trazado_263783" data-name="Trazado 263783" d="M459.875,227.592V243.08l-8.057,3.314-8.043-12.605v-15.5l16.1,9.3Zm.956-.549-18.016-10.408v17.107l9,14.1,9.013-3.693V227.043Z" transform="translate(-442.814 -216.275)" fill="#fff"/>
        <path id="Trazado_263784" data-name="Trazado 263784" d="M456.485,227.445v-1.022l-.62-1.088-.881-.5-6.054,3.488-3.77-6.535-.881-.516-.627.361v1.02l4.851,8.386.874.511Z" transform="translate(-441.703 -210.131)" fill="#fff"/>
      </g>
    </g>
    <g id="Grupo_128101" data-name="Grupo 128101" transform="translate(421.733 5845.797)">
      <path id="Trazado_263785" data-name="Trazado 263785" d="M466.07,285.283l-9.1-10.412-.009,0-31.934-18.432-9.113-.1-8.25,4.764,49.412,31.017Z" transform="translate(-407.663 -256.342)" fill="#dde65c"/>
      <path id="Trazado_263786" data-name="Trazado 263786" d="M440.091,312.276l-8.268,4.78-4.558-30.449,4.558-13.05,8.268-4.769Z" transform="translate(-381.684 -239.847)" fill="#92a145"/>
      <path id="Trazado_263787" data-name="Trazado 263787" d="M448.7,276.938l-31.957-18.452-9.083-.1V301.9l25.069,39.232,25.07-10.294v-43.5Z" transform="translate(-407.663 -253.627)" fill="#b4c342"/>
    </g>
    <g id="Grupo_128102" data-name="Grupo 128102" transform="translate(424.335 5854.58)">
      <path id="Trazado_263788" data-name="Trazado 263788" d="M450.033,285.683v36.133l-18.784,7.706-18.784-29.394V263.984l37.567,21.7Zm2.225-1.3-42.032-24.264-1.444.835,1.4,4.944-.656,34.231,21.727,32.793,17.977-7.38,1.586-.416,1.446-.837v-39.9Z" transform="translate(-408.782 -260.119)" fill="#d1d1d1"/>
      <path id="Trazado_263789" data-name="Trazado 263789" d="M442.792,284.944v-2.38l-1.46-2.514-2.053-1.185L425.171,287l-8.8-15.253-2.055-1.2-2.945,1.717.422,3.25,12.335,17.823,2.082,1.183Z" transform="translate(-405.356 -246.29)" fill="#d1d1d1"/>
      <path id="Trazado_263790" data-name="Trazado 263790" d="M448.586,286.042v36.133l-18.8,7.718-18.772-29.4V264.345l37.57,21.7Zm2.225-1.279-42.029-24.285v39.911l21.007,32.893,21.023-8.634V284.763Z" transform="translate(-408.782 -259.643)" fill="#fff"/>
      <path id="Trazado_263791" data-name="Trazado 263791" d="M440.678,285.686V283.32l-1.453-2.539-2.055-1.187-14.113,8.148-8.8-15.248-2.064-1.2-1.453.845v2.382l11.3,19.567,2.057,1.183Z" transform="translate(-406.184 -245.312)" fill="#fff"/>
    </g>
  </g>
</svg>
