<svg xmlns="http://www.w3.org/2000/svg" width="52" height="52" viewBox="0 0 52 52">
  <g id="Grupo_128325" data-name="Grupo 128325" transform="translate(-184 -769)">
    <path id="Trazado_265081" data-name="Trazado 265081" d="M26,0A26,26,0,1,1,0,26,26,26,0,0,1,26,0Z" transform="translate(184 769)" fill="#fece16"/>
    <path id="Trazado_265082" data-name="Trazado 265082" d="M18.413,24.046A10.977,10.977,0,0,1,17.6,28.4a6.625,6.625,0,0,1-2.307,2.93,5.81,5.81,0,0,1-3.384,1.033,5.341,5.341,0,0,1-2.483-.535,4.472,4.472,0,0,1-1.633-1.384H7.734V32H1.494V9.793h6.24v9.243h.059a5.138,5.138,0,0,1,1.985-1.758,5.944,5.944,0,0,1,2.761-.645,5.261,5.261,0,0,1,4.358,1.89A8.665,8.665,0,0,1,18.413,24.046Zm-6.328.19a3.723,3.723,0,0,0-.579-2.271A1.962,1.962,0,0,0,9.844,21.2a1.957,1.957,0,0,0-1.589.8,3.222,3.222,0,0,0-.637,2.073v.908a3.34,3.34,0,0,0,.571,2.051,1.824,1.824,0,0,0,1.538.762,1.971,1.971,0,0,0,1.743-.93A4.749,4.749,0,0,0,12.085,24.236Z" transform="translate(202 776.35)" fill="#12263f"/>
  </g>
</svg>
