<?xml version="1.0" encoding="utf-8"?>
<!-- Generator: Adobe Illustrator 25.4.2, SVG Export Plug-In . SVG Version: 6.00 Build 0)  -->
<svg version="1.1" id="Capa_1" xmlns="http://www.w3.org/2000/svg" xmlns:xlink="http://www.w3.org/1999/xlink" x="0px" y="0px"
	 viewBox="0 0 52 52" style="enable-background:new 0 0 52 52;" xml:space="preserve">
<style type="text/css">
	.st0{fill:#FECE16;}
	.st1{fill:#12263F;}
</style>
<path id="Trazado_265081" class="st0" d="M26,0c14.4,0,26,11.6,26,26S40.4,52,26,52S0,40.4,0,26S11.6,0,26,0z"/>
<path id="Trazado_265082" class="st1" d="M36.4,29c0,1.5-0.2,3-0.8,4.4c-0.5,1.2-1.3,2.2-2.3,2.9c-1,0.7-2.2,1-3.4,1
	c-0.9,0-1.7-0.2-2.5-0.5c-0.6-0.3-1.2-0.8-1.6-1.4h-0.1v1.6h-6.2V14.7h6.2V24h0.1c0.5-0.7,1.2-1.4,2-1.8c0.9-0.4,1.8-0.7,2.8-0.6
	c1.7-0.1,3.3,0.6,4.4,1.9C36,25.1,36.5,27,36.4,29z M30.1,29.2c0.1-0.8-0.1-1.6-0.6-2.3c-0.4-0.5-1-0.8-1.7-0.8
	c-0.6,0-1.2,0.3-1.6,0.8c-0.4,0.6-0.7,1.3-0.6,2.1v0.9c0,0.7,0.2,1.4,0.6,2.1c0.4,0.5,0.9,0.8,1.5,0.8c0.7,0,1.4-0.3,1.7-0.9
	C29.9,31,30.1,30.1,30.1,29.2z"/>
</svg>
