<svg xmlns="http://www.w3.org/2000/svg" width="315" height="129.486" viewBox="0 0 315 129.486">
  <g id="Grupo_128337" data-name="Grupo 128337" transform="translate(-915 -6988)">
    <rect id="Rectángulo_44154" data-name="Rectángulo 44154" width="25.958" height="8.183" transform="translate(1033.626 7114.785) rotate(180)" fill="#f0af90"/>
    <rect id="Rectángulo_44155" data-name="Rectángulo 44155" width="25.958" height="8.183" transform="translate(1043.87 7114.785) rotate(180)" fill="#ffd1ba"/>
    <rect id="Rectángulo_44156" data-name="Rectángulo 44156" width="2.525" height="5.199" transform="translate(1034.22 7111.801) rotate(180)" fill="#ffede3"/>
    <rect id="Rectángulo_44157" data-name="Rectángulo 44157" width="3.509" height="3.936" transform="translate(1017.007 7111.801) rotate(180)" fill="#a0a2b8"/>
    <path id="Trazado_264923" data-name="Trazado 264923" d="M993.319,1907.5l-14.589-2.449h14.589Z" transform="translate(50.551 5201.587)" fill="#e06238" opacity="0.4" style="mix-blend-mode: multiply;isolation: isolate"/>
    <path id="Trazado_264924" data-name="Trazado 264924" d="M985.914,1904.137H969.8a.22.22,0,1,1,0-.44h16.111a.22.22,0,1,1,0,.44Z" transform="translate(57.955 5202.685)" fill="#403a45"/>
    <path id="Trazado_264925" data-name="Trazado 264925" d="M864.347,1909.336a.22.22,0,0,1-.22-.22v-5.2a.22.22,0,1,1,.44,0v5.2A.22.22,0,0,1,864.347,1909.336Z" transform="translate(143.321 5202.685)" fill="#403a45"/>
    <path id="Trazado_264926" data-name="Trazado 264926" d="M1668.91,1341.6l2.668,1.383a2.772,2.772,0,0,1,1.489,2.66q-.428,5.937-.855,11.874a2.772,2.772,0,0,1-1.838,2.413l-2.474.878Z" transform="translate(-507.324 5657.696)" fill="#d93054"/>
    <path id="Trazado_264927" data-name="Trazado 264927" d="M1668.814,1365.867h-5.382a.744.744,0,0,1,0-1.488h5.382a.744.744,0,0,1,0,1.488Z" transform="translate(-503.106 5639.257)" fill="#403a45"/>
    <path id="Trazado_264928" data-name="Trazado 264928" d="M1667.8,1390.026l-.058,0-5.62-.432a.744.744,0,1,1,.114-1.484l5.62.432a.744.744,0,0,1-.056,1.486Z" transform="translate(-502.094 5620.051)" fill="#403a45"/>
    <path id="Trazado_264929" data-name="Trazado 264929" d="M1667.054,1418.322h-5.081a.744.744,0,0,1,0-1.488h5.081a.744.744,0,0,1,0,1.488Z" transform="translate(-501.925 5596.795)" fill="#403a45"/>
    <path id="Trazado_264930" data-name="Trazado 264930" d="M1661.858,1339.154q-.383,8.191-.766,16.382a2.486,2.486,0,0,1-2.484,2.37h-.692q.537-10.706,1.075-21.412l.658.073A2.487,2.487,0,0,1,1661.858,1339.154Z" transform="translate(-499.243 5661.831)" fill="#403a45"/>
    <path id="Trazado_264931" data-name="Trazado 264931" d="M646.856,1432.989h-24.1V1428.6a1.6,1.6,0,0,1,1.636-1.6l19.193.4a3.336,3.336,0,0,1,3.267,3.335Z" transform="translate(338.705 5588.566)" fill="#403a45"/>
    <path id="Trazado_264932" data-name="Trazado 264932" d="M1262.491,1871.326h-46.053a2.9,2.9,0,0,1-2.9-2.9h0a2.9,2.9,0,0,1,2.9-2.9h46.053a2.9,2.9,0,0,1,2.9,2.9h0A2.9,2.9,0,0,1,1262.491,1871.326Z" transform="translate(-139.528 5233.577)" fill="#2b262e"/>
    <path id="Trazado_264933" data-name="Trazado 264933" d="M608.879,1871.326H562.827a2.9,2.9,0,0,1-2.9-2.9h0a2.9,2.9,0,0,1,2.9-2.9h46.053a2.9,2.9,0,0,1,2.9,2.9h0A2.9,2.9,0,0,1,608.879,1871.326Z" transform="translate(389.564 5233.577)" fill="#2b262e"/>
    <path id="Trazado_264934" data-name="Trazado 264934" d="M394.044,1395.4H632.132l5.952-113.092H474.027l2.232,30.505H429.08a3.4,3.4,0,0,0-3.152,2.134h0a3.4,3.4,0,0,0,2.177,4.513l.165.049-11.16,36.829-20.482,6.607a3.727,3.727,0,0,0-2.583,3.547Z" transform="translate(523.848 5705.696)" fill="#54feb5"/>
    <rect id="Rectángulo_44158" data-name="Rectángulo 44158" width="21.143" height="5.026" rx="2.513" transform="translate(967.89 7058.277)" fill="#278c77"/>
    <path id="Trazado_264935" data-name="Trazado 264935" d="M423.087,1758.315H650.709q-.554,11.244-1.107,22.487l-234.108-.747q.768-10.535,1.537-21.069Z" transform="translate(506.484 5320.371)" fill="#30ad93"/>
    <rect id="Rectángulo_44159" data-name="Rectángulo 44159" width="173.963" height="3.96" transform="translate(947.68 7097.132)" fill="#403a45"/>
    <path id="Trazado_264936" data-name="Trazado 264936" d="M641.549,1786.912q.187-4.844.374-9.687a6,6,0,0,0-1.15-3.771l-3.667-5.026a6.005,6.005,0,0,0-4.851-2.465H620.874a6.006,6.006,0,0,0-4.328,1.842l-5.832,6.064a6,6,0,0,0-1.671,3.9l-.4,9.142Z" transform="translate(350.131 5314.18)" fill="#2b262e"/>
    <path id="Trazado_264937" data-name="Trazado 264937" d="M1306.807,1786.912q.187-4.844.374-9.687a6,6,0,0,0-1.15-3.771l-3.667-5.026a6.005,6.005,0,0,0-4.851-2.465h-11.382a6.005,6.005,0,0,0-4.328,1.842l-5.832,6.064a6,6,0,0,0-1.671,3.9l-.4,9.142Z" transform="translate(-188.389 5314.18)" fill="#2b262e"/>
    <path id="Rectángulo_44160" data-name="Rectángulo 44160" d="M3.442,0h18.85A10.819,10.819,0,0,1,33.111,10.819v0a3.442,3.442,0,0,1-3.442,3.442H3.442A3.442,3.442,0,0,1,0,10.819V3.442A3.442,3.442,0,0,1,3.442,0Z" transform="translate(915 7090.931)" fill="#727997"/>
    <rect id="Rectángulo_44161" data-name="Rectángulo 44161" width="8.393" height="17.237" transform="translate(917.892 7073.694)" fill="#403a45"/>
    <path id="Rectángulo_44162" data-name="Rectángulo 44162" d="M0,0H0A7.937,7.937,0,0,1,7.937,7.937v2.232a0,0,0,0,1,0,0H0a0,0,0,0,1,0,0V0A0,0,0,0,1,0,0Z" transform="translate(926.285 7073.694)" fill="#403a45"/>
    <path id="Trazado_264938" data-name="Trazado 264938" d="M444.667,1741.508v5.022h-6.573v-7.255h4.34A2.232,2.232,0,0,1,444.667,1741.508Z" transform="translate(488.19 5335.782)" fill="#dbdbdb"/>
    <path id="Trazado_264939" data-name="Trazado 264939" d="M395.283,1745.186h-5.87a.785.785,0,0,1-.785-.786h0a.785.785,0,0,1,.785-.785h5.87a.785.785,0,0,1,.785.785h0A.785.785,0,0,1,395.283,1745.186Z" transform="translate(528.232 5332.27)" fill="#2b262e"/>
    <path id="Trazado_264940" data-name="Trazado 264940" d="M395.283,1763.411h-5.87a.785.785,0,0,1-.785-.786h0a.785.785,0,0,1,.785-.785h5.87a.785.785,0,0,1,.785.785h0A.785.785,0,0,1,395.283,1763.411Z" transform="translate(528.232 5317.516)" fill="#2b262e"/>
    <path id="Trazado_264941" data-name="Trazado 264941" d="M395.283,1781.638h-5.87a.785.785,0,0,1-.785-.785h0a.786.786,0,0,1,.785-.786h5.87a.786.786,0,0,1,.785.786h0A.785.785,0,0,1,395.283,1781.638Z" transform="translate(528.232 5302.762)" fill="#2b262e"/>
    <path id="Trazado_264942" data-name="Trazado 264942" d="M395.283,1799.864h-5.87a.785.785,0,0,1-.785-.785h0a.786.786,0,0,1,.785-.785h5.87a.786.786,0,0,1,.785.785h0A.785.785,0,0,1,395.283,1799.864Z" transform="translate(528.232 5288.009)" fill="#2b262e"/>
    <path id="Trazado_264943" data-name="Trazado 264943" d="M522.629,1739.616h-1.364a1.8,1.8,0,0,1-1.8-1.8h0a1.8,1.8,0,0,1,1.8-1.8h1.364a1.8,1.8,0,0,1,1.8,1.8h0A1.8,1.8,0,0,1,522.629,1739.616Z" transform="translate(422.319 5338.418)" fill="#2b262e"/>
    <path id="Trazado_264944" data-name="Trazado 264944" d="M596.012,1525.415h-26.23a10.607,10.607,0,0,1-7.2-2.806l-4.857-4.466a5.293,5.293,0,0,1-1.562-5.135l8.568-35.508a3.545,3.545,0,0,1,3.456-2.721h27.823a3.559,3.559,0,0,1,3.555,3.555v43.527A3.559,3.559,0,0,1,596.012,1525.415Zm-27.823-49.4a2.309,2.309,0,0,0-2.251,1.772L557.37,1513.3a4.052,4.052,0,0,0,1.2,3.932l4.857,4.466a9.372,9.372,0,0,0,6.359,2.479h26.23a2.317,2.317,0,0,0,2.315-2.315v-43.527a2.317,2.317,0,0,0-2.315-2.315Z" transform="translate(392.732 5549.891)" fill="#403a45"/>
    <path id="Trazado_264945" data-name="Trazado 264945" d="M526.108,1477.315h0a2.559,2.559,0,0,1,2.363,3.218l-7.993,29.907a5.087,5.087,0,0,1-5.365,3.754h0Z" transform="translate(425.844 5547.837)" fill="#374854"/>
    <path id="Trazado_264946" data-name="Trazado 264946" d="M622.364,1493.423v23.748a2.48,2.48,0,0,1-2.48,2.48H590.7a2.481,2.481,0,0,1-2.421-3.028l5.382-23.748a2.478,2.478,0,0,1,2.418-1.932h23.807A2.478,2.478,0,0,1,622.364,1493.423Z" transform="translate(366.669 5536.805)" fill="#374854"/>
    <rect id="Rectángulo_44163" data-name="Rectángulo 44163" width="14.261" height="22.735" rx="7.131" transform="translate(995.4 7025.288)" fill="#374854"/>
    <path id="Trazado_264947" data-name="Trazado 264947" d="M808.95,1498.35h-8.185a3.787,3.787,0,0,1-3.782-3.782v-16.659a3.787,3.787,0,0,1,3.782-3.783h8.185a3.787,3.787,0,0,1,3.782,3.783v16.659A3.787,3.787,0,0,1,808.95,1498.35Zm-8.185-22.735a2.3,2.3,0,0,0-2.294,2.294v16.659a2.3,2.3,0,0,0,2.294,2.294h8.185a2.3,2.3,0,0,0,2.294-2.294v-16.659a2.3,2.3,0,0,0-2.294-2.294Z" transform="translate(197.673 5550.418)" fill="#2b262e"/>
    <path id="Trazado_264948" data-name="Trazado 264948" d="M818.077,1339.693h12.08a3.536,3.536,0,0,0,3.047-1.742l.341-.58A52.251,52.251,0,0,0,840,1319.764l.019-.112a3.536,3.536,0,0,0-3.484-4.137H816.308Z" transform="translate(182.03 5678.813)" fill="#727997"/>
    <path id="Trazado_264949" data-name="Trazado 264949" d="M798.58,1288.631H784.443l-.768-3.92a2.019,2.019,0,0,1,1.982-2.407H798.58Z" transform="translate(208.477 5705.696)" fill="#30ad93"/>
    <path id="Trazado_264950" data-name="Trazado 264950" d="M1625.875,1288.631h14.137l.768-3.92a2.019,2.019,0,0,0-1.982-2.407h-12.924Z" transform="translate(-473.307 5705.696)" fill="#30ad93"/>
    <path id="Trazado_264951" data-name="Trazado 264951" d="M828.139,1341.584h-22.57a.992.992,0,0,1-.992-.992h0a.992.992,0,0,1,.992-.992h22.57a.992.992,0,0,1,.992.992h0A.992.992,0,0,1,828.139,1341.584Z" transform="translate(191.526 5659.316)" fill="#2b262e"/>
    <path id="Trazado_264952" data-name="Trazado 264952" d="M828.573,1379.989h-19.1a.992.992,0,0,1-.992-.992h0a.992.992,0,0,1,.992-.992h19.1a.992.992,0,0,1,.992.992h0A.992.992,0,0,1,828.573,1379.989Z" transform="translate(188.364 5628.228)" fill="#2b262e"/>
    <path id="Trazado_264953" data-name="Trazado 264953" d="M829.563,1418.394H814.682a.992.992,0,0,1-.992-.992h0a.992.992,0,0,1,.992-.992h14.881a.992.992,0,0,1,.992.992h0A.992.992,0,0,1,829.563,1418.394Z" transform="translate(184.149 5597.139)" fill="#2b262e"/>
    <path id="Trazado_264954" data-name="Trazado 264954" d="M1505.45,1866.385h-38.435a3.472,3.472,0,0,1-3.472-3.472v-7.771h37.348a5.966,5.966,0,0,1,5.851,4.8l.778,3.918A2.111,2.111,0,0,1,1505.45,1866.385Z" transform="translate(-341.9 5241.99)" fill="#403a45"/>
    <path id="Trazado_264955" data-name="Trazado 264955" d="M805.224,1744.514h-21.57a.992.992,0,0,1-.992-.992h0a.992.992,0,0,1,.992-.992h21.57a.992.992,0,0,1,.992.992h0A.992.992,0,0,1,805.224,1744.514Z" transform="translate(209.266 5333.148)" fill="#2b262e"/>
    <rect id="Rectángulo_44164" data-name="Rectángulo 44164" width="1.488" height="28.067" transform="translate(996.392 7077.662)" fill="#2b262e"/>
    <rect id="Rectángulo_44165" data-name="Rectángulo 44165" width="1.488" height="28.067" transform="translate(1009.785 7077.662)" fill="#2b262e"/>
    <rect id="Rectángulo_44166" data-name="Rectángulo 44166" width="13.393" height="1.488" transform="translate(997.136 7080.184)" fill="#2b262e"/>
    <rect id="Rectángulo_44167" data-name="Rectángulo 44167" width="13.393" height="1.488" transform="translate(997.136 7087.128)" fill="#2b262e"/>
    <rect id="Rectángulo_44168" data-name="Rectángulo 44168" width="13.393" height="1.488" transform="translate(997.136 7094.073)" fill="#2b262e"/>
    <rect id="Rectángulo_44169" data-name="Rectángulo 44169" width="13.393" height="1.488" transform="translate(997.136 7101.018)" fill="#2b262e"/>
    <path id="Trazado_264956" data-name="Trazado 264956" d="M873.586,1288.631H978.047a15.067,15.067,0,0,1,15.067,15.067v2.267a13.49,13.49,0,0,0,13.49,13.49h8.385l1.962-37.152H862.077v6.327Z" transform="translate(144.98 5705.696)" fill="#30ad93"/>
    <ellipse id="Elipse_6279" data-name="Elipse 6279" cx="16.349" cy="13.95" rx="16.349" ry="13.95" transform="translate(958.757 7111.976) rotate(-79.266)" fill="#403a45"/>
    <path id="Trazado_264957" data-name="Trazado 264957" d="M660.513,1831.282a7.306,7.306,0,0,1-1.356-.128c-4.5-.853-7.363-5.785-6.375-10.992.881-4.65,4.5-8.024,8.6-8.024a7.309,7.309,0,0,1,1.356.127,7.738,7.738,0,0,1,5.281,3.911,10.375,10.375,0,0,1,1.094,7.082C668.232,1827.907,664.615,1831.282,660.513,1831.282Zm.868-17.656c-3.333,0-6.4,2.929-7.138,6.813-.834,4.4,1.494,8.552,5.19,9.253a5.806,5.806,0,0,0,1.079.1c3.333,0,6.4-2.929,7.138-6.813a8.891,8.891,0,0,0-.925-6.067,6.276,6.276,0,0,0-4.266-3.187A5.819,5.819,0,0,0,661.381,1813.626Z" transform="translate(314.561 5276.801)" fill="#2b262e"/>
    <path id="Trazado_264958" data-name="Trazado 264958" d="M677.032,1833.618c-.02.166-.047.335-.079.5-.714,3.767-3.9,6.327-7.113,5.72-2.721-.519-4.593-3.143-4.668-6.223a8.18,8.18,0,0,1,.141-1.7c.714-3.767,3.9-6.327,7.113-5.717C675.5,1826.778,677.483,1830.042,677.032,1833.618Z" transform="translate(304.375 5265.493)" fill="#dbdbdb"/>
    <path id="Trazado_264959" data-name="Trazado 264959" d="M682.123,1757.732l-4.635-5.976a6.258,6.258,0,0,0-4.977-2.438H656.487v-2.232H672.51a8.475,8.475,0,0,1,6.741,3.3l4.635,5.976Z" transform="translate(311.403 5329.46)" fill="#278c77"/>
    <ellipse id="Elipse_6280" data-name="Elipse 6280" cx="16.349" cy="13.95" rx="16.349" ry="13.95" transform="translate(1085.495 7111.976) rotate(-79.266)" fill="#403a45"/>
    <path id="Trazado_264960" data-name="Trazado 264960" d="M1325.771,1831.282a7.306,7.306,0,0,1-1.356-.128c-4.5-.853-7.362-5.785-6.375-10.992.881-4.65,4.5-8.024,8.6-8.024a7.306,7.306,0,0,1,1.356.127,7.738,7.738,0,0,1,5.281,3.911,10.375,10.375,0,0,1,1.094,7.082C1333.49,1827.907,1329.873,1831.282,1325.771,1831.282Zm.869-17.656c-3.333,0-6.4,2.929-7.138,6.813-.834,4.4,1.494,8.552,5.191,9.253a5.807,5.807,0,0,0,1.079.1c3.333,0,6.4-2.929,7.138-6.813a8.889,8.889,0,0,0-.925-6.067,6.276,6.276,0,0,0-4.266-3.187A5.822,5.822,0,0,0,1326.64,1813.626Z" transform="translate(-223.959 5276.801)" fill="#2b262e"/>
    <path id="Trazado_264961" data-name="Trazado 264961" d="M1342.29,1833.618c-.02.166-.047.335-.079.5-.714,3.767-3.9,6.327-7.113,5.72-2.721-.519-4.593-3.143-4.668-6.223a8.18,8.18,0,0,1,.141-1.7c.714-3.767,3.9-6.327,7.113-5.717C1340.755,1826.778,1342.741,1830.042,1342.29,1833.618Z" transform="translate(-234.145 5265.493)" fill="#dbdbdb"/>
    <path id="Trazado_264962" data-name="Trazado 264962" d="M1347.38,1757.732l-4.635-5.976a6.257,6.257,0,0,0-4.977-2.438h-16.024v-2.232h16.024a8.475,8.475,0,0,1,6.741,3.3l4.635,5.976Z" transform="translate(-227.115 5329.46)" fill="#278c77"/>
    <path id="Trazado_264963" data-name="Trazado 264963" d="M693.008,1521.21l-.007.054q-.826,5.718-1.654,11.436H679.774q.718-1.533,1.577-3.142a63.926,63.926,0,0,1,5.623-8.681c-.194-.605-.384-1.213-.578-1.818a11.137,11.137,0,0,1-1.82.578,10.941,10.941,0,0,1-1.652.248,16.914,16.914,0,0,1-.992-3.058,17.53,17.53,0,0,1-.084-7.111,8.4,8.4,0,0,1,1.984-1.57,4.412,4.412,0,0,1,8.269,1.9,10.216,10.216,0,0,1-.662,6.283q.208,1.324.414,2.646Q692.429,1520.094,693.008,1521.21Z" transform="translate(292.553 5523.756)" fill="#1f2d36"/>
    <path id="Trazado_264964" data-name="Trazado 264964" d="M740.806,1574.186v10.28a2.479,2.479,0,0,1-2.48,2.48h-3.795q1.031-4.8,2.059-9.591a4.189,4.189,0,0,1,.736-1.845,3.39,3.39,0,0,1,2.076-1.379A3.12,3.12,0,0,1,740.806,1574.186Z" transform="translate(248.228 5469.51)" fill="#1f2d36"/>
    <path id="Trazado_264965" data-name="Trazado 264965" d="M405.971,1868.929H378.864v-3.393h27.107a1.7,1.7,0,0,1,1.7,1.7h0A1.7,1.7,0,0,1,405.971,1868.929Z" transform="translate(536.136 5233.577)" fill="#2b262e"/>
    <path id="Trazado_264966" data-name="Trazado 264966" d="M718.274,1656.476h-6.2a1.054,1.054,0,0,1-1.054-1.054h0a1.054,1.054,0,0,1,1.054-1.054h6.2a1.054,1.054,0,0,1,1.054,1.054h0A1.054,1.054,0,0,1,718.274,1656.476Z" transform="translate(267.26 5404.514)" fill="#2b262e"/>
    <path id="Trazado_264967" data-name="Trazado 264967" d="M616.722,1517.234H587.535a3.225,3.225,0,0,1-3.147-3.936l5.382-23.749a3.205,3.205,0,0,1,3.144-2.512h23.808a3.228,3.228,0,0,1,3.224,3.224v23.748A3.228,3.228,0,0,1,616.722,1517.234Zm-23.808-28.708a1.725,1.725,0,0,0-1.692,1.352l-5.382,23.749a1.737,1.737,0,0,0,1.7,2.12h29.187a1.738,1.738,0,0,0,1.736-1.736v-23.748a1.738,1.738,0,0,0-1.736-1.736Z" transform="translate(369.831 5539.967)" fill="#2b262e"/>
    <path id="Trazado_264968" data-name="Trazado 264968" d="M540.111,1521.692a.744.744,0,0,1-.719-.936l7.993-29.907a.744.744,0,1,1,1.438.384l-7.993,29.907A.744.744,0,0,1,540.111,1521.692Z" transform="translate(406.211 5537.329)" fill="#2b262e"/>
    <path id="Trazado_264969" data-name="Trazado 264969" d="M563.371,1614.654h0a3.8,3.8,0,0,1-3.8-3.8v-9a3.8,3.8,0,0,1,3.8-3.8h0Z" transform="translate(389.858 5450.106)" fill="#2b262e"/>
    <path id="Trazado_264970" data-name="Trazado 264970" d="M462.978,1664.886h0a4.687,4.687,0,0,0-4.194-1.338l-6.292,1.144a1.568,1.568,0,0,0-1.262,1.264l-.522,2.889Z" transform="translate(477.979 5397.145)" fill="#403a45"/>
    <path id="Trazado_264971" data-name="Trazado 264971" d="M444.667,1741.508v.744h-6.573v-2.976h4.34A2.232,2.232,0,0,1,444.667,1741.508Z" transform="translate(488.19 5335.782)" fill="#7d6882"/>
    <path id="Trazado_264972" data-name="Trazado 264972" d="M677.032,1833.618h-11.86a8.18,8.18,0,0,1,.141-1.7c.714-3.767,3.9-6.327,7.113-5.717C675.5,1826.778,677.483,1830.042,677.032,1833.618Z" transform="translate(304.375 5265.493)" fill="#7d6882"/>
    <path id="Trazado_264973" data-name="Trazado 264973" d="M1342.29,1833.618h-11.86a8.18,8.18,0,0,1,.141-1.7c.714-3.767,3.9-6.327,7.113-5.717C1340.755,1826.778,1342.741,1830.042,1342.29,1833.618Z" transform="translate(-234.145 5265.493)" fill="#7d6882"/>
    <path id="Trazado_264974" data-name="Trazado 264974" d="M820.016,1506.523l-11.533,6.283v-5.126l11.533-6.283Z" transform="translate(188.364 5528.342)" fill="#7d9fba" opacity="0.35"/>
    <path id="Trazado_264975" data-name="Trazado 264975" d="M629.126,1509.127l-31,18.188,1.24-5.622L629.126,1504Z" transform="translate(358.648 5526.235)" fill="#7d9fba" opacity="0.35"/>
    <path id="Trazado_264976" data-name="Trazado 264976" d="M733.835,1661.5H732a.8.8,0,0,1-.8-.8h0a.8.8,0,0,1,.8-.8h1.837a.8.8,0,0,1,.8.8h0A.8.8,0,0,1,733.835,1661.5Z" transform="translate(250.925 5400.035)" fill="#dbdbdb"/>
    <path id="Trazado_264977" data-name="Trazado 264977" d="M1025.138,1757.106H975.369a.372.372,0,1,1,0-.744h49.769a.372.372,0,1,1,0,.744Z" transform="translate(53.573 5321.951)" fill="#2b262e"/>
    <path id="Trazado_264978" data-name="Trazado 264978" d="M1546.064,1757.106h-24.125a.372.372,0,0,1,0-.744h24.125a.372.372,0,1,1,0,.744Z" transform="translate(-388.87 5321.951)" fill="#2b262e"/>
    <path id="Trazado_264979" data-name="Trazado 264979" d="M1558.372,1314.306H1531.7a.372.372,0,1,1,0-.744h26.669a.372.372,0,1,1,0,.744Z" transform="translate(-396.774 5680.394)" fill="#2b262e"/>
    <path id="Trazado_264980" data-name="Trazado 264980" d="M1459.4,1757.106h-5.811a.372.372,0,1,1,0-.744h5.811a.372.372,0,1,1,0,.744Z" transform="translate(-333.542 5321.951)" fill="#2b262e"/>
    <rect id="Rectángulo_44170" data-name="Rectángulo 44170" width="11.826" height="6.917" transform="translate(1071.006 7064.897)" fill="#f0af90"/>
    <rect id="Rectángulo_44171" data-name="Rectángulo 44171" width="10.136" height="6.917" transform="translate(1075.29 7064.897)" fill="#ffd1ba"/>
    <rect id="Rectángulo_44172" data-name="Rectángulo 44172" width="2.19" height="4.128" transform="translate(1078.079 7064.899)" fill="#ffede3"/>
    <rect id="Rectángulo_44173" data-name="Rectángulo 44173" width="2.27" height="1.792" transform="translate(1072.434 7065.749)" fill="#65f0cd"/>
    <g id="Grupo_128309" data-name="Grupo 128309" transform="translate(1075.069 7064.677)">
      <path id="Trazado_264981" data-name="Trazado 264981" d="M1219.3,1688.465a.22.22,0,0,1-.22-.22V1685a.22.22,0,1,1,.44,0v3.241A.22.22,0,0,1,1219.3,1688.465Z" transform="translate(-1219.077 -1684.784)" fill="#403a45"/>
    </g>
    <g id="Grupo_128310" data-name="Grupo 128310" transform="translate(1085.206 7067.243)">
      <path id="Trazado_264982" data-name="Trazado 264982" d="M1272.5,1700.474a.22.22,0,0,1-.22-.22v-1.78a.22.22,0,0,1,.44,0v1.78A.22.22,0,0,1,1272.5,1700.474Z" transform="translate(-1272.284 -1698.254)" fill="#403a45"/>
    </g>
    <g id="Grupo_128311" data-name="Grupo 128311" transform="translate(1048.771 7100.894)">
      <path id="Trazado_264983" data-name="Trazado 264983" d="M1089.424,1876.062h-7.806a.587.587,0,1,1,0-1.173h7.806a.587.587,0,1,1,0,1.173Z" transform="translate(-1081.031 -1874.889)" fill="#a0a2b8"/>
    </g>
    <path id="Trazado_264984" data-name="Trazado 264984" d="M1090.047,1743.555h-16.51a1.352,1.352,0,0,1-1.353-1.352h0a1.353,1.353,0,0,1,1.353-1.353h16.51a1.353,1.353,0,0,1,1.353,1.353h0A1.352,1.352,0,0,1,1090.047,1743.555Z" transform="translate(-25.1 5334.508)" fill="#fff"/>
    <g id="Grupo_128312" data-name="Grupo 128312" transform="translate(1043.087 7076.055)">
      <path id="Trazado_264985" data-name="Trazado 264985" d="M1059.087,1776.725a.587.587,0,0,1-.568-.439l-7.211-27.677a3.276,3.276,0,0,1,3.171-4.1h1.36a.587.587,0,1,1,0,1.173h-1.36a2.1,2.1,0,0,0-2.035,2.634l7.211,27.677a.587.587,0,0,1-.42.716A.6.6,0,0,1,1059.087,1776.725Z" transform="translate(-1051.201 -1744.506)" fill="#a0a2b8"/>
    </g>
    <rect id="Rectángulo_44174" data-name="Rectángulo 44174" width="24.175" height="17.937" transform="translate(1054.968 7089.75)" fill="#f0af90"/>
    <rect id="Rectángulo_44175" data-name="Rectángulo 44175" width="24.175" height="17.937" transform="translate(1068.225 7089.75)" fill="#ffd1ba"/>
    <rect id="Rectángulo_44176" data-name="Rectángulo 44176" width="4.146" height="6.796" transform="translate(1079.143 7089.75)" fill="#ffede3"/>
    <rect id="Rectángulo_44177" data-name="Rectángulo 44177" width="4.828" height="3.231" transform="translate(1086.292 7091.701)" fill="#a0a2b8"/>
    <rect id="Rectángulo_44178" data-name="Rectángulo 44178" width="24.175" height="17.937" transform="translate(1051.619 7071.813)" fill="#f0af90"/>
    <rect id="Rectángulo_44179" data-name="Rectángulo 44179" width="24.175" height="17.937" transform="translate(1064.876 7071.813)" fill="#ffd1ba"/>
    <rect id="Rectángulo_44180" data-name="Rectángulo 44180" width="4.146" height="6.796" transform="translate(1075.794 7071.813)" fill="#ffede3"/>
    <rect id="Rectángulo_44181" data-name="Rectángulo 44181" width="4.828" height="3.231" transform="translate(1066.808 7084.18)" fill="#a0a2b8"/>
    <g id="Grupo_128313" data-name="Grupo 128313" transform="translate(1048.946 7107.1)">
      <path id="Trazado_264986" data-name="Trazado 264986" d="M1082.539,1911.72a.587.587,0,0,1-.531-.835l1.6-3.419h43.086a.587.587,0,1,1,0,1.174h-42.34l-1.283,2.742A.586.586,0,0,1,1082.539,1911.72Z" transform="translate(-1081.952 -1907.466)" fill="#a0a2b8"/>
    </g>
    <g id="Grupo_128314" data-name="Grupo 128314" transform="translate(1090.12 7107.402)">
      <path id="Trazado_264987" data-name="Trazado 264987" d="M1300.359,1913a.586.586,0,0,1-.5-.282l-1.694-2.779a.587.587,0,1,1,1-.611l1.694,2.779a.587.587,0,0,1-.5.892Z" transform="translate(-1298.078 -1909.05)" fill="#a0a2b8"/>
    </g>
    <g id="Grupo_128315" data-name="Grupo 128315" transform="translate(1072.703 7107.402)">
      <path id="Trazado_264988" data-name="Trazado 264988" d="M1208.938,1913a.587.587,0,0,1-.5-.282l-1.693-2.779a.587.587,0,1,1,1-.611l1.693,2.779a.587.587,0,0,1-.5.892Z" transform="translate(-1206.657 -1909.05)" fill="#a0a2b8"/>
    </g>
    <path id="Trazado_264989" data-name="Trazado 264989" d="M1126.818,1816.395l-13.257,3.4v-3.4Z" transform="translate(-58.594 5273.355)" fill="#e06238" opacity="0.4" style="mix-blend-mode: multiply;isolation: isolate"/>
    <g id="Grupo_128316" data-name="Grupo 128316" transform="translate(1056.601 7089.53)">
      <path id="Trazado_264990" data-name="Trazado 264990" d="M1138.465,1815.68h-16.112a.22.22,0,0,1,0-.44h16.112a.22.22,0,1,1,0,.44Z" transform="translate(-1122.133 -1815.24)" fill="#403a45"/>
    </g>
    <circle id="Elipse_6281" data-name="Elipse 6281" cx="2.543" cy="2.543" r="2.543" transform="translate(1072.195 7114.345) rotate(-80.783)" fill="#2b262e"/>
    <path id="Trazado_264991" data-name="Trazado 264991" d="M1215.474,1929.451a1.179,1.179,0,1,1-1.179-1.179A1.179,1.179,0,0,1,1215.474,1929.451Z" transform="translate(-139.182 5182.792)" fill="#7d6882"/>
    <circle id="Elipse_6282" data-name="Elipse 6282" cx="2.543" cy="2.543" r="2.543" transform="matrix(0.924, -0.383, 0.383, 0.924, 1045.774, 7110.867)" fill="#2b262e"/>
    <path id="Trazado_264992" data-name="Trazado 264992" d="M1078.914,1929.451a1.179,1.179,0,1,1-1.179-1.179A1.179,1.179,0,0,1,1078.914,1929.451Z" transform="translate(-28.639 5182.792)" fill="#7d6882"/>
    <circle id="Elipse_6283" data-name="Elipse 6283" cx="2.543" cy="2.543" r="2.543" transform="matrix(0.924, -0.383, 0.383, 0.924, 1089.078, 7110.867)" fill="#2b262e"/>
    <path id="Trazado_264993" data-name="Trazado 264993" d="M1306.219,1929.451a1.179,1.179,0,1,1-1.179-1.179A1.179,1.179,0,0,1,1306.219,1929.451Z" transform="translate(-212.64 5182.792)" fill="#7d6882"/>
    <rect id="Rectángulo_44182" data-name="Rectángulo 44182" width="6.127" height="3.428" transform="translate(1058.951 7097.004)" fill="#a0a2b8"/>
    <rect id="Rectángulo_44183" data-name="Rectángulo 44183" width="4.517" height="1.531" transform="translate(1056.692 7074.446)" fill="#403a45"/>
    <g id="Grupo_128317" data-name="Grupo 128317" transform="translate(1064.656 7071.594)">
      <path id="Trazado_264994" data-name="Trazado 264994" d="M1164.639,1727.633a.22.22,0,0,1-.22-.22v-6.1a.22.22,0,1,1,.44,0v6.1A.22.22,0,0,1,1164.639,1727.633Z" transform="translate(-1164.419 -1721.09)" fill="#403a45"/>
    </g>
    <g id="Grupo_128318" data-name="Grupo 128318" transform="translate(1049.589 7103.145)">
      <path id="Trazado_264995" data-name="Trazado 264995" d="M1106.5,1891.834a.588.588,0,0,1-.547-.375l-.592-1.527a3.2,3.2,0,0,0-2.971-2.034h-.023c-2.746.02-6.728.044-10.109.051-1.888,0-3.372,0-4.409-.009-.588-.005-1.043-.012-1.352-.022-.561-.016-.932-.028-1.049-.473l-.116-.44.4-.226a.583.583,0,0,1,.461-.047c.8.062,6.787.06,16.165-.007h.031a4.384,4.384,0,0,1,4.065,2.783l.593,1.527a.587.587,0,0,1-.547.8Z" transform="translate(-1085.328 -1886.705)" fill="#a0a2b8"/>
    </g>
    <path id="Trazado_264996" data-name="Trazado 264996" d="M1226.392,1905.6h-19.468a.22.22,0,1,1,0-.44h19.468a.22.22,0,1,1,0,.44Z" transform="translate(-133.992 5201.504)" fill="#403a45"/>
    <path id="Trazado_264997" data-name="Trazado 264997" d="M1107.007,1905.6h-12.118a.22.22,0,1,1,0-.44h12.118a.22.22,0,0,1,0,.44Z" transform="translate(-43.3 5201.504)" fill="#403a45"/>
    <path id="Trazado_264998" data-name="Trazado 264998" d="M1063.582,1789.361a.22.22,0,0,1-.213-.166l-3.325-13.119a.22.22,0,1,1,.427-.108l3.325,13.119a.219.219,0,0,1-.213.274Z" transform="translate(-15.267 5306.215)" fill="#403a45"/>
    <path id="Trazado_264999" data-name="Trazado 264999" d="M1211.234,1685.224h-14.42a.22.22,0,0,1,0-.44h14.42a.22.22,0,0,1,0,.44Z" transform="translate(-125.808 5379.893)" fill="#403a45"/>
    <path id="Trazado_265000" data-name="Trazado 265000" d="M1101.18,1721.53h-6.131a.22.22,0,0,1,0-.44h6.131a.22.22,0,1,1,0,.44Z" transform="translate(-43.43 5350.504)" fill="#403a45"/>
    <path id="Trazado_265001" data-name="Trazado 265001" d="M1291.537,1730.5a.22.22,0,0,1-.22-.22v-8.968a.22.22,0,1,1,.44,0v8.968A.22.22,0,0,1,1291.537,1730.5Z" transform="translate(-202.485 5350.504)" fill="#403a45"/>
    <path id="Trazado_265002" data-name="Trazado 265002" d="M1754.753,1946.1h-28.882a.453.453,0,0,1,0-.906h28.882a.453.453,0,1,1,0,.906Z" transform="translate(-553.886 5169.097)" fill="#2b262e"/>
    <rect id="Rectángulo_44184" data-name="Rectángulo 44184" width="24.898" height="45.166" transform="translate(1172.992 7071.367)" fill="#f0af90"/>
    <path id="Trazado_265003" data-name="Trazado 265003" d="M1733.559,1735.665l7.093,42.162h-7.687l-3.454-29.462Z" transform="translate(-557.199 5338.706)" fill="#e06238" opacity="0.4" style="mix-blend-mode: multiply;isolation: isolate"/>
    <rect id="Rectángulo_44185" data-name="Rectángulo 44185" width="28.075" height="16.043" transform="translate(1137.553 7100.49)" fill="#f0af90"/>
    <rect id="Rectángulo_44186" data-name="Rectángulo 44186" width="28.075" height="16.043" transform="translate(1153.211 7100.49)" fill="#ffd1ba"/>
    <rect id="Rectángulo_44187" data-name="Rectángulo 44187" width="6.35" height="5.743" transform="translate(1165.628 7100.49)" fill="#ffede3"/>
    <rect id="Rectángulo_44188" data-name="Rectángulo 44188" width="6.35" height="2.279" transform="translate(1165.628 7114.254)" fill="#ffede3"/>
    <rect id="Rectángulo_44189" data-name="Rectángulo 44189" width="6.127" height="3.428" transform="translate(1145.463 7103.361)" fill="#a0a2b8"/>
    <rect id="Rectángulo_44190" data-name="Rectángulo 44190" width="24.898" height="45.166" transform="translate(1185.441 7071.367)" fill="#ffd1ba"/>
    <rect id="Rectángulo_44191" data-name="Rectángulo 44191" width="25.958" height="8.183" transform="translate(1152.185 7092.307)" fill="#ffd1ba"/>
    <rect id="Rectángulo_44192" data-name="Rectángulo 44192" width="25.958" height="8.183" transform="translate(1141.94 7092.307)" fill="#f0af90"/>
    <rect id="Rectángulo_44193" data-name="Rectángulo 44193" width="2.525" height="5.199" transform="translate(1151.591 7092.307)" fill="#ffd1ba"/>
    <rect id="Rectángulo_44194" data-name="Rectángulo 44194" width="24.175" height="17.937" transform="translate(1138.927 7074.37)" fill="#f0af90"/>
    <rect id="Rectángulo_44195" data-name="Rectángulo 44195" width="24.176" height="17.937" transform="translate(1152.185 7074.37)" fill="#ffd1ba"/>
    <rect id="Rectángulo_44196" data-name="Rectángulo 44196" width="4.146" height="6.796" transform="translate(1163.103 7074.37)" fill="#ffede3"/>
    <path id="Trazado_265004" data-name="Trazado 265004" d="M1628.314,1929.54a.22.22,0,0,1-.22-.22v-6.289a.22.22,0,1,1,.44,0v6.289A.22.22,0,0,1,1628.314,1929.54Z" transform="translate(-475.103 5187.212)" fill="#403a45"/>
    <path id="Trazado_265005" data-name="Trazado 265005" d="M1775.68,1900.515a.22.22,0,0,1-.22-.22V1895.9a.22.22,0,1,1,.44,0v4.391A.22.22,0,0,1,1775.68,1900.515Z" transform="translate(-594.394 5209.172)" fill="#403a45"/>
    <path id="Trazado_265006" data-name="Trazado 265006" d="M1797.491,1736a.22.22,0,0,1-.22-.22v-16.818a.22.22,0,0,1,.44,0v16.818A.22.22,0,0,1,1797.491,1736Z" transform="translate(-612.049 5352.401)" fill="#403a45"/>
    <path id="Trazado_265007" data-name="Trazado 265007" d="M1797.491,1864.314a.22.22,0,0,1-.22-.22v-3a.22.22,0,1,1,.44,0v3A.22.22,0,0,1,1797.491,1864.314Z" transform="translate(-612.049 5237.348)" fill="#403a45"/>
    <rect id="Rectángulo_44197" data-name="Rectángulo 44197" width="3.841" height="9.799" transform="translate(1197.891 7071.367)" fill="#ffede3"/>
    <rect id="Rectángulo_44198" data-name="Rectángulo 44198" width="3.841" height="22.639" transform="translate(1197.891 7093.95)" fill="#ffede3"/>
    <rect id="Rectángulo_44199" data-name="Rectángulo 44199" width="3.509" height="3.936" transform="translate(1168.803 7093.569)" fill="#ffede3"/>
    <rect id="Rectángulo_44200" data-name="Rectángulo 44200" width="4.517" height="3.061" transform="translate(1187.781 7073.205)" fill="#a0a2b8"/>
    <rect id="Rectángulo_44201" data-name="Rectángulo 44201" width="4.517" height="1.531" transform="translate(1187.781 7077.003)" fill="#403a45"/>
    <rect id="Rectángulo_44202" data-name="Rectángulo 44202" width="4.828" height="3.231" transform="translate(1154.116 7086.736)" fill="#a0a2b8"/>
    <path id="Trazado_265008" data-name="Trazado 265008" d="M1570.088,1832.465l14.589-2.448h-14.589Z" transform="translate(-428.147 5262.329)" fill="#e06238" opacity="0.4" style="mix-blend-mode: multiply;isolation: isolate"/>
    <path id="Trazado_265009" data-name="Trazado 265009" d="M1585.265,1829.1h-16.112a.22.22,0,1,1,0-.44h16.112a.22.22,0,0,1,0,.44Z" transform="translate(-427.212 5263.427)" fill="#403a45"/>
    <path id="Trazado_265010" data-name="Trazado 265010" d="M1710.136,1872.713l-1.263,2.871-8.331-.954-.563-1.931Z" transform="translate(-533.293 5227.777)" fill="#e06238" opacity="0.4" style="mix-blend-mode: multiply;isolation: isolate"/>
    <path id="Trazado_265011" data-name="Trazado 265011" d="M1715.872,1854.668h-10.464a.22.22,0,1,1,0-.44h10.024v-3.871a.22.22,0,1,1,.44,0Z" transform="translate(-537.509 5246.042)" fill="#403a45"/>
    <path id="Trazado_265014" data-name="Trazado 265014" d="M1522.879,1688.633c2.525-.819,4.389-1.463,5.061-1.711a2.191,2.191,0,0,0,1.344-1.3l-6.014-.2-.831.244Z" transform="translate(-389.576 5379.37)" fill="#f59371"/>
    <rect id="Rectángulo_44207" data-name="Rectángulo 44207" width="17.385" height="14.384" transform="translate(1128.583 7050.913)" fill="#f0af90"/>
    <path id="Trazado_265015" data-name="Trazado 265015" d="M1392.962,1945.006q-.009.338-.017.677h-4.123l-2.023-1.094a.36.36,0,1,0-.608-.382,8.267,8.267,0,0,1-2.413-1.736l.382-.625a15.694,15.694,0,0,0,8.8,3.16Z" transform="translate(-277.332 5171.804)" fill="#a0a2b8"/>
    <path id="Trazado_265016" data-name="Trazado 265016" d="M1521.938,1941.482l.226.643a13.651,13.651,0,0,1-1.545.816,13.827,13.827,0,0,1-4.219,1.129.371.371,0,0,0-.278-.26.4.4,0,0,0-.417.382c-.481.061-1,.11-1.545.139-.631.033-1.223.035-1.771.017q-.061-.39-.121-.781a23.138,23.138,0,0,0,9.67-2.083Z" transform="translate(-381.342 5172.099)" fill="#a0a2b8"/>
    <path id="Trazado_265017" data-name="Trazado 265017" d="M1511.126,1931.347l.015.713a4.2,4.2,0,0,0-.342,1.029,4.391,4.391,0,0,0,.2,2.327,18,18,0,0,0,9.842-2.28,1.078,1.078,0,0,0-.046-.556,1.1,1.1,0,0,0-.463-.556,6.029,6.029,0,0,1-3.727.434,6.7,6.7,0,0,1-2.585-1.473Z" transform="translate(-380.093 5180.596)" fill="#2b262e"/>
    <path id="Trazado_265018" data-name="Trazado 265018" d="M1457.246,1771.448a43.144,43.144,0,0,1,4.069,5.778,44.443,44.443,0,0,1,5.717,16.94,9.391,9.391,0,0,0,4.619-.825,59.317,59.317,0,0,0-10.417-32.472Z" transform="translate(-336.803 5318.304)" fill="#403a45"/>
    <path id="Trazado_265019" data-name="Trazado 265019" d="M1466.876,1770.832c.4-.715.8-1.479,1.18-2.292a33.408,33.408,0,0,0,2.569-8.055l-2.083-3.264Q1467.709,1764.026,1466.876,1770.832Z" transform="translate(-344.598 5321.256)" fill="#2b262e"/>
    <path id="Trazado_265020" data-name="Trazado 265020" d="M1389.439,1906.311l-2.319,4.028a4.318,4.318,0,0,0-.936.773,4.468,4.468,0,0,0-1.058,2.116c.557.443,1.167.895,1.831,1.343a29.171,29.171,0,0,0,3.113,1.831h3.972a1.406,1.406,0,0,0,.24-.854,1.377,1.377,0,0,0-.183-.611l-2.075-.488-2.421-2.767,2.116-4.151Z" transform="translate(-278.422 5200.569)" fill="#2b262e"/>
    <path id="Trazado_265021" data-name="Trazado 265021" d="M1398.695,1753.175a25.27,25.27,0,0,0,.407,6.1,65.393,65.393,0,0,1-1.058,7.325,66.419,66.419,0,0,1-6.511,18.047,5.221,5.221,0,0,0,4.334,2.319,54.177,54.177,0,0,0,7.467-11.577,55.05,55.05,0,0,0,5.29-22.869Z" transform="translate(-283.609 5325.058)" fill="#403a45"/>
    <path id="Trazado_265022" data-name="Trazado 265022" d="M1439.268,1757.95a21.323,21.323,0,0,1-9.583,2.708l-.07-2.708Z" transform="translate(-314.436 5320.666)" fill="#2b262e"/>
    <path id="Trazado_265023" data-name="Trazado 265023" d="M1400.279,1792.333a62.789,62.789,0,0,0,8.2-24.135c.182-1.526.305-3.081.368-4.622l2.88-2.53-.455-1.593-.424.121.378,1.324-2.814,2.47,0,.094c-.061,1.56-.185,3.135-.369,4.682a62.339,62.339,0,0,1-8.143,23.966Z" transform="translate(-290.379 5319.448)" fill="#2b262e"/>
    <path id="Trazado_265024" data-name="Trazado 265024" d="M1448.479,1559.32c.231.526.5,1.079.8,1.651a24,24,0,0,0,1.268,2.1l-1.868,5.045,4.716,2.215q.638-1.58,1.283-3.166.712-1.751,1.426-3.491l-3.073-6.37Z" transform="translate(-329.706 5483.083)" fill="#f59371"/>
    <path id="Trazado_265025" data-name="Trazado 265025" d="M1462.87,1548.731a11.962,11.962,0,0,0,1.549,4.9,13.117,13.117,0,0,0,5.666,1.207,14.4,14.4,0,0,0,.23-2.528,15.086,15.086,0,0,0-1.708-6.907Z" transform="translate(-341.355 5492.721)" fill="#f59371"/>
    <path id="Trazado_265026" data-name="Trazado 265026" d="M1448.537,1606.247q.086-1.121.172-2.243a19.1,19.1,0,0,1,6.575,1.223l-1.325,3.518Z" transform="translate(-329.753 5445.283)" fill="#c0e6f4"/>
    <path id="Trazado_265027" data-name="Trazado 265027" d="M1425.413,1607.687a41.761,41.761,0,0,0-3.72,8.742,43.509,43.509,0,0,0-.625,21.729,20.285,20.285,0,0,0,4.433.045,20.568,20.568,0,0,0,7.5-2.264q-.476-3.489-.952-6.978l.558-14.677a8.576,8.576,0,0,0-1.476-3.19A9.232,9.232,0,0,0,1425.413,1607.687Z" transform="translate(-306.638 5442.302)" fill="#ee2957"/>
    <path id="Trazado_265028" data-name="Trazado 265028" d="M1443.633,1636.249a37.194,37.194,0,0,0-.03,4.042c.07,1.5.308,6.574,1.365,6.719.389.054,1.051-.539,2.209-3.8Z" transform="translate(-325.726 5419.182)" fill="#c0e6f4"/>
    <path id="Trazado_265029" data-name="Trazado 265029" d="M1455.428,1548.635a11.645,11.645,0,0,1-3.709,2l-.4,1.495.55.792-.138.464-3.334,2.77a12.794,12.794,0,0,1-2.4-5.314Z" transform="translate(-327.69 5490.104)" fill="#2b262e"/>
    <path id="Trazado_265030" data-name="Trazado 265030" d="M1442.081,1533.305a13.8,13.8,0,0,1-1.707-4.719,8.616,8.616,0,0,1,6.66-4.321,7.324,7.324,0,0,1,1.512,1.065,7.594,7.594,0,0,1,2.053,3.191c-.876.626-1.826,1.257-2.852,1.878A45.29,45.29,0,0,1,1442.081,1533.305Z" transform="translate(-323.146 5509.831)" fill="#28acd3"/>
    <path id="Trazado_265031" data-name="Trazado 265031" d="M1465.364,1565.8a1.938,1.938,0,1,0,1.78-2.084A1.938,1.938,0,0,0,1465.364,1565.8Z" transform="translate(-343.37 5477.901)" fill="#fece16"/>
    <path id="Trazado_265032" data-name="Trazado 265032" d="M1471.465,1585.953a.221.221,0,0,0,.032-.436c-.361-.083-.724-.177-1.077-.282a17.808,17.808,0,0,1-1.816-.646l-.318-.6a.221.221,0,0,0-.39.207l.391.738.072.031a18.282,18.282,0,0,0,1.935.694c.362.107.734.2,1.1.289A.226.226,0,0,0,1471.465,1585.953Z" transform="translate(-345.402 5461.58)" fill="#2b262e"/>
    <path id="Trazado_265033" data-name="Trazado 265033" d="M1480.083,1682.565a22.341,22.341,0,0,0,7.394,1.059c.066.313.184.869.251,1.182.048.227.16.749.208.976a22.494,22.494,0,0,1-9.625,1.636,2.978,2.978,0,0,1-.836-2.19A3.123,3.123,0,0,1,1480.083,1682.565Z" transform="translate(-353.171 5381.689)" fill="#f59371"/>
    <path id="Trazado_265034" data-name="Trazado 265034" d="M1441.384,1620.353a23.511,23.511,0,0,0,.883,4.216,24.765,24.765,0,0,0,6.386,10.334,2.57,2.57,0,0,0,1.531,0,2.346,2.346,0,0,0,.412-.18,2.407,2.407,0,0,0,.952-3.144c-.67-1.407-1.333-2.9-1.977-4.465-1.151-2.806-2.079-5.483-2.833-7.981a2.865,2.865,0,0,0-5.353,1.218Z" transform="translate(-323.963 5434.213)" fill="#c0e6f4"/>
    <path id="Trazado_265035" data-name="Trazado 265035" d="M1450.2,1663.573a.221.221,0,0,0,.15-.364,27.856,27.856,0,0,1-4.85-8.049.221.221,0,1,0-.411.161,28.314,28.314,0,0,0,4.927,8.177A.22.22,0,0,0,1450.2,1663.573Z" transform="translate(-326.952 5403.988)" fill="#2b262e"/>
    <path id="Trazado_265036" data-name="Trazado 265036" d="M1485.47,1824.808l.436-.071a102.61,102.61,0,0,0-6.5-22.826c-.556-1.337-1.149-2.679-1.763-3.99l-.4.187c.611,1.306,1.2,2.642,1.756,3.973A102.181,102.181,0,0,1,1485.47,1824.808Z" transform="translate(-352.994 5288.311)" fill="#2b262e"/>
    <path id="Trazado_265037" data-name="Trazado 265037" d="M1440.313,1730.425l.016,0,4.923-.736a.221.221,0,0,0-.065-.437l-4.922.736a.221.221,0,0,0,.05.438Z" transform="translate(-322.903 5343.9)" fill="#2b262e"/>
    <path id="Trazado_265038" data-name="Trazado 265038" d="M1444.094,1558.338l.916-.606a2.909,2.909,0,0,1,.772,1.553l-1,.509a2.547,2.547,0,0,1-.683-1.456Z" transform="translate(-326.156 5482.74)" fill="#403a45"/>
    <path id="Trazado_265039" data-name="Trazado 265039" d="M1449.725,1540.132a.221.221,0,0,0,.177-.325,13.665,13.665,0,0,1-1.391-3.878,5.748,5.748,0,0,1,1.667-1.366,5.832,5.832,0,0,1,2.316-.686l.021,0a7.3,7.3,0,0,1,2.661,2.229.221.221,0,1,0,.355-.262,7.738,7.738,0,0,0-2.877-2.391l-.052-.025-.058,0a6.269,6.269,0,0,0-2.577.745,6.189,6.189,0,0,0-1.864,1.555l-.064.079.019.1a14.107,14.107,0,0,0,1.456,4.108A.221.221,0,0,0,1449.725,1540.132Z" transform="translate(-329.35 5502.416)" fill="#403a45"/>
    <path id="Trazado_265040" data-name="Trazado 265040" d="M1492.809,1528.085c.1.469.433,2.342-.565,3.2a4.342,4.342,0,0,1-1.586.647,14.181,14.181,0,0,1-1.917.43l-.343-1.261Z" transform="translate(-362.02 5506.739)" fill="#2b262e"/>
    <path id="Trazado_265041" data-name="Trazado 265041" d="M1482.963,1533.045a11.219,11.219,0,0,0,1.634-.5,6.055,6.055,0,0,0,3.145-2.044,4.2,4.2,0,0,0,.667-2.42l-3.957,2.108a5.519,5.519,0,0,0-1.49,2.852Z" transform="translate(-357.621 5506.739)" fill="#28acd3"/>
    <path id="Trazado_265042" data-name="Trazado 265042" d="M1452.653,1538.309a1.164,1.164,0,0,0,.727-.057,1.2,1.2,0,0,0,.641-.712l-4.433-8.079a2,2,0,0,0-1.466.847Z" transform="translate(-329.417 5505.626)" fill="#2b262e"/>
    <path id="Trazado_265043" data-name="Trazado 265043" d="M1480.145,1528.007a.221.221,0,0,0,.178-.323,7.119,7.119,0,0,0-1.521-1.964,7.015,7.015,0,0,0-.842-.653.221.221,0,1,0-.243.368,6.572,6.572,0,0,1,.789.612,6.694,6.694,0,0,1,1.427,1.843A.22.22,0,0,0,1480.145,1528.007Z" transform="translate(-353.293 5509.212)" fill="#403a45"/>
    <path id="Trazado_265044" data-name="Trazado 265044" d="M1481.808,1566.843h0a.221.221,0,0,0,.2-.24,2.366,2.366,0,0,0-.775-1.551.221.221,0,1,0-.3.328,1.925,1.925,0,0,1,.631,1.264A.221.221,0,0,0,1481.808,1566.843Z" transform="translate(-355.924 5476.861)" fill="#2b262e"/>
    <path id="Trazado_265045" data-name="Trazado 265045" d="M1530.194,1683.731c.128-.142.328-.359.587-.611.536-.523.786-.676.758-.9a.571.571,0,0,0-.464-.415c-.385-.071-.675.3-1.1.611a3.61,3.61,0,0,1-1.76.636,1.932,1.932,0,0,0,.758.587A1.956,1.956,0,0,0,1530.194,1683.731Z" transform="translate(-394.251 5382.316)" fill="#f59371"/>
    <path id="Trazado_265046" data-name="Trazado 265046" d="M1482.277,1680.3l1.858.587a5.317,5.317,0,0,1,.245,2.054,5.548,5.548,0,0,1-1.418,3.227l-2.1-.685Q1481.568,1682.888,1482.277,1680.3Z" transform="translate(-355.917 5383.525)" fill="#c0e6f4"/>
    <rect id="Rectángulo_44208" data-name="Rectángulo 44208" width="4.082" height="3.961" transform="translate(1135.627 7050.913)" fill="#ffede3"/>
    <rect id="Rectángulo_44209" data-name="Rectángulo 44209" width="4.116" height="2.054" transform="translate(1129.529 7052.307)" fill="#403a45"/>
    <rect id="Rectángulo_44210" data-name="Rectángulo 44210" width="2.054" height="1.679" transform="translate(1142.447 7062.575)" fill="#403a45"/>
    <path id="Trazado_265047" data-name="Trazado 265047" d="M1504.147,1684.945c-.635,0-1.272-.029-1.9-.086a21.129,21.129,0,0,1-3.113-.519.22.22,0,0,1,.1-.428,20.615,20.615,0,0,0,5.588.581.22.22,0,0,1,.014.44Q1504.495,1684.944,1504.147,1684.945Z" transform="translate(-370.575 5380.604)" fill="#2b262e"/>
    <path id="Trazado_265048" data-name="Trazado 265048" d="M1541.151,1687.272a.22.22,0,0,1,0-.44l2.934-.036a.225.225,0,0,1,.223.217.22.22,0,0,1-.217.223l-2.934.036Z" transform="translate(-404.545 5378.265)" fill="#2b262e"/>
    <path id="Trazado_265049" data-name="Trazado 265049" d="M1920.375,1666.011a1.711,1.711,0,0,0-1.516-1.174c-1.046-.054-1.848.921-1.711,1.271C1917.246,1666.359,1917.9,1666.5,1920.375,1666.011Z" transform="translate(-709.076 5396.041)" fill="#f59371"/>
    <path id="Trazado_265050" data-name="Trazado 265050" d="M1978.162,1851.957a31.036,31.036,0,0,1,.66,3.741,32.328,32.328,0,0,1-1.247,13.056h-2.2q-1.246-8.1-2.493-16.21Z" transform="translate(-754.204 5244.568)" fill="#f59371"/>
    <path id="Trazado_265051" data-name="Trazado 265051" d="M1980.153,1933.163a8.415,8.415,0,0,0-.252,1.849h-.478l.07-1.7a8.16,8.16,0,0,1-.443,1.109c-.044.094-.093.189-.144.284s-.115.21-.173.308h-3.243a2.529,2.529,0,0,1,.042-.785,2.688,2.688,0,0,1,.99-1.54c.035-.485.093-1.015.183-1.577s.207-1.1.33-1.577c.351.052.73.09,1.137.11a12.069,12.069,0,0,0,2.054-.073,3.088,3.088,0,0,1,.236.478,2.867,2.867,0,0,1,.167.622A6.036,6.036,0,0,1,1980.153,1933.163Z" transform="translate(-756.306 5181.771)" fill="#403a45"/>
    <path id="Trazado_265052" data-name="Trazado 265052" d="M1996.8,1851.957a30.965,30.965,0,0,1,.66,3.741,32.333,32.333,0,0,1-1.247,13.056h-2.2l-2.493-16.21Z" transform="translate(-769.29 5244.568)" fill="#f59371"/>
    <path id="Trazado_265053" data-name="Trazado 265053" d="M1971.05,1734.532a21.4,21.4,0,0,1,1.32,2.714c.366.909,1.7,4.412,1.467,11.662a55.506,55.506,0,0,1-1.345,10.439,27.331,27.331,0,0,1-10.611.2,58.213,58.213,0,0,1-.733-23.862Z" transform="translate(-743.982 5339.623)" fill="#403a45"/>
    <path id="Trazado_265054" data-name="Trazado 265054" d="M1998.788,1933.163a8.658,8.658,0,0,0-.252,1.849h-.478q.036-.851.071-1.7a8.2,8.2,0,0,1-.587,1.393c-.057.107-.114.21-.173.308h-3.243a2.52,2.52,0,0,1,.01-.593c.007-.063.019-.126.032-.192a2.7,2.7,0,0,1,.99-1.54c.036-.485.093-1.015.184-1.577.061-.373.13-.728.207-1.062q.059-.266.123-.515c.352.052.732.09,1.137.11a12.057,12.057,0,0,0,2.054-.073,2.981,2.981,0,0,1,.4,1.1A6.024,6.024,0,0,1,1998.788,1933.163Z" transform="translate(-771.391 5181.771)" fill="#403a45"/>
    <path id="Trazado_265055" data-name="Trazado 265055" d="M1993.663,1938.234a.218.218,0,0,1-.057-.007.221.221,0,0,1-.157-.269,2.666,2.666,0,0,1,.24-.6,2.7,2.7,0,0,1,.757-.86l.245-1.958a.22.22,0,1,1,.436.054l-.269,2.152-.082.056a2.269,2.269,0,0,0-.7.768,2.194,2.194,0,0,0-.2.5A.22.22,0,0,1,1993.663,1938.234Z" transform="translate(-770.849 5177.874)" fill="#2b262e"/>
    <path id="Trazado_265056" data-name="Trazado 265056" d="M1993.167,1873.548a.221.221,0,0,1-.217-.182l-1.174-6.65a.22.22,0,0,1,.434-.076l1.173,6.65a.22.22,0,0,1-.179.255A.2.2,0,0,1,1993.167,1873.548Z" transform="translate(-769.497 5232.83)" fill="#2b262e"/>
    <path id="Trazado_265057" data-name="Trazado 265057" d="M2011.243,1864.674a.22.22,0,0,1-.038-.437l1.907-.342a.22.22,0,0,1,.078.433l-1.907.342A.217.217,0,0,1,2011.243,1864.674Z" transform="translate(-785.08 5234.907)" fill="#2b262e"/>
    <path id="Trazado_265058" data-name="Trazado 265058" d="M1964.639,1641.6a3.875,3.875,0,0,0-1.416.726,5,5,0,0,0-1.489,4.175Z" transform="translate(-745.163 5414.851)" fill="#ffd1ba"/>
    <path id="Trazado_265059" data-name="Trazado 265059" d="M1946.474,1587.09a3.925,3.925,0,0,0,3.521.962l.468-2.043-1.313-.311Z" transform="translate(-732.828 5460.102)" fill="#2b262e"/>
    <path id="Trazado_265060" data-name="Trazado 265060" d="M1957.155,1589.044a3.289,3.289,0,0,0-.463,1.317c-.25,2.12,1.772,3.975,2.123,3.783C1959.024,1594.03,1958.882,1593.063,1957.155,1589.044Z" transform="translate(-741.082 5457.394)" fill="#2b262e"/>
    <path id="Trazado_265061" data-name="Trazado 265061" d="M1958.714,1636.334a10.385,10.385,0,0,0-3.848,1.416,26.336,26.336,0,0,1-1.671,3.218c-1.366,2.241-2.263,3.005-2.256,4.289a3.856,3.856,0,0,0,1.692,2.86,17.975,17.975,0,0,0,.978,6.683q-.318,2.017-.636,4.034a2.444,2.444,0,0,0,1.443.147,2.478,2.478,0,0,0,1.466-.953,5.144,5.144,0,0,0,1.54,1.027c3.442,1.469,7.292-1.561,7.628-1.834l-1.907-3.887q.708-8.1,1.415-16.2A10.576,10.576,0,0,0,1958.714,1636.334Z" transform="translate(-736.442 5419.208)" fill="#fece16"/>
    <path id="Trazado_265062" data-name="Trazado 265062" d="M1983.233,1636.178a21.659,21.659,0,0,1-5.96,6.154,20.424,20.424,0,0,1,.831-5.721,6.31,6.31,0,0,1,5.129-.433Z" transform="translate(-757.759 5419.524)" fill="#c0e6f4"/>
    <path id="Trazado_265063" data-name="Trazado 265063" d="M1982.586,1611.385q.16,2.074.32,4.148-.109,1.688-.218,3.376l3.8-3.683q-.19-2.744-.379-5.488Z" transform="translate(-762.061 5440.641)" fill="#f59371"/>
    <path id="Trazado_265064" data-name="Trazado 265064" d="M1964.87,1574.338a4.063,4.063,0,0,0-4.387,6.182,3.871,3.871,0,0,0,.248,2.425,4.105,4.105,0,0,0,2.726,2.152,5.852,5.852,0,0,0,3.876-2.632,7.864,7.864,0,0,0-2.463-8.127Z" transform="translate(-743.704 5469.372)" fill="#f59371"/>
    <path id="Trazado_265065" data-name="Trazado 265065" d="M1985.891,1580.41c.479,1.365.832,2.488,1.068,3.266a19.849,19.849,0,0,0,1.387,3.845,13.83,13.83,0,0,0,.765,1.3,4.115,4.115,0,0,0,2.418-1.856,4.239,4.239,0,0,0-.438-4.578l-.943-2.352Z" transform="translate(-764.735 5464.688)" fill="#2b262e"/>
    <path id="Trazado_265066" data-name="Trazado 265066" d="M1967.91,1566.252l2.658-.122a18.565,18.565,0,0,0-.6-4.2,2.787,2.787,0,0,0-1.329-1.192,11.207,11.207,0,0,0-6.673.4,2.846,2.846,0,0,0-1.2,1.472q-.071,1.225-.142,2.451l5.877,1.2Z" transform="translate(-744.278 5480.571)" fill="#28acd3"/>
    <path id="Trazado_265067" data-name="Trazado 265067" d="M1956.459,1583.266a5.136,5.136,0,0,1-2.978,1.145c-1.665.042-2.493-.925-4.572-1.046a7.453,7.453,0,0,0-2.436.27l2.751-1.93a5.282,5.282,0,0,1,2.609-.191,18.378,18.378,0,0,1,2.852,1.121C1955.442,1582.933,1956.068,1583.142,1956.459,1583.266Z" transform="translate(-732.828 5463.558)" fill="#28acd3"/>
    <path id="Trazado_265068" data-name="Trazado 265068" d="M1998.411,1749.406a.22.22,0,0,1-.025-.439,8.43,8.43,0,0,0,4.337-1.811.22.22,0,0,1,.276.343,8.868,8.868,0,0,1-4.562,1.905Z" transform="translate(-774.692 5329.442)" fill="#2b262e"/>
    <path id="Trazado_265069" data-name="Trazado 265069" d="M1996.871,1725.024a.22.22,0,0,1-.066-.43l2.641-.831a.22.22,0,0,1,.132.42l-2.641.831A.229.229,0,0,1,1996.871,1725.024Z" transform="translate(-773.445 5348.348)" fill="#2b262e"/>
    <path id="Trazado_265070" data-name="Trazado 265070" d="M2005.93,1641.193c-.723.12-1.1,1.372-1.516,3.325a55.254,55.254,0,0,0-.978,6.65,2.212,2.212,0,0,0-1.076,1.418c-.155,1.07.878,2.386,2.64,2.738a3.134,3.134,0,0,0,1.711-.538c1.075-.768,1.04-1.985,1.271-7.384.122-2.86.21-4.354-.831-5.525C2006.97,1641.673,2006.465,1641.105,2005.93,1641.193Z" transform="translate(-778.055 5415.187)" fill="#c0e6f4"/>
    <path id="Trazado_265071" data-name="Trazado 265071" d="M1991.737,1572.642a.214.214,0,0,1-.058-.008.221.221,0,0,1-.155-.27l.906-3.321.087-.045a3.031,3.031,0,0,1,1.107-.316,3.081,3.081,0,0,1,1.633.315.22.22,0,1,1-.2.394,2.646,2.646,0,0,0-1.4-.271,2.573,2.573,0,0,0-.86.229l-.854,3.13A.222.222,0,0,1,1991.737,1572.642Z" transform="translate(-769.29 5473.885)" fill="#403a45"/>
    <path id="Trazado_265072" data-name="Trazado 265072" d="M1965.128,1571.218h-.01a.22.22,0,0,1-.211-.229l.1-2.512a4.488,4.488,0,0,0-2.026-.633,4.542,4.542,0,0,0-2.517.595.22.22,0,0,1-.219-.382,4.99,4.99,0,0,1,2.764-.653,4.93,4.93,0,0,1,2.342.768l.107.068-.115,2.767A.22.22,0,0,1,1965.128,1571.218Z" transform="translate(-743.89 5474.917)" fill="#403a45"/>
    <path id="Trazado_265073" data-name="Trazado 265073" d="M1975.279,1695.965a1.812,1.812,0,0,1,.929,1.1,2.329,2.329,0,0,1-1.271,2.516,17.056,17.056,0,0,1-3.423.636,17.283,17.283,0,0,1-6.21-.636q-.079-.9-.159-1.8a12.523,12.523,0,0,0,2.017-.11,39.491,39.491,0,0,0,6.259-1.663A2.484,2.484,0,0,1,1975.279,1695.965Z" transform="translate(-747.942 5370.977)" fill="#f59371"/>
    <path id="Trazado_265074" data-name="Trazado 265074" d="M1901.1,1670.833l2.423,7.437a.835.835,0,0,1-.784,1.189l-11.385.177a1.726,1.726,0,0,1-1.547-1.153l-2.423-7.437a.835.835,0,0,1,.784-1.189l11.386-.177A1.727,1.727,0,0,1,1901.1,1670.833Z" transform="translate(-684.948 5392.119)" fill="#2b262e"/>
    <path id="Trazado_265075" data-name="Trazado 265075" d="M1962.649,1698.164l1.736-.464a5.048,5.048,0,0,1,.318,1.051,5.286,5.286,0,0,1-.22,2.689l-.562-1.088a1.338,1.338,0,0,1-.88-.22A1.668,1.668,0,0,1,1962.649,1698.164Z" transform="translate(-745.8 5369.438)" fill="#f59371"/>
    <path id="Trazado_265076" data-name="Trazado 265076" d="M2007.652,1665.38h-.022a.22.22,0,0,1-.2-.24c.07-.718.152-1.444.245-2.158.161-1.243.359-2.5.589-3.728a.22.22,0,1,1,.433.08c-.228,1.223-.425,2.469-.585,3.7-.092.71-.174,1.431-.244,2.145A.22.22,0,0,1,2007.652,1665.38Z" transform="translate(-782.172 5400.707)" fill="#2b262e"/>
    <path id="Trazado_265077" data-name="Trazado 265077" d="M2018.92,1698.806a.22.22,0,0,1-.194-.324,1.882,1.882,0,0,0,.219-1.05,1.95,1.95,0,0,0-.659-1.271.22.22,0,0,1,.289-.332,2.392,2.392,0,0,1,.808,1.565,2.326,2.326,0,0,1-.27,1.3A.22.22,0,0,1,2018.92,1698.806Z" transform="translate(-790.898 5370.996)" fill="#2b262e"/>
    <path id="Trazado_265078" data-name="Trazado 265078" d="M1393.7,1884.988a.22.22,0,0,1-.191-.33c.357-.621.7-1.258,1.021-1.9a38.309,38.309,0,0,0,1.969-4.667.22.22,0,0,1,.416.144,38.769,38.769,0,0,1-1.992,4.721c-.324.645-.672,1.291-1.033,1.918A.22.22,0,0,1,1393.7,1884.988Z" transform="translate(-285.182 5223.529)" fill="#2b262e"/>
  </g>
</svg>
