<svg xmlns="http://www.w3.org/2000/svg" width="52" height="52" viewBox="0 0 52 52">
  <g id="Grupo_128326" data-name="Grupo 128326" transform="translate(-184 -855)">
    <path id="Trazado_265083" data-name="Trazado 265083" d="M26,0A26,26,0,1,1,0,26,26,26,0,0,1,26,0Z" transform="translate(184 855)" fill="#fece16"/>
    <path id="Trazado_265084" data-name="Trazado 265084" d="M13.857,31.575a5.882,5.882,0,0,1-1.89.571,17.864,17.864,0,0,1-2.974.22,9.147,9.147,0,0,1-4.241-.959A7,7,0,0,1,1.86,28.719,7.463,7.463,0,0,1,.835,24.837,8.5,8.5,0,0,1,1.926,20.42a7.114,7.114,0,0,1,3.113-2.812,10.679,10.679,0,0,1,4.688-.974,16.4,16.4,0,0,1,2.629.19,4.018,4.018,0,0,1,1.5.439v4.863a4.333,4.333,0,0,0-1.348-.645,5.414,5.414,0,0,0-1.626-.278,3.959,3.959,0,0,0-2.776.872,3.172,3.172,0,0,0-.945,2.454,3.113,3.113,0,0,0,.93,2.41,3.628,3.628,0,0,0,2.556.857,6.366,6.366,0,0,0,3.208-.835Z" transform="translate(202 862.35)" fill="#12263f"/>
  </g>
</svg>
