<svg xmlns="http://www.w3.org/2000/svg" width="295" height="371" viewBox="0 0 295 371">
  <g id="Grupo_128328" data-name="Grupo 128328" transform="translate(-653 -1162)">
    <g id="Trazado_265088" data-name="Trazado 265088" transform="translate(653 1194)" fill="#fff">
      <path d="M 270 337 L 25 337 C 21.89413642883301 337 18.88227272033691 336.3921813964844 16.04800033569336 335.193359375 C 13.30940914154053 334.0350341796875 10.84949970245361 332.3763732910156 8.736545562744141 330.2634582519531 C 6.623636245727539 328.1505432128906 4.964954376220703 325.6906433105469 3.806636333465576 322.9520568847656 C 2.607818126678467 320.1177673339844 2 317.1058654785156 2 314 L 2 25 C 2 21.89413642883301 2.607818126678467 18.88227272033691 3.806636333465576 16.04800033569336 C 4.964954376220703 13.30940914154053 6.623636245727539 10.84949970245361 8.736545562744141 8.736545562744141 C 10.84949970245361 6.623636245727539 13.30940914154053 4.964954376220703 16.04800033569336 3.806636333465576 C 18.88227272033691 2.607818126678467 21.89413642883301 2 25 2 L 270 2 C 273.1058654785156 2 276.1177673339844 2.607818126678467 278.9520568847656 3.806636333465576 C 281.6906433105469 4.964954376220703 284.1505432128906 6.623636245727539 286.2634582519531 8.736545562744141 C 288.3763732910156 10.84949970245361 290.0350341796875 13.30940914154053 291.193359375 16.04800033569336 C 292.3921813964844 18.88227272033691 293 21.89413642883301 293 25 L 293 314 C 293 317.1058654785156 292.3921813964844 320.1177673339844 291.193359375 322.9520568847656 C 290.0350341796875 325.6906433105469 288.3764038085938 328.1505432128906 286.2634582519531 330.2634582519531 C 284.1505432128906 332.3764038085938 281.6906433105469 334.0350341796875 278.9520568847656 335.193359375 C 276.1177673339844 336.3921813964844 273.1058654785156 337 270 337 Z" stroke="none"/>
      <path d="M 25 4 C 19.39068603515625 4 14.11712646484375 6.184356689453125 10.15078735351562 10.15078735351562 C 6.184356689453125 14.11712646484375 4 19.39068603515625 4 25 L 4 314 C 4 319.6093139648438 6.184356689453125 324.8828735351562 10.15078735351562 328.8492126464844 C 14.11712646484375 332.8156433105469 19.39068603515625 335 25 335 L 270 335 C 275.6093139648438 335 280.8828735351562 332.8156433105469 284.8492126464844 328.8492126464844 C 288.8156433105469 324.8828735351562 291 319.6093139648438 291 314 L 291 25 C 291 19.39068603515625 288.8156433105469 14.11712646484375 284.8492126464844 10.15078735351562 C 280.8828735351562 6.184356689453125 275.6093139648438 4 270 4 L 25 4 M 25 0 L 270 0 C 283.80712890625 0 295 11.19287109375 295 25 L 295 314 C 295 327.80712890625 283.80712890625 339 270 339 L 25 339 C 11.19287109375 339 0 327.80712890625 0 314 L 0 25 C 0 11.19287109375 11.19287109375 0 25 0 Z" stroke="none" fill="#54feb5"/>
    </g>
    <g id="Trazado_263647" data-name="Trazado 263647" transform="translate(768 1162)" fill="#d4ffec">
      <path d="M 32.5 63 C 28.38165092468262 63 24.38754081726074 62.1938591003418 20.62863922119141 60.60398101806641 C 16.9969596862793 59.06790924072266 13.73495960235596 56.86846923828125 10.93323993682861 54.0667610168457 C 8.131529808044434 51.26504135131836 5.932089805603027 48.0030403137207 4.39601993560791 44.37136077880859 C 2.806139945983887 40.61246109008789 2 36.61835098266602 2 32.5 C 2 28.38165092468262 2.806139945983887 24.38754081726074 4.39601993560791 20.62863922119141 C 5.932089805603027 16.9969596862793 8.131529808044434 13.73495960235596 10.93323993682861 10.93323993682861 C 13.73495960235596 8.131529808044434 16.9969596862793 5.932089805603027 20.62863922119141 4.39601993560791 C 24.38754081726074 2.806139945983887 28.38165092468262 2 32.5 2 C 36.61835098266602 2 40.61246109008789 2.806139945983887 44.37136077880859 4.39601993560791 C 48.0030403137207 5.932089805603027 51.26504135131836 8.131529808044434 54.0667610168457 10.93323993682861 C 56.86846923828125 13.73495960235596 59.06790924072266 16.9969596862793 60.60398101806641 20.62863922119141 C 62.1938591003418 24.38754081726074 63 28.38165092468262 63 32.5 C 63 36.61835098266602 62.1938591003418 40.61246109008789 60.60398101806641 44.37136077880859 C 59.06790924072266 48.0030403137207 56.86846923828125 51.26504135131836 54.0667610168457 54.0667610168457 C 51.26504135131836 56.86846923828125 48.0030403137207 59.06790924072266 44.37136077880859 60.60398101806641 C 40.61246109008789 62.1938591003418 36.61835098266602 63 32.5 63 Z" stroke="none"/>
      <path d="M 32.5 4 C 28.65076446533203 4 24.91878890991211 4.752975463867188 21.40774154663086 6.238021850585938 C 18.01445770263672 7.673271179199219 14.96614074707031 9.728775024414062 12.34745788574219 12.34745788574219 C 9.728775024414062 14.96614074707031 7.673271179199219 18.01445770263672 6.238021850585938 21.40774154663086 C 4.752975463867188 24.91878890991211 4 28.65076446533203 4 32.5 C 4 36.34923553466797 4.752975463867188 40.08121109008789 6.238021850585938 43.59225845336914 C 7.673271179199219 46.98554229736328 9.728775024414062 50.03385925292969 12.34745788574219 52.65254211425781 C 14.96614074707031 55.27122497558594 18.01445770263672 57.32672882080078 21.40774154663086 58.761962890625 C 24.91878890991211 60.24702453613281 28.65076446533203 61 32.5 61 C 36.34923553466797 61 40.08121109008789 60.24702453613281 43.59225845336914 58.761962890625 C 46.98554229736328 57.32672882080078 50.03385925292969 55.27122497558594 52.65254211425781 52.65254211425781 C 55.27122497558594 50.03385925292969 57.32672882080078 46.98554229736328 58.761962890625 43.59225845336914 C 60.24702453613281 40.08121109008789 61 36.34923553466797 61 32.5 C 61 28.65076446533203 60.24702453613281 24.91878890991211 58.761962890625 21.40774154663086 C 57.32672882080078 18.01445770263672 55.27122497558594 14.96614074707031 52.65254211425781 12.34745788574219 C 50.03385925292969 9.728775024414062 46.98554229736328 7.673271179199219 43.59225845336914 6.238021850585938 C 40.08121109008789 4.752975463867188 36.34923553466797 4 32.5 4 M 32.5 0 C 50.44924926757812 0 65 14.55073928833008 65 32.5 C 65 50.44924926757812 50.44924926757812 65 32.5 65 C 14.55073928833008 65 0 50.44924926757812 0 32.5 C 0 14.55073928833008 14.55073928833008 0 32.5 0 Z" stroke="none" fill="#54feb5"/>
    </g>
    <path id="Trazado_265089" data-name="Trazado 265089" d="M11.938,19.441h5.938V22H8.559V20.945a4.909,4.909,0,0,1,.361-1.929,6.4,6.4,0,0,1,.908-1.533,7.878,7.878,0,0,1,1.2-1.2q.649-.522,1.235-.942.615-.439,1.079-.84a6.149,6.149,0,0,0,.781-.8,3.026,3.026,0,0,0,.474-.8,2.382,2.382,0,0,0,.156-.864,1.737,1.737,0,0,0-.508-1.357,2.258,2.258,0,0,0-1.553-.459,5.215,5.215,0,0,0-3.457,1.436V8.943a7.421,7.421,0,0,1,4.121-1.182,6.086,6.086,0,0,1,1.909.278,4.039,4.039,0,0,1,1.431.8,3.4,3.4,0,0,1,.894,1.255,4.235,4.235,0,0,1,.308,1.646,4.64,4.64,0,0,1-.3,1.719,5.281,5.281,0,0,1-.791,1.367,7.175,7.175,0,0,1-1.138,1.128q-.645.513-1.338.991-.469.332-.9.659a8.564,8.564,0,0,0-.767.645,3.5,3.5,0,0,0-.527.62A1.07,1.07,0,0,0,11.938,19.441Z" transform="translate(787 1183)" fill="#12263f"/>
    <path id="Trazado_265090" data-name="Trazado 265090" d="M.945,16.547V15a3,3,0,0,0,.637.422,5.159,5.159,0,0,0,.781.316,6.219,6.219,0,0,0,.824.2,4.6,4.6,0,0,0,.766.07,3,3,0,0,0,1.809-.449,1.685,1.685,0,0,0,.4-2.082,2.244,2.244,0,0,0-.551-.613,5.465,5.465,0,0,0-.832-.531q-.48-.254-1.035-.535-.586-.3-1.094-.6a4.739,4.739,0,0,1-.883-.672,2.8,2.8,0,0,1-.59-.832A2.575,2.575,0,0,1,.961,8.6,2.563,2.563,0,0,1,1.3,7.27a2.881,2.881,0,0,1,.883-.934,4,4,0,0,1,1.246-.547,5.706,5.706,0,0,1,1.426-.18,5.464,5.464,0,0,1,2.414.4V7.484A4.376,4.376,0,0,0,4.719,6.8a4.189,4.189,0,0,0-.859.09,2.428,2.428,0,0,0-.766.293,1.7,1.7,0,0,0-.547.523,1.389,1.389,0,0,0-.211.781,1.608,1.608,0,0,0,.16.742,1.819,1.819,0,0,0,.473.57,4.708,4.708,0,0,0,.762.5q.449.242,1.035.531.6.3,1.141.625a5.214,5.214,0,0,1,.945.727,3.229,3.229,0,0,1,.645.883,2.482,2.482,0,0,1,.238,1.109,2.813,2.813,0,0,1-.324,1.4,2.661,2.661,0,0,1-.875.934,3.822,3.822,0,0,1-1.27.52,6.953,6.953,0,0,1-1.516.16,6.176,6.176,0,0,1-.656-.043Q2.7,17.1,2.3,17.02a6.5,6.5,0,0,1-.77-.2A2.394,2.394,0,0,1,.945,16.547ZM16.227,13.32H10.578a2.992,2.992,0,0,0,.719,2.063,2.478,2.478,0,0,0,1.891.727,3.931,3.931,0,0,0,2.484-.891v1.2a4.643,4.643,0,0,1-2.789.766,3.381,3.381,0,0,1-2.664-1.09,4.461,4.461,0,0,1-.969-3.066,4.375,4.375,0,0,1,1.059-3.043,3.394,3.394,0,0,1,2.629-1.176,3.008,3.008,0,0,1,2.43,1.016,4.234,4.234,0,0,1,.859,2.82Zm-1.312-1.086a2.607,2.607,0,0,0-.535-1.727,1.823,1.823,0,0,0-1.465-.617,2.07,2.07,0,0,0-1.539.648,2.943,2.943,0,0,0-.781,1.7ZM29.375,17H28.094V15.641h-.031a2.958,2.958,0,0,1-2.75,1.547,2.988,2.988,0,0,1-2.41-1.074,4.407,4.407,0,0,1-.9-2.926,4.794,4.794,0,0,1,1-3.18,3.3,3.3,0,0,1,2.664-1.2,2.564,2.564,0,0,1,2.4,1.3h.031V5.156h1.281Zm-1.281-3.617V12.2a2.289,2.289,0,0,0-.641-1.641,2.149,2.149,0,0,0-1.625-.672,2.212,2.212,0,0,0-1.844.859,3.766,3.766,0,0,0-.672,2.375,3.387,3.387,0,0,0,.645,2.184,2.107,2.107,0,0,0,1.73.8,2.188,2.188,0,0,0,1.738-.773A2.882,2.882,0,0,0,28.094,13.383Zm10.3-.062H32.75a2.992,2.992,0,0,0,.719,2.063,2.478,2.478,0,0,0,1.891.727,3.931,3.931,0,0,0,2.484-.891v1.2a4.643,4.643,0,0,1-2.789.766,3.381,3.381,0,0,1-2.664-1.09,4.461,4.461,0,0,1-.969-3.066A4.375,4.375,0,0,1,32.48,9.988a3.394,3.394,0,0,1,2.629-1.176,3.008,3.008,0,0,1,2.43,1.016,4.234,4.234,0,0,1,.859,2.82Zm-1.312-1.086a2.607,2.607,0,0,0-.535-1.727,1.823,1.823,0,0,0-1.465-.617,2.07,2.07,0,0,0-1.539.648,2.943,2.943,0,0,0-.781,1.7Zm7.2-5.953a1.707,1.707,0,0,0-.852-.211q-1.344,0-1.344,1.7V9h1.875v1.094H42.094V17H40.82V10.094H39.453V9H40.82V7.7a2.7,2.7,0,0,1,.727-1.988,2.453,2.453,0,0,1,1.813-.73,2.511,2.511,0,0,1,.93.141ZM46,6.969a.812.812,0,0,1-.586-.234.791.791,0,0,1-.242-.594A.821.821,0,0,1,46,5.3a.827.827,0,0,1,.6.238.835.835,0,0,1,0,1.184A.82.82,0,0,1,46,6.969ZM46.625,17H45.344V9h1.281Zm9.234,0H54.578V12.438q0-2.547-1.859-2.547a2.017,2.017,0,0,0-1.59.723,2.679,2.679,0,0,0-.629,1.824V17H49.219V9H50.5v1.328h.031a2.887,2.887,0,0,1,2.625-1.516,2.448,2.448,0,0,1,2.008.848,3.776,3.776,0,0,1,.7,2.449ZM64.7,13.32H59.055a2.992,2.992,0,0,0,.719,2.063,2.478,2.478,0,0,0,1.891.727,3.931,3.931,0,0,0,2.484-.891v1.2a4.643,4.643,0,0,1-2.789.766A3.381,3.381,0,0,1,58.7,16.1a4.461,4.461,0,0,1-.969-3.066,4.375,4.375,0,0,1,1.059-3.043,3.394,3.394,0,0,1,2.629-1.176,3.008,3.008,0,0,1,2.43,1.016,4.234,4.234,0,0,1,.859,2.82Zm-1.312-1.086a2.607,2.607,0,0,0-.535-1.727,1.823,1.823,0,0,0-1.465-.617,2.07,2.07,0,0,0-1.539.648,2.943,2.943,0,0,0-.781,1.7ZM73.281,17H72V12.438q0-2.547-1.859-2.547a2.017,2.017,0,0,0-1.59.723,2.679,2.679,0,0,0-.629,1.824V17H66.641V9h1.281v1.328h.031a2.887,2.887,0,0,1,2.625-1.516,2.448,2.448,0,0,1,2.008.848,3.776,3.776,0,0,1,.7,2.449Zm12.25-.367a4.163,4.163,0,0,1-2.187.555,3.622,3.622,0,0,1-2.762-1.113,4.035,4.035,0,0,1-1.051-2.887,4.435,4.435,0,0,1,1.133-3.176,3.963,3.963,0,0,1,3.023-1.2,4.209,4.209,0,0,1,1.859.391v1.313a3.258,3.258,0,0,0-1.906-.625,2.576,2.576,0,0,0-2.012.879,3.335,3.335,0,0,0-.785,2.309,3.176,3.176,0,0,0,.738,2.219,2.545,2.545,0,0,0,1.98.813,3.211,3.211,0,0,0,1.969-.7Zm5.281.555a3.711,3.711,0,0,1-2.832-1.121,4.153,4.153,0,0,1-1.059-2.973,4.326,4.326,0,0,1,1.1-3.148A3.96,3.96,0,0,1,91,8.813a3.588,3.588,0,0,1,2.793,1.1,4.368,4.368,0,0,1,1,3.055,4.3,4.3,0,0,1-1.082,3.066A3.791,3.791,0,0,1,90.813,17.188Zm.094-7.3a2.437,2.437,0,0,0-1.953.84,3.449,3.449,0,0,0-.719,2.316,3.262,3.262,0,0,0,.727,2.242,2.469,2.469,0,0,0,1.945.82,2.342,2.342,0,0,0,1.91-.8,3.492,3.492,0,0,0,.668-2.289,3.552,3.552,0,0,0-.668-2.312A2.332,2.332,0,0,0,90.906,9.891ZM108.2,17h-1.281V12.406a3.466,3.466,0,0,0-.41-1.922,1.555,1.555,0,0,0-1.379-.594,1.708,1.708,0,0,0-1.395.75,2.869,2.869,0,0,0-.574,1.8V17h-1.281V12.25q0-2.359-1.82-2.359a1.686,1.686,0,0,0-1.391.707,2.923,2.923,0,0,0-.547,1.84V17H96.844V9h1.281v1.266h.031a2.718,2.718,0,0,1,2.484-1.453,2.311,2.311,0,0,1,2.266,1.656,2.855,2.855,0,0,1,2.656-1.656q2.641,0,2.641,3.258Zm5.766.188a3.711,3.711,0,0,1-2.832-1.121,4.153,4.153,0,0,1-1.059-2.973,4.326,4.326,0,0,1,1.1-3.148,3.96,3.96,0,0,1,2.977-1.133,3.588,3.588,0,0,1,2.793,1.1,4.368,4.368,0,0,1,1,3.055,4.3,4.3,0,0,1-1.082,3.066A3.791,3.791,0,0,1,113.969,17.188Zm.094-7.3a2.437,2.437,0,0,0-1.953.84,3.449,3.449,0,0,0-.719,2.316,3.262,3.262,0,0,0,.727,2.242,2.469,2.469,0,0,0,1.945.82,2.342,2.342,0,0,0,1.91-.8,3.492,3.492,0,0,0,.668-2.289,3.552,3.552,0,0,0-.668-2.312A2.332,2.332,0,0,0,114.063,9.891ZM130.109,17h-1.281V15.75H128.8a2.682,2.682,0,0,1-2.461,1.438,2.63,2.63,0,0,1-1.871-.633,2.192,2.192,0,0,1-.676-1.68q0-2.242,2.641-2.609l2.4-.336q0-2.039-1.648-2.039a3.938,3.938,0,0,0-2.609.984V9.563a4.958,4.958,0,0,1,2.719-.75q2.82,0,2.82,2.984Zm-1.281-4.047-1.93.266a3.133,3.133,0,0,0-1.344.441,1.273,1.273,0,0,0-.453,1.121,1.221,1.221,0,0,0,.418.957,1.615,1.615,0,0,0,1.113.371,2.056,2.056,0,0,0,1.574-.668,2.387,2.387,0,0,0,.621-1.691ZM138.992,17h-1.281V15.734h-.031a2.631,2.631,0,0,1-2.469,1.453q-2.859,0-2.859-3.406V9h1.273v4.578q0,2.531,1.938,2.531a1.96,1.96,0,0,0,1.543-.691,2.645,2.645,0,0,0,.605-1.809V9h1.281Zm6.3-.078a2.47,2.47,0,0,1-1.2.25q-2.1,0-2.1-2.344V10.094h-1.375V9h1.375V7.047l1.281-.414V9h2.016v1.094h-2.016V14.6a1.869,1.869,0,0,0,.273,1.148,1.091,1.091,0,0,0,.906.344,1.347,1.347,0,0,0,.836-.266Zm5.055.266a3.711,3.711,0,0,1-2.832-1.121,4.153,4.153,0,0,1-1.059-2.973,4.326,4.326,0,0,1,1.1-3.148,3.96,3.96,0,0,1,2.977-1.133,3.588,3.588,0,0,1,2.793,1.1,4.368,4.368,0,0,1,1,3.055,4.3,4.3,0,0,1-1.082,3.066A3.791,3.791,0,0,1,150.344,17.188Zm.094-7.3a2.437,2.437,0,0,0-1.953.84,3.449,3.449,0,0,0-.719,2.316,3.262,3.262,0,0,0,.727,2.242,2.469,2.469,0,0,0,1.945.82,2.342,2.342,0,0,0,1.91-.8,3.492,3.492,0,0,0,.668-2.289,3.552,3.552,0,0,0-.668-2.312A2.332,2.332,0,0,0,150.438,9.891Zm10.109.406a1.567,1.567,0,0,0-.969-.258,1.635,1.635,0,0,0-1.371.773,3.576,3.576,0,0,0-.551,2.109V17h-1.281V9h1.281v1.648h.031a2.794,2.794,0,0,1,.836-1.316,1.906,1.906,0,0,1,1.258-.473,2.092,2.092,0,0,1,.766.109Zm2.047-3.328a.812.812,0,0,1-.586-.234.791.791,0,0,1-.242-.594.821.821,0,0,1,.828-.836.827.827,0,0,1,.6.238.835.835,0,0,1,0,1.184A.82.82,0,0,1,162.594,6.969ZM163.219,17h-1.281V9h1.281Zm9.422,0h-1.281V15.641h-.031a2.958,2.958,0,0,1-2.75,1.547,2.988,2.988,0,0,1-2.41-1.074,4.407,4.407,0,0,1-.9-2.926,4.794,4.794,0,0,1,1-3.18,3.3,3.3,0,0,1,2.664-1.2,2.564,2.564,0,0,1,2.4,1.3h.031V5.156h1.281Zm-1.281-3.617V12.2a2.289,2.289,0,0,0-.641-1.641,2.149,2.149,0,0,0-1.625-.672,2.212,2.212,0,0,0-1.844.859,3.766,3.766,0,0,0-.672,2.375,3.387,3.387,0,0,0,.645,2.184,2.107,2.107,0,0,0,1.73.8,2.188,2.188,0,0,0,1.738-.773A2.882,2.882,0,0,0,171.359,13.383Zm9.6,3.617H179.68V15.75h-.031a2.682,2.682,0,0,1-2.461,1.438,2.63,2.63,0,0,1-1.871-.633,2.192,2.192,0,0,1-.676-1.68q0-2.242,2.641-2.609l2.4-.336q0-2.039-1.648-2.039a3.938,3.938,0,0,0-2.609.984V9.563a4.958,4.958,0,0,1,2.719-.75q2.82,0,2.82,2.984Zm-1.281-4.047-1.93.266a3.133,3.133,0,0,0-1.344.441,1.273,1.273,0,0,0-.453,1.121,1.221,1.221,0,0,0,.418.957,1.615,1.615,0,0,0,1.113.371,2.056,2.056,0,0,0,1.574-.668,2.387,2.387,0,0,0,.621-1.691ZM190.2,17h-1.281V15.641h-.031a2.958,2.958,0,0,1-2.75,1.547,2.988,2.988,0,0,1-2.41-1.074,4.407,4.407,0,0,1-.9-2.926,4.794,4.794,0,0,1,1-3.18,3.3,3.3,0,0,1,2.664-1.2,2.564,2.564,0,0,1,2.4,1.3h.031V5.156H190.2Zm-1.281-3.617V12.2a2.289,2.289,0,0,0-.641-1.641,2.149,2.149,0,0,0-1.625-.672,2.212,2.212,0,0,0-1.844.859,3.766,3.766,0,0,0-.672,2.375,3.387,3.387,0,0,0,.645,2.184,2.107,2.107,0,0,0,1.73.8,2.188,2.188,0,0,0,1.738-.773A2.882,2.882,0,0,0,188.922,13.383Zm10.3-.062h-5.648a2.992,2.992,0,0,0,.719,2.063,2.478,2.478,0,0,0,1.891.727,3.931,3.931,0,0,0,2.484-.891v1.2a4.643,4.643,0,0,1-2.789.766,3.381,3.381,0,0,1-2.664-1.09,4.461,4.461,0,0,1-.969-3.066,4.374,4.374,0,0,1,1.059-3.043,3.394,3.394,0,0,1,2.629-1.176,3.008,3.008,0,0,1,2.43,1.016,4.234,4.234,0,0,1,.859,2.82Zm-1.312-1.086a2.607,2.607,0,0,0-.535-1.727,1.823,1.823,0,0,0-1.465-.617,2.07,2.07,0,0,0-1.539.648,2.943,2.943,0,0,0-.781,1.7Zm2.766,4.477V15.336a3.792,3.792,0,0,0,2.3.773q1.688,0,1.688-1.125a.976.976,0,0,0-.145-.543,1.44,1.44,0,0,0-.391-.395,3.007,3.007,0,0,0-.578-.309q-.332-.137-.715-.285a9.207,9.207,0,0,1-.934-.426,2.82,2.82,0,0,1-.672-.484,1.8,1.8,0,0,1-.406-.613,2.17,2.17,0,0,1-.137-.8,1.912,1.912,0,0,1,.258-1,2.286,2.286,0,0,1,.688-.727,3.206,3.206,0,0,1,.98-.441,4.349,4.349,0,0,1,1.137-.148,4.59,4.59,0,0,1,1.859.359v1.3a3.624,3.624,0,0,0-2.031-.578,2.374,2.374,0,0,0-.648.082,1.587,1.587,0,0,0-.5.23,1.065,1.065,0,0,0-.32.355.936.936,0,0,0-.113.457,1.1,1.1,0,0,0,.113.523,1.152,1.152,0,0,0,.332.375,2.538,2.538,0,0,0,.531.3q.312.133.711.289a9.894,9.894,0,0,1,.953.418,3.269,3.269,0,0,1,.719.484,1.893,1.893,0,0,1,.457.621,2,2,0,0,1,.16.836,1.971,1.971,0,0,1-.262,1.031,2.243,2.243,0,0,1-.7.727,3.2,3.2,0,0,1-1.008.43,4.976,4.976,0,0,1-1.2.141A4.539,4.539,0,0,1,200.68,16.711ZM.813,40.711V39.336a3.792,3.792,0,0,0,2.3.773q1.688,0,1.688-1.125a.976.976,0,0,0-.145-.543,1.44,1.44,0,0,0-.391-.395,3.007,3.007,0,0,0-.578-.309q-.332-.137-.715-.285a9.206,9.206,0,0,1-.934-.426,2.82,2.82,0,0,1-.672-.484,1.8,1.8,0,0,1-.406-.613,2.17,2.17,0,0,1-.137-.8,1.912,1.912,0,0,1,.258-1,2.286,2.286,0,0,1,.688-.727,3.206,3.206,0,0,1,.98-.441,4.349,4.349,0,0,1,1.137-.148,4.59,4.59,0,0,1,1.859.359v1.3a3.624,3.624,0,0,0-2.031-.578,2.374,2.374,0,0,0-.648.082,1.587,1.587,0,0,0-.5.23,1.065,1.065,0,0,0-.32.355.936.936,0,0,0-.113.457,1.1,1.1,0,0,0,.113.523,1.152,1.152,0,0,0,.332.375,2.538,2.538,0,0,0,.531.3q.312.133.711.289a9.894,9.894,0,0,1,.953.418A3.269,3.269,0,0,1,5.5,37.4a1.893,1.893,0,0,1,.457.621,2,2,0,0,1,.16.836,1.971,1.971,0,0,1-.262,1.031,2.243,2.243,0,0,1-.7.727,3.2,3.2,0,0,1-1.008.43,4.976,4.976,0,0,1-1.2.141A4.539,4.539,0,0,1,.813,40.711Zm13,.289H12.531V39.75H12.5a2.682,2.682,0,0,1-2.461,1.438,2.63,2.63,0,0,1-1.871-.633,2.192,2.192,0,0,1-.676-1.68q0-2.242,2.641-2.609l2.4-.336q0-2.039-1.648-2.039a3.938,3.938,0,0,0-2.609.984V33.563a4.958,4.958,0,0,1,2.719-.75q2.82,0,2.82,2.984Zm-1.281-4.047-1.93.266a3.133,3.133,0,0,0-1.344.441A1.273,1.273,0,0,0,8.8,38.781a1.221,1.221,0,0,0,.418.957,1.615,1.615,0,0,0,1.113.371,2.056,2.056,0,0,0,1.574-.668,2.387,2.387,0,0,0,.621-1.691ZM22.867,41H21.586V36.438q0-2.547-1.859-2.547a2.017,2.017,0,0,0-1.59.723,2.679,2.679,0,0,0-.629,1.824V41H16.227V33h1.281v1.328h.031a2.887,2.887,0,0,1,2.625-1.516,2.448,2.448,0,0,1,2.008.848,3.776,3.776,0,0,1,.7,2.449Zm3.07-10.031a.812.812,0,0,1-.586-.234.791.791,0,0,1-.242-.594.821.821,0,0,1,.828-.836.827.827,0,0,1,.6.238.835.835,0,0,1,0,1.184A.82.82,0,0,1,25.938,30.969ZM26.563,41H25.281V33h1.281Zm6.3-.078a2.47,2.47,0,0,1-1.2.25q-2.1,0-2.1-2.344V34.094H28.2V33H29.57V31.047l1.281-.414V33h2.016v1.094H30.852V38.6a1.869,1.869,0,0,0,.273,1.148,1.091,1.091,0,0,0,.906.344,1.347,1.347,0,0,0,.836-.266ZM40.3,41H39.023V39.75h-.031a2.682,2.682,0,0,1-2.461,1.438,2.63,2.63,0,0,1-1.871-.633,2.192,2.192,0,0,1-.676-1.68q0-2.242,2.641-2.609l2.4-.336q0-2.039-1.648-2.039a3.938,3.938,0,0,0-2.609.984V33.563a4.958,4.958,0,0,1,2.719-.75q2.82,0,2.82,2.984Zm-1.281-4.047-1.93.266a3.133,3.133,0,0,0-1.344.441,1.273,1.273,0,0,0-.453,1.121,1.221,1.221,0,0,0,.418.957,1.615,1.615,0,0,0,1.113.371,2.056,2.056,0,0,0,1.574-.668,2.387,2.387,0,0,0,.621-1.691ZM46.891,34.3a1.567,1.567,0,0,0-.969-.258,1.635,1.635,0,0,0-1.371.773A3.576,3.576,0,0,0,44,36.922V41H42.719V33H44v1.648h.031a2.794,2.794,0,0,1,.836-1.316,1.906,1.906,0,0,1,1.258-.473,2.092,2.092,0,0,1,.766.109Zm2.047-3.328a.812.812,0,0,1-.586-.234.791.791,0,0,1-.242-.594.821.821,0,0,1,.828-.836.827.827,0,0,1,.6.238.835.835,0,0,1,0,1.184A.82.82,0,0,1,48.938,30.969ZM49.563,41H48.281V33h1.281Zm8.32,0H56.6V39.75H56.57a2.682,2.682,0,0,1-2.461,1.438,2.63,2.63,0,0,1-1.871-.633,2.192,2.192,0,0,1-.676-1.68q0-2.242,2.641-2.609l2.4-.336q0-2.039-1.648-2.039a3.938,3.938,0,0,0-2.609.984V33.563a4.958,4.958,0,0,1,2.719-.75q2.82,0,2.82,2.984ZM56.6,36.953l-1.93.266a3.133,3.133,0,0,0-1.344.441,1.273,1.273,0,0,0-.453,1.121,1.221,1.221,0,0,0,.418.957,1.615,1.615,0,0,0,1.113.371,2.056,2.056,0,0,0,1.574-.668A2.387,2.387,0,0,0,56.6,37.75Zm3.211,3.758V39.336a3.792,3.792,0,0,0,2.3.773q1.688,0,1.688-1.125a.976.976,0,0,0-.145-.543,1.44,1.44,0,0,0-.391-.395,3.007,3.007,0,0,0-.578-.309q-.332-.137-.715-.285a9.206,9.206,0,0,1-.934-.426,2.82,2.82,0,0,1-.672-.484,1.8,1.8,0,0,1-.406-.613,2.17,2.17,0,0,1-.137-.8,1.912,1.912,0,0,1,.258-1,2.286,2.286,0,0,1,.688-.727,3.206,3.206,0,0,1,.98-.441,4.349,4.349,0,0,1,1.137-.148,4.59,4.59,0,0,1,1.859.359v1.3a3.624,3.624,0,0,0-2.031-.578,2.374,2.374,0,0,0-.648.082,1.587,1.587,0,0,0-.5.23,1.065,1.065,0,0,0-.32.355.936.936,0,0,0-.113.457,1.1,1.1,0,0,0,.113.523,1.152,1.152,0,0,0,.332.375,2.538,2.538,0,0,0,.531.3q.312.133.711.289a9.894,9.894,0,0,1,.953.418,3.269,3.269,0,0,1,.719.484,1.893,1.893,0,0,1,.457.621,2,2,0,0,1,.16.836,1.971,1.971,0,0,1-.262,1.031,2.243,2.243,0,0,1-.7.727,3.2,3.2,0,0,1-1.008.43,4.976,4.976,0,0,1-1.2.141A4.539,4.539,0,0,1,59.813,40.711ZM77.9,37.32H72.25a2.992,2.992,0,0,0,.719,2.063,2.478,2.478,0,0,0,1.891.727,3.931,3.931,0,0,0,2.484-.891v1.2a4.643,4.643,0,0,1-2.789.766,3.381,3.381,0,0,1-2.664-1.09,4.461,4.461,0,0,1-.969-3.066,4.375,4.375,0,0,1,1.059-3.043,3.394,3.394,0,0,1,2.629-1.176,3.008,3.008,0,0,1,2.43,1.016,4.234,4.234,0,0,1,.859,2.82Zm-1.312-1.086a2.607,2.607,0,0,0-.535-1.727,1.823,1.823,0,0,0-1.465-.617,2.07,2.07,0,0,0-1.539.648,2.943,2.943,0,0,0-.781,1.7ZM81.117,41H79.836V29.156h1.281Zm8.461,0H88.266V29.8h1.313Zm9.414,0H97.711V36.438q0-2.547-1.859-2.547a2.017,2.017,0,0,0-1.59.723,2.679,2.679,0,0,0-.629,1.824V41H92.352V33h1.281v1.328h.031a2.887,2.887,0,0,1,2.625-1.516,2.448,2.448,0,0,1,2.008.848,3.776,3.776,0,0,1,.7,2.449Zm1.93-.289V39.336a3.792,3.792,0,0,0,2.3.773q1.688,0,1.688-1.125a.976.976,0,0,0-.145-.543,1.44,1.44,0,0,0-.391-.395,3.007,3.007,0,0,0-.578-.309q-.332-.137-.715-.285a9.206,9.206,0,0,1-.934-.426,2.82,2.82,0,0,1-.672-.484,1.8,1.8,0,0,1-.406-.613,2.17,2.17,0,0,1-.137-.8,1.912,1.912,0,0,1,.258-1,2.286,2.286,0,0,1,.688-.727,3.206,3.206,0,0,1,.98-.441A4.349,4.349,0,0,1,104,32.813a4.59,4.59,0,0,1,1.859.359v1.3a3.624,3.624,0,0,0-2.031-.578,2.374,2.374,0,0,0-.648.082,1.587,1.587,0,0,0-.5.23,1.065,1.065,0,0,0-.32.355.936.936,0,0,0-.113.457,1.1,1.1,0,0,0,.113.523,1.152,1.152,0,0,0,.332.375,2.538,2.538,0,0,0,.531.3q.313.133.711.289a9.9,9.9,0,0,1,.953.418,3.269,3.269,0,0,1,.719.484,1.893,1.893,0,0,1,.457.621,2,2,0,0,1,.16.836,1.971,1.971,0,0,1-.262,1.031,2.243,2.243,0,0,1-.7.727,3.2,3.2,0,0,1-1.008.43,4.976,4.976,0,0,1-1.2.141A4.539,4.539,0,0,1,100.922,40.711Zm10.984.211a2.47,2.47,0,0,1-1.2.25q-2.1,0-2.1-2.344V34.094h-1.375V33h1.375V31.047l1.281-.414V33h2.016v1.094h-2.016V38.6a1.869,1.869,0,0,0,.273,1.148,1.091,1.091,0,0,0,.906.344,1.347,1.347,0,0,0,.836-.266Zm2.367-9.953a.812.812,0,0,1-.586-.234.791.791,0,0,1-.242-.594.821.821,0,0,1,.828-.836.827.827,0,0,1,.6.238.835.835,0,0,1,0,1.184A.82.82,0,0,1,114.273,30.969ZM114.9,41h-1.281V33H114.9Zm6.3-.078a2.47,2.47,0,0,1-1.2.25q-2.1,0-2.1-2.344V34.094h-1.375V33h1.375V31.047l1.281-.414V33H121.2v1.094h-2.016V38.6a1.869,1.869,0,0,0,.273,1.148,1.091,1.091,0,0,0,.906.344,1.347,1.347,0,0,0,.836-.266Zm8.18.078H128.1V39.734h-.031a2.631,2.631,0,0,1-2.469,1.453q-2.859,0-2.859-3.406V33h1.273v4.578q0,2.531,1.938,2.531a1.96,1.96,0,0,0,1.543-.691,2.645,2.645,0,0,0,.605-1.809V33h1.281Zm6.3-.078a2.47,2.47,0,0,1-1.2.25q-2.1,0-2.1-2.344V34.094h-1.375V33h1.375V31.047l1.281-.414V33h2.016v1.094h-2.016V38.6a1.869,1.869,0,0,0,.273,1.148,1.091,1.091,0,0,0,.906.344,1.347,1.347,0,0,0,.836-.266Zm5.055.266a3.711,3.711,0,0,1-2.832-1.121,4.153,4.153,0,0,1-1.059-2.973,4.326,4.326,0,0,1,1.1-3.148,3.96,3.96,0,0,1,2.977-1.133,3.588,3.588,0,0,1,2.793,1.1,4.368,4.368,0,0,1,1,3.055,4.3,4.3,0,0,1-1.082,3.066A3.791,3.791,0,0,1,140.734,41.188Zm.094-7.3a2.437,2.437,0,0,0-1.953.84,3.449,3.449,0,0,0-.719,2.316,3.262,3.262,0,0,0,.727,2.242,2.469,2.469,0,0,0,1.945.82,2.342,2.342,0,0,0,1.91-.8,3.492,3.492,0,0,0,.668-2.289,3.552,3.552,0,0,0-.668-2.312A2.332,2.332,0,0,0,140.828,33.891ZM160.352,41h-1.609l-5.766-8.93a3.732,3.732,0,0,1-.359-.7h-.047a11.533,11.533,0,0,1,.063,1.539V41H151.32V29.8h1.7l5.609,8.789q.352.547.453.75h.031a11.854,11.854,0,0,1-.078-1.648V29.8h1.313Zm8.492,0h-1.281V39.75h-.031a2.682,2.682,0,0,1-2.461,1.438,2.63,2.63,0,0,1-1.871-.633,2.192,2.192,0,0,1-.676-1.68q0-2.242,2.641-2.609l2.4-.336q0-2.039-1.648-2.039a3.938,3.938,0,0,0-2.609.984V33.563a4.958,4.958,0,0,1,2.719-.75q2.82,0,2.82,2.984Zm-1.281-4.047-1.93.266a3.133,3.133,0,0,0-1.344.441,1.273,1.273,0,0,0-.453,1.121,1.221,1.221,0,0,0,.418.957,1.615,1.615,0,0,0,1.113.371,2.056,2.056,0,0,0,1.574-.668,2.387,2.387,0,0,0,.621-1.691Zm9.148,3.68a4.163,4.163,0,0,1-2.187.555,3.622,3.622,0,0,1-2.762-1.113,4.035,4.035,0,0,1-1.051-2.887,4.435,4.435,0,0,1,1.133-3.176,3.963,3.963,0,0,1,3.023-1.2,4.208,4.208,0,0,1,1.859.391v1.313a3.258,3.258,0,0,0-1.906-.625,2.576,2.576,0,0,0-2.012.879,3.335,3.335,0,0,0-.785,2.309,3.176,3.176,0,0,0,.738,2.219,2.545,2.545,0,0,0,1.98.813,3.211,3.211,0,0,0,1.969-.7Zm2.594-9.664a.812.812,0,0,1-.586-.234.791.791,0,0,1-.242-.594.821.821,0,0,1,.828-.836.827.827,0,0,1,.6.238.835.835,0,0,1,0,1.184A.82.82,0,0,1,179.3,30.969ZM179.93,41h-1.281V33h1.281Zm5.938.188a3.711,3.711,0,0,1-2.832-1.121,4.153,4.153,0,0,1-1.059-2.973,4.326,4.326,0,0,1,1.1-3.148,3.96,3.96,0,0,1,2.977-1.133,3.588,3.588,0,0,1,2.793,1.1,4.368,4.368,0,0,1,1,3.055,4.3,4.3,0,0,1-1.082,3.066A3.791,3.791,0,0,1,185.867,41.188Zm.094-7.3a2.437,2.437,0,0,0-1.953.84,3.449,3.449,0,0,0-.719,2.316,3.262,3.262,0,0,0,.727,2.242,2.469,2.469,0,0,0,1.945.82,2.342,2.342,0,0,0,1.91-.8,3.492,3.492,0,0,0,.668-2.289,3.552,3.552,0,0,0-.668-2.312A2.332,2.332,0,0,0,185.961,33.891ZM198.539,41h-1.281V36.438q0-2.547-1.859-2.547a2.017,2.017,0,0,0-1.59.723,2.679,2.679,0,0,0-.629,1.824V41H191.9V33h1.281v1.328h.031a2.887,2.887,0,0,1,2.625-1.516,2.448,2.448,0,0,1,2.008.848,3.776,3.776,0,0,1,.7,2.449Zm8.141,0H205.4V39.75h-.031a2.682,2.682,0,0,1-2.461,1.438,2.63,2.63,0,0,1-1.871-.633,2.192,2.192,0,0,1-.676-1.68q0-2.242,2.641-2.609l2.4-.336q0-2.039-1.648-2.039a3.938,3.938,0,0,0-2.609.984V33.563a4.958,4.958,0,0,1,2.719-.75q2.82,0,2.82,2.984ZM205.4,36.953l-1.93.266a3.133,3.133,0,0,0-1.344.441,1.273,1.273,0,0,0-.453,1.121,1.221,1.221,0,0,0,.418.957,1.615,1.615,0,0,0,1.113.371,2.056,2.056,0,0,0,1.574-.668,2.387,2.387,0,0,0,.621-1.691ZM210.375,41h-1.281V29.156h1.281Zm13.8,0H222.9V39.641h-.031a2.958,2.958,0,0,1-2.75,1.547,2.988,2.988,0,0,1-2.41-1.074,4.407,4.407,0,0,1-.9-2.926,4.794,4.794,0,0,1,1-3.18,3.3,3.3,0,0,1,2.664-1.2,2.564,2.564,0,0,1,2.4,1.3h.031V29.156h1.281ZM222.9,37.383V36.2a2.289,2.289,0,0,0-.641-1.641,2.149,2.149,0,0,0-1.625-.672,2.212,2.212,0,0,0-1.844.859,3.766,3.766,0,0,0-.672,2.375,3.387,3.387,0,0,0,.645,2.184,2.107,2.107,0,0,0,1.73.8,2.188,2.188,0,0,0,1.738-.773A2.882,2.882,0,0,0,222.9,37.383Zm10.3-.062h-5.648a2.992,2.992,0,0,0,.719,2.063,2.478,2.478,0,0,0,1.891.727,3.931,3.931,0,0,0,2.484-.891v1.2a4.643,4.643,0,0,1-2.789.766A3.381,3.381,0,0,1,227.2,40.1a4.461,4.461,0,0,1-.969-3.066,4.374,4.374,0,0,1,1.059-3.043,3.394,3.394,0,0,1,2.629-1.176,3.008,3.008,0,0,1,2.43,1.016,4.234,4.234,0,0,1,.859,2.82Zm-1.312-1.086a2.607,2.607,0,0,0-.535-1.727,1.823,1.823,0,0,0-1.465-.617,2.07,2.07,0,0,0-1.539.648,2.943,2.943,0,0,0-.781,1.7ZM9.8,53.8,5.648,65H4.2L.141,53.8H1.6L4.7,62.68a5.274,5.274,0,0,1,.227.992h.031a4.866,4.866,0,0,1,.258-1.008L8.383,53.8Zm2.094,1.172a.812.812,0,0,1-.586-.234.791.791,0,0,1-.242-.594.821.821,0,0,1,.828-.836.827.827,0,0,1,.6.238.835.835,0,0,1,0,1.184A.82.82,0,0,1,11.891,54.969ZM12.516,65H11.234V57h1.281Zm9.422-.641q0,4.406-4.219,4.406a5.664,5.664,0,0,1-2.594-.562V66.922a5.327,5.327,0,0,0,2.578.75q2.953,0,2.953-3.141v-.875h-.031a3,3,0,0,1-2.75,1.531,3,3,0,0,1-2.4-1.066,4.263,4.263,0,0,1-.91-2.863,4.981,4.981,0,0,1,.98-3.242,3.275,3.275,0,0,1,2.684-1.2,2.608,2.608,0,0,1,2.4,1.3h.031V57h1.281Zm-1.281-2.977V60.2a2.289,2.289,0,0,0-.645-1.633,2.122,2.122,0,0,0-1.605-.68,2.225,2.225,0,0,0-1.859.863,3.853,3.853,0,0,0-.672,2.418,3.308,3.308,0,0,0,.645,2.137,2.082,2.082,0,0,0,1.707.8,2.23,2.23,0,0,0,1.754-.766A2.854,2.854,0,0,0,20.656,61.383Zm4.531-6.414a.812.812,0,0,1-.586-.234.791.791,0,0,1-.242-.594.821.821,0,0,1,.828-.836.827.827,0,0,1,.6.238.835.835,0,0,1,0,1.184A.82.82,0,0,1,25.188,54.969ZM25.813,65H24.531V57h1.281Zm3.875,0H28.406V53.156h1.281Zm8.32,0H36.727V63.75H36.7a2.682,2.682,0,0,1-2.461,1.438,2.63,2.63,0,0,1-1.871-.633,2.192,2.192,0,0,1-.676-1.68q0-2.242,2.641-2.609l2.4-.336q0-2.039-1.648-2.039a3.938,3.938,0,0,0-2.609.984V57.563a4.958,4.958,0,0,1,2.719-.75q2.82,0,2.82,2.984Zm-1.281-4.047-1.93.266a3.133,3.133,0,0,0-1.344.441A1.273,1.273,0,0,0,33,62.781a1.221,1.221,0,0,0,.418.957,1.615,1.615,0,0,0,1.113.371,2.056,2.056,0,0,0,1.574-.668,2.387,2.387,0,0,0,.621-1.691ZM47.063,65H45.781V60.438q0-2.547-1.859-2.547a2.017,2.017,0,0,0-1.59.723,2.679,2.679,0,0,0-.629,1.824V65H40.422V57H41.7v1.328h.031a2.887,2.887,0,0,1,2.625-1.516,2.448,2.448,0,0,1,2.008.848,3.776,3.776,0,0,1,.7,2.449Zm7.867-.367a4.163,4.163,0,0,1-2.187.555,3.622,3.622,0,0,1-2.762-1.113,4.035,4.035,0,0,1-1.051-2.887,4.435,4.435,0,0,1,1.133-3.176,3.963,3.963,0,0,1,3.023-1.2,4.209,4.209,0,0,1,1.859.391v1.313a3.258,3.258,0,0,0-1.906-.625,2.576,2.576,0,0,0-2.012.879,3.335,3.335,0,0,0-.785,2.309A3.176,3.176,0,0,0,50.98,63.3a2.545,2.545,0,0,0,1.98.813,3.211,3.211,0,0,0,1.969-.7Zm2.594-9.664a.812.812,0,0,1-.586-.234.791.791,0,0,1-.242-.594.821.821,0,0,1,.828-.836.827.827,0,0,1,.6.238.835.835,0,0,1,0,1.184A.82.82,0,0,1,57.523,54.969ZM58.148,65H56.867V57h1.281Zm8.32,0H65.188V63.75h-.031A2.682,2.682,0,0,1,62.7,65.188a2.63,2.63,0,0,1-1.871-.633,2.192,2.192,0,0,1-.676-1.68q0-2.242,2.641-2.609l2.4-.336q0-2.039-1.648-2.039a3.938,3.938,0,0,0-2.609.984V57.563a4.958,4.958,0,0,1,2.719-.75q2.82,0,2.82,2.984Zm-1.281-4.047-1.93.266a3.133,3.133,0,0,0-1.344.441,1.273,1.273,0,0,0-.453,1.121,1.221,1.221,0,0,0,.418.957,1.615,1.615,0,0,0,1.113.371,2.056,2.056,0,0,0,1.574-.668,2.387,2.387,0,0,0,.621-1.691ZM80.094,65H78.813V63.641h-.031a2.958,2.958,0,0,1-2.75,1.547,2.988,2.988,0,0,1-2.41-1.074,4.407,4.407,0,0,1-.9-2.926,4.794,4.794,0,0,1,1-3.18,3.3,3.3,0,0,1,2.664-1.2,2.564,2.564,0,0,1,2.4,1.3h.031V53.156h1.281Zm-1.281-3.617V60.2a2.289,2.289,0,0,0-.641-1.641,2.149,2.149,0,0,0-1.625-.672,2.212,2.212,0,0,0-1.844.859,3.766,3.766,0,0,0-.672,2.375,3.387,3.387,0,0,0,.645,2.184,2.107,2.107,0,0,0,1.73.8,2.188,2.188,0,0,0,1.738-.773A2.882,2.882,0,0,0,78.813,61.383Zm10.3-.062H83.469a2.992,2.992,0,0,0,.719,2.063,2.478,2.478,0,0,0,1.891.727,3.931,3.931,0,0,0,2.484-.891v1.2a4.643,4.643,0,0,1-2.789.766,3.381,3.381,0,0,1-2.664-1.09,4.461,4.461,0,0,1-.969-3.066A4.375,4.375,0,0,1,83.2,57.988a3.394,3.394,0,0,1,2.629-1.176,3.008,3.008,0,0,1,2.43,1.016,4.234,4.234,0,0,1,.859,2.82ZM87.8,60.234a2.607,2.607,0,0,0-.535-1.727,1.823,1.823,0,0,0-1.465-.617,2.07,2.07,0,0,0-1.539.648,2.943,2.943,0,0,0-.781,1.7ZM107.031,65h-1.3V57.484q0-.891.109-2.18H105.8a6.968,6.968,0,0,1-.336,1.086L101.641,65H101l-3.82-8.547a6.7,6.7,0,0,1-.336-1.148h-.031q.062.672.063,2.2V65H95.609V53.8h1.734l3.438,7.813a10,10,0,0,1,.516,1.344h.047q.336-.922.539-1.375l3.508-7.781h1.641Zm9.2-3.68h-5.648a2.992,2.992,0,0,0,.719,2.063,2.478,2.478,0,0,0,1.891.727,3.931,3.931,0,0,0,2.484-.891v1.2a4.643,4.643,0,0,1-2.789.766,3.381,3.381,0,0,1-2.664-1.09,4.461,4.461,0,0,1-.969-3.066,4.375,4.375,0,0,1,1.059-3.043,3.394,3.394,0,0,1,2.629-1.176,3.008,3.008,0,0,1,2.43,1.016,4.234,4.234,0,0,1,.859,2.82Zm-1.312-1.086a2.607,2.607,0,0,0-.535-1.727,1.823,1.823,0,0,0-1.465-.617,2.07,2.07,0,0,0-1.539.648,2.943,2.943,0,0,0-.781,1.7ZM125,65h-1.281V63.641h-.031a2.958,2.958,0,0,1-2.75,1.547,2.988,2.988,0,0,1-2.41-1.074,4.407,4.407,0,0,1-.9-2.926,4.794,4.794,0,0,1,1-3.18,3.3,3.3,0,0,1,2.664-1.2,2.564,2.564,0,0,1,2.4,1.3h.031V53.156H125Zm-1.281-3.617V60.2a2.289,2.289,0,0,0-.641-1.641,2.149,2.149,0,0,0-1.625-.672,2.212,2.212,0,0,0-1.844.859,3.766,3.766,0,0,0-.672,2.375,3.387,3.387,0,0,0,.645,2.184,2.107,2.107,0,0,0,1.73.8,2.188,2.188,0,0,0,1.738-.773A2.882,2.882,0,0,0,123.719,61.383Zm4.531-6.414a.812.812,0,0,1-.586-.234.791.791,0,0,1-.242-.594.821.821,0,0,1,.828-.836.827.827,0,0,1,.6.238.835.835,0,0,1,0,1.184A.82.82,0,0,1,128.25,54.969ZM128.875,65h-1.281V57h1.281Zm8.047-.367a4.163,4.163,0,0,1-2.187.555,3.622,3.622,0,0,1-2.762-1.113,4.035,4.035,0,0,1-1.051-2.887,4.435,4.435,0,0,1,1.133-3.176,3.963,3.963,0,0,1,3.023-1.2,4.208,4.208,0,0,1,1.859.391v1.313a3.258,3.258,0,0,0-1.906-.625,2.576,2.576,0,0,0-2.012.879,3.335,3.335,0,0,0-.785,2.309,3.176,3.176,0,0,0,.738,2.219,2.545,2.545,0,0,0,1.98.813,3.211,3.211,0,0,0,1.969-.7Zm7.664.367H143.3V63.75h-.031a2.682,2.682,0,0,1-2.461,1.438,2.63,2.63,0,0,1-1.871-.633,2.192,2.192,0,0,1-.676-1.68q0-2.242,2.641-2.609l2.4-.336q0-2.039-1.648-2.039a3.938,3.938,0,0,0-2.609.984V57.563a4.958,4.958,0,0,1,2.719-.75q2.82,0,2.82,2.984ZM143.3,60.953l-1.93.266a3.133,3.133,0,0,0-1.344.441,1.273,1.273,0,0,0-.453,1.121,1.221,1.221,0,0,0,.418.957,1.615,1.615,0,0,0,1.113.371,2.056,2.056,0,0,0,1.574-.668,2.387,2.387,0,0,0,.621-1.691ZM158.359,65h-1.281V60.406a3.466,3.466,0,0,0-.41-1.922,1.555,1.555,0,0,0-1.379-.594,1.708,1.708,0,0,0-1.395.75,2.869,2.869,0,0,0-.574,1.8V65h-1.281V60.25q0-2.359-1.82-2.359a1.686,1.686,0,0,0-1.391.707,2.923,2.923,0,0,0-.547,1.84V65H147V57h1.281v1.266h.031a2.718,2.718,0,0,1,2.484-1.453,2.311,2.311,0,0,1,2.266,1.656,2.855,2.855,0,0,1,2.656-1.656q2.641,0,2.641,3.258Zm8.852-3.68h-5.648a2.992,2.992,0,0,0,.719,2.063,2.478,2.478,0,0,0,1.891.727,3.931,3.931,0,0,0,2.484-.891v1.2a4.643,4.643,0,0,1-2.789.766A3.381,3.381,0,0,1,161.2,64.1a4.461,4.461,0,0,1-.969-3.066,4.374,4.374,0,0,1,1.059-3.043,3.394,3.394,0,0,1,2.629-1.176,3.008,3.008,0,0,1,2.43,1.016,4.234,4.234,0,0,1,.859,2.82ZM165.9,60.234a2.607,2.607,0,0,0-.535-1.727,1.823,1.823,0,0,0-1.465-.617,2.07,2.07,0,0,0-1.539.648,2.943,2.943,0,0,0-.781,1.7ZM175.789,65h-1.281V60.438q0-2.547-1.859-2.547a2.017,2.017,0,0,0-1.59.723,2.679,2.679,0,0,0-.629,1.824V65h-1.281V57h1.281v1.328h.031a2.887,2.887,0,0,1,2.625-1.516,2.448,2.448,0,0,1,2.008.848,3.776,3.776,0,0,1,.7,2.449Zm6.125-.078a2.47,2.47,0,0,1-1.2.25q-2.1,0-2.1-2.344V58.094h-1.375V57h1.375V55.047l1.281-.414V57h2.016v1.094H179.9V62.6a1.869,1.869,0,0,0,.273,1.148,1.091,1.091,0,0,0,.906.344,1.347,1.347,0,0,0,.836-.266Zm5.055.266a3.711,3.711,0,0,1-2.832-1.121,4.153,4.153,0,0,1-1.059-2.973,4.326,4.326,0,0,1,1.1-3.148,3.96,3.96,0,0,1,2.977-1.133,3.588,3.588,0,0,1,2.793,1.1,4.368,4.368,0,0,1,1,3.055,4.3,4.3,0,0,1-1.082,3.066A3.791,3.791,0,0,1,186.969,65.188Zm.094-7.3a2.437,2.437,0,0,0-1.953.84,3.449,3.449,0,0,0-.719,2.316,3.262,3.262,0,0,0,.727,2.242,2.469,2.469,0,0,0,1.945.82,2.342,2.342,0,0,0,1.91-.8,3.492,3.492,0,0,0,.668-2.289,3.552,3.552,0,0,0-.668-2.312A2.332,2.332,0,0,0,187.063,57.891Zm5.453,6.82V63.336a3.792,3.792,0,0,0,2.3.773q1.688,0,1.688-1.125a.976.976,0,0,0-.145-.543,1.44,1.44,0,0,0-.391-.395,3.007,3.007,0,0,0-.578-.309q-.332-.137-.715-.285a9.206,9.206,0,0,1-.934-.426,2.82,2.82,0,0,1-.672-.484,1.8,1.8,0,0,1-.406-.613,2.17,2.17,0,0,1-.137-.8,1.912,1.912,0,0,1,.258-1,2.286,2.286,0,0,1,.688-.727,3.206,3.206,0,0,1,.98-.441,4.349,4.349,0,0,1,1.137-.148,4.59,4.59,0,0,1,1.859.359v1.3a3.624,3.624,0,0,0-2.031-.578,2.374,2.374,0,0,0-.648.082,1.587,1.587,0,0,0-.5.23,1.065,1.065,0,0,0-.32.355.936.936,0,0,0-.113.457,1.1,1.1,0,0,0,.113.523,1.152,1.152,0,0,0,.332.375,2.538,2.538,0,0,0,.531.3q.312.133.711.289a9.894,9.894,0,0,1,.953.418,3.269,3.269,0,0,1,.719.484,1.893,1.893,0,0,1,.457.621,2,2,0,0,1,.16.836,1.971,1.971,0,0,1-.262,1.031,2.243,2.243,0,0,1-.7.727,3.2,3.2,0,0,1-1.008.43,4.976,4.976,0,0,1-1.2.141A4.539,4.539,0,0,1,192.516,64.711ZM210.539,57l-3.68,9.281q-.984,2.484-2.766,2.484a2.931,2.931,0,0,1-.836-.1V67.516a2.375,2.375,0,0,0,.758.141,1.57,1.57,0,0,0,1.453-1.156l.641-1.516L202.984,57h1.422l2.164,6.156q.039.117.164.609h.047q.039-.187.156-.594L209.211,57ZM10.141,89H8.688L7.5,85.859H2.75L1.633,89H.172l4.3-11.2H5.828ZM7.07,84.68,5.313,79.906a4.571,4.571,0,0,1-.172-.75H5.109a4.184,4.184,0,0,1-.18.75L3.188,84.68ZM12.9,89H11.617V77.156H12.9Zm3.25-10.031a.812.812,0,0,1-.586-.234.791.791,0,0,1-.242-.594.821.821,0,0,1,.828-.836.827.827,0,0,1,.6.238.835.835,0,0,1,0,1.184A.82.82,0,0,1,16.148,78.969ZM16.773,89H15.492V81h1.281Zm13.953,0H29.445V84.406a3.466,3.466,0,0,0-.41-1.922,1.555,1.555,0,0,0-1.379-.594,1.708,1.708,0,0,0-1.395.75,2.869,2.869,0,0,0-.574,1.8V89H24.406V84.25q0-2.359-1.82-2.359A1.686,1.686,0,0,0,21.2,82.6a2.923,2.923,0,0,0-.547,1.84V89H19.367V81h1.281v1.266h.031a2.718,2.718,0,0,1,2.484-1.453,2.311,2.311,0,0,1,2.266,1.656,2.855,2.855,0,0,1,2.656-1.656q2.641,0,2.641,3.258Zm8.852-3.68H33.93a2.992,2.992,0,0,0,.719,2.063,2.478,2.478,0,0,0,1.891.727,3.931,3.931,0,0,0,2.484-.891v1.2a4.643,4.643,0,0,1-2.789.766A3.381,3.381,0,0,1,33.57,88.1a4.461,4.461,0,0,1-.969-3.066,4.375,4.375,0,0,1,1.059-3.043,3.394,3.394,0,0,1,2.629-1.176,3.008,3.008,0,0,1,2.43,1.016,4.234,4.234,0,0,1,.859,2.82Zm-1.312-1.086a2.607,2.607,0,0,0-.535-1.727,1.823,1.823,0,0,0-1.465-.617,2.07,2.07,0,0,0-1.539.648,2.943,2.943,0,0,0-.781,1.7ZM48.156,89H46.875V84.438q0-2.547-1.859-2.547a2.017,2.017,0,0,0-1.59.723,2.679,2.679,0,0,0-.629,1.824V89H41.516V81H42.8v1.328h.031a2.887,2.887,0,0,1,2.625-1.516,2.448,2.448,0,0,1,2.008.848,3.776,3.776,0,0,1,.7,2.449Zm6.125-.078a2.47,2.47,0,0,1-1.2.25q-2.1,0-2.1-2.344V82.094H49.609V81h1.375V79.047l1.281-.414V81h2.016v1.094H52.266V86.6a1.869,1.869,0,0,0,.273,1.148,1.091,1.091,0,0,0,.906.344,1.347,1.347,0,0,0,.836-.266Zm5.055.266A3.711,3.711,0,0,1,56.5,88.066a4.153,4.153,0,0,1-1.059-2.973,4.326,4.326,0,0,1,1.1-3.148,3.96,3.96,0,0,1,2.977-1.133,3.588,3.588,0,0,1,2.793,1.1,4.368,4.368,0,0,1,1,3.055,4.3,4.3,0,0,1-1.082,3.066A3.791,3.791,0,0,1,59.336,89.188Zm.094-7.3a2.437,2.437,0,0,0-1.953.84,3.449,3.449,0,0,0-.719,2.316,3.262,3.262,0,0,0,.727,2.242,2.469,2.469,0,0,0,1.945.82,2.342,2.342,0,0,0,1.91-.8,3.492,3.492,0,0,0,.668-2.289A3.552,3.552,0,0,0,61.34,82.7,2.332,2.332,0,0,0,59.43,81.891Zm5.453,6.82V87.336a3.792,3.792,0,0,0,2.3.773q1.688,0,1.688-1.125a.976.976,0,0,0-.145-.543,1.44,1.44,0,0,0-.391-.395,3.007,3.007,0,0,0-.578-.309q-.332-.137-.715-.285a9.207,9.207,0,0,1-.934-.426,2.82,2.82,0,0,1-.672-.484,1.8,1.8,0,0,1-.406-.613,2.17,2.17,0,0,1-.137-.8,1.912,1.912,0,0,1,.258-1,2.286,2.286,0,0,1,.688-.727,3.206,3.206,0,0,1,.98-.441,4.349,4.349,0,0,1,1.137-.148,4.59,4.59,0,0,1,1.859.359v1.3a3.624,3.624,0,0,0-2.031-.578,2.374,2.374,0,0,0-.648.082,1.587,1.587,0,0,0-.5.23,1.065,1.065,0,0,0-.32.355.936.936,0,0,0-.113.457,1.1,1.1,0,0,0,.113.523,1.152,1.152,0,0,0,.332.375,2.538,2.538,0,0,0,.531.3q.313.133.711.289a9.9,9.9,0,0,1,.953.418,3.269,3.269,0,0,1,.719.484,1.893,1.893,0,0,1,.457.621,2,2,0,0,1,.16.836,1.971,1.971,0,0,1-.262,1.031,2.243,2.243,0,0,1-.7.727,3.2,3.2,0,0,1-1.008.43,4.976,4.976,0,0,1-1.2.141A4.539,4.539,0,0,1,64.883,88.711Zm8.445-1.492-1.25,3.844h-.914l.914-3.844ZM81.289,89H80.008V77.156h1.281Zm8.32,0H88.328V87.75H88.3a2.682,2.682,0,0,1-2.461,1.438,2.63,2.63,0,0,1-1.871-.633,2.192,2.192,0,0,1-.676-1.68q0-2.242,2.641-2.609l2.4-.336q0-2.039-1.648-2.039a3.938,3.938,0,0,0-2.609.984V81.563a4.958,4.958,0,0,1,2.719-.75q2.82,0,2.82,2.984Zm-1.281-4.047-1.93.266a3.133,3.133,0,0,0-1.344.441,1.273,1.273,0,0,0-.453,1.121,1.221,1.221,0,0,0,.418.957,1.615,1.615,0,0,0,1.113.371,2.056,2.056,0,0,0,1.574-.668,2.387,2.387,0,0,0,.621-1.691Zm3.211,3.758V87.336a3.792,3.792,0,0,0,2.3.773q1.688,0,1.688-1.125a.976.976,0,0,0-.145-.543A1.44,1.44,0,0,0,95,86.047a3.007,3.007,0,0,0-.578-.309q-.332-.137-.715-.285a9.207,9.207,0,0,1-.934-.426,2.82,2.82,0,0,1-.672-.484,1.8,1.8,0,0,1-.406-.613,2.17,2.17,0,0,1-.137-.8,1.912,1.912,0,0,1,.258-1A2.286,2.286,0,0,1,92.5,81.4a3.206,3.206,0,0,1,.98-.441,4.349,4.349,0,0,1,1.137-.148,4.59,4.59,0,0,1,1.859.359v1.3a3.624,3.624,0,0,0-2.031-.578,2.374,2.374,0,0,0-.648.082,1.587,1.587,0,0,0-.5.23,1.065,1.065,0,0,0-.32.355.936.936,0,0,0-.113.457,1.1,1.1,0,0,0,.113.523,1.152,1.152,0,0,0,.332.375,2.538,2.538,0,0,0,.531.3q.313.133.711.289a9.9,9.9,0,0,1,.953.418,3.269,3.269,0,0,1,.719.484,1.893,1.893,0,0,1,.457.621,2,2,0,0,1,.16.836,1.971,1.971,0,0,1-.262,1.031,2.243,2.243,0,0,1-.7.727,3.2,3.2,0,0,1-1.008.43,4.976,4.976,0,0,1-1.2.141A4.539,4.539,0,0,1,91.539,88.711Zm18.086-3.391h-5.648a2.992,2.992,0,0,0,.719,2.063,2.478,2.478,0,0,0,1.891.727,3.931,3.931,0,0,0,2.484-.891v1.2a4.643,4.643,0,0,1-2.789.766,3.381,3.381,0,0,1-2.664-1.09,4.461,4.461,0,0,1-.969-3.066,4.375,4.375,0,0,1,1.059-3.043,3.394,3.394,0,0,1,2.629-1.176,3.008,3.008,0,0,1,2.43,1.016,4.234,4.234,0,0,1,.859,2.82Zm-1.312-1.086a2.607,2.607,0,0,0-.535-1.727,1.823,1.823,0,0,0-1.465-.617,2.07,2.07,0,0,0-1.539.648,2.943,2.943,0,0,0-.781,1.7ZM118.2,89h-1.281V84.438q0-2.547-1.859-2.547a2.017,2.017,0,0,0-1.59.723,2.679,2.679,0,0,0-.629,1.824V89h-1.281V81h1.281v1.328h.031a2.887,2.887,0,0,1,2.625-1.516,2.448,2.448,0,0,1,2.008.848,3.776,3.776,0,0,1,.7,2.449Zm6.125-.078a2.47,2.47,0,0,1-1.2.25q-2.1,0-2.1-2.344V82.094h-1.375V81h1.375V79.047l1.281-.414V81h2.016v1.094h-2.016V86.6a1.869,1.869,0,0,0,.273,1.148,1.091,1.091,0,0,0,.906.344,1.347,1.347,0,0,0,.836-.266Zm2.367-9.953a.812.812,0,0,1-.586-.234.791.791,0,0,1-.242-.594.821.821,0,0,1,.828-.836.827.827,0,0,1,.6.238.835.835,0,0,1,0,1.184A.82.82,0,0,1,126.7,78.969ZM127.32,89h-1.281V81h1.281Zm9.422,0h-1.281V87.641h-.031a2.958,2.958,0,0,1-2.75,1.547,2.988,2.988,0,0,1-2.41-1.074,4.407,4.407,0,0,1-.9-2.926,4.794,4.794,0,0,1,1-3.18,3.3,3.3,0,0,1,2.664-1.2,2.564,2.564,0,0,1,2.4,1.3h.031V77.156h1.281Zm-1.281-3.617V84.2a2.289,2.289,0,0,0-.641-1.641,2.149,2.149,0,0,0-1.625-.672,2.212,2.212,0,0,0-1.844.859,3.766,3.766,0,0,0-.672,2.375,3.387,3.387,0,0,0,.645,2.184,2.107,2.107,0,0,0,1.73.8,2.188,2.188,0,0,0,1.738-.773A2.882,2.882,0,0,0,135.461,85.383Zm9.6,3.617h-1.281V87.75h-.031a2.682,2.682,0,0,1-2.461,1.438,2.63,2.63,0,0,1-1.871-.633,2.192,2.192,0,0,1-.676-1.68q0-2.242,2.641-2.609l2.4-.336q0-2.039-1.648-2.039a3.938,3.938,0,0,0-2.609.984V81.563a4.958,4.958,0,0,1,2.719-.75q2.82,0,2.82,2.984Zm-1.281-4.047-1.93.266a3.133,3.133,0,0,0-1.344.441,1.273,1.273,0,0,0-.453,1.121,1.221,1.221,0,0,0,.418.957,1.615,1.615,0,0,0,1.113.371,2.056,2.056,0,0,0,1.574-.668,2.387,2.387,0,0,0,.621-1.691ZM154.3,89h-1.281V87.641h-.031a2.958,2.958,0,0,1-2.75,1.547,2.988,2.988,0,0,1-2.41-1.074,4.407,4.407,0,0,1-.9-2.926,4.794,4.794,0,0,1,1-3.18,3.3,3.3,0,0,1,2.664-1.2,2.564,2.564,0,0,1,2.4,1.3h.031V77.156H154.3Zm-1.281-3.617V84.2a2.289,2.289,0,0,0-.641-1.641,2.149,2.149,0,0,0-1.625-.672,2.212,2.212,0,0,0-1.844.859,3.766,3.766,0,0,0-.672,2.375,3.387,3.387,0,0,0,.645,2.184,2.107,2.107,0,0,0,1.73.8,2.188,2.188,0,0,0,1.738-.773A2.882,2.882,0,0,0,153.023,85.383Zm10.3-.062H157.68a2.992,2.992,0,0,0,.719,2.063,2.478,2.478,0,0,0,1.891.727,3.931,3.931,0,0,0,2.484-.891v1.2a4.643,4.643,0,0,1-2.789.766,3.381,3.381,0,0,1-2.664-1.09,4.461,4.461,0,0,1-.969-3.066,4.374,4.374,0,0,1,1.059-3.043,3.394,3.394,0,0,1,2.629-1.176,3.008,3.008,0,0,1,2.43,1.016,4.234,4.234,0,0,1,.859,2.82Zm-1.312-1.086a2.607,2.607,0,0,0-.535-1.727,1.823,1.823,0,0,0-1.465-.617,2.07,2.07,0,0,0-1.539.648,2.943,2.943,0,0,0-.781,1.7Zm2.766,4.477V87.336a3.792,3.792,0,0,0,2.3.773q1.688,0,1.688-1.125a.976.976,0,0,0-.145-.543,1.441,1.441,0,0,0-.391-.395,3.007,3.007,0,0,0-.578-.309q-.332-.137-.715-.285a9.207,9.207,0,0,1-.934-.426,2.82,2.82,0,0,1-.672-.484,1.8,1.8,0,0,1-.406-.613,2.17,2.17,0,0,1-.137-.8,1.912,1.912,0,0,1,.258-1,2.286,2.286,0,0,1,.688-.727,3.206,3.206,0,0,1,.98-.441,4.349,4.349,0,0,1,1.137-.148,4.59,4.59,0,0,1,1.859.359v1.3a3.624,3.624,0,0,0-2.031-.578,2.374,2.374,0,0,0-.648.082,1.587,1.587,0,0,0-.5.23,1.065,1.065,0,0,0-.32.355.936.936,0,0,0-.113.457,1.1,1.1,0,0,0,.113.523,1.152,1.152,0,0,0,.332.375,2.538,2.538,0,0,0,.531.3q.312.133.711.289a9.894,9.894,0,0,1,.953.418,3.269,3.269,0,0,1,.719.484,1.893,1.893,0,0,1,.457.621,2,2,0,0,1,.16.836,1.971,1.971,0,0,1-.262,1.031,2.243,2.243,0,0,1-.7.727,3.2,3.2,0,0,1-1.008.43,4.976,4.976,0,0,1-1.2.141A4.539,4.539,0,0,1,164.781,88.711ZM5.008,112.922a2.47,2.47,0,0,1-1.2.25q-2.1,0-2.1-2.344v-4.734H.336V105H1.711v-1.953l1.281-.414V105H5.008v1.094H2.992V110.6a1.869,1.869,0,0,0,.273,1.148,1.091,1.091,0,0,0,.906.344,1.347,1.347,0,0,0,.836-.266Zm8.141-3.6H7.5a2.992,2.992,0,0,0,.719,2.063,2.478,2.478,0,0,0,1.891.727,3.931,3.931,0,0,0,2.484-.891v1.2a4.643,4.643,0,0,1-2.789.766,3.381,3.381,0,0,1-2.664-1.09,4.461,4.461,0,0,1-.969-3.066,4.375,4.375,0,0,1,1.059-3.043,3.394,3.394,0,0,1,2.629-1.176,3.008,3.008,0,0,1,2.43,1.016,4.234,4.234,0,0,1,.859,2.82Zm-1.312-1.086a2.607,2.607,0,0,0-.535-1.727,1.823,1.823,0,0,0-1.465-.617,2.07,2.07,0,0,0-1.539.648,2.943,2.943,0,0,0-.781,1.7Zm7.422-1.937a1.567,1.567,0,0,0-.969-.258,1.635,1.635,0,0,0-1.371.773,3.576,3.576,0,0,0-.551,2.109V113H15.086v-8h1.281v1.648H16.4a2.793,2.793,0,0,1,.836-1.316,1.906,1.906,0,0,1,1.258-.473,2.092,2.092,0,0,1,.766.109Zm5.563,0a1.567,1.567,0,0,0-.969-.258,1.635,1.635,0,0,0-1.371.773,3.576,3.576,0,0,0-.551,2.109V113H20.648v-8H21.93v1.648h.031a2.793,2.793,0,0,1,.836-1.316,1.906,1.906,0,0,1,1.258-.473,2.092,2.092,0,0,1,.766.109Zm2.047-3.328a.812.812,0,0,1-.586-.234.791.791,0,0,1-.242-.594.821.821,0,0,1,.828-.836.827.827,0,0,1,.6.238.835.835,0,0,1,0,1.184A.82.82,0,0,1,26.867,102.969ZM27.492,113H26.211v-8h1.281Zm6.3-.078a2.47,2.47,0,0,1-1.2.25q-2.1,0-2.1-2.344v-4.734H29.125V105H30.5v-1.953l1.281-.414V105H33.8v1.094H31.781V110.6a1.869,1.869,0,0,0,.273,1.148,1.091,1.091,0,0,0,.906.344,1.347,1.347,0,0,0,.836-.266Zm5.055.266a3.711,3.711,0,0,1-2.832-1.121,4.153,4.153,0,0,1-1.059-2.973,4.326,4.326,0,0,1,1.1-3.148,3.96,3.96,0,0,1,2.977-1.133,3.588,3.588,0,0,1,2.793,1.1,4.368,4.368,0,0,1,1,3.055,4.3,4.3,0,0,1-1.082,3.066A3.791,3.791,0,0,1,38.852,113.188Zm.094-7.3a2.437,2.437,0,0,0-1.953.84,3.449,3.449,0,0,0-.719,2.316A3.262,3.262,0,0,0,37,111.289a2.469,2.469,0,0,0,1.945.82,2.342,2.342,0,0,0,1.91-.8,3.492,3.492,0,0,0,.668-2.289,3.552,3.552,0,0,0-.668-2.312A2.332,2.332,0,0,0,38.945,105.891Zm10.109.406a1.567,1.567,0,0,0-.969-.258,1.635,1.635,0,0,0-1.371.773,3.576,3.576,0,0,0-.551,2.109V113H44.883v-8h1.281v1.648H46.2a2.793,2.793,0,0,1,.836-1.316,1.906,1.906,0,0,1,1.258-.473,2.092,2.092,0,0,1,.766.109Zm2.047-3.328a.812.812,0,0,1-.586-.234.791.791,0,0,1-.242-.594.821.821,0,0,1,.828-.836.827.827,0,0,1,.6.238.835.835,0,0,1,0,1.184A.82.82,0,0,1,51.1,102.969ZM51.727,113H50.445v-8h1.281Zm8.32,0H58.766v-1.25h-.031a2.682,2.682,0,0,1-2.461,1.438,2.63,2.63,0,0,1-1.871-.633,2.192,2.192,0,0,1-.676-1.68q0-2.242,2.641-2.609l2.4-.336q0-2.039-1.648-2.039a3.938,3.938,0,0,0-2.609.984v-1.312a4.958,4.958,0,0,1,2.719-.75q2.82,0,2.82,2.984Zm-1.281-4.047-1.93.266a3.133,3.133,0,0,0-1.344.441,1.273,1.273,0,0,0-.453,1.121,1.221,1.221,0,0,0,.418.957,1.615,1.615,0,0,0,1.113.371,2.056,2.056,0,0,0,1.574-.668,2.387,2.387,0,0,0,.621-1.691ZM63.742,113H62.461V101.156h1.281Zm9.023-3.68H67.117a2.992,2.992,0,0,0,.719,2.063,2.478,2.478,0,0,0,1.891.727,3.931,3.931,0,0,0,2.484-.891v1.2a4.643,4.643,0,0,1-2.789.766,3.381,3.381,0,0,1-2.664-1.09,4.461,4.461,0,0,1-.969-3.066,4.375,4.375,0,0,1,1.059-3.043,3.394,3.394,0,0,1,2.629-1.176,3.008,3.008,0,0,1,2.43,1.016,4.234,4.234,0,0,1,.859,2.82Zm-1.312-1.086a2.607,2.607,0,0,0-.535-1.727,1.823,1.823,0,0,0-1.465-.617,2.07,2.07,0,0,0-1.539.648,2.943,2.943,0,0,0-.781,1.7Zm2.766,4.477v-1.375a3.792,3.792,0,0,0,2.3.773q1.688,0,1.688-1.125a.976.976,0,0,0-.145-.543,1.44,1.44,0,0,0-.391-.395,3.007,3.007,0,0,0-.578-.309q-.332-.137-.715-.285a9.207,9.207,0,0,1-.934-.426,2.82,2.82,0,0,1-.672-.484,1.8,1.8,0,0,1-.406-.613,2.17,2.17,0,0,1-.137-.8,1.912,1.912,0,0,1,.258-1,2.286,2.286,0,0,1,.688-.727,3.206,3.206,0,0,1,.98-.441,4.349,4.349,0,0,1,1.137-.148,4.59,4.59,0,0,1,1.859.359v1.3a3.624,3.624,0,0,0-2.031-.578,2.374,2.374,0,0,0-.648.082,1.587,1.587,0,0,0-.5.23,1.065,1.065,0,0,0-.32.355.936.936,0,0,0-.113.457,1.1,1.1,0,0,0,.113.523,1.152,1.152,0,0,0,.332.375,2.538,2.538,0,0,0,.531.3q.313.133.711.289a9.9,9.9,0,0,1,.953.418,3.269,3.269,0,0,1,.719.484,1.893,1.893,0,0,1,.457.621,2,2,0,0,1,.16.836,1.971,1.971,0,0,1-.262,1.031,2.243,2.243,0,0,1-.7.727,3.2,3.2,0,0,1-1.008.43,4.976,4.976,0,0,1-1.2.141A4.539,4.539,0,0,1,74.219,112.711ZM92.7,113H91.422v-1.359h-.031a2.958,2.958,0,0,1-2.75,1.547,2.988,2.988,0,0,1-2.41-1.074,4.407,4.407,0,0,1-.9-2.926,4.794,4.794,0,0,1,1-3.18,3.3,3.3,0,0,1,2.664-1.2,2.564,2.564,0,0,1,2.4,1.3h.031v-4.953H92.7Zm-1.281-3.617V108.2a2.289,2.289,0,0,0-.641-1.641,2.149,2.149,0,0,0-1.625-.672,2.212,2.212,0,0,0-1.844.859,3.766,3.766,0,0,0-.672,2.375,3.387,3.387,0,0,0,.645,2.184,2.107,2.107,0,0,0,1.73.8,2.188,2.188,0,0,0,1.738-.773A2.882,2.882,0,0,0,91.422,109.383Zm10.3-.062H96.078a2.992,2.992,0,0,0,.719,2.063,2.478,2.478,0,0,0,1.891.727,3.931,3.931,0,0,0,2.484-.891v1.2a4.643,4.643,0,0,1-2.789.766,3.381,3.381,0,0,1-2.664-1.09,4.461,4.461,0,0,1-.969-3.066,4.375,4.375,0,0,1,1.059-3.043,3.394,3.394,0,0,1,2.629-1.176,3.008,3.008,0,0,1,2.43,1.016,4.234,4.234,0,0,1,.859,2.82Zm-1.312-1.086a2.607,2.607,0,0,0-.535-1.727,1.823,1.823,0,0,0-1.465-.617,2.07,2.07,0,0,0-1.539.648,2.943,2.943,0,0,0-.781,1.7Zm7.281,4.313V111a3,3,0,0,0,.637.422,5.159,5.159,0,0,0,.781.316,6.219,6.219,0,0,0,.824.2,4.6,4.6,0,0,0,.766.07,3,3,0,0,0,1.809-.449,1.685,1.685,0,0,0,.4-2.082,2.244,2.244,0,0,0-.551-.613,5.465,5.465,0,0,0-.832-.531q-.48-.254-1.035-.535-.586-.3-1.094-.6a4.74,4.74,0,0,1-.883-.672,2.8,2.8,0,0,1-.59-.832,2.836,2.836,0,0,1,.121-2.422,2.881,2.881,0,0,1,.883-.934,4,4,0,0,1,1.246-.547,5.706,5.706,0,0,1,1.426-.18,5.464,5.464,0,0,1,2.414.4v1.477a4.376,4.376,0,0,0-2.547-.687,4.188,4.188,0,0,0-.859.09,2.428,2.428,0,0,0-.766.293,1.7,1.7,0,0,0-.547.523,1.389,1.389,0,0,0-.211.781,1.608,1.608,0,0,0,.16.742,1.819,1.819,0,0,0,.473.57,4.708,4.708,0,0,0,.762.5q.449.242,1.035.531.6.3,1.141.625a5.214,5.214,0,0,1,.945.727,3.229,3.229,0,0,1,.645.883,2.482,2.482,0,0,1,.238,1.109,2.813,2.813,0,0,1-.324,1.4,2.661,2.661,0,0,1-.875.934,3.822,3.822,0,0,1-1.27.52,6.953,6.953,0,0,1-1.516.16,6.175,6.175,0,0,1-.656-.043q-.391-.043-.8-.125a6.5,6.5,0,0,1-.77-.2A2.394,2.394,0,0,1,107.7,112.547Zm14.578.453h-1.281v-1.25h-.031a2.682,2.682,0,0,1-2.461,1.438,2.63,2.63,0,0,1-1.871-.633,2.192,2.192,0,0,1-.676-1.68q0-2.242,2.641-2.609l2.4-.336q0-2.039-1.648-2.039a3.938,3.938,0,0,0-2.609.984v-1.312a4.958,4.958,0,0,1,2.719-.75q2.82,0,2.82,2.984Zm-1.281-4.047-1.93.266a3.133,3.133,0,0,0-1.344.441,1.273,1.273,0,0,0-.453,1.121,1.221,1.221,0,0,0,.418.957,1.615,1.615,0,0,0,1.113.371,2.056,2.056,0,0,0,1.574-.668,2.387,2.387,0,0,0,.621-1.691ZM125.969,113h-1.281V101.156h1.281Zm9.063,0H133.75v-1.266h-.031a2.631,2.631,0,0,1-2.469,1.453q-2.859,0-2.859-3.406V105h1.273v4.578q0,2.531,1.938,2.531a1.96,1.96,0,0,0,1.543-.691,2.645,2.645,0,0,0,.605-1.809V105h1.281Zm9.414,0h-1.281v-1.359h-.031a2.958,2.958,0,0,1-2.75,1.547,2.988,2.988,0,0,1-2.41-1.074,4.407,4.407,0,0,1-.9-2.926,4.794,4.794,0,0,1,1-3.18,3.3,3.3,0,0,1,2.664-1.2,2.564,2.564,0,0,1,2.4,1.3h.031v-4.953h1.281Zm-1.281-3.617V108.2a2.289,2.289,0,0,0-.641-1.641,2.149,2.149,0,0,0-1.625-.672,2.212,2.212,0,0,0-1.844.859,3.766,3.766,0,0,0-.672,2.375,3.387,3.387,0,0,0,.645,2.184,2.107,2.107,0,0,0,1.73.8,2.188,2.188,0,0,0,1.738-.773A2.882,2.882,0,0,0,143.164,109.383Zm4.32,3.789a.829.829,0,0,1-.613-.258.849.849,0,0,1-.254-.617.862.862,0,0,1,.254-.621.823.823,0,0,1,.613-.262.845.845,0,0,1,.625.262.855.855,0,0,1,.258.621.842.842,0,0,1-.258.617A.851.851,0,0,1,147.484,113.172Z" transform="translate(683 1247)" fill="#12263f"/>
  </g>
</svg>
