<svg xmlns="http://www.w3.org/2000/svg" width="599" height="626" viewBox="0 0 599 626">
  <g id="Grupo_128321" data-name="Grupo 128321" transform="translate(-659 -3523)">
    <circle id="Elipse_6170" data-name="Elipse 6170" cx="50.5" cy="50.5" r="50.5" transform="translate(659 3523)" fill="#28acd3" opacity="0.25"/>
    <circle id="Elipse_6182" data-name="Elipse 6182" cx="50.5" cy="50.5" r="50.5" transform="translate(659 3823)" fill="#28acd3" opacity="0.25"/>
    <circle id="Elipse_6176" data-name="Elipse 6176" cx="50.5" cy="50.5" r="50.5" transform="translate(659 3673)" fill="#28acd3" opacity="0.25"/>
    <circle id="Elipse_6186" data-name="Elipse 6186" cx="50.5" cy="50.5" r="50.5" transform="translate(659 3973)" fill="#28acd3" opacity="0.25"/>
    <circle id="Elipse_6174" data-name="Elipse 6174" cx="50.5" cy="50.5" r="50.5" transform="translate(1157 3598)" fill="#54feb5" opacity="0.25"/>
    <circle id="Elipse_6190" data-name="Elipse 6190" cx="50.5" cy="50.5" r="50.5" transform="translate(1157 3898)" fill="#54feb5" opacity="0.25"/>
    <circle id="Elipse_6180" data-name="Elipse 6180" cx="50.5" cy="50.5" r="50.5" transform="translate(1157 3748)" fill="#54feb5" opacity="0.25"/>
    <circle id="Elipse_6191" data-name="Elipse 6191" cx="50.5" cy="50.5" r="50.5" transform="translate(1157 4048)" fill="#54feb5" opacity="0.25"/>
    <path id="Sustracción_21" data-name="Sustracción 21" d="M8782,11787H8397.276a59.608,59.608,0,0,0,0-55H8782a10.012,10.012,0,0,1,10,10v35A10.012,10.012,0,0,1,8782,11787Z" transform="translate(-7635 -8186)" fill="#28acd3"/>
    <path id="Sustracción_25" data-name="Sustracción 25" d="M8782,11787H8397.276a59.608,59.608,0,0,0,0-55H8782a10.012,10.012,0,0,1,10,10v35A10.012,10.012,0,0,1,8782,11787Z" transform="translate(-7635 -7886)" fill="#28acd3"/>
    <path id="Sustracción_23" data-name="Sustracción 23" d="M8782,11787H8397.276a59.608,59.608,0,0,0,0-55H8782a10.012,10.012,0,0,1,10,10v35A10.012,10.012,0,0,1,8782,11787Z" transform="translate(-7635 -8036)" fill="#28acd3"/>
    <path id="Sustracción_27" data-name="Sustracción 27" d="M8782,11787H8397.276a59.608,59.608,0,0,0,0-55H8782a10.012,10.012,0,0,1,10,10v35A10.012,10.012,0,0,1,8782,11787Z" transform="translate(-7635 -7736)" fill="#28acd3"/>
    <path id="Sustracción_22" data-name="Sustracción 22" d="M384.724,55H0A59.649,59.649,0,0,0,6.724,27.5,59.64,59.64,0,0,0,0,0H384.724a10.011,10.011,0,0,1,10,10V45A10.011,10.011,0,0,1,384.724,55Z" transform="translate(1154.724 3676.002) rotate(180)" fill="#54feb5"/>
    <path id="Sustracción_26" data-name="Sustracción 26" d="M384.724,55H0A59.649,59.649,0,0,0,6.724,27.5,59.64,59.64,0,0,0,0,0H384.724a10.011,10.011,0,0,1,10,10V45A10.011,10.011,0,0,1,384.724,55Z" transform="translate(1154.724 3976.002) rotate(180)" fill="#54feb5"/>
    <path id="Sustracción_24" data-name="Sustracción 24" d="M384.724,55H0A59.649,59.649,0,0,0,6.724,27.5,59.64,59.64,0,0,0,0,0H384.724a10.011,10.011,0,0,1,10,10V45A10.011,10.011,0,0,1,384.724,55Z" transform="translate(1154.724 3826.002) rotate(180)" fill="#54feb5"/>
    <path id="Sustracción_28" data-name="Sustracción 28" d="M384.724,55H0A59.649,59.649,0,0,0,6.724,27.5,59.64,59.64,0,0,0,0,0H384.724a10.011,10.011,0,0,1,10,10V45A10.011,10.011,0,0,1,384.724,55Z" transform="translate(1154.724 4126.002) rotate(180)" fill="#54feb5"/>
    <text id="Aves_de_corral_y_conejos_4_C" data-name="Aves de corral y conejos 4°C" transform="translate(799 3564)" fill="#fff" font-size="16" font-family="SegoeUI-Bold, Segoe UI" font-weight="700"><tspan x="0" y="17">Aves de corral y conejos 4°C</tspan></text>
    <text id="Productos_lácteos_4_C" data-name="Productos lácteos 4°C" transform="translate(799 3864)" fill="#fff" font-size="16" font-family="SegoeUI-Bold, Segoe UI" font-weight="700"><tspan x="0" y="17">Productos lácteos 4°C</tspan></text>
    <text id="Crustáceos_moluscos_y_pescados_-18_C" data-name="Crustáceos, moluscos y pescados -18°C" transform="translate(799 3714)" fill="#fff" font-size="16" font-family="SegoeUI-Bold, Segoe UI" font-weight="700"><tspan x="0" y="17">Crustáceos, moluscos y pescados -18°C</tspan></text>
    <text id="Productos_ultracongelados_-18_C" data-name="Productos ultracongelados -18°C" transform="translate(799 4014)" fill="#fff" font-size="16" font-family="SegoeUI-Bold, Segoe UI" font-weight="700"><tspan x="0" y="17">Productos ultracongelados -18°C</tspan></text>
    <text id="Cárnicos_7_C_se_exceptua_despojos_" data-name="Cárnicos 7°C (se exceptua despojos)" transform="translate(783 3639)" fill="#12263f" font-size="16" font-family="SegoeUI-Bold, Segoe UI" font-weight="700"><tspan x="0" y="17">Cárnicos 7°C (se exceptua despojos)</tspan></text>
    <text id="Mantequilla_6_C" data-name="Mantequilla 6°C" transform="translate(783 3939)" fill="#12263f" font-size="16" font-family="SegoeUI-Bold, Segoe UI" font-weight="700"><tspan x="0" y="17">Mantequilla 6°C</tspan></text>
    <text id="Preparaciones_a_base_de_carne_6_C" data-name="Preparaciones a base de carne 6°C" transform="translate(783 3789)" fill="#12263f" font-size="16" font-family="SegoeUI-Bold, Segoe UI" font-weight="700"><tspan x="0" y="17">Preparaciones a base de carne 6°C</tspan></text>
    <text id="Cremas_heladas_-20_C" data-name="Cremas heladas -20°C" transform="translate(783 4089)" fill="#12263f" font-size="16" font-family="SegoeUI-Bold, Segoe UI" font-weight="700"><tspan x="0" y="17">Cremas heladas -20°C</tspan></text>
    <g id="Elipse_6171" data-name="Elipse 6171" transform="translate(659 3523)" fill="none" stroke="#28acd3" stroke-width="4">
      <circle cx="50.5" cy="50.5" r="50.5" stroke="none"/>
      <circle cx="50.5" cy="50.5" r="48.5" fill="none"/>
    </g>
    <g id="Elipse_6183" data-name="Elipse 6183" transform="translate(659 3823)" fill="none" stroke="#28acd3" stroke-width="4">
      <circle cx="50.5" cy="50.5" r="50.5" stroke="none"/>
      <circle cx="50.5" cy="50.5" r="48.5" fill="none"/>
    </g>
    <g id="Elipse_6177" data-name="Elipse 6177" transform="translate(659 3673)" fill="none" stroke="#28acd3" stroke-width="4">
      <circle cx="50.5" cy="50.5" r="50.5" stroke="none"/>
      <circle cx="50.5" cy="50.5" r="48.5" fill="none"/>
    </g>
    <g id="Elipse_6187" data-name="Elipse 6187" transform="translate(659 3973)" fill="none" stroke="#28acd3" stroke-width="4">
      <circle cx="50.5" cy="50.5" r="50.5" stroke="none"/>
      <circle cx="50.5" cy="50.5" r="48.5" fill="none"/>
    </g>
    <g id="Elipse_6175" data-name="Elipse 6175" transform="translate(1157 3598)" fill="none" stroke="#54feb5" stroke-width="4">
      <circle cx="50.5" cy="50.5" r="50.5" stroke="none"/>
      <circle cx="50.5" cy="50.5" r="48.5" fill="none"/>
    </g>
    <g id="Elipse_6192" data-name="Elipse 6192" transform="translate(1157 3898)" fill="none" stroke="#54feb5" stroke-width="4">
      <circle cx="50.5" cy="50.5" r="50.5" stroke="none"/>
      <circle cx="50.5" cy="50.5" r="48.5" fill="none"/>
    </g>
    <g id="Elipse_6181" data-name="Elipse 6181" transform="translate(1157 3748)" fill="none" stroke="#54feb5" stroke-width="4">
      <circle cx="50.5" cy="50.5" r="50.5" stroke="none"/>
      <circle cx="50.5" cy="50.5" r="48.5" fill="none"/>
    </g>
    <g id="Elipse_6193" data-name="Elipse 6193" transform="translate(1157 4048)" fill="none" stroke="#54feb5" stroke-width="4">
      <circle cx="50.5" cy="50.5" r="50.5" stroke="none"/>
      <circle cx="50.5" cy="50.5" r="48.5" fill="none"/>
    </g>
    <g id="Grupo_126478" data-name="Grupo 126478" transform="translate(80.367 4201.917)">
      <path id="Trazado_252613" data-name="Trazado 252613" d="M656.115-612.32c1.161,0,2.122.01,3.083,0a1.357,1.357,0,0,1,1.46.777,1.34,1.34,0,0,1-.488,1.575c-1.784,1.786-3.571,3.57-5.339,5.372a2.116,2.116,0,0,1-1.63.682q-24.042-.02-48.084,0a2.105,2.105,0,0,1-1.637-.66c-1.718-1.759-3.465-3.489-5.2-5.227-.474-.474-.971-.935-.669-1.706s.94-.836,1.633-.811a2.063,2.063,0,0,0,.317-.036c.006-.064.029-.122.01-.144a8.927,8.927,0,0,1-2.037-6.742,27.04,27.04,0,0,1,6.984-16.954,27.145,27.145,0,0,1,22.548-9.16c1.378.072,2.749.274,4.125.4a1.122,1.122,0,0,0,.633-.063,26.322,26.322,0,0,1,7.449-2.532,5,5,0,0,0,2.6-1.462,5.059,5.059,0,0,1,4.362-2.019c.136.013.347-.166.432-.309.63-1.055,1.269-2.108,1.829-3.2a1.256,1.256,0,0,0-.039-1.019,4.35,4.35,0,0,1,1.365-6.011,4.36,4.36,0,0,1,6.022,1.524,1.054,1.054,0,0,0,.74.348,4.358,4.358,0,0,1,4.172,3.932A4.288,4.288,0,0,1,657.4-651.2a1.5,1.5,0,0,1-.581.085c-1.016-.192-1.509.371-1.915,1.189s-.9,1.608-1.375,2.4a.66.66,0,0,0-.009.826,4.068,4.068,0,0,1,.561,3.651,8.272,8.272,0,0,0,.128,5.156c.5,1.694.771,3.458,1.165,5.186a1.648,1.648,0,0,0,.372.665c.83.965,1.736,1.87,2.512,2.876a11.953,11.953,0,0,1-1.5,16.26C656.6-612.764,656.438-612.617,656.115-612.32Zm-.886-16.563a16.605,16.605,0,0,1-4.186,8.591,15.631,15.631,0,0,1-8.247,4.643,15.32,15.32,0,0,1-9.419-.881,14.944,14.944,0,0,1-8.4-8.389c-2.655-6.681-1.175-12.613,3.713-17.817a27.737,27.737,0,0,0-8.871.345,25.039,25.039,0,0,0-19.635,21.578,16.461,16.461,0,0,0-.117,3.61,5.457,5.457,0,0,0,5.612,4.875c5.753.019,11.507.006,17.26.008a5.21,5.21,0,0,1,.854.036,1.193,1.193,0,0,1,1.008,1.2,1.2,1.2,0,0,1-1.082,1.207,5.457,5.457,0,0,1-.658.016H601.9c.054.142.06.213.1.252.987,1,1.966,2.008,2.978,2.983a1.108,1.108,0,0,0,.712.223q23.453.015,46.906-.005a1.372,1.372,0,0,0,.857-.349c.909-.859,1.778-1.761,2.656-2.653a4.131,4.131,0,0,0,.325-.45H635.293a6.443,6.443,0,0,1-.724-.014,1.191,1.191,0,0,1-1.089-1.2,1.194,1.194,0,0,1,1.06-1.224,5.766,5.766,0,0,1,.789-.026c4.48,0,8.96.022,13.439-.01a9.436,9.436,0,0,0,9.311-7.623A9.511,9.511,0,0,0,655.228-628.883Zm-29.045-2.233A13.321,13.321,0,0,0,638.95-617.77a13.459,13.459,0,0,0,13.936-12.545,16.219,16.219,0,0,0-.863-6.281,10.642,10.642,0,0,1-.308-7.209,1.749,1.749,0,0,0-.893-2.139q-2.033-1.218-4.1-2.37a1.915,1.915,0,0,0-2.365.335q-.461.422-.9.872a6.764,6.764,0,0,1-3.274,1.865c-1.105.279-2.207.571-3.315.842A13.841,13.841,0,0,0,626.183-631.116ZM648.769-650l2.5,1.433c.645-1.112,1.265-2.168,1.872-3.232a3.2,3.2,0,0,1,3.136-1.773,1.773,1.773,0,0,0,1.825-1.036,1.807,1.807,0,0,0-.323-2.022,1.813,1.813,0,0,0-2.057-.428,1.228,1.228,0,0,1-1.825-1.055,1.813,1.813,0,0,0-1.4-1.565,1.808,1.808,0,0,0-1.914.724,1.769,1.769,0,0,0,0,2.1,3.225,3.225,0,0,1,0,3.71C649.969-652.135,649.4-651.1,648.769-650Z" transform="translate(0 0)" fill="#12263f"/>
      <path id="Trazado_252614" data-name="Trazado 252614" d="M671.762-501.842a9.512,9.512,0,0,1,2.851,8.932,9.436,9.436,0,0,1-9.311,7.623c-4.48.032-8.96.008-13.439.01a5.762,5.762,0,0,0-.789.026,1.194,1.194,0,0,0-1.06,1.224,1.191,1.191,0,0,0,1.089,1.2,6.435,6.435,0,0,0,.724.014h21.135a4.124,4.124,0,0,1-.325.45c-.878.892-1.747,1.794-2.656,2.653a1.372,1.372,0,0,1-.857.349q-23.453.025-46.906.005a1.108,1.108,0,0,1-.712-.223c-1.012-.975-1.991-1.983-2.978-2.983-.038-.039-.045-.11-.1-.252h21.164a5.444,5.444,0,0,0,.658-.016,1.2,1.2,0,0,0,1.082-1.206,1.193,1.193,0,0,0-1.008-1.2,5.2,5.2,0,0,0-.854-.035c-5.753,0-11.507.011-17.26-.008a5.457,5.457,0,0,1-5.612-4.875,16.464,16.464,0,0,1,.118-3.61,25.039,25.039,0,0,1,19.635-21.579,27.739,27.739,0,0,1,8.871-.345c-4.888,5.2-6.368,11.135-3.713,17.817a14.945,14.945,0,0,0,8.4,8.389,15.321,15.321,0,0,0,9.419.881,15.632,15.632,0,0,0,8.247-4.643A16.606,16.606,0,0,0,671.762-501.842ZM634.218-508.5a1.233,1.233,0,0,0-1.9-1.035,20.33,20.33,0,0,0-5.891,4.352,20.13,20.13,0,0,0-3.752,5.522,1.252,1.252,0,0,0,.862,1.883c.581.1,1.069-.208,1.415-.935a18.372,18.372,0,0,1,3.167-4.656,17.989,17.989,0,0,1,5.176-3.888A1.365,1.365,0,0,0,634.218-508.5Zm12.673,24.463a1.215,1.215,0,0,0-1.192-1.233,1.216,1.216,0,0,0-1.245,1.18,1.217,1.217,0,0,0,1.226,1.265A1.212,1.212,0,0,0,646.891-484.033Z" transform="translate(-16.533 -127.041)" fill="#fff"/>
      <path id="Trazado_252615" data-name="Trazado 252615" d="M815.242-541.21a13.841,13.841,0,0,1,10.683-13.282c1.107-.272,2.209-.563,3.315-.842a6.765,6.765,0,0,0,3.274-1.865q.435-.449.9-.872a1.915,1.915,0,0,1,2.365-.335q2.073,1.148,4.1,2.37a1.749,1.749,0,0,1,.893,2.139,10.642,10.642,0,0,0,.308,7.209,16.218,16.218,0,0,1,.863,6.281,13.459,13.459,0,0,1-13.936,12.545A13.321,13.321,0,0,1,815.242-541.21Z" transform="translate(-189.058 -89.907)" fill="#fff"/>
      <path id="Trazado_252616" data-name="Trazado 252616" d="M986.7-633.606c.629-1.1,1.2-2.132,1.809-3.145a3.225,3.225,0,0,0,0-3.71,1.769,1.769,0,0,1,0-2.1,1.808,1.808,0,0,1,1.914-.724,1.813,1.813,0,0,1,1.4,1.565,1.228,1.228,0,0,0,1.825,1.055,1.813,1.813,0,0,1,2.057.427,1.807,1.807,0,0,1,.323,2.022,1.773,1.773,0,0,1-1.825,1.036,3.2,3.2,0,0,0-3.136,1.773c-.607,1.064-1.228,2.12-1.872,3.232Z" transform="translate(-337.935 -16.397)" fill="#fff"/>
      <path id="Trazado_252617" data-name="Trazado 252617" d="M673.624-467.584a1.365,1.365,0,0,1-.919,1.242,17.989,17.989,0,0,0-5.176,3.888,18.374,18.374,0,0,0-3.167,4.656c-.346.727-.835,1.037-1.415.935a1.252,1.252,0,0,1-.862-1.883,20.129,20.129,0,0,1,3.752-5.522,20.33,20.33,0,0,1,5.891-4.352A1.233,1.233,0,0,1,673.624-467.584Z" transform="translate(-55.938 -167.952)" fill="#12263f"/>
      <path id="Trazado_252618" data-name="Trazado 252618" d="M830.859-282.073a1.212,1.212,0,0,1-1.212,1.212,1.217,1.217,0,0,1-1.226-1.265,1.216,1.216,0,0,1,1.245-1.18A1.215,1.215,0,0,1,830.859-282.073Z" transform="translate(-200.501 -329.001)" fill="#12263f"/>
    </g>
    <g id="Grupo_126479" data-name="Grupo 126479" transform="translate(-127.539 4507.211)">
      <path id="Trazado_252619" data-name="Trazado 252619" d="M1367.928-860.073c-.127,2.37-.1,4.76-.411,7.106a15.234,15.234,0,0,1-12.588,12.47c-2.1.27-4.236.3-6.347.517a33.232,33.232,0,0,0-8.656,2.275c-3.085,1.2-6.141,2.5-9.284,3.533a21.956,21.956,0,0,1-13.364.3,20.907,20.907,0,0,1-12.927-10.624,21.233,21.233,0,0,1-2.394-10.309c.027-3.429-.1-6.868.14-10.283A20.052,20.052,0,0,1,1308.6-878.6a21.182,21.182,0,0,1,15.48-5.849,113.816,113.816,0,0,1,20.779,2.029,46.92,46.92,0,0,1,14.569,5.049,17.851,17.851,0,0,1,6.517,6.045,12.882,12.882,0,0,1,1.858,6.789c.009,1.486,0,2.972,0,4.458Zm-2.715,4.057c-.692.8-1.258,1.477-1.857,2.128-.814.885-1.554,1.01-2.181.409-.6-.579-.494-1.34.348-2.2a12.407,12.407,0,0,0,3.024-4.922,10.916,10.916,0,0,0-.874-9.51,14.852,14.852,0,0,0-5.1-4.79,42.4,42.4,0,0,0-13.682-4.892,104.826,104.826,0,0,0-21.533-2.065,19.12,19.12,0,0,0-4.869.642,17.958,17.958,0,0,0-12.775,11.586,17.854,17.854,0,0,0,1.087,15.25,18.147,18.147,0,0,0,9.857,8.6,18.61,18.61,0,0,0,11.928.485c3.065-.875,6.042-2.083,9.011-3.262a39.983,39.983,0,0,1,11.884-3.12c1.39-.1,2.785-.155,4.178-.175a1.213,1.213,0,0,1,1.311,1.207,1.237,1.237,0,0,1-1.209,1.317c-.589.065-1.186.084-1.78.091a27.945,27.945,0,0,0-9.022,1.5c-2.95,1.04-5.849,2.224-8.762,3.369a30.69,30.69,0,0,1-7.846,2.139Q1312.587-840.711,1305-852.3a3.486,3.486,0,0,0-.258-.312,11.011,11.011,0,0,0,.246,2.343,18.73,18.73,0,0,0,18.972,14.685,30.763,30.763,0,0,0,10-2.463c2.5-1.007,4.989-2.052,7.53-2.949a36.03,36.03,0,0,1,11.245-1.864,12.4,12.4,0,0,0,10.139-5.415A12.542,12.542,0,0,0,1365.213-856.017Z" transform="translate(0 0)" fill="#12263f"/>
      <path id="Trazado_252620" data-name="Trazado 252620" d="M1381.207-839.7a12.543,12.543,0,0,1-2.347,7.738,12.4,12.4,0,0,1-10.139,5.415,36.03,36.03,0,0,0-11.244,1.864c-2.54.9-5.029,1.942-7.53,2.949a30.762,30.762,0,0,1-10,2.463,18.73,18.73,0,0,1-18.972-14.685,11.019,11.019,0,0,1-.246-2.343,3.441,3.441,0,0,1,.259.312q7.579,11.6,21.349,10.076a30.69,30.69,0,0,0,7.846-2.139c2.913-1.144,5.812-2.329,8.762-3.369a27.95,27.95,0,0,1,9.022-1.5c.594-.007,1.191-.026,1.78-.091a1.237,1.237,0,0,0,1.209-1.317,1.213,1.213,0,0,0-1.311-1.207c-1.393.02-2.788.075-4.178.175a39.983,39.983,0,0,0-11.884,3.12c-2.969,1.178-5.946,2.386-9.011,3.262a18.611,18.611,0,0,1-11.928-.485,18.147,18.147,0,0,1-9.857-8.6,17.855,17.855,0,0,1-1.087-15.251,17.958,17.958,0,0,1,12.775-11.586,19.123,19.123,0,0,1,4.869-.642,104.83,104.83,0,0,1,21.533,2.065,42.4,42.4,0,0,1,13.682,4.892,14.852,14.852,0,0,1,5.1,4.79,10.916,10.916,0,0,1,.874,9.51,12.406,12.406,0,0,1-3.024,4.922c-.842.859-.953,1.62-.348,2.2.627.6,1.367.476,2.181-.409C1379.948-838.223,1380.515-838.9,1381.207-839.7Zm-40.088-23.176a16.028,16.028,0,0,0-7.1.757,15.8,15.8,0,0,0-10.755,13.056,16.126,16.126,0,0,0,7.293,15.722,16.316,16.316,0,0,0,13.184,1.919,71.8,71.8,0,0,0,8-2.83,46.378,46.378,0,0,1,9.979-3.142c2.411-.363,4.858-.493,7.292-.7a10.038,10.038,0,0,0,8.3-5.2c1.909-3.33,2.384-8.079-1.962-11.512a24.989,24.989,0,0,0-4.828-2.96,50.33,50.33,0,0,0-12.8-3.7c-1.012-.179-2.029-.348-3.05-.46a1.256,1.256,0,0,0-1.438,1.077,1.293,1.293,0,0,0,1.085,1.435c.266.063.541.092.812.135a61.648,61.648,0,0,1,12.295,3,20.35,20.35,0,0,1,6.5,3.6,5.555,5.555,0,0,1,2.071,3.378,7.371,7.371,0,0,1-2.819,6.974,8.07,8.07,0,0,1-5.374,1.706,37.8,37.8,0,0,0-13,2.457c-3.277,1.215-6.5,2.59-9.793,3.744a15.1,15.1,0,0,1-10.859.044,13.556,13.556,0,0,1-8.048-15.849,13.48,13.48,0,0,1,13.274-10.165c1.554,0,3.108.067,4.662.1.953.018,1.558-.456,1.592-1.232s-.524-1.309-1.487-1.335C1343.129-862.9,1342.124-862.877,1341.118-862.877Zm-.493,5.02a7.088,7.088,0,0,0-3.682.9,5.544,5.544,0,0,0-1.493,8.8,6.955,6.955,0,0,0,9.7.23,5.389,5.389,0,0,0,.707-7.229A6.44,6.44,0,0,0,1340.625-857.857Zm8.994-3.456a1.261,1.261,0,0,0-1.3-1.293,1.251,1.251,0,0,0-1.291,1.23,1.3,1.3,0,0,0,1.3,1.307A1.279,1.279,0,0,0,1349.619-861.313Zm26.548,25.478a1.263,1.263,0,0,0-1.268-1.245,1.247,1.247,0,0,0-1.259,1.246,1.232,1.232,0,0,0,1.291,1.278A1.267,1.267,0,0,0,1376.167-835.835Z" transform="translate(-15.993 -16.317)" fill="#fff"/>
      <path id="Trazado_252621" data-name="Trazado 252621" d="M1357.473-846.7c1.005,0,2.011-.021,3.016.006.964.026,1.522.551,1.488,1.335s-.639,1.25-1.592,1.232c-1.554-.029-3.108-.093-4.662-.1a13.48,13.48,0,0,0-13.274,10.165,13.556,13.556,0,0,0,8.048,15.849,15.1,15.1,0,0,0,10.859-.043c3.3-1.154,6.517-2.529,9.793-3.744a37.8,37.8,0,0,1,13-2.457,8.07,8.07,0,0,0,5.374-1.706,7.372,7.372,0,0,0,2.819-6.974,5.555,5.555,0,0,0-2.071-3.378,20.348,20.348,0,0,0-6.5-3.6,61.652,61.652,0,0,0-12.295-3c-.271-.043-.545-.072-.811-.135a1.294,1.294,0,0,1-1.085-1.435,1.256,1.256,0,0,1,1.438-1.077c1.021.111,2.038.281,3.05.46a50.33,50.33,0,0,1,12.8,3.7,24.984,24.984,0,0,1,4.828,2.96c4.345,3.433,3.871,8.182,1.962,11.512a10.038,10.038,0,0,1-8.3,5.2c-2.433.212-4.88.342-7.292.7a46.374,46.374,0,0,0-9.979,3.142,71.812,71.812,0,0,1-8,2.83,16.317,16.317,0,0,1-13.184-1.919,16.126,16.126,0,0,1-7.293-15.722,15.794,15.794,0,0,1,10.755-13.056A16.027,16.027,0,0,1,1357.473-846.7Z" transform="translate(-32.348 -32.495)" fill="#12263f"/>
      <path id="Trazado_252622" data-name="Trazado 252622" d="M1424.983-809.568a6.438,6.438,0,0,1,5.227,2.7,5.389,5.389,0,0,1-.707,7.229,6.956,6.956,0,0,1-9.7-.23,5.544,5.544,0,0,1,1.493-8.8A7.084,7.084,0,0,1,1424.983-809.568Zm3.91,5.913a9.84,9.84,0,0,0-.992-1.975,4.287,4.287,0,0,0-6.171-.147,2.92,2.92,0,0,0,.007,4.228,4.351,4.351,0,0,0,6.138-.125A10.014,10.014,0,0,0,1428.893-803.655Z" transform="translate(-100.351 -64.605)" fill="#12263f"/>
      <path id="Trazado_252623" data-name="Trazado 252623" d="M1516.578-842.847a1.279,1.279,0,0,1-1.291,1.244,1.3,1.3,0,0,1-1.3-1.307,1.25,1.25,0,0,1,1.291-1.23A1.261,1.261,0,0,1,1516.578-842.847Z" transform="translate(-182.952 -34.782)" fill="#12263f"/>
      <path id="Trazado_252624" data-name="Trazado 252624" d="M1710.527-656.8a1.267,1.267,0,0,1-1.236,1.28A1.232,1.232,0,0,1,1708-656.8a1.247,1.247,0,0,1,1.259-1.246A1.263,1.263,0,0,1,1710.527-656.8Z" transform="translate(-350.353 -195.347)" fill="#12263f"/>
      <path id="Trazado_252625" data-name="Trazado 252625" d="M1445.089-787.543a10.008,10.008,0,0,1-1.018,1.981,4.351,4.351,0,0,1-6.138.125,2.92,2.92,0,0,1-.007-4.228,4.287,4.287,0,0,1,6.171.146A9.848,9.848,0,0,1,1445.089-787.543Z" transform="translate(-116.547 -80.717)" fill="#fff"/>
    </g>
    <g id="Grupo_126480" data-name="Grupo 126480" transform="translate(-653.492 4362.179)">
      <path id="Trazado_252626" data-name="Trazado 252626" d="M1343.062-619.892c-1.118.209-2.148.484-3.2.584a12.832,12.832,0,0,1-10.414-3.572c-.783-.734-.758-1.357.023-2.122a13.214,13.214,0,0,1,15.681-1.868c.178.106.36.2.635.358.038-.827.066-1.564.107-2.3a59.1,59.1,0,0,1,2.732-15.622.877.877,0,0,0-.255-1.059c-1.12-1.078-2.212-2.186-3.307-3.292a3.56,3.56,0,0,1,.057-5.42,13.017,13.017,0,0,1,11.428-3.459,1.072,1.072,0,0,0,.965-.279,39.554,39.554,0,0,1,16.278-8.362,21.6,21.6,0,0,1,10.057-.465,11.932,11.932,0,0,1,2.975,1.109,6.4,6.4,0,0,1,3.041,4.878,23.8,23.8,0,0,1-.3,9.447,39.514,39.514,0,0,1-8.231,16.552,2.06,2.06,0,0,0-.513,1.764,12.9,12.9,0,0,1-3.592,11.079,3.536,3.536,0,0,1-5.236.077c-1.176-1.144-2.33-2.311-3.479-3.482a.711.711,0,0,0-.839-.224,59.978,59.978,0,0,1-16.828,2.821c-.38.015-.758.042-1.179.066.378.773.793,1.469,1.071,2.215a12.977,12.977,0,0,1-2.53,13.982c-.856.977-1.469.98-2.333.019a13,13,0,0,1-3.018-12.71C1342.918-619.4,1342.986-619.623,1343.062-619.892Zm40.964-23.266c-.3,0-.487-.009-.675,0a12.712,12.712,0,0,1-4.868-.513,39.326,39.326,0,0,1-4.325-1.861,1.182,1.182,0,0,1-.631-1.745c.379-.656,1.069-.758,1.888-.278.092.054.181.113.274.165a12.877,12.877,0,0,0,9.1,1.609,1.059,1.059,0,0,0,.669-.536,31.046,31.046,0,0,0,2.221-8.3,16.254,16.254,0,0,0-.368-6.526,3.979,3.979,0,0,0-3.049-3.037,18.247,18.247,0,0,0-3.523-.535,28.887,28.887,0,0,0-11.019,2.2,1.3,1.3,0,0,0-.935,1.182,13.2,13.2,0,0,0,.756,6.778,1.218,1.218,0,0,1-.623,1.707,1.17,1.17,0,0,1-1.594-.843,29.385,29.385,0,0,1-.943-3.766,30.08,30.08,0,0,1-.175-3.4,5.487,5.487,0,0,0-.561.259c-1.131.68-2.28,1.335-3.382,2.061a26.67,26.67,0,0,0-11.075,13.935,60.733,60.733,0,0,0-2.973,19.172,1.344,1.344,0,0,0,.066.3,2.508,2.508,0,0,0,.281.031,63.838,63.838,0,0,0,16.181-2.06c6.083-1.654,11.372-4.518,15.225-9.689A43.857,43.857,0,0,0,1384.026-643.158Zm-38.892,19.231c-3.907-3.358-10.272-2.753-13.118.033C1335.2-620.9,1341.992-620.906,1345.135-623.928Zm1.886,1.9c-3.333,3.926-2.75,10.167.02,13.115C1350.038-612.255,1350.142-618.484,1347.021-622.026Zm23.582-4.631c1.04,1.043,1.99,2.011,2.958,2.962a1.244,1.244,0,0,0,2.079-.046,10.344,10.344,0,0,0,2.739-5.454c.132-.779.166-1.575.244-2.363l-.187-.058A26.692,26.692,0,0,1,1370.6-626.657Zm-15.83-28.735a2.381,2.381,0,0,0-.366-.078,10.68,10.68,0,0,0-7.733,3.105,1.156,1.156,0,0,0-.017,1.76c.418.453.863.883,1.3,1.319.58.578,1.164,1.152,1.805,1.786A26.847,26.847,0,0,1,1354.774-655.393Z" fill="#12263f"/>
      <path id="Trazado_252627" data-name="Trazado 252627" d="M1515.945-626.422a43.835,43.835,0,0,1-4.056,6.3c-3.852,5.171-9.141,8.036-15.225,9.689a63.844,63.844,0,0,1-16.181,2.06,2.492,2.492,0,0,1-.281-.031,1.345,1.345,0,0,1-.066-.3,60.734,60.734,0,0,1,2.973-19.172,26.67,26.67,0,0,1,11.075-13.935c1.1-.726,2.25-1.38,3.382-2.061a5.5,5.5,0,0,1,.562-.259,30.054,30.054,0,0,0,.175,3.4,29.409,29.409,0,0,0,.943,3.766,1.17,1.17,0,0,0,1.594.843,1.218,1.218,0,0,0,.623-1.707,13.2,13.2,0,0,1-.756-6.778,1.3,1.3,0,0,1,.935-1.182,28.889,28.889,0,0,1,11.019-2.2,18.25,18.25,0,0,1,3.523.535,3.979,3.979,0,0,1,3.049,3.037,16.252,16.252,0,0,1,.368,6.526,31.032,31.032,0,0,1-2.221,8.3,1.059,1.059,0,0,1-.669.536,12.876,12.876,0,0,1-9.1-1.609c-.093-.052-.182-.112-.274-.165-.819-.48-1.509-.378-1.888.278a1.182,1.182,0,0,0,.631,1.745,39.332,39.332,0,0,0,4.325,1.861,12.714,12.714,0,0,0,4.868.513C1515.458-626.431,1515.647-626.422,1515.945-626.422Zm-3.624-15.313a1.184,1.184,0,0,0-1.2,1.155,1.174,1.174,0,0,0,1.2,1.215,1.17,1.17,0,0,0,1.171-1.181A1.191,1.191,0,0,0,1512.321-641.734Zm-8.265,8.649a1.184,1.184,0,0,0-1.139-1.218,1.185,1.185,0,0,0-1.229,1.191,1.167,1.167,0,0,0,1.169,1.181A1.173,1.173,0,0,0,1504.056-633.085Z" transform="translate(-131.919 -16.736)" fill="#fff"/>
      <path id="Trazado_252628" data-name="Trazado 252628" d="M1366.549-344.571c-3.143,3.022-9.938,3.023-13.118.033C1356.277-347.324,1362.642-347.929,1366.549-344.571Z" transform="translate(-21.415 -279.357)" fill="#fff"/>
      <path id="Trazado_252629" data-name="Trazado 252629" d="M1455.194-314.056c3.12,3.542,3.016,9.771.02,13.115C1452.444-303.889,1451.861-310.13,1455.194-314.056Z" transform="translate(-108.173 -307.97)" fill="#fff"/>
      <path id="Trazado_252630" data-name="Trazado 252630" d="M1655.2-384.1a26.69,26.69,0,0,0,7.833-4.96l.187.058c-.078.788-.112,1.584-.244,2.363a10.342,10.342,0,0,1-2.739,5.454,1.244,1.244,0,0,1-2.079.046C1657.192-382.087,1656.242-383.056,1655.2-384.1Z" transform="translate(-284.598 -242.559)" fill="#fff"/>
      <path id="Trazado_252631" data-name="Trazado 252631" d="M1473.335-575.533a26.848,26.848,0,0,0-5.011,7.891c-.641-.634-1.225-1.208-1.805-1.786-.437-.436-.882-.865-1.3-1.319a1.156,1.156,0,0,1,.017-1.76,10.681,10.681,0,0,1,7.733-3.105A2.387,2.387,0,0,1,1473.335-575.533Z" transform="translate(-118.561 -79.86)" fill="#fff"/>
      <path id="Trazado_252632" data-name="Trazado 252632" d="M1723.623-599.071a1.191,1.191,0,0,1,1.171,1.189,1.17,1.17,0,0,1-1.171,1.181,1.174,1.174,0,0,1-1.2-1.215A1.184,1.184,0,0,1,1723.623-599.071Z" transform="translate(-343.221 -59.4)" fill="#12263f"/>
      <path id="Trazado_252633" data-name="Trazado 252633" d="M1651.043-539.743a1.174,1.174,0,0,1-1.2,1.155,1.167,1.167,0,0,1-1.169-1.181,1.185,1.185,0,0,1,1.229-1.191A1.184,1.184,0,0,1,1651.043-539.743Z" transform="translate(-278.906 -110.079)" fill="#12263f"/>
    </g>
    <g id="Grupo_126481" data-name="Grupo 126481" transform="translate(-837.819 4531.04)">
      <path id="Trazado_252634" data-name="Trazado 252634" d="M2064.715-717.134a44.894,44.894,0,0,1-.314,4.863,13.554,13.554,0,0,1-14.747,10.884,30.768,30.768,0,0,1-9.837-3.339c-1.89-.921-3.777-1.866-5.732-2.628a13.33,13.33,0,0,0-3.5-.717,6.893,6.893,0,0,1-5.18-2.8,1.429,1.429,0,0,0-1.162-.622,2.69,2.69,0,0,0-2.739,1.232,23.255,23.255,0,0,1-1.786,2.031,3.189,3.189,0,0,1-4.489.6,3.47,3.47,0,0,1-.685-4.668c.493-.725,1.029-1.421,1.581-2.1a.61.61,0,0,0,.006-.911c-.509-.619-.987-1.264-1.458-1.913a3.415,3.415,0,0,1-.464-3.481,3.157,3.157,0,0,1,5.3-1.007q1.336,1.426,2.594,2.924a1.3,1.3,0,0,0,1.223.549,3.767,3.767,0,0,1,.9,0,1.116,1.116,0,0,0,1.167-.592,6.753,6.753,0,0,1,4.145-2.68,5.4,5.4,0,0,1-1.964-3.626,40.546,40.546,0,0,1,.087-6.892,6.519,6.519,0,0,1,6.4-5.411,48.394,48.394,0,0,0,6.112-.611,7.084,7.084,0,0,0,5.166-3.819,19.228,19.228,0,0,0-2.2.013c-1.84.221-3.679.463-5.5.779a27.581,27.581,0,0,1-8.9-.328c-1.188-.179-2.383-.315-3.574-.477a6.851,6.851,0,0,0-3.39.462c-1.287.489-2.554,1.03-3.826,1.557-1.025.424-1.768-.031-1.77-1.144-.01-5.89,0-11.781-.008-17.671a1.216,1.216,0,0,1,.78-1.25c1.745-.688,3.481-1.405,5.255-2.009,1.873-.637,3.775-.158,5.658.068,1.168.14,2.338.293,3.5.5a23.088,23.088,0,0,0,9.1-.519c4.011-.873,7.575.209,11.067,1.967a1.344,1.344,0,0,1,.744,1.356c-.014,2.256-.005,4.512,0,6.768v.854c.387-.306.656-.514.921-.729,5.448-4.405,15.312-5.549,21.779-.4a16.766,16.766,0,0,1,6.6,13.036c.1,2.653,0,5.313.027,7.97.053,5.774-2.713,9.686-7.9,11.989a23.866,23.866,0,0,1-7.645,1.808C2065.561-717.215,2065.069-717.167,2064.715-717.134Zm-1.791-6.748.021.14c1.656-.245,3.336-.381,4.962-.755,6.681-1.536,11.155-6.785,11.415-13.283a14.637,14.637,0,0,0-17.31-15.229,16.414,16.414,0,0,0-11.062,6.972c-1.4,1.951-2.7,3.978-4.033,5.982a9.8,9.8,0,0,1-6.026,4.181,29.031,29.031,0,0,1-6.856.727,4.371,4.371,0,0,0-4.16,3.314,3.987,3.987,0,0,0,1.975,4.674,8.894,8.894,0,0,0,2.2.94c1.645.433,3.312.793,4.984,1.105a2.839,2.839,0,0,0,1.425-.195c2.249-.835,4.427-1.92,6.731-2.541a13.266,13.266,0,0,1,13.13,3.1,2.614,2.614,0,0,0,2.3.867A2.045,2.045,0,0,1,2062.925-723.882Zm-.51,9.134a11.259,11.259,0,0,0-7.149-10.6,12.414,12.414,0,0,0-9.317.2c-2.723,1.06-5.343,2.388-7.994,3.627a18.112,18.112,0,0,1-7.2,2.166,4.471,4.471,0,0,0-4.407,4.5,4.576,4.576,0,0,0,4.412,4.529,12.569,12.569,0,0,1,3.661.695c2.325.912,4.581,2.008,6.837,3.088a27.784,27.784,0,0,0,8.414,2.875A11.3,11.3,0,0,0,2062.414-714.748Zm-12.4-39.147c0-1.378.017-2.651-.019-3.922a.79.79,0,0,0-.418-.511,13.089,13.089,0,0,0-8.863-1.306,25.284,25.284,0,0,1-9.1.58c-2.176-.345-4.363-.624-6.551-.872-2.332-.264-4.328.843-6.381,1.688a.391.391,0,0,0-.22.265c-.014,1.333-.01,2.667-.01,4.066a4.162,4.162,0,0,0,.472-.149,13.89,13.89,0,0,1,9.224-1.005,29.556,29.556,0,0,0,12.525-.052,13.048,13.048,0,0,1,8.573.941C2049.459-754.07,2049.7-754.008,2050.012-753.9Zm-1.065,6.677a.987.987,0,0,0-.143-.146c-.086-.051-.177-.091-.267-.135a12.021,12.021,0,0,0-7.828-.843,26.748,26.748,0,0,1-9.251.551c-2.124-.345-4.261-.612-6.4-.855-2.332-.265-4.327.846-6.379,1.689a.453.453,0,0,0-.227.336c-.016,1.309-.01,2.617-.01,3.991a3.819,3.819,0,0,0,.475-.143,14.063,14.063,0,0,1,9.3-1,29.523,29.523,0,0,0,11.858.063,13.141,13.141,0,0,1,6.25-.189.584.584,0,0,0,.511-.159C2047.557-745.1,2048.251-746.17,2048.947-747.218Zm1.066-2.242a10.2,10.2,0,0,0-.02-1.451.978.978,0,0,0-.437-.646,13.006,13.006,0,0,0-8.86-1.3,25.669,25.669,0,0,1-9.625.515c-1.9-.326-3.819-.527-5.729-.791-2.452-.338-4.537.789-6.678,1.679a.552.552,0,0,0-.215.419c-.026.518-.01,1.038-.01,1.648.318-.109.555-.172.776-.27a12.742,12.742,0,0,1,7.9-1.028,34.382,34.382,0,0,0,13.872.084,14.96,14.96,0,0,1,4.763-.127A25.635,25.635,0,0,1,2050.013-749.46Zm29.215,19.756c-3.892,5.781-9.589,7.908-16.246,8.108.756,2.235.756,2.235,2.907,2.084.075-.005.15-.006.225-.014a19.043,19.043,0,0,0,8.8-2.745A9.237,9.237,0,0,0,2079.229-729.7Zm-55.144,13.772a5.153,5.153,0,0,0-.971-.04,2.587,2.587,0,0,1-2.572-1.159c-.805-1.02-1.718-1.955-2.585-2.925-.379-.424-.831-.608-1.319-.228a1.077,1.077,0,0,0-.325,1.411,3.05,3.05,0,0,0,.33.5c.643.863,1.293,1.722,1.936,2.585a1.243,1.243,0,0,1-.009,1.879c-.676.9-1.362,1.795-2.033,2.7a1.206,1.206,0,0,0,.05,1.75c.46.4.936.286,1.531-.376.971-1.08,1.945-2.157,2.893-3.257a1.67,1.67,0,0,1,1.441-.642c.538.027,1.078.006,1.632.006Zm5.688-9.906a4.518,4.518,0,0,0,3.236,3.765.6.6,0,0,0,.295,0c.952-.346,1.9-.7,2.85-1.056l-.012-.205C2033.93-723.89,2031.666-724.32,2029.773-725.838Z" transform="translate(0 0)" fill="#12263f"/>
      <path id="Trazado_252635" data-name="Trazado 252635" d="M2152.175-672.86a2.051,2.051,0,0,0-.3,0,2.613,2.613,0,0,1-2.3-.868,13.266,13.266,0,0,0-13.13-3.1c-2.3.621-4.482,1.705-6.731,2.541a2.839,2.839,0,0,1-1.426.195c-1.672-.312-3.339-.672-4.984-1.105a8.9,8.9,0,0,1-2.2-.94,3.987,3.987,0,0,1-1.975-4.674,4.371,4.371,0,0,1,4.16-3.314,29.026,29.026,0,0,0,6.856-.727,9.8,9.8,0,0,0,6.025-4.181c1.329-2,2.629-4.031,4.033-5.982a16.413,16.413,0,0,1,11.062-6.972,14.637,14.637,0,0,1,17.31,15.229c-.26,6.5-4.734,11.746-11.415,13.283-1.625.374-3.306.51-4.962.755Zm4.07-22.558a7.9,7.9,0,0,0-7.955,7.755,7.912,7.912,0,0,0,7.829,8.034,7.906,7.906,0,0,0,7.955-7.757A7.9,7.9,0,0,0,2156.246-695.418Z" transform="translate(-89.25 -51.022)" fill="#fff"/>
      <path id="Trazado_252636" data-name="Trazado 252636" d="M2132.583-510.813a11.3,11.3,0,0,1-12.747,11.082,27.789,27.789,0,0,1-8.414-2.875c-2.256-1.079-4.512-2.176-6.837-3.088a12.57,12.57,0,0,0-3.661-.695,4.576,4.576,0,0,1-4.412-4.529,4.471,4.471,0,0,1,4.407-4.5,18.112,18.112,0,0,0,7.2-2.166c2.652-1.238,5.271-2.567,7.994-3.627a12.412,12.412,0,0,1,9.316-.2A11.257,11.257,0,0,1,2132.583-510.813Z" transform="translate(-70.169 -203.935)" fill="#fff"/>
      <path id="Trazado_252637" data-name="Trazado 252637" d="M2075.569-740.977c-.317-.113-.553-.175-.771-.278a13.049,13.049,0,0,0-8.573-.941,29.555,29.555,0,0,1-12.525.052,13.891,13.891,0,0,0-9.224,1.005,4.165,4.165,0,0,1-.472.149c0-1.4,0-2.733.01-4.066a.391.391,0,0,1,.22-.265c2.052-.846,4.049-1.952,6.381-1.688,2.189.248,4.376.527,6.551.872a25.285,25.285,0,0,0,9.1-.58,13.089,13.089,0,0,1,8.863,1.306.791.791,0,0,1,.418.511C2075.585-743.628,2075.569-742.355,2075.569-740.977Z" transform="translate(-25.556 -12.918)" fill="#fff"/>
      <path id="Trazado_252638" data-name="Trazado 252638" d="M2074.468-670.557c-.7,1.049-1.39,2.114-2.114,3.158a.585.585,0,0,1-.512.159,13.14,13.14,0,0,0-6.25.189,29.523,29.523,0,0,1-11.858-.063,14.063,14.063,0,0,0-9.3,1,3.831,3.831,0,0,1-.475.143c0-1.374-.006-2.682.01-3.991a.454.454,0,0,1,.227-.336c2.052-.842,4.047-1.954,6.379-1.689,2.138.243,4.276.51,6.4.855a26.749,26.749,0,0,0,9.251-.551,12.021,12.021,0,0,1,7.828.843c.09.044.182.084.267.135A1,1,0,0,1,2074.468-670.557Z" transform="translate(-25.521 -76.662)" fill="#fff"/>
      <path id="Trazado_252639" data-name="Trazado 252639" d="M2075.5-698.3a25.641,25.641,0,0,0-4.26-1.272,14.956,14.956,0,0,0-4.762.127,34.387,34.387,0,0,1-13.872-.084,12.743,12.743,0,0,0-7.905,1.028c-.221.1-.458.161-.776.27,0-.609-.016-1.13.01-1.648a.553.553,0,0,1,.214-.419c2.142-.89,4.227-2.017,6.678-1.679,1.91.264,3.83.465,5.729.791a25.673,25.673,0,0,0,9.626-.515,13.007,13.007,0,0,1,8.861,1.3.98.98,0,0,1,.437.646A10.2,10.2,0,0,1,2075.5-698.3Z" transform="translate(-25.482 -51.165)" fill="#fff"/>
      <path id="Trazado_252640" data-name="Trazado 252640" d="M2356.452-545.773a9.235,9.235,0,0,1-4.311,7.433,19.042,19.042,0,0,1-8.8,2.745c-.074.008-.15.009-.225.014-2.152.151-2.152.151-2.907-2.084C2346.863-537.865,2352.56-539.991,2356.452-545.773Z" transform="translate(-277.223 -183.931)" fill="#fff"/>
      <path id="Trazado_252641" data-name="Trazado 252641" d="M2036.82-479.932v2.2c-.554,0-1.094.022-1.632-.006a1.671,1.671,0,0,0-1.441.642c-.948,1.1-1.922,2.177-2.893,3.257-.6.662-1.071.771-1.531.376a1.206,1.206,0,0,1-.05-1.75c.671-.9,1.357-1.8,2.033-2.7a1.244,1.244,0,0,0,.009-1.879c-.643-.863-1.292-1.722-1.936-2.585a3.052,3.052,0,0,1-.331-.5,1.076,1.076,0,0,1,.325-1.411c.487-.38.94-.2,1.319.228.868.97,1.781,1.906,2.585,2.925a2.587,2.587,0,0,0,2.572,1.159A5.164,5.164,0,0,1,2036.82-479.932Z" transform="translate(-12.735 -236)" fill="#fff"/>
      <path id="Trazado_252642" data-name="Trazado 252642" d="M2119.327-520.06c1.894,1.518,4.157,1.948,6.369,2.507l.012.205c-.95.353-1.9.709-2.851,1.056a.6.6,0,0,1-.295,0A4.518,4.518,0,0,1,2119.327-520.06Z" transform="translate(-89.554 -205.778)" fill="#fff"/>
      <path id="Trazado_252643" data-name="Trazado 252643" d="M2321.94-657.089a7.9,7.9,0,0,1,7.829,8.033,7.906,7.906,0,0,1-7.955,7.757,7.912,7.912,0,0,1-7.829-8.034A7.9,7.9,0,0,1,2321.94-657.089Zm5.571,7.9a5.648,5.648,0,0,0-5.645-5.64,5.657,5.657,0,0,0-5.624,5.668,5.657,5.657,0,0,0,5.611,5.6A5.654,5.654,0,0,0,2327.511-649.188Z" transform="translate(-254.945 -89.352)" fill="#12263f"/>
      <path id="Trazado_252644" data-name="Trazado 252644" d="M2340.269-636.413a5.654,5.654,0,0,1-5.658,5.63,5.657,5.657,0,0,1-5.61-5.6,5.656,5.656,0,0,1,5.623-5.668A5.648,5.648,0,0,1,2340.269-636.413Z" transform="translate(-267.703 -102.127)" fill="#fff"/>
    </g>
    <g id="Grupo_126482" data-name="Grupo 126482" transform="translate(-2023.19 4852.015)">
      <path id="Trazado_252645" data-name="Trazado 252645" d="M2733.469-974.791c1.029-.194,1.928-.4,2.838-.52a2.182,2.182,0,0,1,1.052.149c1.517.6,3.018,1.243,4.526,1.868.233.1.472.178.817.307v-.769c0-2.321.009-4.642,0-6.962a18.228,18.228,0,0,1,1.9-8.468,16.043,16.043,0,0,0,1.713-6.754c.007-.19,0-.38,0-.61-.2-.018-.369-.023-.532-.047a.917.917,0,0,1-.9-.983c0-1.375-.013-2.751,0-4.126.008-.68.306-.975,1.006-.976q6.125-.015,12.25,0c.693,0,.976.3.986,1,.017,1.16.006,2.321.006,3.481,0,1.4-.054,1.466-1.469,1.686a14.163,14.163,0,0,0,.731,4.858,24.272,24.272,0,0,0,1.106,2.746,18.7,18.7,0,0,1,1.772,8.05q.021,11.153.053,22.306c0,1.16.033,2.321.041,3.481a3.791,3.791,0,0,1-4.009,4.064q-26.016.007-52.032,0c-1.08,0-1.32-.244-1.32-1.331q0-21.338.005-42.677a4.939,4.939,0,0,1,.142-1.144c.494-2.046,1.08-4.073,1.485-6.135a26.4,26.4,0,0,0,.261-3.642c.027-.493-.012-.989.014-1.482a.858.858,0,0,1,.941-.916l.516,0h22.76c1.257,0,1.544.2,1.432,1.461-.318,3.564.858,6.868,1.637,10.246a9.249,9.249,0,0,1,.255,2.032c.019,6.339.011,12.678.012,19.018Zm-7.128,10.059c0-.785.033-1.494-.007-2.2a5.256,5.256,0,0,1,1.128-3.479,11.535,11.535,0,0,1,3.844-3.275.83.83,0,0,0,.521-.842c-.024-2.341-.01-4.683-.013-7.024,0-.209-.024-.418-.037-.635h-26.031v17.453Zm26.352,12c.012-.249.028-.418.028-.587,0-1.762.01-3.524-.013-5.286a.785.785,0,0,0-.309-.5,3.024,3.024,0,0,1-.028-5.034c.14-.109.324-.273.332-.42.035-.678.016-1.36.016-2.042a3.936,3.936,0,0,0-.409-.053c-4.513,0-9.026-.008-13.539.015a.955.955,0,0,0-.628.4,2.265,2.265,0,0,1-3.769.045.987.987,0,0,0-.951-.467c-1.4.018-2.793.007-4.19.007H2728.1v13.929Zm-46.957-41.781v10.539h26.032v-10.539Zm20.574,31.608c-.222-.016-.37-.035-.519-.035q-9.735,0-19.469-.013c-.539,0-.634.2-.631.675.018,2.986.008,5.973.01,8.96,0,.186.024.373.037.562h20.571Zm33.27-19.1a6.661,6.661,0,0,0,0-.67,18.369,18.369,0,0,0-1.463-5.383,32.323,32.323,0,0,1-1.615-4.468,34.8,34.8,0,0,1-.611-4.01h-7.832a21.347,21.347,0,0,1-2.4,9.313,22.307,22.307,0,0,0-1.108,3.89,8.519,8.519,0,0,0-.128,1.328Zm-15.216,1.736c0,2.6-.007,5.109.015,7.623a.686.686,0,0,0,.348.5c1.7.733,3.4,1.44,5.112,2.139a1.878,1.878,0,0,0,.69.105q4.256.011,8.512,0c.167,0,.333-.02.531-.033v-10.339Zm-12.925-16.03a1.7,1.7,0,0,0,0-.327c-.433-1.75-.881-3.5-1.3-5.249-.1-.4-.338-.42-.661-.42q-10.762.006-21.524-.008c-.472,0-.623.182-.718.6-.307,1.339-.648,2.671-.973,4.006-.109.448-.21.9-.327,1.4Zm22.981,43.563c.971,0,1.848,0,2.724,0a2.128,2.128,0,0,0,2.44-2.447q0-6.151,0-12.3v-.7h-5.263c.034.484.086.947.094,1.41.015.88-.017,1.761.012,2.641a1.1,1.1,0,0,1-.83,1.263,1.175,1.175,0,0,0-.813,1.2,1.12,1.12,0,0,0,.741,1.174c.757.258.916.769.906,1.494C2754.4-956.954,2754.42-954.9,2754.42-952.741Zm-24.545-53.866h-22.231v2.6h21.487a.889.889,0,0,0,.381-.015c.141-.075.341-.217.347-.338C2729.891-1005.1,2729.875-1005.85,2729.875-1006.606Zm-1.638,38.245c1.938,0,3.72.013,5.5-.018a.924.924,0,0,0,.563-.408,2.274,2.274,0,0,1,3.774-.025.928.928,0,0,0,.881.46c3.138-.015,6.276-.007,9.414-.01.177,0,.354-.027.659-.053a3.142,3.142,0,0,0-.326-.206q-5.928-2.445-11.861-4.878a1.383,1.383,0,0,0-.684-.071,11.316,11.316,0,0,0-5.872,2.6A7.419,7.419,0,0,0,2728.237-968.362Zm18.339-32.6v1.158c0,1.453,0,1.453,1.445,1.453q4.378,0,8.756-.005c.248,0,.614.126.619-.334.008-.744,0-1.489,0-2.271Zm-10.324,32.592c-.288.4-.6.65-.559.823a.88.88,0,0,0,.579.568c.155.027.524-.331.534-.531C2736.818-967.726,2736.529-967.962,2736.252-968.365Z" transform="translate(0 0)" fill="#12263f"/>
      <path id="Trazado_252646" data-name="Trazado 252646" d="M2738.065-788.019h-20.6v-17.453h26.03c.013.217.037.426.037.635,0,2.341-.011,4.683.013,7.024a.829.829,0,0,1-.521.842,11.541,11.541,0,0,0-3.844,3.275,5.254,5.254,0,0,0-1.127,3.479C2738.1-789.512,2738.065-788.8,2738.065-788.019Zm-3.824-7.488a8.785,8.785,0,0,0-3.292-5.975,1.111,1.111,0,0,0-1.032.044,8.987,8.987,0,0,0-3.169,5.311,3.791,3.791,0,0,0,3.456,4.365A3.747,3.747,0,0,0,2734.241-795.507Zm-15.659-1.855c0,.516-.014,1.032,0,1.547.021.61.374.994.889.964a.842.842,0,0,0,.846-.942c.016-1.031.021-2.063,0-3.094-.012-.616-.378-1.005-.885-.971a.868.868,0,0,0-.849.949C2718.564-798.394,2718.583-797.877,2718.583-797.362Z" transform="translate(-11.725 -176.714)" fill="#fff"/>
      <path id="Trazado_252647" data-name="Trazado 252647" d="M2915.4-671.231h-24.6V-685.16h1.137c1.4,0,2.794.011,4.19-.007a.988.988,0,0,1,.951.467,2.265,2.265,0,0,0,3.769-.045.956.956,0,0,1,.628-.4c4.513-.023,9.026-.017,13.539-.015a3.913,3.913,0,0,1,.409.053c0,.682.02,1.364-.015,2.042-.008.147-.192.312-.332.42a3.024,3.024,0,0,0,.028,5.034.785.785,0,0,1,.309.5c.023,1.762.015,3.524.013,5.286C2915.425-671.649,2915.409-671.48,2915.4-671.231Zm-18.083-7.6a2.343,2.343,0,0,0-2.3-2.367,2.341,2.341,0,0,0-2.338,2.328,2.336,2.336,0,0,0,2.337,2.327A2.3,2.3,0,0,0,2897.314-678.833Zm11.022,6.481a2.294,2.294,0,0,0,2.339-2.243,2.388,2.388,0,0,0-2.278-2.4,2.334,2.334,0,0,0-2.359,2.3A2.28,2.28,0,0,0,2908.336-672.352Zm2.938-7.2c-.18-.133-.419-.434-.705-.489-.437-.084-.734.218-.742.677a.647.647,0,0,0,.668.711C2910.952-678.634,2911.2-678.9,2911.274-679.552Zm-9.538,2.151.006.3c.288.18.591.52.858.493a1,1,0,0,0,.637-.7.575.575,0,0,0-.726-.66C2902.227-677.9,2901.993-677.6,2901.737-677.4Zm-3.657,4.512.294-.009c.18-.266.474-.516.513-.8a.62.62,0,0,0-.71-.706c-.447.015-.75.312-.648.753C2897.593-673.37,2897.888-673.141,2898.08-672.889Zm8.272-10.2c-.628.129-.9.366-.865.828a.644.644,0,0,0,.722.649c.43-.014.728-.3.658-.7C2906.814-682.608,2906.506-682.867,2906.352-683.086Z" transform="translate(-162.704 -281.506)" fill="#fff"/>
      <path id="Trazado_252648" data-name="Trazado 252648" d="M2717.4-901.113h26.032v10.539H2717.4Z" transform="translate(-11.661 -93.405)" fill="#fff"/>
      <path id="Trazado_252649" data-name="Trazado 252649" d="M2737.671-656.308v10.149H2717.1c-.013-.189-.037-.375-.037-.562,0-2.987.008-5.973-.01-8.96,0-.479.092-.677.631-.675q9.734.027,19.469.013C2737.3-656.343,2737.448-656.324,2737.671-656.308Z" transform="translate(-11.361 -306.602)" fill="#fff"/>
      <path id="Trazado_252650" data-name="Trazado 252650" d="M3032.536-902.267h-15.164a8.549,8.549,0,0,1,.128-1.328,22.265,22.265,0,0,1,1.108-3.89,21.343,21.343,0,0,0,2.4-9.313h7.832a34.909,34.909,0,0,0,.611,4.01,32.328,32.328,0,0,0,1.615,4.468,18.383,18.383,0,0,1,1.463,5.383C3032.555-902.729,3032.536-902.517,3032.536-902.267Z" transform="translate(-272.956 -79.743)" fill="#fff"/>
      <path id="Trazado_252651" data-name="Trazado 252651" d="M3016.958-790.645h15.209v10.339c-.2.013-.365.033-.531.033q-4.256,0-8.512,0a1.876,1.876,0,0,1-.69-.105c-1.71-.7-3.417-1.406-5.112-2.139a.686.686,0,0,1-.348-.5C3016.951-785.536,3016.958-788.049,3016.958-790.645Z" transform="translate(-272.594 -189.629)" fill="#fff"/>
      <path id="Trazado_252652" data-name="Trazado 252652" d="M2744.438-955.527h-25.5c.117-.5.217-.953.326-1.4.325-1.335.666-2.667.973-4.006.1-.416.246-.6.719-.6q10.761.025,21.524.009c.323,0,.566.018.661.42.418,1.753.866,3.5,1.3,5.249A1.681,1.681,0,0,1,2744.438-955.527Z" transform="translate(-13 -40.776)" fill="#fff"/>
      <path id="Trazado_252653" data-name="Trazado 252653" d="M3083.9-681.484c0-2.154-.02-4.214.011-6.272.011-.724-.149-1.236-.906-1.494a1.121,1.121,0,0,1-.742-1.174,1.176,1.176,0,0,1,.814-1.2,1.1,1.1,0,0,0,.83-1.263c-.029-.879,0-1.76-.012-2.641-.008-.463-.06-.925-.094-1.41h5.263v.7q0,6.151,0,12.3a2.128,2.128,0,0,1-2.44,2.447C3085.745-681.482,3084.868-681.484,3083.9-681.484Z" transform="translate(-329.477 -271.257)" fill="#fff"/>
      <path id="Trazado_252654" data-name="Trazado 252654" d="M2754.427-994.864c0,.757.016,1.5-.016,2.249-.005.121-.206.263-.346.338a.889.889,0,0,1-.381.015H2732.2v-2.6Z" transform="translate(-24.551 -11.742)" fill="#fff"/>
      <path id="Trazado_252655" data-name="Trazado 252655" d="M2891.9-733.542a7.422,7.422,0,0,1,2.049-2.609,11.315,11.315,0,0,1,5.872-2.6,1.383,1.383,0,0,1,.684.071q5.936,2.426,11.861,4.878a3.115,3.115,0,0,1,.326.206c-.3.025-.482.053-.659.053-3.138,0-6.276,0-9.414.01a.928.928,0,0,1-.881-.46,2.274,2.274,0,0,0-3.774.025.924.924,0,0,1-.563.408C2895.615-733.529,2893.833-733.542,2891.9-733.542Zm9.545-2.291.308.013c.2-.275.561-.555.552-.823a1,1,0,0,0-.65-.688.582.582,0,0,0-.71.684C2900.98-736.357,2901.265-736.1,2901.44-735.832Zm-5.155-.745c-.328.457-.634.7-.681.991a.629.629,0,0,0,.706.727.633.633,0,0,0,.688-.748C2896.945-735.893,2896.628-736.13,2896.285-736.577Z" transform="translate(-163.658 -234.82)" fill="#fff"/>
      <path id="Trazado_252656" data-name="Trazado 252656" d="M3034.121-951.052h10.822c0,.782.006,1.527,0,2.271-.005.461-.371.334-.619.334q-4.378.012-8.756.005c-1.445,0-1.445,0-1.445-1.453Z" transform="translate(-287.545 -49.905)" fill="#fff"/>
      <path id="Trazado_252657" data-name="Trazado 252657" d="M2950.258-698.291c.277.4.565.639.554.86-.01.2-.379.558-.534.531a.88.88,0,0,1-.579-.568C2949.661-697.641,2949.97-697.89,2950.258-698.291Z" transform="translate(-214.006 -270.074)" fill="#fff"/>
      <path id="Trazado_252658" data-name="Trazado 252658" d="M2796.6-769.264a3.747,3.747,0,0,1-4.037,3.746,3.791,3.791,0,0,1-3.456-4.366,8.987,8.987,0,0,1,3.169-5.311,1.111,1.111,0,0,1,1.032-.044A8.785,8.785,0,0,1,2796.6-769.264Zm-3.76-4.178a7.952,7.952,0,0,0-2.043,3.7,2.076,2.076,0,0,0,.87,2.147,1.876,1.876,0,0,0,2.181.111,2.034,2.034,0,0,0,1.039-2.064A6.867,6.867,0,0,0,2792.837-773.441Z" transform="translate(-74.08 -202.957)" fill="#12263f"/>
      <path id="Trazado_252659" data-name="Trazado 252659" d="M2726.054-759.449c0-.516-.018-1.032.005-1.547a.868.868,0,0,1,.849-.949c.507-.034.874.355.885.971.02,1.031.015,2.063,0,3.094a.842.842,0,0,1-.846.942c-.516.029-.869-.354-.889-.964C2726.04-758.417,2726.054-758.933,2726.054-759.449Z" transform="translate(-19.196 -214.626)" fill="#12263f"/>
      <path id="Trazado_252660" data-name="Trazado 252660" d="M2910.014-652.036a2.3,2.3,0,0,1-2.3,2.288,2.337,2.337,0,0,1-2.337-2.327,2.341,2.341,0,0,1,2.338-2.328A2.343,2.343,0,0,1,2910.014-652.036Zm-2.328.79c.3-.421.6-.667.586-.885s-.361-.415-.562-.62c-.2.2-.541.391-.572.62C2907.11-651.921,2907.41-651.666,2907.686-651.246Z" transform="translate(-175.404 -308.303)" fill="#12263f"/>
      <path id="Trazado_252661" data-name="Trazado 252661" d="M3011.285-617.181a2.28,2.28,0,0,1-2.3-2.343,2.334,2.334,0,0,1,2.359-2.3,2.388,2.388,0,0,1,2.278,2.4A2.294,2.294,0,0,1,3011.285-617.181Zm.909-2.39c-.417-.278-.673-.581-.887-.554a.82.82,0,0,0-.568.578.814.814,0,0,0,.572.573C3011.53-618.956,3011.776-619.271,3012.194-619.571Z" transform="translate(-265.652 -336.677)" fill="#12263f"/>
      <path id="Trazado_252662" data-name="Trazado 252662" d="M3039.816-645.02c-.074.655-.322.918-.779.9a.647.647,0,0,1-.668-.711c.007-.459.3-.76.742-.677C3039.4-645.455,3039.636-645.153,3039.816-645.02Z" transform="translate(-291.245 -316.038)"/>
      <path id="Trazado_252663" data-name="Trazado 252663" d="M2975.625-628.846c.257-.2.49-.5.775-.561a.575.575,0,0,1,.726.66,1,1,0,0,1-.637.7c-.267.027-.571-.313-.859-.493Z" transform="translate(-236.592 -330.062)"/>
      <path id="Trazado_252664" data-name="Trazado 252664" d="M2943.409-600.194c-.192-.252-.487-.481-.551-.763-.1-.441.2-.738.648-.753a.62.62,0,0,1,.71.706c-.039.285-.333.535-.513.8Z" transform="translate(-208.033 -354.201)"/>
      <path id="Trazado_252665" data-name="Trazado 252665" d="M3005.558-669.032c.154.219.462.478.516.782.07.393-.229.682-.658.7a.644.644,0,0,1-.722-.649C3004.658-668.666,3004.93-668.9,3005.558-669.032Z" transform="translate(-261.909 -295.56)"/>
      <path id="Trazado_252666" data-name="Trazado 252666" d="M2962.5-726.261c-.175-.27-.46-.525-.5-.814a.582.582,0,0,1,.71-.684,1,1,0,0,1,.65.688c.009.268-.352.548-.552.823Z" transform="translate(-224.715 -244.391)"/>
      <path id="Trazado_252667" data-name="Trazado 252667" d="M2921.273-721.808c.343.447.659.684.712.97a.633.633,0,0,1-.687.748.629.629,0,0,1-.706-.727C2920.639-721.105,2920.945-721.351,2921.273-721.808Z" transform="translate(-188.646 -249.589)"/>
      <path id="Trazado_252668" data-name="Trazado 252668" d="M2804.331-760.59a6.869,6.869,0,0,1,2.046,3.892,2.034,2.034,0,0,1-1.039,2.064,1.875,1.875,0,0,1-2.18-.111,2.076,2.076,0,0,1-.87-2.147A7.951,7.951,0,0,1,2804.331-760.59Z" transform="translate(-85.574 -215.808)" fill="#fff"/>
      <path id="Trazado_252669" data-name="Trazado 252669" d="M2919.559-640.087c-.277-.42-.577-.675-.548-.886.031-.228.368-.415.572-.62.2.206.543.4.562.62S2919.855-640.507,2919.559-640.087Z" transform="translate(-187.276 -319.462)" fill="#fff"/>
      <path id="Trazado_252670" data-name="Trazado 252670" d="M3024.029-608.072c-.418.3-.665.615-.883.6a.814.814,0,0,1-.572-.573.82.82,0,0,1,.568-.578C3023.356-608.652,3023.612-608.35,3024.029-608.072Z" transform="translate(-277.487 -348.176)" fill="#fff"/>
    </g>
    <g id="Grupo_126483" data-name="Grupo 126483" transform="translate(-2247.212 5047.673)">
      <path id="Trazado_252671" data-name="Trazado 252671" d="M3482.359-1083.763c.933,0,1.75,0,2.568,0,1.189,0,1.462.284,1.463,1.5,0,.483.009.965,0,1.448a3.059,3.059,0,0,1-1.828,2.852,1.289,1.289,0,0,0-.583.64c-.405,1.1-.752,2.225-1.124,3.339a3.074,3.074,0,0,1-3.2,2.312q-23.482,0-46.964,0a3.072,3.072,0,0,1-3.206-2.309c-.377-1.112-.72-2.237-1.125-3.339a1.286,1.286,0,0,0-.582-.643,3.053,3.053,0,0,1-1.83-2.85c-.012-.566-.006-1.133,0-1.7.008-.9.35-1.24,1.268-1.248.9-.007,1.792,0,2.761,0v-.815q0-8.938,0-17.876c0-2.308,1.172-3.47,3.495-3.47h18.5l.125-.167a3.4,3.4,0,0,1-.409-.238c-1.591-1.235-3.177-2.477-4.767-3.713a3.047,3.047,0,0,1-.621-4.749c.113-.149.221-.3.383-.524l-1.924-1.5a6.967,6.967,0,0,1-.921.558,1.876,1.876,0,0,1-1.962-.263c-3.3-2.559-6.616-5.1-9.874-7.7a3.921,3.921,0,0,1-.627-5.438c.37-.509.765-1,1.154-1.494a2.023,2.023,0,0,1,3.124-.4q5.2,4.025,10.389,8.069,11.031,8.577,22.071,17.142a2.1,2.1,0,0,0,1.186.4c3.231.032,6.463.017,9.695.019a3.061,3.061,0,0,1,3.375,3.4q0,8.97,0,17.939Zm-23.17-16.681c0,.412,0,.662,0,.912,0,.881.016,1.763-.011,2.643a.993.993,0,0,1-.969,1.035,1.012,1.012,0,0,1-1.034-1.035c-.014-.188-.007-.377-.007-.566q0-2.863,0-5.727c0-.224-.019-.447-.032-.726h-23.649c-1.208,0-1.5.284-1.5,1.47q0,8.968,0,17.936c0,.224.019.447.03.677h48.288c.014-.165.031-.269.031-.372q0-9.251,0-18.5c0-.85-.378-1.2-1.255-1.2q-4.091-.006-8.183,0h-.432a7.046,7.046,0,0,1-4.728,4.682A7.059,7.059,0,0,1,3459.189-1100.444Zm-28.808,22.75c.319.978.605,1.87.9,2.76.376,1.131.532,1.241,1.707,1.241q22.822,0,45.645,0c2.044,0,1.978.136,2.622-1.89.218-.688.439-1.374.676-2.114Zm37.835-25.982-17.45-13.566c-.98,1.256-1.948,2.489-2.906,3.73-.6.781-.538,1.235.252,1.85,2.033,1.585,4.1,3.131,6.091,4.767a3.831,3.831,0,0,0,2.837.994,1.918,1.918,0,0,1,2.132,2.093,1.282,1.282,0,0,0,.679,1.283,3.976,3.976,0,0,1,.45.342C3463.051-1100.048,3466.314-1100.64,3468.216-1103.676Zm16.151,21.986H3428c-.146,1.674.11,1.955,1.721,1.955h52.891c.252,0,.505.012.755-.009a1,1,0,0,0,1-1.011C3484.384-1081.046,3484.367-1081.34,3484.367-1081.69Zm-50.107-48.387c-.408.513-.778.963-1.131,1.426a2.033,2.033,0,0,0,.425,3.119q4.492,3.5,8.985,7c.175.136.357.262.561.411l2.455-3.169Zm12.9,10.025-1.236,1.59,2.007,1.555,1.235-1.576Z" transform="translate(0)" fill="#12263f"/>
      <path id="Trazado_252672" data-name="Trazado 252672" d="M3501.226-904.589a7.059,7.059,0,0,0,6.55,1.222,7.045,7.045,0,0,0,4.728-4.682h.431q4.092,0,8.183,0c.876,0,1.254.353,1.254,1.2q.008,9.251,0,18.5c0,.1-.017.208-.031.372h-48.287c-.011-.23-.03-.453-.03-.677q0-8.968,0-17.936c0-1.186.289-1.471,1.5-1.471h23.649c.013.279.032.5.032.726q0,2.863,0,5.727c0,.189-.008.378.007.566a1.012,1.012,0,0,0,1.034,1.036.993.993,0,0,0,.969-1.035c.027-.88.01-1.762.011-2.643C3501.226-903.927,3501.226-904.177,3501.226-904.589Zm-12.114.568c1.972,0,3.943.006,5.915,0a1.036,1.036,0,0,0,1.151-.986,1.019,1.019,0,0,0-1.11-1.024c-3.964-.008-7.928-.015-11.892.019a1.339,1.339,0,0,0-.93.5c-.469.649.073,1.48.952,1.488C3485.168-904.012,3487.14-904.023,3489.111-904.022Zm-11.012-2.014c-.356,0-.714-.019-1.069,0a1.009,1.009,0,0,0-.987,1.018.992.992,0,0,0,.959.979c.69.031,1.384.031,2.074,0a.98.98,0,0,0,.979-1.016,1,1,0,0,0-1.014-.986C3478.729-906.053,3478.414-906.037,3478.1-906.036Z" transform="translate(-42.036 -195.855)" fill="#fff"/>
      <path id="Trazado_252673" data-name="Trazado 252673" d="M3461.26-699.825h51.552c-.237.74-.458,1.427-.676,2.114-.644,2.026-.578,1.89-2.622,1.89q-22.822,0-45.645,0c-1.175,0-1.331-.11-1.707-1.242C3461.866-697.955,3461.58-698.847,3461.26-699.825Z" transform="translate(-30.879 -377.869)" fill="#fff"/>
      <path id="Trazado_252674" data-name="Trazado 252674" d="M3617.659-1000.4c-1.9,3.036-5.165,3.627-7.916,1.493a3.977,3.977,0,0,0-.45-.342,1.283,1.283,0,0,1-.679-1.284,1.918,1.918,0,0,0-2.132-2.093,3.83,3.83,0,0,1-2.837-.993c-1.991-1.636-4.057-3.182-6.091-4.767-.789-.616-.854-1.069-.252-1.85.958-1.241,1.926-2.474,2.906-3.73Z" transform="translate(-149.443 -103.278)" fill="#fff"/>
      <path id="Trazado_252675" data-name="Trazado 252675" d="M3498.444-731.566c0,.35.017.644,0,.935a1,1,0,0,1-1,1.01c-.25.022-.5.009-.755.009H3443.8c-1.612,0-1.867-.281-1.721-1.955Z" transform="translate(-14.077 -350.124)" fill="#fff"/>
      <path id="Trazado_252676" data-name="Trazado 252676" d="M3480.433-1115.918l11.295,8.781-2.455,3.169c-.2-.148-.386-.274-.561-.41q-4.494-3.5-8.985-7a2.033,2.033,0,0,1-.425-3.119C3479.655-1114.955,3480.025-1115.405,3480.433-1115.918Z" transform="translate(-46.173 -14.159)" fill="#fff"/>
      <path id="Trazado_252677" data-name="Trazado 252677" d="M3585.928-1036.284l2.006,1.569-1.235,1.576-2.007-1.555Z" transform="translate(-138.771 -83.768)" fill="#fff"/>
      <path id="Trazado_252678" data-name="Trazado 252678" d="M3544.99-890.051c-1.972,0-3.944.011-5.915-.006-.879-.007-1.421-.839-.952-1.488a1.34,1.34,0,0,1,.93-.5c3.964-.034,7.927-.027,11.892-.019a1.019,1.019,0,0,1,1.11,1.024,1.036,1.036,0,0,1-1.151.986C3548.932-890.045,3546.961-890.05,3544.99-890.051Z" transform="translate(-97.914 -209.826)" fill="#12263f"/>
      <path id="Trazado_252679" data-name="Trazado 252679" d="M3492.118-892.076c.314,0,.63-.016.943,0a1,1,0,0,1,1.014.986.98.98,0,0,1-.978,1.016c-.691.028-1.385.029-2.074,0a.992.992,0,0,1-.959-.979,1.008,1.008,0,0,1,.986-1.018C3491.4-892.094,3491.762-892.075,3492.118-892.076Z" transform="translate(-56.056 -209.816)" fill="#12263f"/>
    </g>
    <g id="Grupo_126484" data-name="Grupo 126484" transform="translate(-3381.863 5235.694)">
      <path id="Trazado_252680" data-name="Trazado 252680" d="M4081.436-1237.363c-.585.973.743,10,.743,10l2.416,10.828-1.085,7.236-.27,3.1-.3,4.8,1.1,4.181-1.1,6.249-1.653,4.759.892,5.193h11.231l14.4-1.594,11.369,1.594h4.7l-1.587-6.549,1.587-10.036-1.587-7.12.687-4.222,6.917-1.753,3.812-4.05,1.859-3.984v-4.633l-1.073-5.686-3.288-3.266-4.348-1.959-.218-4.933-3.82.691-4.314-.691-6.31,2.551-15.209-1.63-8.163.966Z" transform="translate(-14.306 -2.521)" fill="#fff"/>
      <path id="Trazado_252681" data-name="Trazado 252681" d="M4118.167-1188.392c-.65-.546-1.289-1.084-1.932-1.62-1.086-.908-2.186-1.8-3.258-2.726-.639-.551-.591-1.427.121-1.674a1.52,1.52,0,0,1,1.146.182,17.5,17.5,0,0,1,1.724,1.39c.205-.378.386-.718.572-1.054a1.014,1.014,0,0,1,1.365-.58,1.013,1.013,0,0,1,.419,1.464c-.233.5-.485.986-.747,1.517.587.488,1.13.977,1.721,1.4.119.084.484-.032.637-.167a12.6,12.6,0,0,1,8.929-3.3,12.73,12.73,0,0,1,5.891,1.633l.6.331c.1-.806.158-1.552.279-2.289a12.959,12.959,0,0,1,20.06-8.36c.6.422.755.967.43,1.471s-.918.589-1.572.161a10.788,10.788,0,0,0-10.137-1.19,10.974,10.974,0,0,0-6.58,13.435,11,11,0,0,0,13.069,7.493,11.021,11.021,0,0,0,8.287-12.408,11.447,11.447,0,0,0-1.738-4.412c-.162-.25-.368-.6-.3-.836a1.543,1.543,0,0,1,.646-.884c.472-.263.9.014,1.186.434a12.215,12.215,0,0,1,2.226,5.759c.523,5.18-1.28,9.41-5.589,12.327s-8.895,3.018-13.521.619c-.192-.1-.383-.2-.679-.361a13.809,13.809,0,0,1-1.809,6.573c-1.147,2.031-2.958,3.423-4.765,4.969,1.017.513,1.916.932,2.776,1.42a1.553,1.553,0,0,1,.722.785,1.034,1.034,0,0,1-.3.917,1.319,1.319,0,0,1-1.079.141c-1.019-.422-1.993-.954-3.171-1.536a19.563,19.563,0,0,0-.335,2.307,9.538,9.538,0,0,1-.947,4.3,8.566,8.566,0,0,1-8.526,4.984,8.678,8.678,0,0,1-7.869-5.809c-.068-.163-.123-.33-.187-.495-.008-.018-.031-.03-.131-.124-.629.782-1.27,1.553-1.867,2.357-.071.1.051.4.161.556.674.932,1.376,1.844,2.06,2.77.474.641.449,1.194-.053,1.575-.486.37-1.06.238-1.534-.38-.66-.858-1.3-1.728-2-2.659-.386.581-.732,1.116-1.092,1.642-.421.615-.949.772-1.462.453a1,1,0,0,1-.187-1.56q2.59-3.528,5.238-7.014a2.025,2.025,0,0,0,.454-1.328c-.019-2.788-.009-5.577-.006-8.365a2.96,2.96,0,0,1,.046-.725.921.921,0,0,1,.961-.754.924.924,0,0,1,.945.776,3.265,3.265,0,0,1,.039.726c0,3.143-.027,6.286.018,9.427a7.068,7.068,0,0,0,5.752,6.856,6.923,6.923,0,0,0,8.158-6.705,9.509,9.509,0,0,1,.829-4.059,9.6,9.6,0,0,1,2.857-3.349,10.52,10.52,0,0,0,4.22-9.648,2.4,2.4,0,0,0-.56-1.274,14.141,14.141,0,0,1-2.9-5.314,2.149,2.149,0,0,0-.662-1.008c-6.264-5.077-15.962-1.444-17.456,6.56a29.181,29.181,0,0,0-.249,3.9c-.026.521-.222.965-.737,1.041a1.481,1.481,0,0,1-1-.315,1.166,1.166,0,0,1-.252-.783,14.144,14.144,0,0,1,2.471-9.242A3.227,3.227,0,0,0,4118.167-1188.392Z" transform="translate(-38.803 -32.586)" fill="#12263f"/>
      <path id="Trazado_252682" data-name="Trazado 252682" d="M4067.13-1239.885c.454,1.573.861,3.017,1.3,4.452.04.132.272.245.436.29a2.341,2.341,0,0,0,.595.014h26.691a6.551,6.551,0,0,1,.994.031.917.917,0,0,1,.838.958.927.927,0,0,1-.822.974,4.267,4.267,0,0,1-.794.03l-26.625,0h-.958v1.988h25.9c1.075,0,1.565.315,1.564,1s-.5,1-1.57,1H4068.9c.162,1.188.373,2.27.446,3.361.162,2.4,1.258,4.5,2.1,6.673a1.3,1.3,0,0,0,.49.509c.726.506,1.474.981,2.2,1.486a1.016,1.016,0,0,1,.389,1.479,1.006,1.006,0,0,1-1.469.191c-.949-.611-1.893-1.231-2.811-1.887a1.74,1.74,0,0,1-.529-.732,48.179,48.179,0,0,1-1.8-4.567,35.256,35.256,0,0,1-.693-3.977,33.846,33.846,0,0,1-.493-6.938,3.326,3.326,0,0,0-.148-.976c-.555-1.98-1.13-3.955-1.689-5.934-.343-1.215.171-1.755,1.438-1.565,2.012.3,4.021.691,6.045.828a26.689,26.689,0,0,0,4.227-.288c1.916-.179,3.826-.485,5.746-.555a20.688,20.688,0,0,1,3.547.4c3.462.482,6.922.982,10.384,1.462a1.821,1.821,0,0,0,.709-.084c1.6-.442,3.208-.856,4.787-1.363a10.654,10.654,0,0,1,3.521-.486c1.969.039,3.939.008,5.909.012.88,0,1.357.37,1.338,1.019-.018.631-.475.974-1.317.975-2.324,0-4.648,0-6.972.008a3.738,3.738,0,0,0-.976.133c-1.959.546-3.909,1.131-5.875,1.655a3.885,3.885,0,0,1-1.491.084c-4.339-.6-8.669-1.261-13.014-1.807a14.1,14.1,0,0,0-3.033.224c-2.071.2-4.137.528-6.21.582a38.1,38.1,0,0,1-4.739-.413C4068.373-1239.7,4067.832-1239.787,4067.13-1239.885Z" transform="translate(0 0)" fill="#12263f"/>
      <path id="Trazado_252683" data-name="Trazado 252683" d="M4119.274-1016.779c.369-1.98.72-3.866,1.071-5.752.032-.174.051-.352.1-.521a8.872,8.872,0,0,0-.163-5.462c-.321-.913-.494-1.878-.768-2.956-.2.228-.344.372-.467.531-.445.579-.86,1.182-1.332,1.738a.923.923,0,0,1-1.362.115.911.911,0,0,1-.186-1.307c.641-.9,1.318-1.777,1.98-2.663.013-.018.026-.042.044-.049.318-.112.8-.411.927-.3.656.569,1.925-.281,2.234,1.03.487,2.066,1.04,4.115,1.531,6.18a2.642,2.642,0,0,1-.043,1.047c-.574,3.2-1.172,6.395-1.737,9.6a2.746,2.746,0,0,0,.059,1.165c.528,1.941,1.1,3.871,1.648,5.806.324,1.139-.061,1.58-1.23,1.659-4.451.3-8.751-.736-13.093-1.408a25.208,25.208,0,0,0-3.206-.507,22.207,22.207,0,0,0-3.352.347c-3.837.5-7.673,1.03-11.513,1.515a5.534,5.534,0,0,1-1.443-.134,16.072,16.072,0,0,1-1.894-.331,9.917,9.917,0,0,0-5.984.284,5.292,5.292,0,0,1-.641.169.984.984,0,0,1-1.314-.986c-.021-2.655-.169-5.324.051-7.961a26.488,26.488,0,0,1,1.295-5.407,8.64,8.64,0,0,0,.075-5.061c-.538-1.89-.907-3.829-1.3-5.757a3.172,3.172,0,0,1,.06-1.421c.49-1.768,1.039-3.52,1.57-5.277.241-.8.717-1.13,1.331-.94s.815.722.575,1.53c-.492,1.653-1,3.3-1.48,4.957a1.939,1.939,0,0,0-.066.9c.427,2.011.885,4.016,1.335,6.022a1.153,1.153,0,0,0,.321.532c.488-.561.939-1.161,1.475-1.672a.944.944,0,0,1,1.641.471,1.518,1.518,0,0,1-.39,1.045c-.691.775-1.477,1.465-2.182,2.228a2.559,2.559,0,0,0-.563,1.009c-.354,1.255-.569,2.554-.991,3.784-1.085,3.165-.708,6.417-.776,9.758.814-.2,1.53-.4,2.257-.536a4.056,4.056,0,0,1,1.3-.068c1.51.218,3.019.456,4.516.75a12.63,12.63,0,0,0,4.073-.3c3.82-.472,7.626-1.056,11.45-1.483a10.982,10.982,0,0,1,2.88.357c3.056.5,6.1,1.077,9.167,1.5a28.737,28.737,0,0,0,3.853.028c-.378-1.311-.808-2.584-1.1-3.888a3.873,3.873,0,0,0-1.623-2.448c-1.115-.795-2.154-1.7-3.225-2.555-.719-.576-.871-1.1-.472-1.616.41-.533.994-.513,1.734.074.919.729,1.832,1.466,2.748,2.2C4118.85-1017.076,4119.028-1016.957,4119.274-1016.779Z" transform="translate(-12.385 -175.406)" fill="#12263f"/>
      <path id="Trazado_252684" data-name="Trazado 252684" d="M4184.42-1075.226c0-2.566-.03-5.132.006-7.7a9.176,9.176,0,0,1,9.2-9.062,8.994,8.994,0,0,1,8.127,5.744,8.922,8.922,0,0,1-2.19,9.7c-.323.3-.67.577-1.02.849a10.225,10.225,0,0,0-4.155,8.356,5.29,5.29,0,0,1-.888,3.071,4.876,4.876,0,0,1-5.3,1.977,5.155,5.155,0,0,1-3.766-4.774c-.042-1.193-.015-2.388-.017-3.583q0-2.289,0-4.578Zm2,.012h0c0,2.632-.015,5.264,0,7.9a3.129,3.129,0,0,0,3.039,3.214,3,3,0,0,0,2.924-3.2,12.467,12.467,0,0,1,5.085-10.109,7.741,7.741,0,0,0,2.022-2.323,6.52,6.52,0,0,0-.5-7.371,6.5,6.5,0,0,0-6.8-2.729,7.093,7.093,0,0,0-5.756,6.928C4186.388-1080.346,4186.421-1077.78,4186.421-1075.214Z" transform="translate(-103.733 -130.191)" fill="#12263f"/>
      <path id="Trazado_252685" data-name="Trazado 252685" d="M4343.93-1172.735c.459-.484.821-.9,1.217-1.275a.991.991,0,0,1,1.474-.065,1.009,1.009,0,0,1-.073,1.478,4.341,4.341,0,0,1-.615.6,2.414,2.414,0,0,0-1.013,2.409,1.132,1.132,0,0,0,.568.931,1.557,1.557,0,0,0,2.024.049,1.882,1.882,0,0,0,.982-1.294,9.746,9.746,0,0,1,.392-1.473.982.982,0,0,1,1.169-.733.986.986,0,0,1,.748,1.215,6.946,6.946,0,0,1-.3,1.155c-.193.513-.009.726.491.812a7.343,7.343,0,0,1,1.089.288.987.987,0,0,1,.72,1.176.986.986,0,0,1-1.221.736,4.5,4.5,0,0,1-.96-.254,2.433,2.433,0,0,0-2.593.324,1.172,1.172,0,0,0-.523.955,1.553,1.553,0,0,0,1.036,1.8,1.807,1.807,0,0,0,1.5.191,11.073,11.073,0,0,1,1.6-.426.952.952,0,0,1,1.158.737.93.93,0,0,1-.645,1.157c-.557.2-1.138.329-1.787.513.14.552.273,1.058.4,1.567.178.739-.091,1.27-.7,1.41-.579.132-1.02-.193-1.226-.918a7.979,7.979,0,0,1-.281-1.091,1.912,1.912,0,0,0-1.22-1.573,1.99,1.99,0,0,0-2.281.426,3.428,3.428,0,0,0,.179,2.336c.416.428.854.836,1.267,1.267a1.029,1.029,0,0,1,.129,1.527,1.006,1.006,0,0,1-1.521-.105c-.374-.369-.708-.779-1.139-1.258-.477.51-.835.928-1.229,1.308a.993.993,0,0,1-1.475.059,1.011,1.011,0,0,1,.081-1.479,3.669,3.669,0,0,1,.568-.557,2.388,2.388,0,0,0,1.021-2.587,1.107,1.107,0,0,0-.381-.676,1.891,1.891,0,0,0-2.787.227,1.11,1.11,0,0,0-.263.511c-.167.573-.3,1.156-.464,1.73-.2.694-.7,1.009-1.272.839a1.007,1.007,0,0,1-.657-1.326c.122-.532.266-1.058.414-1.645-.583-.159-1.092-.292-1.6-.438a1.009,1.009,0,0,1-.842-1.215,1.021,1.021,0,0,1,1.353-.7,8.989,8.989,0,0,1,1.216.327,1.807,1.807,0,0,0,1.8-.2,1.78,1.78,0,0,0,.894-2.182c-.021-.081-.051-.2-.111-.226-.773-.394-1.412-1.194-2.461-.739a7.748,7.748,0,0,1-1.405.385,1,1,0,0,1-1.288-.718.989.989,0,0,1,.777-1.2c.524-.158,1.058-.291,1.661-.455-.143-.563-.275-1.069-.4-1.578-.176-.737.094-1.272.7-1.41.577-.131,1.023.2,1.229.915a10.917,10.917,0,0,1,.353,1.347,1.511,1.511,0,0,0,.915,1.184c1.08.568,1.473.559,2.4-.212a.651.651,0,0,0,.177-.187,3.175,3.175,0,0,0-.427-2.414c-.344-.345-.694-.683-1.034-1.031-.549-.562-.611-1.13-.181-1.573s1.024-.4,1.57.145C4343.183-1173.568,4343.514-1173.185,4343.93-1172.735Zm1.66,7.32c-.071-.357-.028-.8-.22-.961a2.616,2.616,0,0,0-1.424-.762,2.594,2.594,0,0,0-1.428.751c-.185.156-.159.6-.16.921,0,.34-.044.815.15.992a2.5,2.5,0,0,0,1.42.769,2.527,2.527,0,0,0,1.424-.754C4345.559-1164.64,4345.521-1165.1,4345.59-1165.414Z" transform="translate(-234.372 -58.745)" fill="#12263f"/>
      <path id="Trazado_252686" data-name="Trazado 252686" d="M4199.481-1062.078c0-2.566-.034-5.132.009-7.7a7.094,7.094,0,0,1,5.756-6.928,6.5,6.5,0,0,1,6.8,2.729,6.519,6.519,0,0,1,.5,7.371,7.734,7.734,0,0,1-2.022,2.323,12.466,12.466,0,0,0-5.085,10.109,3,3,0,0,1-2.924,3.2,3.128,3.128,0,0,1-3.038-3.214c-.021-2.632-.006-5.264-.006-7.9Zm9.943-7.761a2.987,2.987,0,0,0-2.883-3.032,2.988,2.988,0,0,0-3.079,2.97,2.984,2.984,0,0,0,2.914,3A2.991,2.991,0,0,0,4209.425-1069.839Z" transform="translate(-116.794 -143.327)" fill="#fff"/>
      <path id="Trazado_252687" data-name="Trazado 252687" d="M4393.277-1118.169c-.068.316-.031.775-.237.956a2.527,2.527,0,0,1-1.425.754,2.5,2.5,0,0,1-1.419-.769c-.194-.177-.151-.652-.15-.992,0-.316-.024-.764.16-.921a2.588,2.588,0,0,1,1.427-.752,2.614,2.614,0,0,1,1.424.763C4393.249-1118.966,4393.205-1118.526,4393.277-1118.169Z" transform="translate(-282.059 -105.991)" fill="#fff"/>
      <path id="Trazado_252688" data-name="Trazado 252688" d="M4235.5-1043.943a2.991,2.991,0,0,1-3.047,2.937,2.984,2.984,0,0,1-2.915-3,2.988,2.988,0,0,1,3.08-2.97A2.987,2.987,0,0,1,4235.5-1043.943Zm-3.007.939a.986.986,0,0,0,1.006-.994.988.988,0,0,0-.951-.983.993.993,0,0,0-1.008.995A.992.992,0,0,0,4232.5-1043Z" transform="translate(-142.874 -169.223)"/>
      <path id="Trazado_252689" data-name="Trazado 252689" d="M4245.573-1029.972a.992.992,0,0,1-.952-.982.993.993,0,0,1,1.007-.995.988.988,0,0,1,.951.983A.985.985,0,0,1,4245.573-1029.972Z" transform="translate(-155.95 -182.255)" fill="#fff"/>
    </g>
    <g id="Grupo_126485" data-name="Grupo 126485" transform="translate(-4041.91 5365.218)">
      <path id="Trazado_252690" data-name="Trazado 252690" d="M5233.134-1281.371c-1.369-2.372-2.722-4.716-4.074-7.06q-2.533-4.393-5.065-8.786a1.767,1.767,0,0,1,.752-2.819c.9-.528,1.8-1.051,2.709-1.559a1.67,1.67,0,0,1,2.524.689q3.351,5.765,6.679,11.544c.124.215.256.425.459.76.13-.329.219-.526.288-.729a14.248,14.248,0,0,1,23.856-5.069,14,14,0,0,1,3.763,10.9c-.042.578.108.8.658.965a14.126,14.126,0,0,1,9.69,16.026c-.119.624-.03.909.637,1.132a3.262,3.262,0,0,1,2.1,3.656,3.214,3.214,0,0,1-3.036,2.759c-.8.024-1.07.287-1.226,1.064-1.288,6.422-2.632,12.833-3.949,19.249a3.837,3.837,0,0,1-4.168,3.434q-14.867,0-29.735,0a3.828,3.828,0,0,1-4.167-3.433q-2.013-9.794-4.03-19.587c-.1-.478-.252-.685-.794-.7a3.309,3.309,0,0,1-3.388-2.783,3.3,3.3,0,0,1,2.422-3.776c.523-.172.407-.478.341-.8a13.573,13.573,0,0,1,.017-5.519,10.455,10.455,0,0,1,1.98-4.679c.862-1.052,1.639-2.18,2.564-3.17A17.267,17.267,0,0,1,5233.134-1281.371Zm40.055,15.7a12.434,12.434,0,0,0,.344-5.066,12.149,12.149,0,0,0-10.589-10.415,12.126,12.126,0,0,0-12.615,6.851,12.356,12.356,0,0,0-1.2,5.654c.007.75-.385,1.186-.981,1.18-.57-.006-.92-.412-.968-1.129-.009-.138-.008-.278-.007-.416a13.744,13.744,0,0,1,2.165-7.5.628.628,0,0,0-.107-.937,12.027,12.027,0,0,0-8.735-3.8c-4.156-.066-7.407,1.821-10.11,4.831a8.251,8.251,0,0,0-1.378,2.672,12.806,12.806,0,0,0-.676,7.29c.129.657.38.832,1.04.83q12.709-.036,25.42-.015c1.191,0,1.482.29,1.483,1.475q.006,3.439,0,6.877a5.559,5.559,0,0,0,.024.693.853.853,0,0,0,.864.83.851.851,0,0,0,.957-.8c.053-.364-.005-.743.044-1.108a5.8,5.8,0,0,1,.315-1.546,2.814,2.814,0,0,1,3.171-1.562,2.831,2.831,0,0,1,2.275,2.636c.054,1.526.021,3.056.032,4.584a7.067,7.067,0,0,0,.06,1.106c.078.468.418.81.866.708a1.774,1.774,0,0,0,.9-.7c.138-.187.07-.536.07-.812q0-7.016,0-14.031c0-1,.316-1.458.988-1.443s.963.476.965,1.476c0,.522,0,1.044,0,1.589Zm-41.949,14.107a2.224,2.224,0,0,0,0,.324c.861,4.194,1.71,8.391,2.6,12.58a1.791,1.791,0,0,0,1.98,1.49q15.04.009,30.08,0a1.865,1.865,0,0,0,2.04-1.679c.273-1.291.532-2.585.791-3.879a3.853,3.853,0,0,0,.027-.519h-32.274c-.231,0-.463,0-.694-.008a.919.919,0,0,1-.993-.943c-.022-.612.374-.918.952-.988a6.355,6.355,0,0,1,.763-.015q15.977,0,31.955.012c.595,0,.838-.148.946-.767.283-1.617.66-3.218.994-4.826.048-.234.069-.475.113-.782-.816,0-1.532.023-2.245-.008a.979.979,0,0,0-1.007.53,2.83,2.83,0,0,1-3.021,1.217,2.861,2.861,0,0,1-2.179-2.351,8.6,8.6,0,0,1-.062-1.177c-.008-1.505,0-3.011-.01-4.516a.914.914,0,0,0-.92-1.011c-.521-.036-.9.373-.94.99-.023.346,0,.695-.011,1.042a2.932,2.932,0,0,1-2.921,3.059,2.932,2.932,0,0,1-2.883-3.089c-.012-.643,0-1.287,0-1.975H5229.7c.043.289.066.515.112.737.255,1.247.557,2.485.759,3.74.111.689.4.871,1.085.869q13.235-.036,26.468-.015a6.7,6.7,0,0,1,.969.044.877.877,0,0,1,.825.949.887.887,0,0,1-.847.932,6.424,6.424,0,0,1-.832.029l-26.051,0Zm19.622-27.014a14.3,14.3,0,0,1,12.1-4.571,12.024,12.024,0,0,0-5.282-11.744,12.187,12.187,0,0,0-14.174.382,11.946,11.946,0,0,0-4.729,11.35A14.339,14.339,0,0,1,5250.861-1278.583Zm-10.414,17.7q5.938,0,11.875,0c.637,0,1.522.168,1.844-.169s.091-1.223.155-1.861c.06-.606-.143-.788-.766-.786q-13.055.03-26.111.017a3.691,3.691,0,0,0-.893.09,1.328,1.328,0,0,0-1.011,1.394,1.332,1.332,0,0,0,1.092,1.263,5.383,5.383,0,0,0,.968.056Q5234.023-1260.875,5240.447-1260.878Zm27.4,0h2.363c1.5,0,3,.023,4.5-.014a1.387,1.387,0,0,0,1.375-1.935,1.561,1.561,0,0,0-1.6-.859c-2.055,0-4.109,0-6.164,0a3.29,3.29,0,0,0-.47.068Zm.012,2.009v5.344c.367,0,.687.011,1.006,0,.687-.028,1.558.172,2-.174.412-.319.38-1.225.519-1.878.23-1.076.441-2.155.671-3.29Zm-34.277-31.888c-.469.807-.825,1.535-1.289,2.185a1.391,1.391,0,0,0,0,1.849c.5.695.877,1.474,1.371,2.326.6-1.043,1.126-1.935,1.631-2.838a.546.546,0,0,0,.05-.441C5234.787-1288.679,5234.208-1289.667,5233.579-1290.757Zm-3.021-5.232c-.6,1.042-1.126,1.934-1.625,2.841a.615.615,0,0,0-.019.506c.542.983,1.111,1.95,1.727,3.016.595-1.021,1.133-1.931,1.65-2.852a.543.543,0,0,0,.031-.446C5231.775-1293.9,5231.205-1294.872,5230.557-1295.989Zm-4.921-2.3,2,3.453c.6-1.056,1.139-1.971,1.649-2.9a.55.55,0,0,0,0-.449c-.289-.547-.61-1.077-.946-1.658Zm10.986,12.971-.137-.057-1.707,2.987.177.155a10.368,10.368,0,0,0,1.354-.437.8.8,0,0,0,.393-.58C5236.722-1283.936,5236.656-1284.627,5236.623-1285.316Z" fill="#12263f"/>
      <path id="Trazado_252691" data-name="Trazado 252691" d="M5301.14-1137.776h-5.38c0-.546,0-1.068,0-1.589,0-1-.3-1.462-.965-1.476s-.987.441-.988,1.443q0,7.016,0,14.031c0,.276.068.625-.07.813a1.774,1.774,0,0,1-.9.7c-.448.1-.789-.239-.866-.708a7.068,7.068,0,0,1-.06-1.106c-.012-1.528.022-3.057-.032-4.583a2.832,2.832,0,0,0-2.275-2.636,2.814,2.814,0,0,0-3.172,1.562,5.8,5.8,0,0,0-.315,1.546c-.05.365.008.744-.044,1.108a.851.851,0,0,1-.957.8.853.853,0,0,1-.864-.83,5.467,5.467,0,0,1-.023-.693q0-3.438,0-6.877c0-1.185-.292-1.475-1.483-1.475q-12.71,0-25.42.015c-.659,0-.911-.173-1.04-.83a12.806,12.806,0,0,1,.676-7.29,8.251,8.251,0,0,1,1.378-2.672c2.7-3.011,5.954-4.9,10.11-4.831a12.027,12.027,0,0,1,8.735,3.8.628.628,0,0,1,.107.937,13.744,13.744,0,0,0-2.165,7.5c0,.139,0,.278.007.416.048.717.4,1.123.968,1.129.6.006.988-.431.981-1.18a12.362,12.362,0,0,1,1.2-5.654,12.126,12.126,0,0,1,12.615-6.851,12.15,12.15,0,0,1,10.59,10.415A12.434,12.434,0,0,1,5301.14-1137.776Z" transform="translate(-27.952 -127.899)" fill="#fff"/>
      <path id="Trazado_252692" data-name="Trazado 252692" d="M5269.226-984.946h.95l26.05,0a6.424,6.424,0,0,0,.832-.029.887.887,0,0,0,.847-.932.877.877,0,0,0-.825-.949,6.675,6.675,0,0,0-.969-.044q-13.234,0-26.468.015c-.683,0-.974-.18-1.085-.869-.2-1.255-.5-2.494-.759-3.74-.046-.222-.069-.448-.112-.737H5292.3c0,.688-.01,1.332,0,1.975a2.932,2.932,0,0,0,2.883,3.089,2.932,2.932,0,0,0,2.921-3.059c.01-.347-.012-.7.011-1.042.042-.617.419-1.026.94-.99a.914.914,0,0,1,.92,1.011c.013,1.505,0,3.011.01,4.516a8.6,8.6,0,0,0,.062,1.177,2.862,2.862,0,0,0,2.179,2.351,2.83,2.83,0,0,0,3.021-1.217.98.98,0,0,1,1.007-.53c.713.031,1.429.008,2.245.008-.043.308-.064.548-.113.782-.334,1.608-.711,3.209-.994,4.826-.108.619-.351.768-.946.767q-15.977-.026-31.955-.012a6.38,6.38,0,0,0-.763.016c-.578.07-.974.376-.952.988a.919.919,0,0,0,.993.943c.231.009.463.008.694.008h32.274a3.946,3.946,0,0,1-.027.519c-.259,1.294-.518,2.588-.792,3.879a1.864,1.864,0,0,1-2.04,1.679q-15.04.009-30.08,0a1.791,1.791,0,0,1-1.98-1.49c-.885-4.189-1.735-8.386-2.6-12.58A2.3,2.3,0,0,1,5269.226-984.946Z" transform="translate(-37.987 -266.622)" fill="#fff"/>
      <path id="Trazado_252693" data-name="Trazado 252693" d="M5344.093-1248.064a14.337,14.337,0,0,0-12.08-4.583,11.945,11.945,0,0,1,4.729-11.35,12.187,12.187,0,0,1,14.174-.382,12.023,12.023,0,0,1,5.282,11.744A14.3,14.3,0,0,0,5344.093-1248.064Zm1.168-12.432a4.526,4.526,0,0,0-.692-1.243.82.82,0,0,0-1.22.2,2.218,2.218,0,0,0,.018,2.1.836.836,0,0,0,1.231.16A4.526,4.526,0,0,0,5345.262-1260.5Zm.535,4.8c.1.346.108.811.344,1.051a1.23,1.23,0,0,0,1.032.276c.728-.215.656-.9.655-1.507,0-.548-.149-1.081-.746-1.161a1.416,1.416,0,0,0-1,.389C5345.882-1256.463,5345.893-1256.06,5345.8-1255.693Zm-3.477.171c0-1.221-.549-1.8-1.293-1.513a1.094,1.094,0,0,0-.661,1.18c0,.58-.05,1.189.6,1.5a.939.939,0,0,0,1.306-.641A2.631,2.631,0,0,0,5342.32-1255.522Zm-2.75-4.961c-.018-.236.042-.5-.064-.636-.238-.3-.536-.685-.854-.732a1.058,1.058,0,0,0-.891.533,3.334,3.334,0,0,0,.012,1.67,1.084,1.084,0,0,0,.914.5c.3-.03.6-.4.811-.69C5339.613-1259.994,5339.553-1260.282,5339.57-1260.483Zm9.066-.159c0,1.145.4,1.64,1.1,1.535.569-.085.847-.5.861-1.3.017-.9-.234-1.383-.812-1.474a.893.893,0,0,0-1.1.705A2.243,2.243,0,0,0,5348.636-1260.642Z" transform="translate(-93.233 -30.519)" fill="#fff"/>
      <path id="Trazado_252694" data-name="Trazado 252694" d="M5252.643-1024.088q-6.423,0-12.847,0a5.374,5.374,0,0,1-.968-.056,1.332,1.332,0,0,1-1.092-1.263,1.328,1.328,0,0,1,1.011-1.394,3.7,3.7,0,0,1,.893-.09q13.056-.007,26.111-.017c.623,0,.826.181.766.786-.063.639.178,1.512-.155,1.861s-1.207.168-1.845.169Q5258.581-1024.079,5252.643-1024.088Z" transform="translate(-12.196 -236.79)" fill="#fff"/>
      <path id="Trazado_252695" data-name="Trazado 252695" d="M5542.207-1024v-2.736a3.273,3.273,0,0,1,.47-.068c2.055,0,4.109,0,6.164,0a1.561,1.561,0,0,1,1.6.859,1.387,1.387,0,0,1-1.375,1.935c-1.5.038-3,.013-4.5.014Z" transform="translate(-274.363 -236.874)" fill="#fff"/>
      <path id="Trazado_252696" data-name="Trazado 252696" d="M5542.295-992.146h4.2c-.23,1.135-.441,2.215-.672,3.29-.139.653-.107,1.559-.519,1.878-.446.345-1.318.146-2,.174-.319.013-.639,0-1.006,0Z" transform="translate(-274.439 -266.724)" fill="#fff"/>
      <path id="Trazado_252697" data-name="Trazado 252697" d="M5285.435-1221.643c.628,1.09,1.208,2.079,1.763,3.081a.548.548,0,0,1-.05.441c-.5.9-1.028,1.795-1.631,2.838-.494-.851-.873-1.631-1.371-2.326a1.391,1.391,0,0,1,0-1.849C5284.61-1220.108,5284.966-1220.836,5285.435-1221.643Z" transform="translate(-51.856 -69.114)" fill="#fff"/>
      <path id="Trazado_252698" data-name="Trazado 252698" d="M5263.386-1259.3c.648,1.117,1.218,2.085,1.764,3.066a.543.543,0,0,1-.031.446c-.518.921-1.056,1.83-1.65,2.852-.615-1.066-1.185-2.033-1.727-3.016a.617.617,0,0,1,.019-.506C5262.26-1257.361,5262.786-1258.253,5263.386-1259.3Z" transform="translate(-32.829 -36.694)" fill="#fff"/>
      <path id="Trazado_252699" data-name="Trazado 252699" d="M5238.438-1285.464l2.7-1.553c.336.581.657,1.111.946,1.658a.551.551,0,0,1,0,.45c-.51.928-1.044,1.844-1.649,2.9Z" transform="translate(-12.802 -12.824)" fill="#fff"/>
      <path id="Trazado_252700" data-name="Trazado 252700" d="M5306.084-1182.833c.034.689.1,1.38.081,2.068a.8.8,0,0,1-.393.58,10.35,10.35,0,0,1-1.354.437l-.176-.155,1.707-2.987Z" transform="translate(-69.462 -102.483)" fill="#fff"/>
      <path id="Trazado_252701" data-name="Trazado 252701" d="M5414.949-1232.407a4.526,4.526,0,0,1-.663,1.226.836.836,0,0,1-1.231-.16,2.22,2.22,0,0,1-.018-2.1.82.82,0,0,1,1.22-.2A4.542,4.542,0,0,1,5414.949-1232.407Z" transform="translate(-162.92 -58.607)" fill="#12263f"/>
      <path id="Trazado_252702" data-name="Trazado 252702" d="M5432.237-1197.28c.1-.366.086-.77.281-.953a1.416,1.416,0,0,1,1-.388c.6.08.744.613.746,1.161,0,.6.073,1.292-.655,1.507a1.23,1.23,0,0,1-1.032-.276C5432.345-1196.469,5432.338-1196.934,5432.237-1197.28Z" transform="translate(-179.673 -88.932)" fill="#12263f"/>
      <path id="Trazado_252703" data-name="Trazado 252703" d="M5395.1-1197.521a2.723,2.723,0,0,1-.049.525.939.939,0,0,1-1.307.641c-.648-.31-.6-.918-.6-1.5a1.094,1.094,0,0,1,.661-1.18C5394.555-1199.32,5395.1-1198.742,5395.1-1197.521Z" transform="translate(-146.016 -88.52)" fill="#12263f"/>
      <path id="Trazado_252704" data-name="Trazado 252704" d="M5375.59-1231.9c-.017.2.043.49-.073.646-.214.287-.515.66-.811.69a1.083,1.083,0,0,1-.914-.5,3.333,3.333,0,0,1-.012-1.669,1.057,1.057,0,0,1,.891-.533c.318.047.616.436.854.732C5375.632-1232.407,5375.572-1232.139,5375.59-1231.9Z" transform="translate(-129.253 -59.099)" fill="#12263f"/>
      <path id="Trazado_252705" data-name="Trazado 252705" d="M5452.676-1232.314a2.243,2.243,0,0,1,.05-.531.893.893,0,0,1,1.1-.705c.578.091.829.571.813,1.474-.015.794-.292,1.213-.861,1.3C5453.071-1230.675,5452.678-1231.17,5452.676-1232.314Z" transform="translate(-197.272 -58.846)" fill="#12263f"/>
    </g>
  </g>
</svg>
