<svg xmlns="http://www.w3.org/2000/svg" width="295" height="472.867" viewBox="0 0 295 472.867">
  <g id="Grupo_128322" data-name="Grupo 128322" transform="translate(-629 -4475)">
    <path id="Trazado_263550" data-name="Trazado 263550" d="M522.135,1900.217v378.958c0,8.117,7.857,14.7,17.553,14.7h84.993l26.69.047c.661.405,1.742,1.072,2.4,1.477l14.294,25.459a2.51,2.51,0,0,0,2.4,0l14.3-25.459c.658-.405,1.738-1.072,2.4-1.477l26.691-.047H798.85c9.7,0,17.553-6.583,17.553-14.7V1900.217Z" transform="translate(107.597 2626.703)" fill="#28acd3" opacity="0.25"/>
    <path id="Rectángulo_44002" data-name="Rectángulo 44002" d="M0,0H267a0,0,0,0,1,0,0V357a22,22,0,0,1-22,22H22A22,22,0,0,1,0,357V0A0,0,0,0,1,0,0Z" transform="translate(643 4527.054)" fill="#fff"/>
    <text id="El_vehículo_isotérmico_es_la_construcción_que_tiene_la_unidad_de_transporte_en_paredes_techos_pisos_y_puertas_que_aísla_y_limita_posibles_intercambios_de_calor_entre_el_exterior_y_el_interior_de_la_unidad_de_transporte." data-name="El vehículo isotérmico es la construcción que tiene la unidad de transporte, en paredes, techos, pisos y puertas que aísla y limita posibles intercambios de calor entre el exterior y el interior de la unidad de transporte." transform="translate(662.366 4678.92)" fill="#12263f" font-size="16" font-family="SegoeUI, Segoe UI"><tspan x="0" y="17">El vehículo isotérmico es la </tspan><tspan x="0" y="41">construcción que tiene la </tspan><tspan x="0" y="65">unidad de transporte, en </tspan><tspan x="0" y="89">paredes, techos, pisos y puertas </tspan><tspan x="0" y="113">que aísla y limita posibles </tspan><tspan x="0" y="137">intercambios de calor entre el </tspan><tspan x="0" y="161">exterior y el interior de la </tspan><tspan x="0" y="185">unidad de transporte.</tspan></text>
    <path id="Rectángulo_43950" data-name="Rectángulo 43950" d="M22,0H273a22,22,0,0,1,22,22V51.92a0,0,0,0,1,0,0H0a0,0,0,0,1,0,0V22A22,22,0,0,1,22,0Z" transform="translate(629 4475)" fill="#28acd3"/>
    <text id="Vehículo_isotérmico_" data-name="Vehículo isotérmico " transform="translate(677 4488)" fill="#12263f" font-size="18" font-family="SegoeUI-Bold, Segoe UI" font-weight="700"><tspan x="-83.158" y="19">Vehículo isotérmico </tspan></text>
    <g id="Grupo_127945" data-name="Grupo 127945" transform="translate(551.092 3847.362)">
      <rect id="Rectángulo_43956" data-name="Rectángulo 43956" width="30.422" height="9.554" rx="4.777" transform="translate(297.302 790.954)" fill="#1e1e1e"/>
      <path id="Trazado_263417" data-name="Trazado 263417" d="M888.429,1066.054a2,2,0,0,0,1.9,1.385h26.4a2,2,0,0,0,1.9-1.385Z" transform="translate(-591.018 -266.931)" fill="#0c0c0c"/>
      <path id="Trazado_263418" data-name="Trazado 263418" d="M918.632,1033.517a2,2,0,0,0-1.9-1.386h-26.4a2,2,0,0,0-1.9,1.386Z" transform="translate(-591.018 -241.178)" fill="#0c0c0c"/>
      <rect id="Rectángulo_43957" data-name="Rectángulo 43957" width="63.263" height="2.634" transform="matrix(0.985, 0.175, -0.175, 0.985, 219.486, 792.304)" fill="#0c0c0c"/>
      <path id="Trazado_263419" data-name="Trazado 263419" d="M284.552,906.4h2.011V929.06H430.88v4.526H382.1l-22.963,4.526H339.613v6.034h-56.7l-3.562,5.028h-4.987l-29.71-6.453-4.609-1.257,5.624-22.276,31.335-6.721Z" transform="translate(-98.798 -145.732)" fill="#1e1e1e"/>
      <g id="Grupo_127924" data-name="Grupo 127924" transform="translate(141.378 780.814)">
        <circle id="Elipse_6194" data-name="Elipse 6194" cx="16.72" cy="16.72" r="16.72" transform="matrix(0.23, -0.973, 0.973, 0.23, 0, 32.545)" fill="#0c0c0c"/>
        <circle id="Elipse_6195" data-name="Elipse 6195" cx="14.624" cy="14.624" r="14.624" transform="translate(5.489 5.489)" fill="#1e1e1e"/>
        <circle id="Elipse_6196" data-name="Elipse 6196" cx="11.149" cy="11.149" r="11.149" transform="matrix(0.23, -0.973, 0.973, 0.23, 6.701, 28.403)" fill="#afafaf"/>
        <g id="Grupo_127921" data-name="Grupo 127921" transform="translate(26.968 12.892)">
          <path id="Trazado_263420" data-name="Trazado 263420" d="M354.225,1046.354a.753.753,0,0,1-.645-.362,9.3,9.3,0,0,0-.858-1.186.754.754,0,0,1,1.149-.978,10.808,10.808,0,0,1,1,1.38.754.754,0,0,1-.644,1.146Z" transform="translate(-352.543 -1043.562)" fill="#dbdbdb"/>
        </g>
        <g id="Grupo_127922" data-name="Grupo 127922" transform="translate(9.374 9.374)">
          <path id="Trazado_263421" data-name="Trazado 263421" d="M284.924,1048.907a.751.751,0,0,1-.4-.116,10.742,10.742,0,0,1,9.891-18.992.754.754,0,0,1-.588,1.389,9.233,9.233,0,0,0-8.5,16.326.754.754,0,0,1-.4,1.393Z" transform="translate(-279.494 -1028.955)" fill="#dbdbdb"/>
        </g>
        <circle id="Elipse_6197" data-name="Elipse 6197" cx="8.8" cy="8.8" r="8.8" transform="translate(8.616 15.351) rotate(-22.5)" fill="#848484"/>
        <g id="Grupo_127923" data-name="Grupo 127923" transform="translate(11.857 12.216)">
          <path id="Trazado_263422" data-name="Trazado 263422" d="M295.515,1056.508a.753.753,0,0,1-.483-.95h0a.753.753,0,0,1,.951-.483h0a.749.749,0,0,1,.483.95h0a.753.753,0,0,1-.714.523h0A.776.776,0,0,1,295.515,1056.508Zm4.153-.487a.752.752,0,0,1,.483-.951h0a.751.751,0,0,1,.95.483h0a.757.757,0,0,1-.483.951h0a.779.779,0,0,1-.236.04h0A.753.753,0,0,1,299.669,1056.02Zm-8.282-2.5a.749.749,0,0,1,.166-1.051h0a.755.755,0,0,1,1.056.161h0a.76.76,0,0,1-.166,1.056h0a.776.776,0,0,1-.443.146h0A.765.765,0,0,1,291.387,1053.516Zm12.3.156a.756.756,0,0,1-.166-1.056h0a.75.75,0,0,1,1.051-.166h0a.761.761,0,0,1,.171,1.056h0a.767.767,0,0,1-.613.307h0A.756.756,0,0,1,303.687,1053.672Zm-13.884-5a.757.757,0,0,1,.754-.754h0a.753.753,0,0,1,.754.754h0a.752.752,0,0,1-.749.754h0A.761.761,0,0,1,289.8,1048.668Zm15,0v-.04h0a.749.749,0,0,1,.749-.754h0a.756.756,0,0,1,.759.749h0v.02h0v.015h0a.753.753,0,0,1-.754.754h0A.751.751,0,0,1,304.808,1048.663Zm-13.27-3.792a.761.761,0,0,1-.171-1.056h0a.756.756,0,0,1,1.056-.166h0a.749.749,0,0,1,.166,1.051h0a.742.742,0,0,1-.609.312h0A.759.759,0,0,1,291.538,1044.872Zm11.968-.2a.755.755,0,0,1,.161-1.056h0a.755.755,0,0,1,1.056.161h0a.756.756,0,0,1-.166,1.056h0a.752.752,0,0,1-.442.146h0A.75.75,0,0,1,303.506,1044.671Zm-8.5-2.911a.755.755,0,0,1,.483-.951h0a.757.757,0,0,1,.955.483h0a.762.762,0,0,1-.483.95h0a.8.8,0,0,1-.236.035h0A.759.759,0,0,1,295,1041.759Zm5.124.467a.749.749,0,0,1-.488-.945h0a.747.747,0,0,1,.946-.488h0a.751.751,0,0,1,.488.946h0a.747.747,0,0,1-.714.523h0A.713.713,0,0,1,300.126,1042.227Z" transform="translate(-289.803 -1040.756)" fill="#afafaf"/>
        </g>
        <circle id="Elipse_6198" data-name="Elipse 6198" cx="6.032" cy="6.032" r="6.032" transform="matrix(0.23, -0.973, 0.973, 0.23, 12.857, 24.598)" fill="#afafaf"/>
        <circle id="Elipse_6199" data-name="Elipse 6199" cx="3.189" cy="3.189" r="3.189" transform="translate(16.925 16.925)" fill="#d8d8d8"/>
      </g>
      <path id="Trazado_263423" data-name="Trazado 263423" d="M243.181,986.67l40.416,6.217V982.06l-.817-5.468-3.394-5.28-7.04-4.337-15.712-.691-11.945,7.291Z" transform="translate(-101.175 -191.19)" opacity="0.2"/>
      <g id="Grupo_127925" data-name="Grupo 127925" transform="translate(161.492 774.696)">
        <path id="Trazado_263424" data-name="Trazado 263424" d="M344.71,996.562h0a.511.511,0,0,1-.511-.511V980.533A14.394,14.394,0,0,0,329.8,966.139h-5.72v-1.508h5.72a15.92,15.92,0,0,1,15.9,15.9l-.487,15.534A.511.511,0,0,1,344.71,996.562Z" transform="translate(-324.085 -964.631)" fill="#0c0c0c"/>
      </g>
      <g id="Grupo_127926" data-name="Grupo 127926" transform="translate(142.006 791.499)">
        <path id="Trazado_263425" data-name="Trazado 263425" d="M244.3,1047.473h0a.388.388,0,0,1-.387-.366l-.733-12.708h1.509v12.686A.388.388,0,0,1,244.3,1047.473Z" transform="translate(-243.181 -1034.399)" fill="#0c0c0c"/>
      </g>
      <path id="Trazado_263426" data-name="Trazado 263426" d="M132.936,804.408V779.843a35.164,35.164,0,0,1,4.669-17.508l11.661-20.31a9.2,9.2,0,0,1,7.98-4.62H195.6a4.966,4.966,0,0,1,4.965,4.966v51.353H176.746a19.171,19.171,0,0,0-19.171,19.171v2.954h-20.8a6.577,6.577,0,0,1-6.05-4l-1.009-2.368a3.621,3.621,0,0,1,2.873-5.058c.113-.01.228-.015.343-.015Z" transform="translate(-14.815 -17.435)" fill="#eaeaea"/>
      <path id="Trazado_263427" data-name="Trazado 263427" d="M232.775,934.183v6.843c-.671-1.489-1.31-2.795-1.791-3.748l-19.141.8a35.669,35.669,0,0,0-15.554,4.328l-20.938,11.464a19.117,19.117,0,0,1-3.5,1.478v-3.182a16.147,16.147,0,0,0,2.055-.942L194.84,939.76a38.495,38.495,0,0,1,16.876-4.7Z" transform="translate(-47.021 -166.82)" fill="#b7b7b7"/>
      <g id="Grupo_127927" data-name="Grupo 127927" transform="translate(139.91 765.579)">
        <path id="Trazado_263428" data-name="Trazado 263428" d="M235.11,936.615a.632.632,0,0,1-.3-1.187l7.277-3.984a39.17,39.17,0,0,1,8.43-3.41.632.632,0,0,1,.335,1.219,37.905,37.905,0,0,0-8.157,3.3l-7.277,3.984A.63.63,0,0,1,235.11,936.615Zm19.688-8.231a.632.632,0,0,1-.1-1.257c.932-.149,1.882-.266,2.824-.347a.632.632,0,1,1,.108,1.26c-.911.078-1.831.191-2.733.335A.624.624,0,0,1,254.8,928.384Z" transform="translate(-234.477 -926.779)" fill="#fff"/>
      </g>
      <path id="Trazado_263429" data-name="Trazado 263429" d="M194.84,944.98,173.9,956.443a16.146,16.146,0,0,1-2.055.942v1.925a19.117,19.117,0,0,0,3.5-1.478l20.938-11.464a35.477,35.477,0,0,1,15.554-4.327L227,941.407a6.036,6.036,0,0,1,5.757,3.537l.02.045V939.4l-21.058.881A38.493,38.493,0,0,0,194.84,944.98Z" transform="translate(-47.021 -170.783)" fill="#fff"/>
      <g id="Grupo_127928" data-name="Grupo 127928" transform="translate(117.646 774.781)">
        <path id="Trazado_263430" data-name="Trazado 263430" d="M146.925,976.227l.023-.005a2.937,2.937,0,0,0,2.268-2.879v-6.459a1.9,1.9,0,0,0-2.181-1.876c-3.686.539-4.524,2.366-4.524,2.366h0a25.331,25.331,0,0,0-.1,9.216l.1.59Z" transform="translate(-142.036 -964.987)" fill="#fff"/>
      </g>
      <path id="Trazado_263431" data-name="Trazado 263431" d="M157.231,965.016a10.1,10.1,0,0,0-1.7.4,1.643,1.643,0,0,0-.041.355v4.358a1.655,1.655,0,0,0,3.311,0v-4.358a1.626,1.626,0,0,0-.032-.308A1.924,1.924,0,0,0,157.231,965.016Z" transform="translate(-34.605 -190.211)" fill="#ff8a33"/>
      <path id="Trazado_263432" data-name="Trazado 263432" d="M131.539,1038.749l.8,1.868a6.577,6.577,0,0,0,6.05,4h20.8v-2.954a19.315,19.315,0,0,1,.22-2.912Z" transform="translate(-16.421 -246.202)" fill="#d3d3d3"/>
      <path id="Trazado_263433" data-name="Trazado 263433" d="M219.419,799.653h.644l6.976-8.712V749.6a4.386,4.386,0,0,0-4.381-4.381H192.872a12.543,12.543,0,0,0-11.031,6.562l-4.7,8.654a52.434,52.434,0,0,0-6.337,24.948v26.687a14.777,14.777,0,0,0,.506,3.835l1.58,5.877h.521L171.8,815.77a14.272,14.272,0,0,1-.489-3.7V785.379a51.927,51.927,0,0,1,6.276-24.708l4.7-8.654a12.04,12.04,0,0,1,10.589-6.3h29.786a3.883,3.883,0,0,1,3.879,3.879v41.168Z" transform="translate(-46.229 -23.364)" fill="#727272"/>
      <path id="Trazado_263434" data-name="Trazado 263434" d="M360.13,908.43v-1.94a1.807,1.807,0,0,0-1.807-1.807h-2.365a8.079,8.079,0,0,0-4.977,1.715h0a4.875,4.875,0,0,0-1.589,2.2,1.229,1.229,0,0,0,1.159,1.638h7.772A1.807,1.807,0,0,0,360.13,908.43Z" transform="translate(-181.751 -144.425)" fill="#b7b7b7"/>
      <path id="Trazado_263435" data-name="Trazado 263435" d="M188.55,790.351v-2.859a31.671,31.671,0,0,1,3.47-14.414l4.626-9.051a12.456,12.456,0,0,1,11.091-6.787H232.8a3.6,3.6,0,0,1,3.6,3.6v10.675a10.164,10.164,0,0,1-7.077,9.683L192.215,793.03A2.812,2.812,0,0,1,188.55,790.351Z" transform="translate(-59.701 -32.493)" fill="#30a2a5"/>
      <path id="Trazado_263436" data-name="Trazado 263436" d="M227.124,783.922v-2.3A25.523,25.523,0,0,1,229.92,770l3.728-7.294a10.038,10.038,0,0,1,8.938-5.47h20.2a2.9,2.9,0,0,1,2.9,2.9v8.6a8.19,8.19,0,0,1-5.7,7.8l-29.907,9.532A2.266,2.266,0,0,1,227.124,783.922Z" transform="translate(-88.985 -32.493)" fill="#47cfe2"/>
      <path id="Trazado_263437" data-name="Trazado 263437" d="M204.871,797.739l1.135.54a2.24,2.24,0,0,0,2.933-.953l1.5-2.764a2.242,2.242,0,0,0-.921-3.053l-1.16-.613-.007,0-.457.894,1.154.61a1.236,1.236,0,0,1,.508,1.684l-1.5,2.764a1.235,1.235,0,0,1-1.617.525l-1.122-.534-.457.894S204.867,797.737,204.871,797.739Z" transform="translate(-72.083 -58.042)" fill="#155656"/>
      <path id="Trazado_263438" data-name="Trazado 263438" d="M279.986,838.135l-2.949-3.843a.686.686,0,0,0-.539-.266h-.034l-14.331-.014a.769.769,0,0,0-.614.31l-.012.017-9.81,13.294,3.619-1.153,7.229-10.94,13.595-.013,2.944,3.167A10.143,10.143,0,0,0,279.986,838.135Z" transform="translate(-107.64 -90.776)" fill="#155656"/>
      <path id="Trazado_263439" data-name="Trazado 263439" d="M199.068,868.479a3.457,3.457,0,0,0-1.184-2.6l-1.415-1.234a5.841,5.841,0,0,0-4.608-1.389l-3.009.4a31.649,31.649,0,0,0-.3,4.283v2.859a2.812,2.812,0,0,0,3.666,2.679l6.852-2.184Z" transform="translate(-59.701 -112.933)" fill="#155656"/>
      <path id="Trazado_263440" data-name="Trazado 263440" d="M150.86,773.537h1.272a3.307,3.307,0,0,0,2.957-1.828l13.174-26.352a4.092,4.092,0,0,0,.432-1.829V743.1a9.194,9.194,0,0,0-3.156,3.249l-11.661,20.31A35.165,35.165,0,0,0,150.86,773.537Z" transform="translate(-31.089 -21.759)" fill="#30a2a5"/>
      <g id="Grupo_127929" data-name="Grupo 127929" transform="translate(119.268 720.838)">
        <path id="Trazado_263441" data-name="Trazado 263441" d="M150.547,772.455h-1.272a.5.5,0,1,1,0-1.006h1.272a2.788,2.788,0,0,0,2.507-1.55l13.174-26.352a3.608,3.608,0,0,0,.379-1.6v-.428a.5.5,0,1,1,1.006,0v.428a4.617,4.617,0,0,1-.485,2.054l-13.174,26.352A3.788,3.788,0,0,1,150.547,772.455Z" transform="translate(-148.772 -741.012)" fill="#081216"/>
      </g>
      <rect id="Rectángulo_43958" data-name="Rectángulo 43958" width="5.123" height="3.615" rx="1.808" transform="translate(119.771 748.163)" fill="#081216"/>
      <g id="Grupo_127930" data-name="Grupo 127930" transform="translate(110.537 744.148)">
        <path id="Trazado_263442" data-name="Trazado 263442" d="M116.3,849.485h-1.081a2.7,2.7,0,0,1-2.7-2.7v-8.241a.754.754,0,1,1,1.508,0v8.241a1.189,1.189,0,0,0,1.188,1.188H116.3a1.191,1.191,0,0,0,1.031-.6l1.079-1.882a5.258,5.258,0,0,1,4.55-2.635h1.359a.754.754,0,0,1,0,1.509h-1.359a3.744,3.744,0,0,0-3.241,1.877l-1.079,1.882A2.7,2.7,0,0,1,116.3,849.485Z" transform="translate(-112.518 -837.794)" fill="#081216"/>
      </g>
      <path id="Trazado_263443" data-name="Trazado 263443" d="M118.478,811h0a2.829,2.829,0,0,0-2.829,2.828v9.785h.021a3.96,3.96,0,0,0,3.96-3.96v-7.5A1.152,1.152,0,0,0,118.478,811Z" transform="translate(-4.358 -73.306)" fill="#081216"/>
      <path id="Trazado_263444" data-name="Trazado 263444" d="M111.291,836.773h0v-6.286h0a1.383,1.383,0,0,0-1.383,1.383v3.52A1.383,1.383,0,0,0,111.291,836.773Z" transform="translate(0 -88.099)" fill="#081216"/>
      <g id="Grupo_127931" data-name="Grupo 127931" transform="translate(256.8 792.668)">
        <path id="Trazado_263445" data-name="Trazado 263445" d="M777.171,1039.251a97.788,97.788,0,0,1-57.178,0l-.184.6a98.414,98.414,0,0,0,57.546,0Z" transform="translate(-719.809 -1039.251)" fill="#0c0c0c"/>
        <path id="Trazado_263446" data-name="Trazado 263446" d="M782.378,1044.862a98.418,98.418,0,0,1-52.388,0l-.167.606a99.043,99.043,0,0,0,52.722,0Z" transform="translate(-727.411 -1043.511)" fill="#0c0c0c"/>
        <path id="Trazado_263447" data-name="Trazado 263447" d="M786.524,1049.656a99.048,99.048,0,0,1-48.573,0q-.076.3-.154.609a99.671,99.671,0,0,0,48.881,0Z" transform="translate(-733.465 -1047.15)" fill="#0c0c0c"/>
        <path id="Trazado_263448" data-name="Trazado 263448" d="M791.16,1054.469a99.67,99.67,0,0,1-44.307,0l-.14.613a100.307,100.307,0,0,0,44.586,0Z" transform="translate(-740.234 -1050.804)" fill="#0c0c0c"/>
      </g>
      <g id="Grupo_127932" data-name="Grupo 127932" transform="translate(187.765 783.328)">
        <path id="Trazado_263449" data-name="Trazado 263449" d="M433.174,1000.472v1.509H575.983v1.508H528.568l-.144.029-22.819,4.5H484.716v6.034H433.174v1.509h53.05v-6.034h19.527L528.715,1005h48.776v-4.526Z" transform="translate(-433.174 -1000.472)" fill="#3a3a3a"/>
      </g>
      <rect id="Rectángulo_43959" data-name="Rectángulo 43959" width="14.415" height="10.057" transform="translate(197.403 790.284)" fill="#efefef"/>
      <rect id="Rectángulo_43960" data-name="Rectángulo 43960" width="14.415" height="2.221" transform="translate(197.403 798.12)" fill="#d8d8d8"/>
      <rect id="Rectángulo_43961" data-name="Rectángulo 43961" width="14.415" height="1.215" transform="translate(197.403 790.284)" fill="#b2b2b2"/>
      <rect id="Rectángulo_43962" data-name="Rectángulo 43962" width="16.929" height="1.425" transform="translate(196.146 788.859)" fill="#3a3a3a"/>
      <g id="Grupo_127933" data-name="Grupo 127933" transform="translate(197.592 786.387)">
        <rect id="Rectángulo_43963" data-name="Rectángulo 43963" width="4.295" height="0.964" transform="translate(0 1.509)" fill="#d3d3d3"/>
        <rect id="Rectángulo_43964" data-name="Rectángulo 43964" width="2.493" height="1.509" transform="translate(0.901)" fill="#bcbcbc"/>
        <rect id="Rectángulo_43965" data-name="Rectángulo 43965" width="4.295" height="0.964" transform="translate(9.743 1.509)" fill="#d3d3d3"/>
        <rect id="Rectángulo_43966" data-name="Rectángulo 43966" width="2.493" height="1.509" transform="translate(10.644)" fill="#bcbcbc"/>
      </g>
      <g id="Grupo_127934" data-name="Grupo 127934" transform="translate(254.927 787.183)">
        <path id="Trazado_263450" data-name="Trazado 263450" d="M714.319,1025.4h0a2.284,2.284,0,0,1-2.284-2.284v-6.641H716.6v6.641A2.284,2.284,0,0,1,714.319,1025.4Z" transform="translate(-712.035 -1016.479)" fill="#3a3a3a"/>
        <path id="Trazado_263451" data-name="Trazado 263451" d="M949.835,1025.4h0a2.284,2.284,0,0,1-2.284-2.284v-6.641h4.567v6.641A2.284,2.284,0,0,1,949.835,1025.4Z" transform="translate(-890.828 -1016.479)" fill="#3a3a3a"/>
      </g>
      <g id="Grupo_127938" data-name="Grupo 127938" transform="translate(265.572 783.504)">
        <circle id="Elipse_6200" data-name="Elipse 6200" cx="14.143" cy="14.143" r="14.143" transform="translate(0 20.001) rotate(-45)" fill="#0c0c0c"/>
        <circle id="Elipse_6201" data-name="Elipse 6201" cx="12.37" cy="12.37" r="12.37" transform="translate(2.506 20.001) rotate(-45)" fill="#1e1e1e"/>
        <circle id="Elipse_6202" data-name="Elipse 6202" cx="9.431" cy="9.431" r="9.431" transform="translate(10.57 10.57)" fill="#afafaf"/>
        <g id="Grupo_127935" data-name="Grupo 127935" transform="translate(25.798 13.892)">
          <path id="Trazado_263452" data-name="Trazado 263452" d="M864.77,1061.246a.638.638,0,0,1-.546-.306,7.862,7.862,0,0,0-.725-1,.638.638,0,1,1,.972-.827,9.122,9.122,0,0,1,.844,1.167.638.638,0,0,1-.544.97Z" transform="translate(-863.347 -1058.885)" fill="#dbdbdb"/>
        </g>
        <g id="Grupo_127936" data-name="Grupo 127936" transform="translate(10.916 10.916)">
          <path id="Trazado_263453" data-name="Trazado 263453" d="M806.151,1063.405a.635.635,0,0,1-.339-.1,9.086,9.086,0,0,1,8.366-16.065.638.638,0,0,1-.5,1.175,7.81,7.81,0,0,0-7.19,13.81.638.638,0,0,1-.34,1.178Z" transform="translate(-801.558 -1046.528)" fill="#dbdbdb"/>
        </g>
        <circle id="Elipse_6203" data-name="Elipse 6203" cx="7.443" cy="7.443" r="7.443" transform="translate(9.474 20.001) rotate(-45)" fill="#848484"/>
        <g id="Grupo_127937" data-name="Grupo 127937" transform="translate(13.016 13.321)">
          <path id="Trazado_263454" data-name="Trazado 263454" d="M815.109,1069.834a.637.637,0,0,1-.408-.8h0a.637.637,0,0,1,.8-.408h0a.634.634,0,0,1,.408.8h0a.637.637,0,0,1-.6.442h0A.653.653,0,0,1,815.109,1069.834Zm3.513-.412a.636.636,0,0,1,.408-.8h0a.636.636,0,0,1,.8.408h0a.641.641,0,0,1-.409.8h0a.658.658,0,0,1-.2.034h0A.637.637,0,0,1,818.622,1069.422Zm-7.005-2.118a.633.633,0,0,1,.14-.889h0a.638.638,0,0,1,.893.136h0a.643.643,0,0,1-.14.893h0a.655.655,0,0,1-.375.124h0A.647.647,0,0,1,811.617,1067.3Zm10.4.132a.64.64,0,0,1-.14-.893h0a.634.634,0,0,1,.889-.14h0a.644.644,0,0,1,.145.893h0a.649.649,0,0,1-.519.259h0A.641.641,0,0,1,822.021,1067.436Zm-11.744-4.232a.64.64,0,0,1,.638-.638h0a.637.637,0,0,1,.638.638h0a.636.636,0,0,1-.634.638h0A.644.644,0,0,1,810.277,1063.2Zm12.692,0v-.034h0a.633.633,0,0,1,.634-.638h0a.64.64,0,0,1,.643.634h0v.017h0v.013h0a.638.638,0,0,1-.638.638h0A.635.635,0,0,1,822.969,1063.2Zm-11.225-3.207a.644.644,0,0,1-.144-.893h0a.639.639,0,0,1,.893-.141h0a.634.634,0,0,1,.14.889h0a.628.628,0,0,1-.515.264h0A.643.643,0,0,1,811.744,1059.992Zm10.123-.17a.638.638,0,0,1,.136-.893h0a.638.638,0,0,1,.893.136h0a.64.64,0,0,1-.14.893h0a.635.635,0,0,1-.374.123h0A.634.634,0,0,1,821.868,1059.822Zm-7.193-2.463a.639.639,0,0,1,.408-.8h0a.64.64,0,0,1,.808.408h0a.644.644,0,0,1-.408.8h0a.676.676,0,0,1-.2.03h0A.642.642,0,0,1,814.675,1057.359Zm4.334.4a.633.633,0,0,1-.413-.8h0a.632.632,0,0,1,.8-.413h0a.635.635,0,0,1,.413.8h0a.632.632,0,0,1-.6.443h0A.6.6,0,0,1,819.009,1057.755Z" transform="translate(-810.277 -1056.511)" fill="#afafaf"/>
        </g>
        <circle id="Elipse_6204" data-name="Elipse 6204" cx="5.102" cy="5.102" r="5.102" transform="translate(14.898 14.898)" fill="#afafaf"/>
        <circle id="Elipse_6205" data-name="Elipse 6205" cx="2.697" cy="2.697" r="2.697" transform="translate(17.303 17.303)" fill="#d8d8d8"/>
      </g>
      <rect id="Rectángulo_43967" data-name="Rectángulo 43967" width="1.592" height="7.878" transform="translate(330.49 787.854)" fill="#0c0c0c"/>
      <g id="Grupo_127939" data-name="Grupo 127939" transform="translate(189.55 714.438)">
        <rect id="Rectángulo_43968" data-name="Rectángulo 43968" width="147.707" height="65.873" rx="2.819" transform="translate(1.509 1.509)" fill="#fff"/>
        <path id="Trazado_263455" data-name="Trazado 263455" d="M589.123,714.438H442.773a2.188,2.188,0,0,0-2.187,2.188v64.515a2.187,2.187,0,0,0,2.187,2.187H589.123a2.187,2.187,0,0,0,2.187-2.187V716.626A2.188,2.188,0,0,0,589.123,714.438Zm-.83,65.873H443.6V717.455h144.69Z" transform="translate(-440.586 -714.438)" fill="#ddd"/>
      </g>
      <path id="Trazado_263456" data-name="Trazado 263456" d="M541.236,1005h28.345v1.966l4.568.247V1005H588.42v2.986l1.592.086v-7.6H449.668l89.851,4.864Z" transform="translate(-257.93 -217.144)" opacity="0.34"/>
      <path id="Trazado_263457" data-name="Trazado 263457" d="M760.128,1005.427l-3.688,9.767,41.82,4.474-5.95-16.934H760.548Z" transform="translate(-490.818 -218.861)" opacity="0.34"/>
      <path id="Trazado_263458" data-name="Trazado 263458" d="M785.69,1000.472H753.265l-5.907,17.465a.444.444,0,0,0,.362.582h0a.444.444,0,0,0,.478-.3l5.789-16.747h30.982l5.789,16.747a.444.444,0,0,0,.478.3h0a.444.444,0,0,0,.362-.582Z" transform="translate(-483.905 -217.144)" fill="#ddd"/>
      <g id="Grupo_127940" data-name="Grupo 127940" transform="translate(117.87 774.532)">
        <path id="Trazado_263459" data-name="Trazado 263459" d="M143.216,976.644a.252.252,0,0,1-.053-.5l4.43-.955a2.7,2.7,0,0,0,2.076-2.634V966.1a1.634,1.634,0,0,0-.567-1.237,1.682,1.682,0,0,0-1.345-.388c-3.466.512-4.306,2.2-4.314,2.221a.252.252,0,0,1-.457-.211c.037-.08.935-1.951,4.7-2.507a2.182,2.182,0,0,1,1.747.5,2.136,2.136,0,0,1,.741,1.618v6.46a3.2,3.2,0,0,1-2.465,3.124l-.025.005-4.414.952A.256.256,0,0,1,143.216,976.644Z" transform="translate(-142.965 -963.952)" fill="#081216"/>
      </g>
      <g id="Grupo_127941" data-name="Grupo 127941" transform="translate(128.849 724.746)" opacity="0.4">
        <path id="Trazado_263460" data-name="Trazado 263460" d="M236.4,783.478,188.55,808.125v2.146a2.8,2.8,0,0,0,.287,1.24l47.567-24.5Z" transform="translate(-188.55 -777.158)" fill="#fff"/>
        <path id="Trazado_263461" data-name="Trazado 263461" d="M236.768,759.763a3.605,3.605,0,0,0-3.439-2.524H208.266a12.456,12.456,0,0,0-11.091,6.787l-4.626,9.051a31.668,31.668,0,0,0-3.3,11.16Z" transform="translate(-189.078 -757.239)" fill="#fff"/>
      </g>
      <g id="Grupo_127942" data-name="Grupo 127942" transform="translate(128.346 724.243)">
        <path id="Trazado_263462" data-name="Trazado 263462" d="M189.766,792.083a3.321,3.321,0,0,1-3.3-3.318v-2.859a32.319,32.319,0,0,1,3.525-14.643l4.626-9.051a12.9,12.9,0,0,1,11.539-7.061h25.063a4.111,4.111,0,0,1,4.107,4.107v10.675a10.63,10.63,0,0,1-7.427,10.162l-37.112,11.829A3.348,3.348,0,0,1,189.766,792.083Zm16.386-35.927a11.9,11.9,0,0,0-10.644,6.513l-4.626,9.052a31.312,31.312,0,0,0-3.415,14.185v2.859a2.309,2.309,0,0,0,3.01,2.2l37.112-11.829a9.627,9.627,0,0,0,6.727-9.2V759.258a3.1,3.1,0,0,0-3.1-3.1Z" transform="translate(-186.462 -755.151)" fill="#081216"/>
      </g>
      <path id="Trazado_263463" data-name="Trazado 263463" d="M374.617,910.075h0a.951.951,0,0,1-.948-.948v-4.017a.951.951,0,0,1,.948-.948h0a.951.951,0,0,1,.948.948v4.017A.951.951,0,0,1,374.617,910.075Z" transform="translate(-200.235 -144.029)" fill="#081216"/>
      <path id="Trazado_263464" data-name="Trazado 263464" d="M119.045,824.206h0a.718.718,0,0,0,.718-.718v-5.748a.718.718,0,0,0-.718-.718h0a.718.718,0,0,0-.718.718v5.748A.718.718,0,0,0,119.045,824.206Z" transform="translate(-6.391 -77.876)" fill="#272b2b"/>
      <g id="Grupo_127943" data-name="Grupo 127943" transform="translate(248.088 715.263)">
        <path id="Trazado_263465" data-name="Trazado 263465" d="M689.329,719.128h-5.058a.632.632,0,0,1,0-1.265h5.058a.632.632,0,1,1,0,1.265Z" transform="translate(-683.639 -717.863)" fill="#fff"/>
      </g>
      <g id="Grupo_127944" data-name="Grupo 127944" transform="translate(201.567 715.263)">
        <path id="Trazado_263466" data-name="Trazado 263466" d="M529.051,719.128H491.113a.632.632,0,1,1,0-1.265h37.937a.632.632,0,0,1,0,1.265Z" transform="translate(-490.481 -717.863)" fill="#fff"/>
      </g>
    </g>
  </g>
</svg>
