<?xml version="1.0" encoding="utf-8"?>
<!-- Generator: Adobe Illustrator 25.4.2, SVG Export Plug-In . SVG Version: 6.00 Build 0)  -->
<svg version="1.1" id="Capa_1" xmlns="http://www.w3.org/2000/svg" xmlns:xlink="http://www.w3.org/1999/xlink" x="0px" y="0px"
	 viewBox="0 0 52 52" style="enable-background:new 0 0 52 52;" xml:space="preserve">
<style type="text/css">
	.st0{fill:#FECE16;}
	.st1{fill:#12263F;}
</style>
<path id="Trazado_265079" class="st0" d="M26,0c14.4,0,26,11.6,26,26S40.4,52,26,52S0,40.4,0,26S11.6,0,26,0z"/>
<path id="Trazado_265080" class="st1" d="M27.7,34.5v-2.3h-0.1c-0.9,1.7-2.7,2.7-4.6,2.7c-1.2,0.1-2.4-0.4-3.3-1.3
	c-0.8-0.9-1.3-2.1-1.2-3.4c0-2.9,1.8-4.7,5.4-5.1l3.7-0.5c0-0.5-0.2-0.9-0.7-1.2c-0.5-0.3-1.1-0.5-1.8-0.5c-1.9,0-3.7,0.5-5.3,1.4
	v-4.1c1-0.4,2-0.7,3-0.9c1-0.2,2.1-0.3,3.1-0.3c2.5,0,4.4,0.5,5.5,1.6s1.7,2.9,1.7,5.5v8.3H27.7z M24,29.4c0,0.4,0.1,0.7,0.4,1
	c0.3,0.3,0.7,0.4,1.1,0.4c0.6,0,1.2-0.3,1.6-0.7c0.4-0.5,0.6-1.2,0.6-1.9v-0.6l-2.1,0.3C24.6,28.1,24,28.6,24,29.4z"/>
</svg>
