<svg xmlns="http://www.w3.org/2000/svg" width="271" height="221.778" viewBox="0 0 271 221.778">
  <g id="Grupo_128040" data-name="Grupo 128040" transform="translate(8.446 -66.691)">
    <path id="Trazado_263551" data-name="Trazado 263551" d="M20.281,242.693C6.934,226.837-2.23,206.78-6.5,187.348c-2.974-13.548-2.851-28.09,2.515-40.879,12.83-30.57,43.217-22.824,66-39.217,7.656-5.51,12.883-13.69,19.4-20.508,10.494-10.977,24.385-12.9,39.023-11.89a61.752,61.752,0,0,1,45.387,25.413c6.862,9.639,10.75,21.02,16.007,31.621s12.507,20.992,23.319,25.8c8.226,3.658,17.6,3.672,26.2,6.317a45.271,45.271,0,0,1,30.61,34.68c2.962,16.882-5.683,30.754-14.713,44.01Z" transform="translate(0 -2.9)" fill="#ddf2fe"/>
    <g id="Grupo_127997" data-name="Grupo 127997" transform="translate(4.159 142.439)">
      <path id="Trazado_263552" data-name="Trazado 263552" d="M23.835,245.9a37.779,37.779,0,0,0,2.69,6.678l-8.837,8.674a.019.019,0,0,0,0,.028l15.648,15.942a.019.019,0,0,0,.028,0l8.838-8.675a37.962,37.962,0,0,0,6.626,2.818h0l-.115,12.383a.019.019,0,0,0,.019.02l22.337.209a.02.02,0,0,0,.02-.02l.116-12.393h0a37.676,37.676,0,0,0,6.682-2.679l8.67,8.833a.02.02,0,0,0,.028,0l15.943-15.648a.019.019,0,0,0,0-.027l-8.673-8.837a38.074,38.074,0,0,0,2.815-6.628h0l12.385.115a.019.019,0,0,0,.02-.019l.209-22.337a.02.02,0,0,0-.02-.02L96.869,224.2h0a37.554,37.554,0,0,0-2.682-6.68l8.835-8.672a.02.02,0,0,0,0-.028L87.376,192.88a.02.02,0,0,0-.028,0l-8.84,8.676a37.888,37.888,0,0,0-6.624-2.82h0L72,186.353a.02.02,0,0,0-.02-.02l-22.337-.209a.02.02,0,0,0-.02.02l-.115,12.385a37.833,37.833,0,0,0-6.678,2.691l-8.674-8.837a.019.019,0,0,0-.028,0L18.184,208.03a.02.02,0,0,0,0,.029l8.672,8.835a37.719,37.719,0,0,0-2.808,6.63h0l-12.39-.115a.019.019,0,0,0-.02.019l-.209,22.337a.02.02,0,0,0,.02.02l12.386.115Zm31.4-34.274a24.46,24.46,0,1,1-18.675,29.117A24.46,24.46,0,0,1,55.237,211.626Z" transform="translate(-11.429 -186.125)" fill="#fff"/>
    </g>
    <g id="Grupo_128012" data-name="Grupo 128012" transform="translate(163.346 122.717)">
      <path id="Trazado_263553" data-name="Trazado 263553" d="M262.422,155.029V272.105h6.027V241.636h72.583v30.469h4.658V155.029Zm6.027,47.378h72.583v30.7H268.449Zm0-39.229h72.583v30.7H268.449Z" transform="translate(-262.422 -155.029)" fill="#87c5f4"/>
      <g id="Grupo_127999" data-name="Grupo 127999" transform="translate(64.915 8.149)">
        <rect id="Rectángulo_44004" data-name="Rectángulo 44004" width="10.613" height="30.663" transform="translate(10.613 30.663) rotate(180)" fill="#2480ef"/>
        <path id="Trazado_263554" data-name="Trazado 263554" d="M368.611,204.5a2.874,2.874,0,1,0,2.874-2.874A2.874,2.874,0,0,0,368.611,204.5Z" transform="translate(-366.179 -180.224)" fill="#fff"/>
        <circle id="Elipse_6224" data-name="Elipse 6224" cx="2.254" cy="2.254" r="2.254" transform="translate(3.052 22.026)" fill="#ddf2fe"/>
        <rect id="Rectángulo_44005" data-name="Rectángulo 44005" width="6.744" height="14.593" transform="translate(8.623 18.494) rotate(180)" fill="#72b1eb"/>
        <g id="Grupo_127998" data-name="Grupo 127998" transform="translate(2.407 6.333)">
          <rect id="Rectángulo_44006" data-name="Rectángulo 44006" width="5.689" height="0.237" transform="translate(5.689 10.613) rotate(180)" fill="#ddf2fe"/>
          <rect id="Rectángulo_44007" data-name="Rectángulo 44007" width="5.689" height="0.237" transform="translate(5.689 8.538) rotate(180)" fill="#ddf2fe"/>
          <rect id="Rectángulo_44008" data-name="Rectángulo 44008" width="5.689" height="0.237" transform="translate(5.689 6.463) rotate(180)" fill="#ddf2fe"/>
          <rect id="Rectángulo_44009" data-name="Rectángulo 44009" width="5.689" height="0.237" transform="translate(5.689 2.313) rotate(180)" fill="#ddf2fe"/>
          <rect id="Rectángulo_44010" data-name="Rectángulo 44010" width="5.689" height="0.237" transform="translate(5.689 0.237) rotate(180)" fill="#ddf2fe"/>
          <rect id="Rectángulo_44011" data-name="Rectángulo 44011" width="5.689" height="0.237" transform="translate(5.689 4.388) rotate(180)" fill="#ddf2fe"/>
        </g>
      </g>
      <g id="Grupo_128001" data-name="Grupo 128001" transform="translate(43.689 8.149)">
        <rect id="Rectángulo_44012" data-name="Rectángulo 44012" width="10.613" height="30.663" transform="translate(10.613 30.663) rotate(180)" fill="#abd5f4"/>
        <path id="Trazado_263555" data-name="Trazado 263555" d="M335.143,204.5a2.874,2.874,0,1,0,2.874-2.874A2.874,2.874,0,0,0,335.143,204.5Z" transform="translate(-332.711 -180.224)" fill="#fff"/>
        <circle id="Elipse_6225" data-name="Elipse 6225" cx="2.254" cy="2.254" r="2.254" transform="translate(3.052 22.026)" fill="#ddf2fe"/>
        <rect id="Rectángulo_44013" data-name="Rectángulo 44013" width="6.744" height="14.593" transform="translate(8.623 18.494) rotate(180)" fill="#fff"/>
        <g id="Grupo_128000" data-name="Grupo 128000" transform="translate(2.407 6.333)">
          <rect id="Rectángulo_44014" data-name="Rectángulo 44014" width="5.689" height="0.237" transform="translate(5.689 10.613) rotate(180)" fill="#72b1eb"/>
          <rect id="Rectángulo_44015" data-name="Rectángulo 44015" width="5.689" height="0.237" transform="translate(5.689 8.538) rotate(180)" fill="#72b1eb"/>
          <rect id="Rectángulo_44016" data-name="Rectángulo 44016" width="5.689" height="0.237" transform="translate(5.689 6.463) rotate(180)" fill="#72b1eb"/>
          <rect id="Rectángulo_44017" data-name="Rectángulo 44017" width="5.689" height="0.237" transform="translate(5.689 2.313) rotate(180)" fill="#72b1eb"/>
          <rect id="Rectángulo_44018" data-name="Rectángulo 44018" width="5.689" height="0.237" transform="translate(5.689 0.237) rotate(180)" fill="#72b1eb"/>
          <rect id="Rectángulo_44019" data-name="Rectángulo 44019" width="5.689" height="0.237" transform="translate(5.689 4.388) rotate(180)" fill="#72b1eb"/>
        </g>
      </g>
      <g id="Grupo_128003" data-name="Grupo 128003" transform="translate(54.302 8.149)">
        <rect id="Rectángulo_44020" data-name="Rectángulo 44020" width="10.613" height="30.663" transform="translate(10.613 30.663) rotate(180)" fill="#274f8e"/>
        <path id="Trazado_263556" data-name="Trazado 263556" d="M351.877,204.5a2.874,2.874,0,1,0,2.874-2.874A2.874,2.874,0,0,0,351.877,204.5Z" transform="translate(-349.445 -180.224)" fill="#fff"/>
        <circle id="Elipse_6226" data-name="Elipse 6226" cx="2.254" cy="2.254" r="2.254" transform="translate(3.052 22.026)" fill="#ddf2fe"/>
        <rect id="Rectángulo_44021" data-name="Rectángulo 44021" width="6.744" height="14.593" transform="translate(8.623 18.494) rotate(180)" fill="#72b1eb"/>
        <g id="Grupo_128002" data-name="Grupo 128002" transform="translate(2.407 6.333)">
          <rect id="Rectángulo_44022" data-name="Rectángulo 44022" width="5.689" height="0.237" transform="translate(5.689 10.613) rotate(180)" fill="#ddf2fe"/>
          <rect id="Rectángulo_44023" data-name="Rectángulo 44023" width="5.689" height="0.237" transform="translate(5.689 8.538) rotate(180)" fill="#ddf2fe"/>
          <rect id="Rectángulo_44024" data-name="Rectángulo 44024" width="5.689" height="0.237" transform="translate(5.689 6.463) rotate(180)" fill="#ddf2fe"/>
          <rect id="Rectángulo_44025" data-name="Rectángulo 44025" width="5.689" height="0.237" transform="translate(5.689 2.313) rotate(180)" fill="#ddf2fe"/>
          <rect id="Rectángulo_44026" data-name="Rectángulo 44026" width="5.689" height="0.237" transform="translate(5.689 0.237) rotate(180)" fill="#ddf2fe"/>
          <rect id="Rectángulo_44027" data-name="Rectángulo 44027" width="5.689" height="0.237" transform="translate(5.689 4.388) rotate(180)" fill="#ddf2fe"/>
        </g>
      </g>
      <g id="Grupo_128005" data-name="Grupo 128005" transform="translate(45.276 47.397)">
        <rect id="Rectángulo_44028" data-name="Rectángulo 44028" width="10.613" height="30.663" fill="#2480ef"/>
        <path id="Trazado_263557" data-name="Trazado 263557" d="M343.394,266.386a2.874,2.874,0,1,1-2.874-2.874A2.874,2.874,0,0,1,343.394,266.386Z" transform="translate(-335.213 -242.106)" fill="#fff"/>
        <circle id="Elipse_6227" data-name="Elipse 6227" cx="2.254" cy="2.254" r="2.254" transform="translate(3.052 22.026)" fill="#ddf2fe"/>
        <rect id="Rectángulo_44029" data-name="Rectángulo 44029" width="6.744" height="14.593" transform="translate(1.99 3.901)" fill="#72b1eb"/>
        <g id="Grupo_128004" data-name="Grupo 128004" transform="translate(2.517 6.333)">
          <rect id="Rectángulo_44030" data-name="Rectángulo 44030" width="5.689" height="0.237" transform="translate(0 10.376)" fill="#ddf2fe"/>
          <rect id="Rectángulo_44031" data-name="Rectángulo 44031" width="5.689" height="0.237" transform="translate(0 8.301)" fill="#ddf2fe"/>
          <rect id="Rectángulo_44032" data-name="Rectángulo 44032" width="5.689" height="0.237" transform="translate(0 6.225)" fill="#ddf2fe"/>
          <rect id="Rectángulo_44033" data-name="Rectángulo 44033" width="5.689" height="0.237" transform="translate(0 2.075)" fill="#ddf2fe"/>
          <rect id="Rectángulo_44034" data-name="Rectángulo 44034" width="5.689" height="0.237" fill="#ddf2fe"/>
          <rect id="Rectángulo_44035" data-name="Rectángulo 44035" width="5.689" height="0.237" transform="translate(0 4.15)" fill="#ddf2fe"/>
        </g>
      </g>
      <g id="Grupo_128007" data-name="Grupo 128007" transform="translate(30.365 8.169)">
        <rect id="Rectángulo_44036" data-name="Rectángulo 44036" width="10.613" height="30.663" fill="#2480ef"/>
        <path id="Trazado_263558" data-name="Trazado 263558" d="M319.884,204.533a2.874,2.874,0,1,1-2.874-2.874A2.875,2.875,0,0,1,319.884,204.533Z" transform="translate(-311.703 -180.254)" fill="#fff"/>
        <circle id="Elipse_6228" data-name="Elipse 6228" cx="2.254" cy="2.254" r="2.254" transform="translate(3.052 22.026)" fill="#ddf2fe"/>
        <rect id="Rectángulo_44037" data-name="Rectángulo 44037" width="6.744" height="14.593" transform="translate(1.99 3.901)" fill="#72b1eb"/>
        <g id="Grupo_128006" data-name="Grupo 128006" transform="translate(2.517 6.333)">
          <rect id="Rectángulo_44038" data-name="Rectángulo 44038" width="5.689" height="0.237" transform="translate(0 10.376)" fill="#ddf2fe"/>
          <rect id="Rectángulo_44039" data-name="Rectángulo 44039" width="5.689" height="0.237" transform="translate(0 8.301)" fill="#ddf2fe"/>
          <rect id="Rectángulo_44040" data-name="Rectángulo 44040" width="5.689" height="0.237" transform="translate(0 6.225)" fill="#ddf2fe"/>
          <rect id="Rectángulo_44041" data-name="Rectángulo 44041" width="5.689" height="0.237" transform="translate(0 2.075)" fill="#ddf2fe"/>
          <rect id="Rectángulo_44042" data-name="Rectángulo 44042" width="5.689" height="0.237" fill="#ddf2fe"/>
          <rect id="Rectángulo_44043" data-name="Rectángulo 44043" width="5.689" height="0.237" transform="translate(0 4.15)" fill="#ddf2fe"/>
        </g>
      </g>
      <g id="Grupo_128009" data-name="Grupo 128009" transform="translate(55.801 47.301)">
        <rect id="Rectángulo_44044" data-name="Rectángulo 44044" width="10.613" height="28.988" transform="translate(0 2.874) rotate(-15.712)" fill="#abd5f4"/>
        <path id="Trazado_263559" data-name="Trazado 263559" d="M369.221,263.748a2.875,2.875,0,1,1-3.546-1.988A2.874,2.874,0,0,1,369.221,263.748Z" transform="translate(-355.224 -241.329)" fill="#fff"/>
        <path id="Trazado_263560" data-name="Trazado 263560" d="M367.422,267.054a2.254,2.254,0,1,1,1.56-2.78A2.256,2.256,0,0,1,367.422,267.054Z" transform="translate(-355.582 -241.687)" fill="#ddf2fe"/>
        <rect id="Rectángulo_44045" data-name="Rectángulo 44045" width="6.744" height="14.045" transform="translate(2.791 5.446) rotate(-15.712)" fill="#fff"/>
        <g id="Grupo_128008" data-name="Grupo 128008" transform="translate(3.932 6.016)">
          <rect id="Rectángulo_44046" data-name="Rectángulo 44046" width="5.689" height="0.228" transform="translate(2.704 11.153) rotate(-15.712)" fill="#72b1eb"/>
          <rect id="Rectángulo_44047" data-name="Rectángulo 44047" width="5.689" height="0.228" transform="translate(2.163 9.231) rotate(-15.712)" fill="#72b1eb"/>
          <rect id="Rectángulo_44048" data-name="Rectángulo 44048" width="5.689" height="0.228" transform="translate(1.622 7.308) rotate(-15.712)" fill="#72b1eb"/>
          <rect id="Rectángulo_44049" data-name="Rectángulo 44049" width="5.689" height="0.228" transform="translate(0.541 3.463) rotate(-15.712)" fill="#72b1eb"/>
          <rect id="Rectángulo_44050" data-name="Rectángulo 44050" width="5.689" height="0.228" transform="translate(0 1.541) rotate(-15.712)" fill="#72b1eb"/>
          <rect id="Rectángulo_44051" data-name="Rectángulo 44051" width="5.689" height="0.228" transform="translate(1.082 5.386) rotate(-15.712)" fill="#72b1eb"/>
        </g>
      </g>
      <g id="Grupo_128011" data-name="Grupo 128011" transform="translate(34.66 47.397)">
        <rect id="Rectángulo_44052" data-name="Rectángulo 44052" width="10.613" height="30.663" fill="#abd5f4"/>
        <path id="Trazado_263561" data-name="Trazado 263561" d="M326.656,266.386a2.874,2.874,0,1,1-2.874-2.874A2.874,2.874,0,0,1,326.656,266.386Z" transform="translate(-318.475 -242.106)" fill="#fff"/>
        <circle id="Elipse_6229" data-name="Elipse 6229" cx="2.254" cy="2.254" r="2.254" transform="translate(3.052 22.026)" fill="#ddf2fe"/>
        <rect id="Rectángulo_44053" data-name="Rectángulo 44053" width="6.744" height="14.593" transform="translate(1.99 3.901)" fill="#fff"/>
        <g id="Grupo_128010" data-name="Grupo 128010" transform="translate(2.517 6.333)">
          <rect id="Rectángulo_44054" data-name="Rectángulo 44054" width="5.689" height="0.237" transform="translate(0 10.376)" fill="#72b1eb"/>
          <rect id="Rectángulo_44055" data-name="Rectángulo 44055" width="5.689" height="0.237" transform="translate(0 8.301)" fill="#72b1eb"/>
          <rect id="Rectángulo_44056" data-name="Rectángulo 44056" width="5.689" height="0.237" transform="translate(0 6.225)" fill="#72b1eb"/>
          <rect id="Rectángulo_44057" data-name="Rectángulo 44057" width="5.689" height="0.237" transform="translate(0 2.075)" fill="#72b1eb"/>
          <rect id="Rectángulo_44058" data-name="Rectángulo 44058" width="5.689" height="0.237" fill="#72b1eb"/>
          <rect id="Rectángulo_44059" data-name="Rectángulo 44059" width="5.689" height="0.237" transform="translate(0 4.15)" fill="#72b1eb"/>
        </g>
      </g>
    </g>
    <g id="Grupo_128013" data-name="Grupo 128013" transform="translate(86.454 66.691)">
      <path id="Trazado_263562" data-name="Trazado 263562" d="M201.61,106.744H141.826l-.589-6.343a10.863,10.863,0,0,1,11-12.122h35.54A13.585,13.585,0,0,1,201.021,100.4Z" transform="translate(-141.185 -74.587)" fill="#eaa813"/>
      <path id="Trazado_263563" data-name="Trazado 263563" d="M177.742,66.691a8.394,8.394,0,0,0-8.5,9.367,10.5,10.5,0,0,0,10.236,9.367,8.394,8.394,0,0,0,8.5-9.367A10.5,10.5,0,0,0,177.742,66.691ZM179.015,80.4a4.868,4.868,0,0,1-4.742-4.339,3.893,3.893,0,0,1,3.937-4.339,4.869,4.869,0,0,1,4.741,4.339A3.893,3.893,0,0,1,179.015,80.4Z" transform="translate(-151.433 -66.691)" fill="#eaa813"/>
    </g>
    <path id="Trazado_263564" data-name="Trazado 263564" d="M216.881,251.067H120.035a7.792,7.792,0,0,1-7.6-6.952L99.474,104.466a6.231,6.231,0,0,1,6.307-6.953h96.846a7.791,7.791,0,0,1,7.6,6.953l12.963,139.649A6.23,6.23,0,0,1,216.881,251.067Z" transform="translate(-39.463 -11.274)" fill="#164767"/>
    <path id="Trazado_263565" data-name="Trazado 263565" d="M220.566,251.067H123.72a7.792,7.792,0,0,1-7.6-6.952L103.159,104.466a6.231,6.231,0,0,1,6.307-6.953h96.846a7.792,7.792,0,0,1,7.6,6.953l12.962,139.649A6.23,6.23,0,0,1,220.566,251.067Z" transform="translate(-40.811 -11.274)" fill="#28acd3"/>
    <path id="Trazado_263566" data-name="Trazado 263566" d="M221.1,239.366H133.856l-11.817-127.3h87.247Z" transform="translate(-47.728 -16.595)" fill="#9ce5e5"/>
    <path id="Trazado_263567" data-name="Trazado 263567" d="M143.463,233.246l-10-107.749a3.079,3.079,0,0,1,3.117-3.436h67.69a3.851,3.851,0,0,1,3.755,3.436l10,107.749a3.078,3.078,0,0,1-3.117,3.436h-67.69A3.851,3.851,0,0,1,143.463,233.246Z" transform="translate(-51.901 -20.253)" fill="#fff"/>
    <g id="Grupo_128014" data-name="Grupo 128014" transform="translate(90.333 66.691)">
      <path id="Trazado_263568" data-name="Trazado 263568" d="M207.725,106.744H147.942l-.589-6.343a10.863,10.863,0,0,1,11-12.122H193.89A13.585,13.585,0,0,1,207.137,100.4Z" transform="translate(-147.301 -74.587)" fill="#ffc121"/>
      <path id="Trazado_263569" data-name="Trazado 263569" d="M183.858,66.691a8.394,8.394,0,0,0-8.5,9.367A10.5,10.5,0,0,0,185.6,85.425a8.394,8.394,0,0,0,8.5-9.367A10.5,10.5,0,0,0,183.858,66.691ZM185.13,80.4a4.869,4.869,0,0,1-4.742-4.339,3.893,3.893,0,0,1,3.937-4.339,4.868,4.868,0,0,1,4.741,4.339A3.892,3.892,0,0,1,185.13,80.4Z" transform="translate(-157.549 -66.691)" fill="#ffc121"/>
    </g>
    <path id="Trazado_263570" data-name="Trazado 263570" d="M207.756,113.735H147.972l-.589-6.343h59.784Z" transform="translate(-56.998 -14.887)" fill="#ffdc21"/>
    <g id="Grupo_128026" data-name="Grupo 128026" transform="translate(89.065 110.662)">
      <g id="Grupo_128015" data-name="Grupo 128015" transform="translate(3.044 21.584)">
        <path id="Trazado_263571" data-name="Trazado 263571" d="M205.483,172.325H151.348a1.274,1.274,0,0,1-1.242-1.136h0a1.019,1.019,0,0,1,1.031-1.137h54.136a1.273,1.273,0,0,1,1.242,1.137h0A1.018,1.018,0,0,1,205.483,172.325Z" transform="translate(-150.1 -170.053)" fill="#33c7ca"/>
        <path id="Trazado_263572" data-name="Trazado 263572" d="M206.229,180.362H152.094a1.274,1.274,0,0,1-1.242-1.137h0a1.019,1.019,0,0,1,1.031-1.137h54.136a1.273,1.273,0,0,1,1.242,1.137h0A1.019,1.019,0,0,1,206.229,180.362Z" transform="translate(-150.373 -172.992)" fill="#33c7ca"/>
        <path id="Trazado_263573" data-name="Trazado 263573" d="M168.919,188.4H152.84a1.274,1.274,0,0,1-1.242-1.137h0a1.018,1.018,0,0,1,1.031-1.137h16.08a1.274,1.274,0,0,1,1.242,1.137h0A1.019,1.019,0,0,1,168.919,188.4Z" transform="translate(-150.646 -175.932)" fill="#33c7ca"/>
      </g>
      <g id="Grupo_128016" data-name="Grupo 128016" transform="translate(0 0)">
        <path id="Trazado_263574" data-name="Trazado 263574" d="M200.684,138.294H146.549a1.274,1.274,0,0,1-1.242-1.137h0a1.019,1.019,0,0,1,1.031-1.137h54.136a1.274,1.274,0,0,1,1.242,1.137h0A1.018,1.018,0,0,1,200.684,138.294Z" transform="translate(-145.301 -136.021)" fill="#33c7ca"/>
        <path id="Trazado_263575" data-name="Trazado 263575" d="M201.43,146.33H147.294a1.274,1.274,0,0,1-1.242-1.137h0a1.019,1.019,0,0,1,1.031-1.137h54.136a1.274,1.274,0,0,1,1.242,1.137h0A1.018,1.018,0,0,1,201.43,146.33Z" transform="translate(-145.574 -138.96)" fill="#33c7ca"/>
        <path id="Trazado_263576" data-name="Trazado 263576" d="M164.12,154.366H148.04a1.274,1.274,0,0,1-1.242-1.136h0a1.018,1.018,0,0,1,1.031-1.137h16.08a1.273,1.273,0,0,1,1.242,1.137h0A1.018,1.018,0,0,1,164.12,154.366Z" transform="translate(-145.847 -141.9)" fill="#33c7ca"/>
      </g>
      <g id="Grupo_128019" data-name="Grupo 128019" transform="translate(5.007 40.028)">
        <g id="Grupo_128017" data-name="Grupo 128017" transform="translate(19.729 3.868)">
          <path id="Trazado_263577" data-name="Trazado 263577" d="M220.065,207.506H185.551a1.274,1.274,0,0,1-1.242-1.137h0a1.018,1.018,0,0,1,1.031-1.137h34.515a1.274,1.274,0,0,1,1.242,1.137h0A1.019,1.019,0,0,1,220.065,207.506Z" transform="translate(-184.303 -205.233)" fill="#33c7ca"/>
          <path id="Trazado_263578" data-name="Trazado 263578" d="M220.811,215.542H186.3a1.274,1.274,0,0,1-1.242-1.137h0a1.018,1.018,0,0,1,1.031-1.137H220.6a1.274,1.274,0,0,1,1.242,1.137h0A1.019,1.019,0,0,1,220.811,215.542Z" transform="translate(-184.576 -208.172)" fill="#33c7ca"/>
          <path id="Trazado_263579" data-name="Trazado 263579" d="M203.122,223.578h-16.08a1.274,1.274,0,0,1-1.242-1.137h0a1.018,1.018,0,0,1,1.031-1.137h16.08a1.273,1.273,0,0,1,1.242,1.137h0A1.018,1.018,0,0,1,203.122,223.578Z" transform="translate(-184.849 -211.112)" fill="#33c7ca"/>
        </g>
        <g id="Grupo_128018" data-name="Grupo 128018">
          <path id="Trazado_263580" data-name="Trazado 263580" d="M166.72,203.459H154.2a.982.982,0,0,0-.994,1.1l1.163,12.525a1.228,1.228,0,0,0,1.2,1.1h12.525a.982.982,0,0,0,.994-1.1l-1.163-12.525A1.228,1.228,0,0,0,166.72,203.459Zm.824,13.151a.066.066,0,0,1-.066.073H155.892a.081.081,0,0,1-.079-.073l-1.076-11.585a.065.065,0,0,1,.067-.073h11.585a.082.082,0,0,1,.08.073Z" transform="translate(-153.196 -200.716)" fill="#9ce5e5"/>
          <path id="Trazado_263581" data-name="Trazado 263581" d="M165.577,213.482l-6.075-4.407,1.65-2.409,3.518,2.552,7.072-10.084,2.566,1.9Z" transform="translate(-155.503 -199.134)" fill="#ffc121"/>
        </g>
      </g>
      <g id="Grupo_128022" data-name="Grupo 128022" transform="translate(6.894 60.353)">
        <g id="Grupo_128020" data-name="Grupo 128020" transform="translate(19.729 3.868)">
          <path id="Trazado_263582" data-name="Trazado 263582" d="M223.04,239.553H188.525a1.274,1.274,0,0,1-1.242-1.137h0a1.018,1.018,0,0,1,1.031-1.137h34.515a1.274,1.274,0,0,1,1.242,1.137h0A1.019,1.019,0,0,1,223.04,239.553Z" transform="translate(-187.278 -237.28)" fill="#33c7ca"/>
          <path id="Trazado_263583" data-name="Trazado 263583" d="M223.786,247.589H189.271a1.274,1.274,0,0,1-1.242-1.137h0a1.018,1.018,0,0,1,1.031-1.137h34.515a1.274,1.274,0,0,1,1.242,1.137h0A1.018,1.018,0,0,1,223.786,247.589Z" transform="translate(-187.551 -240.219)" fill="#33c7ca"/>
          <path id="Trazado_263584" data-name="Trazado 263584" d="M206.1,255.625h-16.08a1.274,1.274,0,0,1-1.242-1.137h0a1.018,1.018,0,0,1,1.031-1.137h16.08a1.273,1.273,0,0,1,1.242,1.137h0A1.018,1.018,0,0,1,206.1,255.625Z" transform="translate(-187.824 -243.159)" fill="#33c7ca"/>
        </g>
        <g id="Grupo_128021" data-name="Grupo 128021">
          <path id="Trazado_263585" data-name="Trazado 263585" d="M169.694,235.506H157.17a.982.982,0,0,0-.994,1.1l1.163,12.525a1.229,1.229,0,0,0,1.2,1.1h12.525a.983.983,0,0,0,.994-1.1L170.892,236.6A1.229,1.229,0,0,0,169.694,235.506Zm.824,13.151a.066.066,0,0,1-.066.073H158.867a.083.083,0,0,1-.08-.073l-1.075-11.585a.065.065,0,0,1,.066-.073h11.585a.082.082,0,0,1,.08.073Z" transform="translate(-156.171 -232.763)" fill="#9ce5e5"/>
          <path id="Trazado_263586" data-name="Trazado 263586" d="M168.552,245.529l-6.075-4.407,1.65-2.409,3.518,2.552,7.072-10.084,2.566,1.9Z" transform="translate(-158.477 -231.182)" fill="#ffc121"/>
        </g>
      </g>
      <g id="Grupo_128025" data-name="Grupo 128025" transform="translate(8.78 80.678)">
        <g id="Grupo_128023" data-name="Grupo 128023" transform="translate(19.729 3.868)">
          <path id="Trazado_263587" data-name="Trazado 263587" d="M226.015,271.6H191.5a1.274,1.274,0,0,1-1.242-1.137h0a1.018,1.018,0,0,1,1.031-1.137H225.8a1.273,1.273,0,0,1,1.242,1.137h0A1.018,1.018,0,0,1,226.015,271.6Z" transform="translate(-190.253 -269.327)" fill="#33c7ca"/>
          <path id="Trazado_263588" data-name="Trazado 263588" d="M226.761,279.636H192.246A1.273,1.273,0,0,1,191,278.5h0a1.018,1.018,0,0,1,1.031-1.137h34.515a1.273,1.273,0,0,1,1.242,1.137h0A1.018,1.018,0,0,1,226.761,279.636Z" transform="translate(-190.526 -272.266)" fill="#33c7ca"/>
          <path id="Trazado_263589" data-name="Trazado 263589" d="M209.071,287.672h-16.08a1.273,1.273,0,0,1-1.242-1.137h0a1.019,1.019,0,0,1,1.031-1.137h16.08a1.274,1.274,0,0,1,1.242,1.137h0A1.018,1.018,0,0,1,209.071,287.672Z" transform="translate(-190.799 -275.206)" fill="#33c7ca"/>
        </g>
        <g id="Grupo_128024" data-name="Grupo 128024">
          <path id="Trazado_263590" data-name="Trazado 263590" d="M172.669,267.553H160.145a.982.982,0,0,0-.994,1.1l1.163,12.525a1.229,1.229,0,0,0,1.2,1.1h12.525a.982.982,0,0,0,.994-1.1l-1.163-12.525A1.227,1.227,0,0,0,172.669,267.553Zm.824,13.151a.066.066,0,0,1-.067.073H161.842a.083.083,0,0,1-.08-.073l-1.075-11.585a.065.065,0,0,1,.066-.073h11.585a.082.082,0,0,1,.08.073Z" transform="translate(-159.145 -264.81)" fill="#9ce5e5"/>
          <path id="Trazado_263591" data-name="Trazado 263591" d="M171.526,277.576l-6.075-4.407,1.65-2.409,3.518,2.552,7.072-10.084,2.565,1.9Z" transform="translate(-161.452 -263.229)" fill="#ffc121"/>
        </g>
      </g>
    </g>
    <ellipse id="Elipse_6230" data-name="Elipse 6230" cx="39.12" cy="4.702" rx="39.12" ry="4.702" transform="translate(161.467 273.619)" fill="#ddf2fe"/>
    <g id="Grupo_128028" data-name="Grupo 128028" transform="translate(136.318 169.148)">
      <path id="Trazado_263592" data-name="Trazado 263592" d="M296.072,272.4,300,275.5c1.509-1.457,11.507-6.638,11.882-10.442a4.663,4.663,0,0,0-1.1-3.838c-2.053-2.017-4.4-1.556-6.233.176C302.547,263.284,296.072,272.4,296.072,272.4Z" transform="translate(-247.703 -239.816)" fill="#164767"/>
      <path id="Trazado_263593" data-name="Trazado 263593" d="M307.248,393.59h-3.137l-.275-3.279h3.136Z" transform="translate(-250.543 -287.52)" fill="#e7afa7"/>
      <path id="Trazado_263594" data-name="Trazado 263594" d="M353.113,393.59h-3.136l-1.227-3.279h3.136Z" transform="translate(-266.971 -287.52)" fill="#e7afa7"/>
      <path id="Trazado_263595" data-name="Trazado 263595" d="M321.142,256.9l5.921-.076-2.491-6.758-3.32.845Z" transform="translate(-256.873 -236.223)" fill="#f79889"/>
      <path id="Trazado_263596" data-name="Trazado 263596" d="M327.852,286.41l2.559-25.777a2.523,2.523,0,0,0-2.295-2.68l-15.371,1.255a2.159,2.159,0,0,0-2.243,2.307l2.1,24.9Z" transform="translate(-252.979 -239.106)" fill="#164767"/>
      <path id="Trazado_263597" data-name="Trazado 263597" d="M324.541,302.822l-5.867,7.766-11.356,48.786h-5.855l7.744-56.551Z" transform="translate(-249.675 -255.518)" fill="#1eafaf"/>
      <path id="Trazado_263598" data-name="Trazado 263598" d="M318.132,302.822l1.4,6.559a3.664,3.664,0,0,0,3.6,3h0l13.212,46.992h5.719l-11.422-56.551Z" transform="translate(-255.772 -255.518)" fill="#33c7ca"/>
      <path id="Trazado_263599" data-name="Trazado 263599" d="M328.6,243.51a1.073,1.073,0,1,0,1.017-1.126A1.073,1.073,0,0,0,328.6,243.51Z" transform="translate(-259.602 -233.411)" fill="#f79889"/>
      <path id="Trazado_263600" data-name="Trazado 263600" d="M319.259,234.842a3.349,3.349,0,0,0-2.053,1.33,3.259,3.259,0,0,0-.6,2.043h0l.127,3.932a4.46,4.46,0,0,0,4.39,4.394,4.34,4.34,0,0,0,4.062-4.667l-.112-3.627v0S324.833,233.971,319.259,234.842Z" transform="translate(-255.214 -230.61)" fill="#f79889"/>
      <path id="Trazado_263601" data-name="Trazado 263601" d="M325.224,244.042c-1.707,3.347-3.2,1.229-5.013,1.384-1.5.128-2.531,2.221-3.4-.7-.13,4.546,2.057,5.3,4.39,5.22C323.566,249.867,325.856,249.029,325.224,244.042Z" transform="translate(-255.286 -234.018)" fill="#164767"/>
      <path id="Trazado_263602" data-name="Trazado 263602" d="M298.985,393.137l1.727.758,1.6-.758,1.439,4.7H290.41c0-2.349,5.017-2.349,5.017-2.349Z" transform="translate(-245.632 -288.553)" fill="#164767"/>
      <path id="Trazado_263603" data-name="Trazado 263603" d="M344.965,393.137l1.727.758,1.6-.758,1.44,4.7H336.39c0-2.349,5.017-2.349,5.017-2.349Z" transform="translate(-262.45 -288.553)" fill="#164767"/>
      <g id="Grupo_128027" data-name="Grupo 128027">
        <path id="Trazado_263604" data-name="Trazado 263604" d="M222.312,239.494a21.256,21.256,0,1,0,28.759-8.752A21.256,21.256,0,0,0,222.312,239.494Zm32.443,17.3a15.513,15.513,0,1,1-6.387-20.988A15.53,15.53,0,0,1,254.755,256.8Z" transform="translate(-219.807 -228.237)" fill="#ffc121"/>
        <rect id="Rectángulo_44060" data-name="Rectángulo 44060" width="5.942" height="38.436" transform="matrix(0.471, -0.882, 0.882, 0.471, 35.073, 31.982)" fill="#ffc121"/>
        <path id="Trazado_263605" data-name="Trazado 263605" d="M328.149,299.461h0a5.942,5.942,0,0,1-8.039,2.446l-18.524-9.88,5.593-10.486,18.524,9.881A5.942,5.942,0,0,1,328.149,299.461Z" transform="translate(-249.72 -247.735)" fill="#2480ef"/>
      </g>
      <path id="Trazado_263606" data-name="Trazado 263606" d="M327.561,302.684h0a1.4,1.4,0,0,0,2.01-.152l1.778-2.38,1.721-.853-2.14-1.941-.8.312a4.046,4.046,0,0,0-2.1,1.819l-.846,1.545A1.325,1.325,0,0,0,327.561,302.684Z" transform="translate(-259.029 -253.52)" fill="#f79889"/>
      <path id="Trazado_263607" data-name="Trazado 263607" d="M335.935,294.858l10.807-8.941-4.692-3.684-9.767,9.283Z" transform="translate(-260.948 -247.987)" fill="#164767"/>
      <path id="Trazado_263608" data-name="Trazado 263608" d="M346.8,282.213a3.408,3.408,0,1,0,2.728-3.973A3.407,3.407,0,0,0,346.8,282.213Z" transform="translate(-266.238 -246.505)" fill="#164767"/>
      <path id="Trazado_263609" data-name="Trazado 263609" d="M341.764,274.217l6.134-1.349c-1.012-1.838-6.129-13.068-9.7-14.424a4.665,4.665,0,0,0-3.992.057c-2.483,1.455-2.651,3.837-1.459,6.063C334.041,266.989,341.764,274.217,341.764,274.217Z" transform="translate(-260.854 -239.132)" fill="#164767"/>
      <path id="Trazado_263610" data-name="Trazado 263610" d="M281.955,282.2l.095.3a6.138,6.138,0,0,0,7.88,3.947h0Z" transform="translate(-242.539 -247.974)" fill="#164767"/>
      <path id="Trazado_263611" data-name="Trazado 263611" d="M284.486,281.134a2.489,2.489,0,0,0-2.448.439.431.431,0,0,0,.064.712l3.122,1.7a.424.424,0,0,0,.613-.245A2.146,2.146,0,0,0,284.486,281.134Z" transform="translate(-242.512 -247.531)" fill="#f79889"/>
      <path id="Trazado_263612" data-name="Trazado 263612" d="M282.6,282.308l-1.031-.559a.376.376,0,0,1-.2-.337l.013-.784a.608.608,0,0,1,.608-.6h0a.607.607,0,0,1,.607.608Z" transform="translate(-242.327 -247.182)" fill="#f79889"/>
      <path id="Trazado_263613" data-name="Trazado 263613" d="M325.163,232.692a1.355,1.355,0,0,0-.14-.086c-.544-.289-.882.024-1.414.037a2.707,2.707,0,0,1-1.575-.609,5.845,5.845,0,0,0-1.882-1.154,2.14,2.14,0,0,0-2.038.632c-.431.463-.464,1.156-.868,1.638-.2.235-.513.269-.762.443a1.819,1.819,0,0,0-.681,2.115c.05.144.259,1.045.481.928.334-.174.335-.646.527-.97a1.361,1.361,0,0,1,1.412-.476,14.5,14.5,0,0,0,1.545.34,8.136,8.136,0,0,0,2.127-.462,1.739,1.739,0,0,1,1.945.593,1.894,1.894,0,0,1,.07,1.261,2.223,2.223,0,0,0-.022,1.575,1.2,1.2,0,0,0,2.057-.207,3.031,3.031,0,0,0,.333-1.312,8.473,8.473,0,0,0-.315-2.947A2.417,2.417,0,0,0,325.163,232.692Z" transform="translate(-254.882 -229.183)" fill="#164767"/>
    </g>
    <ellipse id="Elipse_6231" data-name="Elipse 6231" cx="39.12" cy="4.702" rx="39.12" ry="4.702" transform="translate(12.681 279.065)" fill="#ddf2fe"/>
    <g id="Grupo_128034" data-name="Grupo 128034" transform="translate(31.414 174.553)">
      <path id="Trazado_263614" data-name="Trazado 263614" d="M73.12,236.93A6,6,0,0,0,67.981,238a17.033,17.033,0,0,1-2.52,2.248c-1,.533-2.264.532-3.167,1.223a3.663,3.663,0,0,0-1.186,3.082c.042,1.144.382,2.254.531,3.389.34,2.591-1.165,4.122-2.714,5.983a8.325,8.325,0,0,0-2.08,4.305,4.222,4.222,0,0,0,1.916,4.154,4.068,4.068,0,0,0,1.834.459,16.409,16.409,0,0,0,4.533-.988c1.5-.4,3.243-.507,4.474.44.356.273.65.623,1.023.871,1.311.873,3.206.173,4.131-1.1a8.283,8.283,0,0,0,1.2-4.5,35.431,35.431,0,0,0-.039-4.266,9.09,9.09,0,0,1,.894-3.956c.4-1.022,1.039-1.863,1.448-2.876a7.254,7.254,0,0,0-3.536-8.932A6.459,6.459,0,0,0,73.12,236.93Z" transform="translate(-55.286 -236.759)" fill="#164767"/>
      <path id="Trazado_263615" data-name="Trazado 263615" d="M89.543,279.663l4.5-2.723-6.748-12.877a2.933,2.933,0,0,0-4.249-1.263h0c-1.506.96-2.129,4.211-1.138,6.67S89.543,279.663,89.543,279.663Z" transform="translate(-64.287 -246.116)" fill="#33c7ca"/>
      <path id="Trazado_263616" data-name="Trazado 263616" d="M78.867,262.694l-3.608-.591.913-6.266,3.608.591Z" transform="translate(-62.031 -243.737)" fill="#f79889"/>
      <path id="Trazado_263617" data-name="Trazado 263617" d="M80.769,244.261c.424,1.473,1.815,2.59,1.769,3.764l-.114.5c-.009.022-.016.043-.027.065l.015-.011-.344,1.529a3.589,3.589,0,0,1-7-1.575l.388-1.72C76.31,245.254,79.354,246.353,80.769,244.261Z" transform="translate(-61.927 -239.503)" fill="#f79889"/>
      <g id="Grupo_128029" data-name="Grupo 128029" transform="translate(5.743 16.194)">
        <path id="Trazado_263618" data-name="Trazado 263618" d="M70.649,283.492l-3.972-17.167a2.357,2.357,0,0,1,2.227-2.719l9.909-1.31a2.358,2.358,0,0,1,2.454,2.516l1.663,18.68Z" transform="translate(-64.625 -262.293)" fill="#9ce5e5"/>
        <path id="Trazado_263619" data-name="Trazado 263619" d="M81.042,295.717l-6.219,10.025,17.34,56.351h3.585s-8.054-58.224-9.9-66.376Z" transform="translate(-67.615 -274.519)" fill="#eaa813"/>
        <path id="Trazado_263620" data-name="Trazado 263620" d="M76.885,295.717c-.933,27.34-9.985,66.376-9.985,66.376H63.463c-.067-8.428.5-48.925,1.061-52.5a31.653,31.653,0,0,1,2.231-7.7c1-2.3,1.246-4.173,2.727-6.177h7.4Z" transform="translate(-63.457 -274.519)" fill="#ffc121"/>
      </g>
      <path id="Trazado_263621" data-name="Trazado 263621" d="M103.9,403.316h2.239l-.667-2.942h-2.683Z" transform="translate(-72.099 -296.605)" fill="#f79889"/>
      <path id="Trazado_263622" data-name="Trazado 263622" d="M64.488,403.316h2.238l.145-2.942H64.189Z" transform="translate(-57.982 -296.605)" fill="#f79889"/>
      <path id="Trazado_263623" data-name="Trazado 263623" d="M83.578,274.864a3.077,3.077,0,1,0,3.346-2.784A3.077,3.077,0,0,0,83.578,274.864Z" transform="translate(-65.069 -249.674)" fill="#9ce5e5"/>
      <path id="Trazado_263624" data-name="Trazado 263624" d="M81.566,262.385l-.991,6.545-5.616-5.69Z" transform="translate(-61.921 -246.132)" fill="#f79889"/>
      <path id="Trazado_263625" data-name="Trazado 263625" d="M75.417,249.435a1.285,1.285,0,1,1-1.251-1.317A1.285,1.285,0,0,1,75.417,249.435Z" transform="translate(-61.149 -240.914)" fill="#f79889"/>
      <path id="Trazado_263626" data-name="Trazado 263626" d="M106.316,403.13l-1.141.5-1.8-.5-.951,3.1h9.555c0-1.552-3.314-1.552-3.314-1.552Z" transform="translate(-71.967 -297.613)" fill="#164767"/>
      <path id="Trazado_263627" data-name="Trazado 263627" d="M66.44,403.13l-1.141.5-1.8-.5-.951,3.1H72.1c0-1.552-3.314-1.552-3.314-1.552Z" transform="translate(-57.382 -297.613)" fill="#164767"/>
      <path id="Trazado_263628" data-name="Trazado 263628" d="M101.808,279.547l.115.31a6.454,6.454,0,0,1-3.97,8.373h0Z" transform="translate(-70.332 -252.41)" fill="#33c7ca"/>
      <g id="Grupo_128030" data-name="Grupo 128030" transform="translate(15.104 23.924)">
        <path id="Trazado_263629" data-name="Trazado 263629" d="M88.972,290.4l-10.755-.987,6.827-14.929,10.755.987Z" transform="translate(-78.217 -274.48)" fill="#006cff"/>
      </g>
      <g id="Grupo_128031" data-name="Grupo 128031" transform="translate(29.07 26.037)">
        <path id="Trazado_263630" data-name="Trazado 263630" d="M100.531,280.189a2.184,2.184,0,0,1,1.929-1.019.379.379,0,0,1,.341.526l-1.241,2.86a.373.373,0,0,1-.556.162A1.884,1.884,0,0,1,100.531,280.189Z" transform="translate(-100.237 -278.309)" fill="#f79889"/>
        <path id="Trazado_263631" data-name="Trazado 263631" d="M103.264,279.827l.411-.943a.329.329,0,0,0-.046-.339l-.433-.535a.533.533,0,0,0-.742-.084h0a.534.534,0,0,0-.092.748Z" transform="translate(-100.973 -277.813)" fill="#f79889"/>
      </g>
      <g id="Grupo_128032" data-name="Grupo 128032" transform="translate(14.816 27.823)">
        <path id="Trazado_263632" data-name="Trazado 263632" d="M84.519,283.529h0a1.246,1.246,0,0,1-1.261,1.324l-2.858-.042-2.349.92-.289-2.545,1.405-.569a4.124,4.124,0,0,1,2.605-.485l1.681.243A1.244,1.244,0,0,1,84.519,283.529Z" transform="translate(-77.762 -281.163)" fill="#f79889"/>
        <path id="Trazado_263633" data-name="Trazado 263633" d="M81.349,281.718l1.608.391a.331.331,0,0,0,.342,0l.8-.492a.532.532,0,0,0,.178-.725h0a.533.533,0,0,0-.73-.186Z" transform="translate(-79.074 -280.628)" fill="#f79889"/>
      </g>
      <g id="Grupo_128033" data-name="Grupo 128033" transform="translate(0 17.632)">
        <path id="Trazado_263634" data-name="Trazado 263634" d="M71.751,286.45l-10.83,4.758-.381-6.375,10.994-1.419Z" transform="translate(-56.646 -271.456)" fill="#33c7ca"/>
        <path id="Trazado_263635" data-name="Trazado 263635" d="M59.977,282l-5.243-1.576,7.119-14.072a2.934,2.934,0,0,1,4.218-1.364h0c1.528.923,2.229,4.159,1.3,6.641S59.977,282,59.977,282Z" transform="translate(-54.523 -264.56)" fill="#33c7ca"/>
        <circle id="Elipse_6232" data-name="Elipse 6232" cx="3.041" cy="3.041" r="3.041" transform="translate(0 13.931)" fill="#33c7ca"/>
      </g>
    </g>
    <path id="Trazado_263636" data-name="Trazado 263636" d="M313.317,110.167l2.143,5.391,5.789.372-4.465,3.7,1.435,5.621-4.9-3.1-4.9,3.1,1.435-5.621-4.465-3.7,5.789-.372Z" transform="translate(-114.791 -15.902)" fill="#ffc121"/>
    <path id="Trazado_263637" data-name="Trazado 263637" d="M345.97,110.167l2.143,5.391,5.789.372-4.465,3.7,1.435,5.621-4.9-3.1-4.9,3.1,1.435-5.621-4.465-3.7,5.789-.372Z" transform="translate(-126.734 -15.902)" fill="#ffc121"/>
    <path id="Trazado_263638" data-name="Trazado 263638" d="M378.622,110.167l2.143,5.391,5.789.372-4.465,3.7,1.435,5.621-4.9-3.1-4.9,3.1,1.435-5.621-4.465-3.7,5.789-.372Z" transform="translate(-138.678 -15.902)" fill="#ffc121"/>
    <g id="Grupo_128036" data-name="Grupo 128036" transform="translate(28.486 124.601)">
      <rect id="Rectángulo_44061" data-name="Rectángulo 44061" width="42.673" height="37.475" rx="2.678" fill="#33c7ca"/>
      <g id="Grupo_128035" data-name="Grupo 128035" transform="translate(7.83 5.841)">
        <rect id="Rectángulo_44062" data-name="Rectángulo 44062" width="6.482" height="15.545" rx="2.368" transform="translate(0 9.46)" fill="#fff"/>
        <path id="Trazado_263639" data-name="Trazado 263639" d="M68.974,185.713a1.047,1.047,0,1,1-1.047-1.046A1.047,1.047,0,0,1,68.974,185.713Z" transform="translate(-63.868 -173.594)" fill="#9ce5e5"/>
        <path id="Trazado_263640" data-name="Trazado 263640" d="M94.364,182.383a1.888,1.888,0,0,0-1.3-1.73,2.572,2.572,0,0,0,1.287-2.1,2.749,2.749,0,0,0-2.865-2.491h-5.35a.874.874,0,0,1-.828-1.157c.4-1.156,1.193-2.679,1.193-3.753a4.114,4.114,0,0,0-1.358-3.574,1.464,1.464,0,0,0-1.334-.318,1.565,1.565,0,0,0-.917,1.071,9.668,9.668,0,0,0-.228,1.446,5.9,5.9,0,0,1-.937,2.4,11.671,11.671,0,0,1-1.9,1.832,6.523,6.523,0,0,0-1.4,2.172,2.949,2.949,0,0,1-2.724,1.827h-1.03v13.432H89.616c1.2,0,2.49-.776,2.49-1.919a1.991,1.991,0,0,0-.783-1.651s1.942-.45,1.942-1.614a2.012,2.012,0,0,0-.842-1.683S94.364,183.707,94.364,182.383Z" transform="translate(-66.716 -167.208)" fill="#fff"/>
      </g>
    </g>
    <g id="Grupo_128039" data-name="Grupo 128039" transform="translate(-2.738 97.385)">
      <rect id="Rectángulo_44063" data-name="Rectángulo 44063" width="49.016" height="21.585" rx="2.678" fill="#9ce5e5"/>
      <g id="Grupo_128038" data-name="Grupo 128038" transform="translate(7.592 4.181)">
        <g id="Grupo_128037" data-name="Grupo 128037" transform="translate(7.192 0.379)">
          <path id="Trazado_263641" data-name="Trazado 263641" d="M49.367,124.548H25a1.136,1.136,0,0,1-1.137-1.137h0A1.136,1.136,0,0,1,25,122.275H49.367a1.136,1.136,0,0,1,1.137,1.137h0A1.136,1.136,0,0,1,49.367,124.548Z" transform="translate(-23.865 -122.275)" fill="#fff"/>
          <path id="Trazado_263642" data-name="Trazado 263642" d="M49.367,132.584H25a1.136,1.136,0,0,1-1.137-1.137h0A1.136,1.136,0,0,1,25,130.311H49.367a1.136,1.136,0,0,1,1.137,1.137h0A1.136,1.136,0,0,1,49.367,132.584Z" transform="translate(-23.865 -125.214)" fill="#fff"/>
          <path id="Trazado_263643" data-name="Trazado 263643" d="M41.081,140.62H25a1.136,1.136,0,0,1-1.137-1.137h0A1.137,1.137,0,0,1,25,138.347h16.08a1.137,1.137,0,0,1,1.137,1.137h0A1.136,1.136,0,0,1,41.081,140.62Z" transform="translate(-23.865 -128.154)" fill="#fff"/>
        </g>
        <path id="Trazado_263644" data-name="Trazado 263644" d="M15.556,123.193a1.515,1.515,0,1,1-1.515-1.515A1.515,1.515,0,0,1,15.556,123.193Z" transform="translate(-12.525 -121.678)" fill="#fff"/>
        <path id="Trazado_263645" data-name="Trazado 263645" d="M15.556,131.229a1.515,1.515,0,1,1-1.515-1.515A1.515,1.515,0,0,1,15.556,131.229Z" transform="translate(-12.525 -124.617)" fill="#fff"/>
        <path id="Trazado_263646" data-name="Trazado 263646" d="M15.556,139.265a1.515,1.515,0,1,1-1.515-1.515A1.515,1.515,0,0,1,15.556,139.265Z" transform="translate(-12.525 -127.557)" fill="#fff"/>
      </g>
    </g>
  </g>
</svg>
