<svg xmlns="http://www.w3.org/2000/svg" width="52" height="52" viewBox="0 0 52 52">
  <g id="Grupo_128335" data-name="Grupo 128335" transform="translate(-358 -6439.651)">
    <path id="Trazado_265096" data-name="Trazado 265096" d="M26,0A26,26,0,1,1,0,26,26,26,0,0,1,26,0Z" transform="translate(358 6439.651)" fill="#fece16"/>
    <path id="Trazado_265097" data-name="Trazado 265097" d="M1.318,32V30.315a9.844,9.844,0,0,1,.439-3.105,7.8,7.8,0,0,1,1.384-2.476,21.325,21.325,0,0,1,3.289-2.974,24.386,24.386,0,0,0,2.219-1.9,4.754,4.754,0,0,0,.82-1.121,2.584,2.584,0,0,0,.271-1.172q0-2.095-2.52-2.095a7.561,7.561,0,0,0-4.849,1.86V12.225a14.692,14.692,0,0,1,3.259-1.23,13.735,13.735,0,0,1,3.113-.352,7.8,7.8,0,0,1,5.3,1.641,5.788,5.788,0,0,1,1.875,4.6,7.17,7.17,0,0,1-.981,3.853,11.63,11.63,0,0,1-3.647,3.3,24.132,24.132,0,0,0-2.7,1.926A1.712,1.712,0,0,0,7.91,26.99h8.2V32Z" transform="translate(376 6447)" fill="#12263f"/>
  </g>
</svg>
