<svg xmlns="http://www.w3.org/2000/svg" xmlns:xlink="http://www.w3.org/1999/xlink" width="202.555" height="355.966" viewBox="0 0 202.555 355.966">
  <defs>
    <radialGradient id="radial-gradient" cx="0.503" cy="0.057" r="0.568" gradientTransform="translate(-0.097) scale(1.194 1)" gradientUnits="objectBoundingBox">
      <stop offset="0.022" stop-color="#ffa874"/>
      <stop offset="1" stop-color="#f49372"/>
    </radialGradient>
    <linearGradient id="linear-gradient" x1="0.5" y1="1" x2="0.5" gradientUnits="objectBoundingBox">
      <stop offset="0.022" stop-color="#d4634d"/>
      <stop offset="1" stop-color="#a94d61"/>
    </linearGradient>
    <radialGradient id="radial-gradient-2" cx="0.503" cy="0.057" r="2.98" gradientTransform="translate(0.453) scale(0.093 1)" gradientUnits="objectBoundingBox">
      <stop offset="0" stop-color="#ffcf84"/>
      <stop offset="0.978" stop-color="#ffb88b"/>
    </radialGradient>
    <radialGradient id="radial-gradient-3" cx="0.503" cy="0.057" r="3.348" gradientTransform="translate(0.459) scale(0.083 1)" gradientUnits="objectBoundingBox">
      <stop offset="0.022" stop-color="#bd4d4d"/>
      <stop offset="1" stop-color="#9f3e54"/>
    </radialGradient>
    <radialGradient id="radial-gradient-4" cx="0.503" cy="0.057" r="0.611" gradientTransform="translate(0.074) scale(0.852 1)" xlink:href="#linear-gradient"/>
    <radialGradient id="radial-gradient-5" cx="0.503" cy="0.057" r="0.854" gradientTransform="translate(0.298) scale(0.404 1)" xlink:href="#radial-gradient-2"/>
    <radialGradient id="radial-gradient-6" cx="0.503" cy="0.057" r="0.566" gradientTransform="translate(-0.113) scale(1.227 1)" xlink:href="#linear-gradient"/>
    <radialGradient id="radial-gradient-7" cx="0.503" cy="0.057" r="0.541" gradientTransform="translate(-0.413) scale(1.826 1)" xlink:href="#linear-gradient"/>
    <radialGradient id="radial-gradient-8" cx="0.503" cy="0.057" r="1.601" gradientTransform="translate(0.41) scale(0.181 1)" xlink:href="#radial-gradient-2"/>
    <radialGradient id="radial-gradient-9" cx="0.5" cy="0.5" r="2.767" gradientTransform="translate(0.436) scale(0.129 1)" xlink:href="#radial-gradient-2"/>
    <linearGradient id="linear-gradient-2" y1="0.5" x2="1" y2="0.5" gradientUnits="objectBoundingBox">
      <stop offset="0" stop-color="#d3b8d6"/>
      <stop offset="1" stop-color="#fff"/>
    </linearGradient>
    <linearGradient id="linear-gradient-5" x1="0.5" y1="1" x2="0.5" gradientUnits="objectBoundingBox">
      <stop offset="0.032" stop-color="#f7e8e8"/>
      <stop offset="1" stop-color="#fff2e3"/>
    </linearGradient>
    <radialGradient id="radial-gradient-10" cx="0.503" cy="0.057" r="1.029" gradientTransform="translate(0.346) scale(0.308 1)" xlink:href="#radial-gradient"/>
    <radialGradient id="radial-gradient-11" cx="0.503" cy="0.057" r="1.034" gradientTransform="translate(0.347) scale(0.307 1)" xlink:href="#radial-gradient"/>
    <radialGradient id="radial-gradient-12" cx="0.503" cy="0.057" r="0.835" gradientTransform="translate(0.291) scale(0.419 1)" xlink:href="#linear-gradient"/>
    <radialGradient id="radial-gradient-13" cx="0.503" cy="0.057" r="3.186" gradientTransform="translate(0.456) scale(0.087 1)" xlink:href="#radial-gradient"/>
    <radialGradient id="radial-gradient-14" cx="0.5" cy="0.5" r="19.751" gradientTransform="translate(0.491) scale(0.018 1)" xlink:href="#radial-gradient-2"/>
    <radialGradient id="radial-gradient-15" cx="0.503" cy="0.057" r="5.622" gradientTransform="translate(0.476) scale(0.049 1)" xlink:href="#radial-gradient-2"/>
    <radialGradient id="radial-gradient-16" cx="0.5" cy="0.5" r="4.93" gradientTransform="translate(0.464) scale(0.072 1)" xlink:href="#radial-gradient"/>
    <linearGradient id="linear-gradient-8" x1="0.5" y1="1" x2="0.5" gradientUnits="objectBoundingBox">
      <stop offset="0.032" stop-color="#dcc3cc"/>
      <stop offset="1" stop-color="#f1e8f0"/>
    </linearGradient>
    <linearGradient id="linear-gradient-9" x1="0.5" y1="1" x2="0.5" gradientUnits="objectBoundingBox">
      <stop offset="0" stop-color="#a94d61"/>
      <stop offset="0.978" stop-color="#d4634d"/>
    </linearGradient>
    <radialGradient id="radial-gradient-17" cx="0.503" cy="0.057" r="1.226" gradientTransform="translate(0.377) scale(0.247 1)" xlink:href="#radial-gradient-2"/>
    <radialGradient id="radial-gradient-18" cx="0.503" cy="0.057" r="1.304" gradientTransform="translate(0.386) scale(0.229 1)" xlink:href="#radial-gradient-2"/>
    <radialGradient id="radial-gradient-19" cx="0.503" cy="0.057" r="0.711" gradientTransform="translate(0.217) scale(0.565 1)" xlink:href="#radial-gradient"/>
    <linearGradient id="linear-gradient-13" x1="0.564" y1="0.753" x2="0.496" y2="0.449" xlink:href="#linear-gradient-2"/>
    <radialGradient id="radial-gradient-20" cx="0.5" cy="0.5" r="1.115" gradientTransform="translate(0.333) scale(0.334 1)" xlink:href="#radial-gradient-2"/>
    <radialGradient id="radial-gradient-21" cx="0.5" cy="0.5" r="2.88" gradientTransform="translate(0.438) scale(0.124 1)" xlink:href="#radial-gradient"/>
    <radialGradient id="radial-gradient-22" cx="0.5" cy="0.5" r="0.563" gradientTransform="translate(0.096) scale(0.808 1)" xlink:href="#radial-gradient-2"/>
    <radialGradient id="radial-gradient-23" cx="0.5" cy="0.5" r="0.375" gradientTransform="translate(-0.919) scale(2.837 1)" xlink:href="#radial-gradient"/>
    <linearGradient id="linear-gradient-14" x1="0.5" y1="1" x2="0.5" y2="0" xlink:href="#linear-gradient-2"/>
    <linearGradient id="linear-gradient-15" x1="0" y1="0.5" x2="1" y2="0.5" xlink:href="#linear-gradient-9"/>
  </defs>
  <g id="Grupo_128336" data-name="Grupo 128336" transform="translate(-426 -6523.034)">
    <g id="Grupo_128280" data-name="Grupo 128280" transform="translate(-465.729 6983.787)">
      <path id="Trazado_264374" data-name="Trazado 264374" d="M945.608-217.958,932.472-184.88l66.187-5.653,19.812-34.457C982.039-238.09,945.608-217.958,945.608-217.958Zm17.557.352.923-2.093,36.817-2.77-.626,1.858Z" fill="#a23b58" fill-rule="evenodd"/>
      <path id="Trazado_264375" data-name="Trazado 264375" d="M983.42-179.793l70.1-8.684s.355,28.878-7.576,71.069l-58.092,12.621Z" fill-rule="evenodd" fill="url(#radial-gradient)"/>
      <path id="Trazado_264376" data-name="Trazado 264376" d="M983.42-179.793,929.252-185.2a354.329,354.329,0,0,0,11.5,69.958l47.1,10.457Z" fill-rule="evenodd" fill="url(#linear-gradient)"/>
      <path id="Trazado_264377" data-name="Trazado 264377" d="M932.472-184.88l67.076-6.211,53.975,2.614-70.1,8.685Z" fill-rule="evenodd" fill="url(#radial-gradient-2)"/>
      <path id="Trazado_264378" data-name="Trazado 264378" d="M935.191-185.2l46.844,4.229,67.377-8.556-49.283-.9Z" fill-rule="evenodd" fill="url(#radial-gradient-3)"/>
      <path id="Trazado_264379" data-name="Trazado 264379" d="M983.42-179.793l-22.856-19.473v1.623l21.326,17.85Z" fill-rule="evenodd" fill="url(#radial-gradient-4)"/>
      <path id="Trazado_264380" data-name="Trazado 264380" d="M960.563-199.265l14.985-7.934-5.009-5.7a91.712,91.712,0,0,1,36.5-4.077l4.566,4.174,18.081,2.085,23.833,22.236-70.1,8.684Z" fill-rule="evenodd" fill="url(#radial-gradient-5)"/>
      <path id="Trazado_264381" data-name="Trazado 264381" d="M970.539-212.895v1.85l4.162,4.3.848-.449Z" fill-rule="evenodd" fill="url(#radial-gradient-6)"/>
      <path id="Trazado_264382" data-name="Trazado 264382" d="M929.252-185.2l3.221.322,14.889-32.145-1.755-.931Z" fill-rule="evenodd" fill="url(#radial-gradient-7)"/>
      <path id="Trazado_264383" data-name="Trazado 264383" d="M947.361-217.025s36.3-20.615,71.112-7.963l-1.515-1.5s-29.584-12.561-71.352,8.535Z" fill-rule="evenodd" fill="url(#radial-gradient-8)"/>
      <path id="Trazado_264384" data-name="Trazado 264384" d="M963.57-218.525l34.817-2.617.529-1.177,1.989-.15-.625,1.857-37.115,3.005Z" fill-rule="evenodd" fill="url(#radial-gradient-9)"/>
      <path id="Trazado_264385" data-name="Trazado 264385" d="M998.387-221.142l1.893.531.625-1.857-1.989.15Z" fill="#c34c58" fill-rule="evenodd"/>
      <path id="Trazado_264386" data-name="Trazado 264386" d="M932.472-184.88l31.618-9.81,17.8,14.9Z" fill="#e2705b" fill-rule="evenodd"/>
      <path id="Trazado_264387" data-name="Trazado 264387" d="M1045.947-117.408s-17.555-10.1-29.853-8.654-28.239,21.275-28.239,21.275Z" fill-rule="evenodd" opacity="0.5" fill="url(#linear-gradient-2)" style="mix-blend-mode: multiply;isolation: isolate"/>
      <path id="Trazado_264388" data-name="Trazado 264388" d="M987.855-104.787s-25.363-10.238-30.674-10.708-16.429.251-16.429.251Z" fill-rule="evenodd" opacity="0.5" fill="url(#linear-gradient-2)" style="mix-blend-mode: multiply;isolation: isolate"/>
      <path id="Trazado_264389" data-name="Trazado 264389" d="M932.472-184.88s16.878,11.939,23.727,13.742,25.69-8.655,25.69-8.655Z" fill-rule="evenodd" opacity="0.5" fill="url(#linear-gradient-2)" style="mix-blend-mode: multiply;isolation: isolate"/>
      <path id="Trazado_264390" data-name="Trazado 264390" d="M932.472-184.88l35.918-6.211-4.3-3.6Z" fill="#791b40" fill-rule="evenodd" opacity="0.29"/>
      <path id="Trazado_264391" data-name="Trazado 264391" d="M983.42-179.793l4.435,75.006S983.063-133.087,983.42-179.793Z" fill="#df7668" fill-rule="evenodd"/>
      <path id="Trazado_264392" data-name="Trazado 264392" d="M988.886-180.47s44.774-2.515,64.637-8.007Z" fill="#ffc88b" fill-rule="evenodd"/>
      <g id="Grupo_128275" data-name="Grupo 128275" opacity="0.5" style="mix-blend-mode: multiply;isolation: isolate">
        <path id="Trazado_264393" data-name="Trazado 264393" d="M998.5-169.076c.111.6.416.92,1.116.779a.792.792,0,0,0,.635-.956,1.01,1.01,0,0,0-1.066-.816A.908.908,0,0,0,998.5-169.076Z" fill="#e3d9d2" fill-rule="evenodd"/>
        <path id="Trazado_264394" data-name="Trazado 264394" d="M1015.45-162.313a1.4,1.4,0,0,1,1.345-1.1,2.1,2.1,0,0,1,1.38.356,1.033,1.033,0,0,1,.541,1.242,2.231,2.231,0,0,1-.417.646c-.219.176-.657.059-.905.017a1.531,1.531,0,0,1-.931-.52C1016.18-161.933,1015.428-161.724,1015.45-162.313Z" fill="#e3d9d2" fill-rule="evenodd"/>
        <path id="Trazado_264395" data-name="Trazado 264395" d="M998.945-171.659c-.391.161-.949.764-.38,1.015a2.4,2.4,0,0,0,1.522-.239c1.056-.81-.617-1.506-1.3-.653Z" fill="#e3d9d2" fill-rule="evenodd"/>
        <path id="Trazado_264396" data-name="Trazado 264396" d="M999.453-166.482c.385-.676,1.087.1.629.482a.437.437,0,0,1-.707-.334Z" fill="#e3d9d2" fill-rule="evenodd"/>
        <path id="Trazado_264397" data-name="Trazado 264397" d="M1000.5-169.049c.256-.451.725.064.419.321a.291.291,0,0,1-.471-.222Z" fill="#e3d9d2" fill-rule="evenodd"/>
        <path id="Trazado_264398" data-name="Trazado 264398" d="M999.49-131.551c-.88,1.187.734,2.575,1.372,1.142.341-.766-.319-1.7-1.067-1.142Z" fill="#e3d9d2" fill-rule="evenodd"/>
        <path id="Trazado_264399" data-name="Trazado 264399" d="M992.115-170.556c-.117-.229-.227-.168-.352-.023-.21.244-.07.3.077.482.327.412.617.4,1.065.113.361-.231.967-.868.315-1.186a1.114,1.114,0,0,0-1.029.272Z" fill="#e3d9d2" fill-rule="evenodd"/>
        <path id="Trazado_264400" data-name="Trazado 264400" d="M990.668-170.1c-.066-.585.8.169.422.487-.322.269-.525-.292-.422-.525Z" fill="#e3d9d2" fill-rule="evenodd"/>
        <path id="Trazado_264401" data-name="Trazado 264401" d="M992.419-172.117c.243.387.74-.156.564-.411-.211-.3-.519.19-.6.335Z" fill="#e3d9d2" fill-rule="evenodd"/>
        <path id="Trazado_264402" data-name="Trazado 264402" d="M993.17-122.755c.145-.482.739-.036.811.273a.917.917,0,0,1-.733,1.04c-.7.068-.892-1.029-.268-1.275Z" fill="#e3d9d2" fill-rule="evenodd"/>
        <path id="Trazado_264403" data-name="Trazado 264403" d="M999.757-121.88c-.418.61,1,.74.99.048-.01-.548-.829-.548-.99-.086Z" fill="#e3d9d2" fill-rule="evenodd"/>
        <path id="Trazado_264404" data-name="Trazado 264404" d="M993.855-133.835a.572.572,0,0,1,.541-.872c.576.084.588.881.394,1.275a.634.634,0,1,1-1.125-.555Z" fill="#e3d9d2" fill-rule="evenodd"/>
        <path id="Trazado_264405" data-name="Trazado 264405" d="M992.267-178.133c-.506,1.2,1.456.778,1.563-.188C993.96-179.487,992.412-179.181,992.267-178.133Z" fill="#e3d9d2" fill-rule="evenodd"/>
        <path id="Trazado_264406" data-name="Trazado 264406" d="M1018.61-163.926c-.558.76.9,1.13,1.019.174a.768.768,0,0,0-1.178-.1Z" fill="#e3d9d2" fill-rule="evenodd"/>
        <path id="Trazado_264407" data-name="Trazado 264407" d="M1011.009-154.742a4,4,0,0,1,5.268-1.027c.442.3,1.07.846.545,1.337-.457.428-2.646.007-3.26.007A6.153,6.153,0,0,1,1011.009-154.742Z" fill="#e3d9d2" fill-rule="evenodd"/>
        <path id="Trazado_264408" data-name="Trazado 264408" d="M1006.733-155.534c.1.7,1.334.457,1.153-.121-.121-.384-.795-.482-.915-.116Z" fill="#e3d9d2" fill-rule="evenodd"/>
        <path id="Trazado_264409" data-name="Trazado 264409" d="M981.328-189.921c-.23,1.085,1.152.867,1.148-.006,0-.723-.947-.976-1.148-.223Z" fill="#e3d9d2" fill-rule="evenodd"/>
        <path id="Trazado_264410" data-name="Trazado 264410" d="M990.82-159.857a.767.767,0,0,1,.451-.345c.711.942-.873,1.577-.451.459Z" fill="#e3d9d2" fill-rule="evenodd"/>
        <path id="Trazado_264411" data-name="Trazado 264411" d="M983.4-211.989c-1.1,2.808,3.529.853,4.2-.445.7-1.345-1.073-1.567-2.067-1.387A2.443,2.443,0,0,0,983.4-211.989Z" fill="#e3d9d2" fill-rule="evenodd"/>
        <path id="Trazado_264412" data-name="Trazado 264412" d="M987.734-211.314c.112-.624,1.282-1.165,1.137-.216-.081.531-.832.879-1.041.312Z" fill="#e3d9d2" fill-rule="evenodd"/>
        <path id="Trazado_264413" data-name="Trazado 264413" d="M1025.785-187.839c-1.16,1.619,3.7,1.638,3.922.025.231-1.659-3.487-1.093-4.022-.126Z" fill="#e3d9d2" fill-rule="evenodd"/>
        <path id="Trazado_264414" data-name="Trazado 264414" d="M1029.192-189.744c.1-1,1.49-.564,1.195.043-.241.5-.944.138-1.195-.143Z" fill="#e3d9d2" fill-rule="evenodd"/>
        <path id="Trazado_264415" data-name="Trazado 264415" d="M1032.9-188.541a3.088,3.088,0,0,0,1.293-.308c-.111-.9-1.235-.7-1.5.007.04.143.134.117.21.2Z" fill="#e3d9d2" fill-rule="evenodd"/>
        <path id="Trazado_264416" data-name="Trazado 264416" d="M1010.048-203.447c-.009-.38.1-.57.481-.587.47.387.351,1.142-.281.988Z" fill="#e3d9d2" fill-rule="evenodd"/>
        <path id="Trazado_264417" data-name="Trazado 264417" d="M1008.9-163.583c-1.736,1.462,2,1.025.317.211Z" fill="#e3d9d2" fill-rule="evenodd"/>
        <path id="Trazado_264418" data-name="Trazado 264418" d="M1001.507-159.651c-.427.437-.264,1.344.5,1.017.582-.249.451-1.269-.261-.938Z" fill="#e3d9d2" fill-rule="evenodd"/>
        <path id="Trazado_264419" data-name="Trazado 264419" d="M1004.991-157.276c.139-.482.748-.489.719,0-.025.41-.431.365-.56.082Z" fill="#e3d9d2" fill-rule="evenodd"/>
        <path id="Trazado_264420" data-name="Trazado 264420" d="M1040.481-131.679c.112.6.416.92,1.117.779a.79.79,0,0,0,.634-.955,1.01,1.01,0,0,0-1.066-.817A.91.91,0,0,0,1040.481-131.679Z" fill="#e3d9d2" fill-rule="evenodd"/>
        <path id="Trazado_264421" data-name="Trazado 264421" d="M1013.038-203.352a1.4,1.4,0,0,1,1.345-1.1,2.1,2.1,0,0,1,1.38.356,1.033,1.033,0,0,1,.541,1.242,2.25,2.25,0,0,1-.417.647c-.219.175-.657.058-.905.016a1.531,1.531,0,0,1-.931-.52C1013.768-202.972,1013.016-202.763,1013.038-203.352Z" fill="#e3d9d2" fill-rule="evenodd"/>
        <path id="Trazado_264422" data-name="Trazado 264422" d="M1040.927-134.261c-.391.16-.95.764-.38,1.015a2.4,2.4,0,0,0,1.521-.24c1.057-.81-.616-1.506-1.3-.653Z" fill="#e3d9d2" fill-rule="evenodd"/>
        <path id="Trazado_264423" data-name="Trazado 264423" d="M1041.435-129.084c.385-.676,1.087.1.628.481a.436.436,0,0,1-.706-.333Z" fill="#e3d9d2" fill-rule="evenodd"/>
        <path id="Trazado_264424" data-name="Trazado 264424" d="M1042.478-131.652c.256-.451.724.064.419.321a.292.292,0,0,1-.472-.222Z" fill="#e3d9d2" fill-rule="evenodd"/>
        <path id="Trazado_264425" data-name="Trazado 264425" d="M1029.439-129.717c-.88,1.186.734,2.574,1.372,1.142.341-.767-.319-1.7-1.067-1.142Z" fill="#e3d9d2" fill-rule="evenodd"/>
        <path id="Trazado_264426" data-name="Trazado 264426" d="M1032.1-126.291c-.117-.228-.227-.168-.352-.022-.21.243-.07.3.077.481.327.412.617.4,1.065.113.361-.231.967-.868.315-1.186a1.114,1.114,0,0,0-1.029.272Z" fill="#e3d9d2" fill-rule="evenodd"/>
        <path id="Trazado_264427" data-name="Trazado 264427" d="M1030.658-125.834c-.066-.585.8.169.422.487-.322.269-.525-.292-.422-.525Z" fill="#e3d9d2" fill-rule="evenodd"/>
        <path id="Trazado_264428" data-name="Trazado 264428" d="M1032.409-127.852c.243.387.74-.156.564-.411-.211-.3-.519.191-.6.335Z" fill="#e3d9d2" fill-rule="evenodd"/>
        <path id="Trazado_264429" data-name="Trazado 264429" d="M984.67-200.9c-.417.61,1,.74.991.048-.01-.548-.83-.548-.991-.086Z" fill="#e3d9d2" fill-rule="evenodd"/>
        <path id="Trazado_264430" data-name="Trazado 264430" d="M1032.257-133.868c-.506,1.2,1.456.778,1.563-.188C1033.95-135.222,1032.4-134.916,1032.257-133.868Z" fill="#e3d9d2" fill-rule="evenodd"/>
        <path id="Trazado_264431" data-name="Trazado 264431" d="M1016.2-204.965c-.557.76.9,1.13,1.02.174a.768.768,0,0,0-1.178-.1Z" fill="#e3d9d2" fill-rule="evenodd"/>
        <path id="Trazado_264432" data-name="Trazado 264432" d="M1008.6-195.781a4.005,4.005,0,0,1,5.269-1.027c.442.3,1.07.846.545,1.337-.457.428-2.646.007-3.26.007A6.158,6.158,0,0,1,1008.6-195.781Z" fill="#e3d9d2" fill-rule="evenodd"/>
        <path id="Trazado_264433" data-name="Trazado 264433" d="M1001.687-192.127c.1.7,1.334.456,1.153-.122-.121-.383-.8-.482-.915-.115Z" fill="#e3d9d2" fill-rule="evenodd"/>
        <path id="Trazado_264434" data-name="Trazado 264434" d="M985.774-196.45a.767.767,0,0,1,.451-.345c.711.942-.873,1.576-.451.459Z" fill="#e3d9d2" fill-rule="evenodd"/>
        <path id="Trazado_264435" data-name="Trazado 264435" d="M1045.393-139.378c-1.736,1.462,2,1.025.317.211Z" fill="#e3d9d2" fill-rule="evenodd"/>
        <path id="Trazado_264436" data-name="Trazado 264436" d="M996.462-196.244c-.428.437-.265,1.344.5,1.017.582-.249.451-1.269-.261-.938Z" fill="#e3d9d2" fill-rule="evenodd"/>
        <path id="Trazado_264437" data-name="Trazado 264437" d="M999.945-193.869c.139-.482.748-.489.719,0-.025.41-.431.365-.56.081Z" fill="#e3d9d2" fill-rule="evenodd"/>
        <path id="Trazado_264438" data-name="Trazado 264438" d="M971.06-177.676a1.735,1.735,0,0,0,.619-.6c-.414-.357-.435-.079-.619.26Z" fill="#e3d9d2" fill-rule="evenodd"/>
      </g>
      <g id="Grupo_128276" data-name="Grupo 128276">
        <path id="Trazado_264439" data-name="Trazado 264439" d="M1013.827-118.832l-1.5-15.793,23.088-2.475-1.108,14.316Z" fill-rule="evenodd" fill="url(#linear-gradient-5)"/>
        <path id="Trazado_264440" data-name="Trazado 264440" d="M1015.67-132.192l17.368-2.233-.18,2.509-16.817,2.317Z" fill="#c1748d" fill-rule="evenodd" opacity="0.5" style="mix-blend-mode: multiply;isolation: isolate"/>
        <path id="Trazado_264441" data-name="Trazado 264441" d="M1017.853-124.158l13.041-1.548v.587l-12.924,1.781Z" fill="#c1748d" fill-rule="evenodd" opacity="0.5" style="mix-blend-mode: multiply;isolation: isolate"/>
        <path id="Trazado_264442" data-name="Trazado 264442" d="M1020.826-129.392l.391,3.965,7.279-.793.371-4.165Z" fill="#c1748d" fill-rule="evenodd" opacity="0.3" style="mix-blend-mode: multiply;isolation: isolate"/>
      </g>
      <g id="Grupo_128278" data-name="Grupo 128278">
        <ellipse id="Elipse_6256" data-name="Elipse 6256" cx="14.339" cy="17.847" rx="14.339" ry="17.847" transform="translate(1005.773 -176.958)" fill="url(#linear-gradient-5)"/>
        <ellipse id="Elipse_6257" data-name="Elipse 6257" cx="11.85" cy="14.749" rx="11.85" ry="14.749" transform="translate(1009.25 -173.86)" fill="#ff7968" opacity="0.5" style="mix-blend-mode: multiply;isolation: isolate"/>
        <g id="Grupo_128277" data-name="Grupo 128277" opacity="0.5" style="mix-blend-mode: multiply;isolation: isolate">
          <path id="Trazado_264443" data-name="Trazado 264443" d="M1021.1-173.36c6.258,0,11.35,6.392,11.35,14.249s-5.092,14.249-11.35,14.249-11.35-6.392-11.35-14.249,5.092-14.249,11.35-14.249Zm0-.5c-6.544,0-11.85,6.6-11.85,14.749s5.306,14.749,11.85,14.749,11.85-6.6,11.85-14.749-5.306-14.749-11.85-14.749Z" fill="#c1748d"/>
        </g>
      </g>
      <g id="Grupo_128279" data-name="Grupo 128279">
        <path id="Trazado_264444" data-name="Trazado 264444" d="M1016.424-160.141l.333-.039v.772l-.362.041-.167.019-.189.022-.1.012-.106.012a12.45,12.45,0,0,0-1.239.281l-.1-.753.073-.016v-1.034q0-.663-.021-1.7t-.022-1.709q0-.263.021-.658.021-.45.029-.659l.718-.067v.232c0,.072-.01.247-.029.527-.01.212-.015.393-.015.542q0,.67.022,1.706t.022,1.705v.926q.3-.064.536-.092l.108-.013.1-.012.2-.022Z" fill="#fff"/>
        <path id="Trazado_264445" data-name="Trazado 264445" d="M1018.633-165.453a3.906,3.906,0,0,1,.224,1.039A18.507,18.507,0,0,1,1019-162.2q0,2.645-.964,2.755-1.2.137-1.2-3.395,0-3.086,1.421-3.248a1.738,1.738,0,0,1,.572.182Zm-.681.332a4.093,4.093,0,0,0-.384,2.2,12.463,12.463,0,0,0,.073,1.388,2.225,2.225,0,0,0,.384,1.305,4.785,4.785,0,0,0,.253-1.887q0-.609-.073-1.465A6.135,6.135,0,0,0,1017.952-165.121Z" fill="#fff"/>
        <path id="Trazado_264446" data-name="Trazado 264446" d="M1020.735-162.123q.254.619.514,1.229a10.394,10.394,0,0,0,.617,1.187l-.623.472a13.919,13.919,0,0,1-.907-1.84q.043.69.044,1.006v.385l-.724.083v-.385q0-.186-.058-1.282-.015-.3,0-1.2a8.321,8.321,0,0,0-.044-1.2,14.534,14.534,0,0,1-.087-1.555v-.039c0-.062,0-.124.008-.186l-.124-.287.174-.1.036-.181.232.027a1.624,1.624,0,0,1,.58-.205q1.066-.121,1.066,1.652A5.026,5.026,0,0,1,1020.735-162.123Zm-.412-.739a3.686,3.686,0,0,0,.391-1.6q0-1-.341-.964a.77.77,0,0,0-.181.052q0,.4.069,1.238C1020.306-163.574,1020.327-163.15,1020.323-162.862Z" fill="#fff"/>
        <path id="Trazado_264447" data-name="Trazado 264447" d="M1022.583-159.935l-.1.211-.29-.136-.065.007-.015-.06-.268-.123q.072-.146.2-.384-.021-.221-.021-1.112c0-.41-.005-.787-.015-1.129l-.152-.306c.046-.03.086-.058.123-.083v-.139q-.033-.573-.1-1.072v-2.025l.365-.042a1.928,1.928,0,0,0,.263-.053,1.992,1.992,0,0,1,.263-.053,2.791,2.791,0,0,1,.416,0,2.871,2.871,0,0,0,.424-.007l.365-.041v.771a4.348,4.348,0,0,1-.842.058,2.02,2.02,0,0,0-.369,0c-.048.006-.1.015-.145.025v1.249c.034.31.063.648.087,1.016.1-.021.318-.052.659-.091a2.841,2.841,0,0,0,.506-.15l.169.729a3.5,3.5,0,0,1-.74.2c-.29.033-.473.059-.55.078v1.874c.081-.014.234-.047.456-.1a3.655,3.655,0,0,1,.471-.093l.363-.041v.771l-.363.041a4.779,4.779,0,0,0-.536.112A3.629,3.629,0,0,1,1022.583-159.935Z" fill="#fff"/>
        <path id="Trazado_264448" data-name="Trazado 264448" d="M1027.416-166.9a1.14,1.14,0,0,0-.036.359c0,.385.025.9.073,1.541q.051.666.051,1.553,0,.447-.019,1.336t-.017,1.321v.385l-.725.083v-.385q0-.432.018-1.314t.018-1.328q0-.857-.051-1.506l-.021-.275q-.176.722-.4,1.934c.055.169.1.318.128.449l-.217.079-.036.182-.355-.037-.094.034-.007-.046-.254-.025q.036-.2.1-.551-.123-.434-.319-1.036c.02.333.031.6.036.806.024.177.054.454.087.831.01.256.007.57-.006.941q-.023.681-.023.913v.386l-.725.082v-.385c0-.15.008-.451.023-.9q.021-.543.007-.919-.038-.258-.087-.846-.008-.339-.058-1.381-.043-.867-.044-1.383,0-.348.015-.65l-.036-.15.7-.282.061.241h.007v.023l.026.1q.122.479.325,1.066.254.758.311.952a11.765,11.765,0,0,1,.485-1.683,4.245,4.245,0,0,0,.173-.79l.239.01q.015-.031.145-.348l.658.257Z" fill="#fff"/>
        <path id="Trazado_264449" data-name="Trazado 264449" d="M1016.274-156.206q.03.42.088,1.293a4.4,4.4,0,0,0,.065.583,4.844,4.844,0,0,1,.065.544c.009.215.017.458.022.729v.926q0,.439.021.792.044.782.044.882v.385l-.725.083v-.385c0-.052-.015-.33-.044-.836q-.013-.244-.021-1.717c-.005-.272-.012-.516-.021-.73q-.051-.342-.131-1.127-.038-.558-.109-1.661l.718-.136Z" fill="#fff"/>
        <path id="Trazado_264450" data-name="Trazado 264450" d="M1017.064-156.443l.341-.409.152.144a2,2,0,0,1,.457-.114.691.691,0,0,1,.782.4,2.407,2.407,0,0,1,.146.962q0,.662-.073,1.5a4.768,4.768,0,0,1-.268,1.455,1.5,1.5,0,0,1-.645.567,4.447,4.447,0,0,1-.008,1.064,1.022,1.022,0,0,0-.007.309c.02.111.041.224.065.339l-.717.228a3.156,3.156,0,0,1-.058-.547,2.566,2.566,0,0,1,.018-.272,2.669,2.669,0,0,0,.019-.279c0-.057,0-.118-.008-.184q-.1-1.229-.1-1.591,0-.431-.037-1.359-.036-.88-.036-1.351l-.014.009-.348-.638Zm.827,3.7a.461.461,0,0,0,.174-.32c.014-.254.031-.507.05-.762q.1-1.268.1-1.554c0-.226,0-.362-.008-.407-.024-.188-.089-.276-.2-.263a.916.916,0,0,0-.2.046v.108Q1017.8-154.854,1017.891-152.744Z" fill="#fff"/>
        <path id="Trazado_264451" data-name="Trazado 264451" d="M1020.652-156.452a1.516,1.516,0,0,0-.573,1.2,3.892,3.892,0,0,0,.362,1.37,4.026,4.026,0,0,1,.363,1.485,2.647,2.647,0,0,1-.326,1.31,5.524,5.524,0,0,1-.848,1.038l-.464-.533a5.265,5.265,0,0,0,.652-.761,1.837,1.837,0,0,0,.261-.971,3.879,3.879,0,0,0-.363-1.374,4.01,4.01,0,0,1-.362-1.481,2.209,2.209,0,0,1,.334-1.2,4.181,4.181,0,0,1,.84-.921l.421.584Z" fill="#fff"/>
        <path id="Trazado_264452" data-name="Trazado 264452" d="M1022.244-151.459a2.152,2.152,0,0,0,.184-.978c0-.1-.005-.251-.015-.446s-.015-.332-.015-.414q0-.363-.058-1.077c-.039-.477-.058-.835-.058-1.077v-.347a4.694,4.694,0,0,0,0-.532v-.779l.725-.083v.7a3.1,3.1,0,0,1,.021.591q-.029.459-.021.6.13,2.091.13,2.662,0,1.581-.69,2a.613.613,0,0,1-.238.081q-.489.056-.732-.772a7.191,7.191,0,0,1-.209-1.681l-.015-1.278q-.072-2.028-.072-1.9v-.956l.724-.083v.956q0,.417.035,1.431.036.906.029,1.423a5.2,5.2,0,0,0,.254,1.915Z" fill="#fff"/>
        <path id="Trazado_264453" data-name="Trazado 264453" d="M1026.521-157.54a1.115,1.115,0,0,0-.036.359c0,.385.024.9.073,1.542q.051.665.05,1.552,0,.447-.018,1.336t-.018,1.321v.385l-.725.083v-.385q0-.432.019-1.313t.017-1.329q0-.856-.05-1.506l-.022-.275q-.176.722-.4,1.934c.056.169.1.318.129.449l-.218.079-.036.182-.355-.037-.094.034-.007-.046-.254-.025q.036-.2.1-.551-.125-.433-.319-1.036c.019.333.031.6.035.806q.038.266.088.831.014.384-.007.941-.023.681-.022.913v.386l-.725.082v-.385c0-.149.008-.451.022-.9.015-.361.017-.668.007-.919-.024-.171-.053-.454-.086-.846q-.008-.339-.059-1.381-.043-.867-.043-1.383c0-.232,0-.448.014-.65l-.036-.15.7-.282.061.241h.007v.023l.026.1q.123.479.325,1.066.254.757.312.952a11.646,11.646,0,0,1,.484-1.683,4.308,4.308,0,0,0,.174-.79l.238.011c.01-.022.059-.138.145-.349l.659.257Z" fill="#fff"/>
      </g>
    </g>
    <g id="Grupo_128284" data-name="Grupo 128284" transform="translate(-465.729 6983.787)">
      <path id="Trazado_264546" data-name="Trazado 264546" d="M980.2-280.927l-3.715-26.547,103.137-5.249L1072-287.387Z" fill-rule="evenodd" fill="url(#radial-gradient-10)"/>
      <path id="Trazado_264547" data-name="Trazado 264547" d="M1078.311-314.033l-8.1-25.529-87.433-.413-6.3,31.214Z" fill-rule="evenodd" fill="url(#radial-gradient-11)"/>
      <path id="Trazado_264548" data-name="Trazado 264548" d="M982.781-339.975l-65.56,2.739L901.905-306.1l74.575-2.664Z" fill-rule="evenodd" fill="url(#radial-gradient-12)"/>
      <path id="Trazado_264549" data-name="Trazado 264549" d="M980.2-280.927l-71.868-3.694-7.144-21.115,75.3-1.738Z" fill="#9c3b58" fill-rule="evenodd"/>
      <path id="Trazado_264550" data-name="Trazado 264550" d="M1078.311-314.033l12.737,1.116v1.845l-121.041,7.586v-4.625l6.474-.651Z" fill-rule="evenodd" fill="url(#radial-gradient-13)"/>
      <path id="Trazado_264551" data-name="Trazado 264551" d="M970.007-308.11l-78.278,1.474.814,2.75,77.464.4Z" fill="#a74561" fill-rule="evenodd"/>
      <path id="Trazado_264552" data-name="Trazado 264552" d="M976.869-310.393l-72.946.816-12.193,2.942,78.278-1.474Z" fill="#e2705b" fill-rule="evenodd"/>
      <path id="Trazado_264553" data-name="Trazado 264553" d="M1078.592-309.314,976.987-303.86l.9,6.427,99.4-7.529Z" fill="#791b40" fill-rule="evenodd" opacity="0.5"/>
      <path id="Trazado_264554" data-name="Trazado 264554" d="M1070.214-339.562,982.081-338.2l-64.86.967,65.56-2.739Z" fill-rule="evenodd" fill="url(#radial-gradient-14)"/>
      <path id="Trazado_264555" data-name="Trazado 264555" d="M980.788-338.2l-.328,9.729,3.186-9.729Z" fill="#df7668" fill-rule="evenodd"/>
      <path id="Trazado_264556" data-name="Trazado 264556" d="M967.75-308.009l2.258,1.727,1.612-2.479Z" fill="#df7668" fill-rule="evenodd"/>
      <path id="Trazado_264557" data-name="Trazado 264557" d="M970.007-308.11s69.619-3.92,121.041-4.807l-12.737-1.116-101.442,3.64-6.862,2.283Z" fill-rule="evenodd" fill="url(#radial-gradient-15)"/>
      <path id="Trazado_264558" data-name="Trazado 264558" d="M1072-287.387s-45.855-5.206-91.8,6.46Z" fill-rule="evenodd" opacity="0.5" fill="url(#linear-gradient-2)" style="mix-blend-mode: multiply;isolation: isolate"/>
      <path id="Trazado_264559" data-name="Trazado 264559" d="M1091.048-309.314l-.553,1.2-119.756,7.5-.731-2.875Z" fill-rule="evenodd" fill="url(#radial-gradient-16)"/>
      <path id="Trazado_264560" data-name="Trazado 264560" d="M1091.048-309.314l-4.06-1.5-116.981,7.332Z" fill="#a23b58" fill-rule="evenodd"/>
      <path id="Trazado_264561" data-name="Trazado 264561" d="M970.739-300.611l-78.052-1.518-.144-1.757,77.464.4Z" fill="#a74561" fill-rule="evenodd"/>
      <path id="Trazado_264562" data-name="Trazado 264562" d="M970.007-303.486l-77.464-.4,77.464-.357,10.942.119Z" fill="#7c2f4e" fill-rule="evenodd"/>
      <g id="Grupo_128283" data-name="Grupo 128283" opacity="0.5" style="mix-blend-mode: multiply;isolation: isolate">
        <path id="Trazado_264563" data-name="Trazado 264563" d="M1021.318-328.014c.111.592.412.912,1.106.772a.783.783,0,0,0,.628-.947A1,1,0,0,0,1022-329,.9.9,0,0,0,1021.318-328.014Z" fill="#e3d9d2" fill-rule="evenodd"/>
        <path id="Trazado_264564" data-name="Trazado 264564" d="M1038.109-321.314a1.387,1.387,0,0,1,1.333-1.089,2.074,2.074,0,0,1,1.366.352,1.023,1.023,0,0,1,.536,1.231,2.19,2.19,0,0,1-.413.64c-.217.175-.65.058-.9.017a1.512,1.512,0,0,1-.922-.516C1038.832-320.938,1038.087-320.731,1038.109-321.314Z" fill="#e3d9d2" fill-rule="evenodd"/>
        <path id="Trazado_264565" data-name="Trazado 264565" d="M1021.76-330.572c-.388.159-.941.756-.377,1.005a2.373,2.373,0,0,0,1.507-.237c1.047-.8-.611-1.492-1.292-.647Z" fill="#e3d9d2" fill-rule="evenodd"/>
        <path id="Trazado_264566" data-name="Trazado 264566" d="M1022.263-325.444c.381-.67,1.076.1.622.477a.433.433,0,0,1-.7-.33Z" fill="#e3d9d2" fill-rule="evenodd"/>
        <path id="Trazado_264567" data-name="Trazado 264567" d="M1023.3-327.987c.254-.447.717.063.415.318a.289.289,0,0,1-.467-.221Z" fill="#e3d9d2" fill-rule="evenodd"/>
        <path id="Trazado_264568" data-name="Trazado 264568" d="M1012.353-332.874c-.872,1.175.727,2.55,1.359,1.131.338-.759-.316-1.685-1.057-1.131Z" fill="#e3d9d2" fill-rule="evenodd"/>
        <path id="Trazado_264569" data-name="Trazado 264569" d="M1014.993-329.48c-.115-.226-.225-.166-.349-.022-.207.241-.069.293.077.477.324.408.611.4,1.055.112.357-.229.958-.86.312-1.176a1.107,1.107,0,0,0-1.02.27Z" fill="#e3d9d2" fill-rule="evenodd"/>
        <path id="Trazado_264570" data-name="Trazado 264570" d="M1013.56-329.027c-.065-.579.8.167.418.482-.319.267-.52-.289-.418-.52Z" fill="#e3d9d2" fill-rule="evenodd"/>
        <path id="Trazado_264571" data-name="Trazado 264571" d="M1015.295-331.026c.24.383.732-.155.558-.407-.209-.3-.514.188-.6.331Z" fill="#e3d9d2" fill-rule="evenodd"/>
        <path id="Trazado_264572" data-name="Trazado 264572" d="M1006.092-324.162c.144-.477.732-.035.8.271a.911.911,0,0,1-.726,1.031c-.7.066-.884-1.02-.267-1.264Z" fill="#e3d9d2" fill-rule="evenodd"/>
        <path id="Trazado_264573" data-name="Trazado 264573" d="M1012.617-323.294c-.414.6.994.732.981.047-.01-.543-.821-.543-.981-.085Z" fill="#e3d9d2" fill-rule="evenodd"/>
        <path id="Trazado_264574" data-name="Trazado 264574" d="M1006.771-335.137a.566.566,0,0,1,.535-.864c.571.083.583.873.391,1.263a.628.628,0,1,1-1.115-.55Z" fill="#e3d9d2" fill-rule="evenodd"/>
        <path id="Trazado_264575" data-name="Trazado 264575" d="M1015.144-336.985c-.5,1.19,1.442.77,1.548-.187C1016.821-338.327,1015.287-338.024,1015.144-336.985Z" fill="#e3d9d2" fill-rule="evenodd"/>
        <path id="Trazado_264576" data-name="Trazado 264576" d="M1041.239-322.913c-.552.754.892,1.12,1.01.173a.761.761,0,0,0-1.167-.094Z" fill="#e3d9d2" fill-rule="evenodd"/>
        <path id="Trazado_264577" data-name="Trazado 264577" d="M1033.709-313.815a3.968,3.968,0,0,1,5.219-1.017c.438.3,1.06.838.54,1.325-.452.423-2.621.006-3.229.006A6.1,6.1,0,0,1,1033.709-313.815Z" fill="#e3d9d2" fill-rule="evenodd"/>
        <path id="Trazado_264578" data-name="Trazado 264578" d="M1029.474-314.6c.1.694,1.322.452,1.142-.12-.12-.38-.787-.478-.907-.115Z" fill="#e3d9d2" fill-rule="evenodd"/>
        <path id="Trazado_264579" data-name="Trazado 264579" d="M984.971-335.967c-.228,1.075,1.14.859,1.136-.006,0-.716-.938-.967-1.136-.22Z" fill="#e3d9d2" fill-rule="evenodd"/>
        <path id="Trazado_264580" data-name="Trazado 264580" d="M1013.711-318.882a.762.762,0,0,1,.446-.341c.705.933-.865,1.561-.446.455Z" fill="#e3d9d2" fill-rule="evenodd"/>
        <path id="Trazado_264581" data-name="Trazado 264581" d="M983.812-317.915c-1.088,2.781,3.495.844,4.16-.442.69-1.332-1.063-1.552-2.048-1.374A2.42,2.42,0,0,0,983.812-317.915Z" fill="#e3d9d2" fill-rule="evenodd"/>
        <path id="Trazado_264582" data-name="Trazado 264582" d="M988.108-317.247c.11-.619,1.269-1.154,1.126-.214-.08.526-.825.871-1.031.309Z" fill="#e3d9d2" fill-rule="evenodd"/>
        <path id="Trazado_264583" data-name="Trazado 264583" d="M1054.929-329.744c-1.149,1.6,3.663,1.623,3.886.025.228-1.643-3.455-1.083-3.985-.125Z" fill="#e3d9d2" fill-rule="evenodd"/>
        <path id="Trazado_264584" data-name="Trazado 264584" d="M1058.305-331.631c.1-.995,1.475-.558,1.183.042-.239.493-.935.137-1.183-.141Z" fill="#e3d9d2" fill-rule="evenodd"/>
        <path id="Trazado_264585" data-name="Trazado 264585" d="M1061.978-330.439a3.047,3.047,0,0,0,1.28-.306c-.109-.893-1.223-.689-1.489.008.04.142.133.116.209.2Z" fill="#e3d9d2" fill-rule="evenodd"/>
        <path id="Trazado_264586" data-name="Trazado 264586" d="M1049.37-328.553c-.008-.376.1-.564.477-.581.466.383.348,1.131-.278.978Z" fill="#e3d9d2" fill-rule="evenodd"/>
        <path id="Trazado_264587" data-name="Trazado 264587" d="M1031.618-322.573c-1.72,1.449,1.984,1.016.314.209Z" fill="#e3d9d2" fill-rule="evenodd"/>
        <path id="Trazado_264588" data-name="Trazado 264588" d="M1024.3-318.677c-.424.433-.263,1.331.493,1.007.577-.247.447-1.257-.258-.929Z" fill="#e3d9d2" fill-rule="evenodd"/>
        <path id="Trazado_264589" data-name="Trazado 264589" d="M1027.749-316.324c.137-.478.741-.485.711,0-.024.406-.427.362-.555.081Z" fill="#e3d9d2" fill-rule="evenodd"/>
        <path id="Trazado_264590" data-name="Trazado 264590" d="M1059.4-297.014c.111.592.412.912,1.106.772a.783.783,0,0,0,.628-.946,1,1,0,0,0-1.056-.81A.9.9,0,0,0,1059.4-297.014Z" fill="#e3d9d2" fill-rule="evenodd"/>
        <path id="Trazado_264591" data-name="Trazado 264591" d="M1024.559-298.831a1.391,1.391,0,0,1,1.334-1.09,2.081,2.081,0,0,1,1.366.353,1.023,1.023,0,0,1,.536,1.23,2.215,2.215,0,0,1-.413.641c-.217.174-.651.058-.9.017a1.519,1.519,0,0,1-.923-.516C1025.283-298.456,1024.538-298.248,1024.559-298.831Z" fill="#e3d9d2" fill-rule="evenodd"/>
        <path id="Trazado_264592" data-name="Trazado 264592" d="M1059.841-299.572c-.387.159-.94.757-.376,1.006a2.38,2.38,0,0,0,1.507-.238c1.046-.8-.611-1.492-1.292-.647Z" fill="#e3d9d2" fill-rule="evenodd"/>
        <path id="Trazado_264593" data-name="Trazado 264593" d="M1060.345-294.444c.381-.669,1.076.1.622.477a.433.433,0,0,1-.7-.33Z" fill="#e3d9d2" fill-rule="evenodd"/>
        <path id="Trazado_264594" data-name="Trazado 264594" d="M1061.377-296.987c.254-.447.718.063.416.318a.289.289,0,0,1-.468-.22Z" fill="#e3d9d2" fill-rule="evenodd"/>
        <path id="Trazado_264595" data-name="Trazado 264595" d="M1048.462-295.071c-.873,1.175.726,2.551,1.358,1.131.338-.759-.315-1.685-1.057-1.131Z" fill="#e3d9d2" fill-rule="evenodd"/>
        <path id="Trazado_264596" data-name="Trazado 264596" d="M1051.1-291.676c-.116-.227-.225-.167-.349-.023-.207.241-.069.294.077.477.324.409.611.4,1.055.112.357-.228.958-.86.312-1.175a1.106,1.106,0,0,0-1.02.269Z" fill="#e3d9d2" fill-rule="evenodd"/>
        <path id="Trazado_264597" data-name="Trazado 264597" d="M1049.669-291.224c-.065-.579.8.168.418.483-.319.266-.521-.289-.418-.52Z" fill="#e3d9d2" fill-rule="evenodd"/>
        <path id="Trazado_264598" data-name="Trazado 264598" d="M1051.4-293.223c.24.383.732-.155.558-.407-.209-.3-.514.189-.6.332Z" fill="#e3d9d2" fill-rule="evenodd"/>
        <path id="Trazado_264599" data-name="Trazado 264599" d="M996.459-296.408c-.414.6.993.733.981.047-.01-.542-.822-.542-.981-.084Z" fill="#e3d9d2" fill-rule="evenodd"/>
        <path id="Trazado_264600" data-name="Trazado 264600" d="M1051.253-299.182c-.5,1.19,1.442.77,1.548-.187C1052.929-300.524,1051.4-300.22,1051.253-299.182Z" fill="#e3d9d2" fill-rule="evenodd"/>
        <path id="Trazado_264601" data-name="Trazado 264601" d="M1027.689-300.43c-.552.754.893,1.12,1.01.173a.76.76,0,0,0-1.166-.094Z" fill="#e3d9d2" fill-rule="evenodd"/>
        <path id="Trazado_264602" data-name="Trazado 264602" d="M1020.16-291.332a3.969,3.969,0,0,1,5.219-1.018c.438.3,1.06.839.54,1.325-.452.424-2.622.007-3.229.007A6.093,6.093,0,0,1,1020.16-291.332Z" fill="#e3d9d2" fill-rule="evenodd"/>
        <path id="Trazado_264603" data-name="Trazado 264603" d="M1013.316-287.712c.1.694,1.321.452,1.141-.121-.119-.38-.787-.477-.906-.114Z" fill="#e3d9d2" fill-rule="evenodd"/>
        <path id="Trazado_264604" data-name="Trazado 264604" d="M997.552-291.995a.765.765,0,0,1,.447-.342c.7.934-.865,1.562-.447.455Z" fill="#e3d9d2" fill-rule="evenodd"/>
        <path id="Trazado_264605" data-name="Trazado 264605" d="M1070.093-302.006c-1.72,1.448,1.984,1.016.313.209Z" fill="#e3d9d2" fill-rule="evenodd"/>
        <path id="Trazado_264606" data-name="Trazado 264606" d="M1008.139-291.791c-.423.434-.262,1.332.494,1.008.576-.247.446-1.257-.259-.929Z" fill="#e3d9d2" fill-rule="evenodd"/>
        <path id="Trazado_264607" data-name="Trazado 264607" d="M1011.59-289.438c.138-.477.741-.484.712,0-.025.406-.427.362-.555.081Z" fill="#e3d9d2" fill-rule="evenodd"/>
        <path id="Trazado_264608" data-name="Trazado 264608" d="M994.136-336.533a1.71,1.71,0,0,0,.613-.6c-.409-.354-.43-.079-.613.257Z" fill="#e3d9d2" fill-rule="evenodd"/>
        <path id="Trazado_264609" data-name="Trazado 264609" d="M952.505-319.668c.111.592.412.911,1.106.772a.784.784,0,0,0,.628-.947,1,1,0,0,0-1.056-.809A.9.9,0,0,0,952.505-319.668Z" fill="#e3d9d2" fill-rule="evenodd"/>
        <path id="Trazado_264610" data-name="Trazado 264610" d="M969.3-312.968a1.387,1.387,0,0,1,1.333-1.089,2.075,2.075,0,0,1,1.366.352,1.023,1.023,0,0,1,.536,1.23,2.215,2.215,0,0,1-.413.641c-.217.174-.651.058-.9.017a1.522,1.522,0,0,1-.923-.516C970.019-312.593,969.274-312.385,969.3-312.968Z" fill="#e3d9d2" fill-rule="evenodd"/>
        <path id="Trazado_264611" data-name="Trazado 264611" d="M952.946-322.226c-.387.159-.94.756-.376,1.005a2.379,2.379,0,0,0,1.507-.237c1.046-.8-.611-1.492-1.292-.647Z" fill="#e3d9d2" fill-rule="evenodd"/>
        <path id="Trazado_264612" data-name="Trazado 264612" d="M953.45-317.1c.381-.67,1.076.1.622.477a.433.433,0,0,1-.7-.33Z" fill="#e3d9d2" fill-rule="evenodd"/>
        <path id="Trazado_264613" data-name="Trazado 264613" d="M954.482-319.641c.254-.447.718.063.416.318a.29.29,0,0,1-.468-.221Z" fill="#e3d9d2" fill-rule="evenodd"/>
        <path id="Trazado_264614" data-name="Trazado 264614" d="M943.54-324.528c-.873,1.175.726,2.55,1.358,1.131.338-.759-.315-1.686-1.057-1.131Z" fill="#e3d9d2" fill-rule="evenodd"/>
        <path id="Trazado_264615" data-name="Trazado 264615" d="M946.18-321.134c-.116-.227-.225-.166-.349-.022-.207.241-.069.293.077.477.324.408.611.4,1.055.111.357-.228.958-.859.311-1.175a1.106,1.106,0,0,0-1.019.27Z" fill="#e3d9d2" fill-rule="evenodd"/>
        <path id="Trazado_264616" data-name="Trazado 264616" d="M944.747-320.681c-.065-.58.8.167.418.482-.319.267-.521-.289-.418-.52Z" fill="#e3d9d2" fill-rule="evenodd"/>
        <path id="Trazado_264617" data-name="Trazado 264617" d="M946.482-322.68c.24.383.732-.155.558-.408-.209-.3-.514.189-.6.332Z" fill="#e3d9d2" fill-rule="evenodd"/>
        <path id="Trazado_264618" data-name="Trazado 264618" d="M937.279-315.816c.144-.477.732-.035.8.271a.908.908,0,0,1-.726,1.03c-.7.067-.883-1.019-.266-1.263Z" fill="#e3d9d2" fill-rule="evenodd"/>
        <path id="Trazado_264619" data-name="Trazado 264619" d="M943.8-314.948c-.414.6.993.732.981.047-.01-.543-.821-.543-.981-.085Z" fill="#e3d9d2" fill-rule="evenodd"/>
        <path id="Trazado_264620" data-name="Trazado 264620" d="M937.958-326.791a.566.566,0,0,1,.535-.864c.571.083.583.873.391,1.263a.628.628,0,1,1-1.115-.55Z" fill="#e3d9d2" fill-rule="evenodd"/>
        <path id="Trazado_264621" data-name="Trazado 264621" d="M946.331-328.639c-.5,1.19,1.442.77,1.548-.187C948.007-329.981,946.474-329.678,946.331-328.639Z" fill="#e3d9d2" fill-rule="evenodd"/>
        <path id="Trazado_264622" data-name="Trazado 264622" d="M972.426-314.567c-.553.754.892,1.12,1.009.173a.76.76,0,0,0-1.166-.094Z" fill="#e3d9d2" fill-rule="evenodd"/>
        <path id="Trazado_264623" data-name="Trazado 264623" d="M916.158-327.621c-.229,1.075,1.14.859,1.136-.006,0-.716-.938-.967-1.136-.22Z" fill="#e3d9d2" fill-rule="evenodd"/>
        <path id="Trazado_264624" data-name="Trazado 264624" d="M986.116-321.4c-1.149,1.6,3.663,1.622,3.885.024.229-1.643-3.454-1.082-3.984-.124Z" fill="#e3d9d2" fill-rule="evenodd"/>
        <path id="Trazado_264625" data-name="Trazado 264625" d="M980.557-320.207c-.008-.376.1-.564.476-.581.467.383.349,1.131-.278.978Z" fill="#e3d9d2" fill-rule="evenodd"/>
        <path id="Trazado_264626" data-name="Trazado 264626" d="M962.8-314.227c-1.72,1.449,1.984,1.016.313.209Z" fill="#e3d9d2" fill-rule="evenodd"/>
        <path id="Trazado_264627" data-name="Trazado 264627" d="M925.323-328.187a1.725,1.725,0,0,0,.613-.6c-.41-.354-.43-.079-.613.257Z" fill="#e3d9d2" fill-rule="evenodd"/>
        <path id="Trazado_264628" data-name="Trazado 264628" d="M954.795-291.288c.092.493.343.759.921.643a.652.652,0,0,0,.523-.788.833.833,0,0,0-.879-.674A.751.751,0,0,0,954.795-291.288Z" fill="#e3d9d2" fill-rule="evenodd"/>
        <path id="Trazado_264629" data-name="Trazado 264629" d="M955.163-293.418c-.323.133-.784.63-.314.837a1.978,1.978,0,0,0,1.255-.2c.871-.668-.509-1.242-1.076-.539Z" fill="#e3d9d2" fill-rule="evenodd"/>
        <path id="Trazado_264630" data-name="Trazado 264630" d="M955.582-289.148c.317-.557.9.079.518.4a.361.361,0,0,1-.583-.275Z" fill="#e3d9d2" fill-rule="evenodd"/>
        <path id="Trazado_264631" data-name="Trazado 264631" d="M956.441-291.265c.212-.372.6.052.346.264a.24.24,0,0,1-.389-.183Z" fill="#e3d9d2" fill-rule="evenodd"/>
        <path id="Trazado_264632" data-name="Trazado 264632" d="M947.33-295.334c-.726.978.6,2.123,1.132.941.281-.631-.263-1.4-.88-.941Z" fill="#e3d9d2" fill-rule="evenodd"/>
        <path id="Trazado_264633" data-name="Trazado 264633" d="M949.529-292.508c-.1-.189-.188-.139-.291-.019-.172.2-.057.245.064.4.27.34.509.33.879.093.3-.19.8-.715.259-.978a.922.922,0,0,0-.849.224Z" fill="#e3d9d2" fill-rule="evenodd"/>
        <path id="Trazado_264634" data-name="Trazado 264634" d="M948.335-292.131c-.054-.483.664.139.349.4-.266.222-.434-.24-.349-.433Z" fill="#e3d9d2" fill-rule="evenodd"/>
        <path id="Trazado_264635" data-name="Trazado 264635" d="M949.78-293.8c.2.319.61-.129.465-.339-.174-.25-.428.157-.5.277Z" fill="#e3d9d2" fill-rule="evenodd"/>
        <path id="Trazado_264636" data-name="Trazado 264636" d="M942.118-288.08c.119-.4.609-.029.669.225a.758.758,0,0,1-.6.858c-.582.056-.736-.848-.221-1.052Z" fill="#e3d9d2" fill-rule="evenodd"/>
        <path id="Trazado_264637" data-name="Trazado 264637" d="M947.55-287.358c-.344.5.828.61.817.039-.008-.451-.684-.451-.817-.07Z" fill="#e3d9d2" fill-rule="evenodd"/>
        <path id="Trazado_264638" data-name="Trazado 264638" d="M942.683-297.219a.471.471,0,0,1,.446-.718c.475.069.485.726.325,1.051a.523.523,0,1,1-.928-.458Z" fill="#e3d9d2" fill-rule="evenodd"/>
        <path id="Trazado_264639" data-name="Trazado 264639" d="M949.654-298.757c-.417.991,1.2.641,1.289-.156C951.05-299.875,949.774-299.622,949.654-298.757Z" fill="#e3d9d2" fill-rule="evenodd"/>
        <path id="Trazado_264640" data-name="Trazado 264640" d="M924.532-297.909c-.19.895.949.715.946-.005,0-.6-.781-.8-.946-.184Z" fill="#e3d9d2" fill-rule="evenodd"/>
        <path id="Trazado_264641" data-name="Trazado 264641" d="M932.163-298.381a1.43,1.43,0,0,0,.511-.5c-.342-.295-.359-.066-.511.214Z" fill="#e3d9d2" fill-rule="evenodd"/>
      </g>
      <path id="Trazado_264642" data-name="Trazado 264642" d="M1017.682-338.809l-.982,26.987,9.51.981-.485,6.787-9.024.569-.863,19.932.537.156L1028.1-304.2l1.949-3.271-9.894-31.316Z" fill="#791b40" fill-rule="evenodd" opacity="0.5"/>
      <path id="Trazado_264643" data-name="Trazado 264643" d="M1016.374-283.4s11.228-19.709,11.731-20.8.793-6.189.7-6.869-8.648-27.718-8.648-27.718l-55.592-.424v-.761l23.407-.822,64.834.868s12.336,26.773,12.508,27.643-.72,5.7-1.256,6.189-18.932,21.361-18.932,21.361l-30.175,2.046-1.356-.588Z" fill-rule="evenodd" fill="url(#linear-gradient-8)"/>
      <path id="Trazado_264644" data-name="Trazado 264644" d="M1064.061-306.1,1028.7-304.54s.433-5.763.31-6.793-8.35-28.482-8.35-28.482l-56.091-.16v.761l55.592.424s8.641,26.784,8.648,27.718-.246,6.008-.7,6.869-11.731,20.8-11.731,20.8l-2.776.12,1.356.588,30.175-2.046Z" fill="#833960" fill-rule="evenodd" opacity="0.42"/>
      <path id="Trazado_264645" data-name="Trazado 264645" d="M1031.15-318.7l27.674-1.385-6.452-14.228H1026.1Z" fill="#833960" fill-rule="evenodd"/>
      <path id="Trazado_264646" data-name="Trazado 264646" d="M1033.341-331.708l1.239,1.888,14.9-.129-.477-1.759Z" fill="#a9a4ff" fill-rule="evenodd"/>
      <path id="Trazado_264647" data-name="Trazado 264647" d="M1030.085-296.932l21.167-.828-5.062,6.255-19.921.649Z" fill="#833960" fill-rule="evenodd" opacity="0.42"/>
      <path id="Trazado_264648" data-name="Trazado 264648" d="M1035.752-325.709l1.071,3.536,15.507-.242-1.159-4.093Z" fill="#9c6888" fill-rule="evenodd" opacity="0.5"/>
    </g>
    <g id="Grupo_128297" data-name="Grupo 128297" transform="translate(-228.998 7036.275)">
      <path id="Trazado_264649" data-name="Trazado 264649" d="M730.325-463.553l-74.691-28.458,13.085,27.265,66.213,35.523Z" fill-rule="evenodd" fill="url(#linear-gradient-9)"/>
      <path id="Trazado_264650" data-name="Trazado 264650" d="M655.633-492.011l90.972-21.23,110.947,11.868L729.88-463.421Z" fill-rule="evenodd" fill="url(#radial-gradient-17)"/>
      <path id="Trazado_264651" data-name="Trazado 264651" d="M655.633-492.011s46.192,14.543,74.735,28.779l-.488-3.64s-40.889-16.6-74.882-26.6Z" fill-rule="evenodd" fill="url(#linear-gradient-9)"/>
      <path id="Trazado_264652" data-name="Trazado 264652" d="M655-493.47l91.608-19.771s88.958,6.129,110.947,11.868l-127.673,34.5S687.88-483.884,655-493.47Z" fill-rule="evenodd" fill="url(#radial-gradient-18)"/>
      <path id="Trazado_264653" data-name="Trazado 264653" d="M734.932-429.223l-5.052-37.649,127.673-34.5-15.8,29.711Z" fill-rule="evenodd" fill="url(#radial-gradient-19)"/>
      <path id="Trazado_264654" data-name="Trazado 264654" d="M730.325-463.553l56.2,6.941-.434-.354-56.213-9.906Z" fill-rule="evenodd" fill="url(#linear-gradient-9)"/>
      <path id="Trazado_264655" data-name="Trazado 264655" d="M785.436-456.747l-1.27,1.08L821.226-468.2h-2.362l-.636.515Z" fill-rule="evenodd" fill="url(#linear-gradient-9)"/>
      <path id="Trazado_264656" data-name="Trazado 264656" d="M818.229-467.688l39.324-33.686-28.636,21.181-60.363,20.136,17.539,3.091Z" fill-rule="evenodd" opacity="0.5" fill="url(#linear-gradient-13)" style="mix-blend-mode: multiply;isolation: isolate"/>
      <path id="Trazado_264657" data-name="Trazado 264657" d="M784.165-455.667l1.217.38L822.8-467.718l-1.574-.484Z" fill-rule="evenodd" fill="url(#radial-gradient-20)"/>
      <path id="Trazado_264658" data-name="Trazado 264658" d="M738.047-462.6l46.118,6.932,1.27-1.08Z" fill="#791b40" fill-rule="evenodd" opacity="0.5"/>
      <path id="Trazado_264659" data-name="Trazado 264659" d="M730.325-463.553,703.5-466.119l1.914-.753,20.334,1.574Z" fill-rule="evenodd" fill="url(#radial-gradient-21)"/>
      <path id="Trazado_264660" data-name="Trazado 264660" d="M703.5-466.119l.9,13.838,30.531,23.058-31.246-22.63Z" fill="#791b40" fill-rule="evenodd" opacity="0.5"/>
      <path id="Trazado_264661" data-name="Trazado 264661" d="M655.633-492.011l13.716,12.329,1.544-.333-12.416-11.279Z" fill-rule="evenodd" fill="url(#radial-gradient-22)"/>
      <path id="Trazado_264662" data-name="Trazado 264662" d="M672.711-466.872l-3.361-12.811,1.544-.333,3.088,13.143Z" fill-rule="evenodd" fill="url(#radial-gradient-23)"/>
      <path id="Trazado_264663" data-name="Trazado 264663" d="M672.711-466.872l-3.992,2.126,5.264-2.126Z" fill="#791b40" fill-rule="evenodd" opacity="0.5"/>
      <path id="Trazado_264664" data-name="Trazado 264664" d="M734.932-429.223,704.4-452.281l-30.418-14.591-5.264,2.126Z" fill-rule="evenodd" opacity="0.69" fill="url(#linear-gradient-14)" style="mix-blend-mode: multiply;isolation: isolate"/>
      <path id="Trazado_264665" data-name="Trazado 264665" d="M670.894-480.015l3.088,13.143S672.378-476.871,670.894-480.015Z" fill="#791b40" fill-rule="evenodd" opacity="0.5"/>
      <g id="Grupo_128286" data-name="Grupo 128286">
        <path id="Trazado_264666" data-name="Trazado 264666" d="M835.548-499.841s-17.99,5.11-39.48,10.8c-6.56,1.74-13.45,3.53-20.25,5.24-.24.07-.47.13-.71.18-1.3.33-2.6.66-3.9.98-1.13.28-2.27.56-3.39.84-4.46,1.09-8.81,2.13-12.93,3.07-1.33.31-2.64.6-3.92.89-.21.04-.41.09-.61.14-1.48.32-2.92.63-4.32.92-6.12,1.3-11.34,2.25-15.1,2.68,0,0-.48-.14-1.37-.39-.11-.03-.23-.06-.35-.1-.94-.27-2.24-.64-3.83-1.1-3.62-1.06-8.74-2.57-14.56-4.38-.56-.17-1.12-.35-1.69-.52-.31-.1-.62-.2-.93-.29-.01,0-.01,0-.02-.01-.01.01-.01.01-.01,0-.23-.08-.47-.15-.71-.23q-.885-.27-1.8-.57c-.01,0-.02-.01-.03-.01l-.78-.24c-.8-.26-1.6-.51-2.41-.77-1.26-.41-2.54-.83-3.82-1.25-.6-.19-1.2-.39-1.8-.59h-.02c-.1-.04-.19-.07-.29-.11-3.18-1.05-6.38-2.14-9.5-3.25-.38-.13-.75-.27-1.13-.4-4.35-1.56-8.52-3.13-12.24-4.67,0,0,66.09-15.44,75.06-16.43C748.708-509.411,813.7-505.681,835.548-499.841Z" fill-rule="evenodd" fill="url(#linear-gradient-15)"/>
        <path id="Trazado_264667" data-name="Trazado 264667" d="M676.8-491.448s48.1-13.43,72.234-16.972c0,0,61.882,4.428,85.129,8.967l4.318-1.094s-43.949-7.209-89.78-8.869c0,0-36.088,6.735-75.056,16.43Z" fill="#df7668" fill-rule="evenodd"/>
        <path id="Trazado_264668" data-name="Trazado 264668" d="M749.038-508.42l-1.993,22.847-31.713,6.881L676.8-491.448S730.44-506.1,749.038-508.42Z" fill="#791b40" fill-rule="evenodd" opacity="0.29"/>
        <path id="Trazado_264669" data-name="Trazado 264669" d="M747.045-485.573l32.832.742-48.939,10.725-15.605-4.587Z" fill="#ffdd98" fill-rule="evenodd" opacity="0.58" style="mix-blend-mode: soft-light;isolation: isolate"/>
      </g>
      <g id="Grupo_128295" data-name="Grupo 128295">
        <g id="Grupo_128287" data-name="Grupo 128287">
          <path id="Trazado_264670" data-name="Trazado 264670" d="M776.478-501.371l-.14,1.77-.03.47-.27,3.42-.01.16-.04.48-.14,1.92-.08.97-.05.68-.61,7.88c-1.3.33-2.6.66-3.9.98-1.13.28-2.27.56-3.39.84a80.9,80.9,0,0,1-12.68-.29c-2.27-.23-3.6-.48-3.6-.48l-.51-3.83-.16-1.24-.07-.46-.1-.76v-.01l-.31-2.36v-.01l-.09-.68-.2-1.44-.11-.86-.1-.78-.02-.16-.4-2.99-.07-.53-.34-2.56a.585.585,0,0,1-.02-.13,27.008,27.008,0,0,0,4.4,1.23.436.436,0,0,0,.05.01c8.3,1.6,17.55-.03,21.29-.84C775.858-501.2,776.478-501.371,776.478-501.371Z" fill="#4e2550" fill-rule="evenodd"/>
          <ellipse id="Elipse_6258" data-name="Elipse 6258" cx="13.721" cy="2.613" rx="13.721" ry="2.613" transform="translate(749.038 -503.982)" fill="#833960"/>
          <path id="Trazado_264671" data-name="Trazado 264671" d="M775.025-501.373c0,1.113-4.905,1.464-11.746,2.016-6.461.521-11.746-.9-11.746-2.016s4.237-2.209,10.724-2.209S775.025-502.487,775.025-501.373Z" fill="#f1cdde" fill-rule="evenodd"/>
          <path id="Trazado_264672" data-name="Trazado 264672" d="M768.8-501.784c0,.39-2.464.706-5.5.706s-5.5-.316-5.5-.706,2.463-.706,5.5-.706S768.8-502.174,768.8-501.784Z" fill="#833960" fill-rule="evenodd"/>
          <path id="Trazado_264673" data-name="Trazado 264673" d="M759.587-501.784c-.482-.28,3.735-.585,5.494-.563s2.933.373,2.995.563S761.23-500.827,759.587-501.784Z" fill="#d36e65" fill-rule="evenodd"/>
          <path id="Trazado_264674" data-name="Trazado 264674" d="M759.241-501.552c-.176-.019-1.2-.089-1.165-.278a9.144,9.144,0,0,1,2.421-.419c.108.022-1.082.3-1.09.419S759.31-501.544,759.241-501.552Z" fill="#7e9f5e" fill-rule="evenodd"/>
        </g>
        <g id="Grupo_128288" data-name="Grupo 128288">
          <path id="Trazado_264675" data-name="Trazado 264675" d="M796.708-497.311l-.64,8.27c-6.56,1.74-13.45,3.53-20.25,5.24-.24.07-.47.13-.71.18-1.3.33-2.6.66-3.9.98l-.99-7.53-.11-.78-.02-.16-.39-2.99-.07-.52-.34-2.56a.585.585,0,0,1-.02-.13,27.009,27.009,0,0,0,4.4,1.23c.02,0,.03.01.05.01.77.15,1.54.27,2.32.36,7.62.95,15.53-.45,18.94-1.19C796.078-497.141,796.708-497.311,796.708-497.311Z" fill="#4e2550" fill-rule="evenodd"/>
          <ellipse id="Elipse_6259" data-name="Elipse 6259" cx="13.721" cy="2.613" rx="13.721" ry="2.613" transform="translate(769.265 -499.926)" fill="#833960"/>
          <path id="Trazado_264676" data-name="Trazado 264676" d="M795.253-497.318c0,1.113-4.9,1.464-11.746,2.016-6.462.522-11.746-.9-11.746-2.016s4.236-2.209,10.723-2.209S795.253-498.432,795.253-497.318Z" fill="#f1cdde" fill-rule="evenodd"/>
          <ellipse id="Elipse_6260" data-name="Elipse 6260" cx="5.503" cy="0.706" rx="5.503" ry="0.706" transform="translate(778.024 -498.435)" fill="#833960"/>
          <path id="Trazado_264677" data-name="Trazado 264677" d="M779.814-497.729c-.482-.28,3.735-.585,5.494-.563s2.933.373,2.995.563S781.458-496.772,779.814-497.729Z" fill="#d36e65" fill-rule="evenodd"/>
          <path id="Trazado_264678" data-name="Trazado 264678" d="M779.468-497.5c-.175-.019-1.2-.089-1.165-.278a9.146,9.146,0,0,1,2.421-.419c.108.022-1.081.3-1.09.419S779.537-497.489,779.468-497.5Z" fill="#7e9f5e" fill-rule="evenodd"/>
        </g>
        <g id="Grupo_128289" data-name="Grupo 128289">
          <path id="Trazado_264679" data-name="Trazado 264679" d="M756.248-496.411l-.14,1.76-.03.47-.27,3.42-.01.16-.04.48-.62,8.03-.25,3.36c-1.33.31-2.64.6-3.92.89-.21.04-.41.09-.61.14-1.48.32-2.92.63-4.32.92a75,75,0,0,1-14.73-.84l-.95-7.13-.16-1.22-.07-.51v-.01l-.02-.15-.42-3.18-.07-.51-.1-.76-.11-.79-.01-.12v-.01l-.08-.56-.13-.95-.36-2.76a.585.585,0,0,1-.02-.13,25.9,25.9,0,0,0,4.39,1.22c.02.01.04.01.06.02a52.137,52.137,0,0,0,16.61.01c1.93-.29,3.54-.6,4.66-.84h.01C755.628-496.241,756.248-496.411,756.248-496.411Z" fill="#4e2550" fill-rule="evenodd"/>
          <ellipse id="Elipse_6261" data-name="Elipse 6261" cx="13.721" cy="2.613" rx="13.721" ry="2.613" transform="translate(728.81 -499.028)" fill="#833960"/>
          <path id="Trazado_264680" data-name="Trazado 264680" d="M754.8-496.419c0,1.113-4.9,1.464-11.746,2.016-6.461.521-11.746-.9-11.746-2.016s4.237-2.209,10.724-2.209S754.8-497.533,754.8-496.419Z" fill="#f1cdde" fill-rule="evenodd"/>
          <ellipse id="Elipse_6262" data-name="Elipse 6262" cx="5.503" cy="0.706" rx="5.503" ry="0.706" transform="translate(737.569 -497.536)" fill="#833960"/>
          <path id="Trazado_264681" data-name="Trazado 264681" d="M739.359-496.83c-.482-.28,3.735-.585,5.495-.563s2.932.372,2.995.563S741-495.873,739.359-496.83Z" fill="#d36e65" fill-rule="evenodd"/>
          <path id="Trazado_264682" data-name="Trazado 264682" d="M739.013-496.6c-.175-.019-1.2-.089-1.164-.278a9.1,9.1,0,0,1,2.421-.419c.108.022-1.082.3-1.09.419S739.083-496.59,739.013-496.6Z" fill="#7e9f5e" fill-rule="evenodd"/>
        </g>
        <g id="Grupo_128290" data-name="Grupo 128290">
          <path id="Trazado_264683" data-name="Trazado 264683" d="M776.478-492.361l-.66,8.56c-.24.07-.47.13-.71.18-1.3.33-2.6.66-3.9.98-1.13.28-2.27.56-3.39.84-4.46,1.09-8.81,2.13-12.93,3.07-1.33.31-2.64.6-3.92.89l-.38-2.87-.84-6.33-.11-.79-.01-.13-.08-.54-.12-.96-.37-2.77a.506.506,0,0,1-.02-.13c.41.16.83.3,1.26.44a27.731,27.731,0,0,0,3.14.79.435.435,0,0,0,.05.01c.77.15,1.54.27,2.32.36a55.377,55.377,0,0,0,14.28-.35c1.95-.29,3.57-.6,4.69-.85.39-.08.73-.16.99-.22C776.228-492.291,776.478-492.361,776.478-492.361Z" fill="#4e2550" fill-rule="evenodd"/>
          <ellipse id="Elipse_6263" data-name="Elipse 6263" cx="13.721" cy="2.613" rx="13.721" ry="2.613" transform="translate(749.038 -494.973)" fill="#833960"/>
          <path id="Trazado_264684" data-name="Trazado 264684" d="M775.025-492.364c0,1.113-4.905,1.464-11.746,2.016-6.461.521-11.746-.9-11.746-2.016s4.237-2.209,10.724-2.209S775.025-493.478,775.025-492.364Z" fill="#f1cdde" fill-rule="evenodd"/>
          <ellipse id="Elipse_6264" data-name="Elipse 6264" cx="5.503" cy="0.706" rx="5.503" ry="0.706" transform="translate(757.797 -493.481)" fill="#833960"/>
          <path id="Trazado_264685" data-name="Trazado 264685" d="M759.587-492.775c-.482-.28,3.735-.585,5.494-.563s2.933.373,2.995.563S761.23-491.818,759.587-492.775Z" fill="#d36e65" fill-rule="evenodd"/>
          <path id="Trazado_264686" data-name="Trazado 264686" d="M759.241-492.543c-.176-.019-1.2-.089-1.165-.278a9.145,9.145,0,0,1,2.421-.419c.108.022-1.082.3-1.09.419S759.31-492.535,759.241-492.543Z" fill="#7e9f5e" fill-rule="evenodd"/>
        </g>
        <g id="Grupo_128291" data-name="Grupo 128291">
          <path id="Trazado_264687" data-name="Trazado 264687" d="M730.938-492.241l-.14,1.77-.03.47-.27,3.41-.01.16-.04.49-.09,1.19-.79,10.26c-.11-.03-.23-.06-.35-.1-.94-.27-2.24-.64-3.83-1.1-3.62-1.06-8.74-2.57-14.56-4.38-.56-.17-1.12-.35-1.69-.52-.31-.1-.62-.2-.93-.29-.01,0-.01,0-.02-.01-.01.01-.01.01-.01,0a11.333,11.333,0,0,1-1.34-.34c-.02,0-.03-.01-.05-.01a6.491,6.491,0,0,1-1.12-.45c-.01,0-.02-.01-.03-.01l-.78-.24-.25-1.95-.08-.61-.1-.76-.03-.21-.35-2.6-.07-.56-.46-3.48a.506.506,0,0,1-.02-.13,27.011,27.011,0,0,0,4.4,1.23c.02,0,.03.01.05.01,8.28,1.6,17.52-.02,21.27-.83h.01c.06-.02.12-.03.18-.05C730.388-492.091,730.938-492.241,730.938-492.241Z" fill="#4e2550" fill-rule="evenodd"/>
          <path id="Trazado_264688" data-name="Trazado 264688" d="M730.939-492.244c0,1.443-6.143,2.613-13.721,2.613S703.5-490.8,703.5-492.244s6.143-2.612,13.721-2.612S730.939-493.686,730.939-492.244Z" fill="#833960" fill-rule="evenodd"/>
          <path id="Trazado_264689" data-name="Trazado 264689" d="M729.485-492.248c0,1.114-4.9,1.464-11.746,2.016-6.461.522-11.746-.9-11.746-2.016s4.236-2.208,10.724-2.208S729.485-493.362,729.485-492.248Z" fill="#f1cdde" fill-rule="evenodd"/>
          <path id="Trazado_264690" data-name="Trazado 264690" d="M723.261-492.658c0,.39-2.463.706-5.5.706s-5.5-.316-5.5-.706,2.464-.706,5.5-.706S723.261-493.048,723.261-492.658Z" fill="#833960" fill-rule="evenodd"/>
          <path id="Trazado_264691" data-name="Trazado 264691" d="M714.046-492.658c-.482-.281,3.735-.586,5.494-.563s2.933.372,3,.563S715.69-491.7,714.046-492.658Z" fill="#d36e65" fill-rule="evenodd"/>
          <path id="Trazado_264692" data-name="Trazado 264692" d="M713.7-492.426c-.175-.019-1.2-.09-1.165-.279a9.186,9.186,0,0,1,2.421-.419c.109.023-1.081.3-1.09.419S713.769-492.419,713.7-492.426Z" fill="#7e9f5e" fill-rule="evenodd"/>
        </g>
        <g id="Grupo_128292" data-name="Grupo 128292">
          <path id="Trazado_264693" data-name="Trazado 264693" d="M751.168-488.191l-.14,1.79-.44,5.69-.23,3.01c-1.48.32-2.92.63-4.32.92-6.12,1.3-11.34,2.25-15.1,2.68,0,0-.48-.14-1.37-.39-.11-.03-.23-.06-.35-.1-.94-.27-2.24-.64-3.83-1.1l-.63-4.76-.1-.75-.03-.21-.35-2.61-.07-.55-.46-3.49a.585.585,0,0,1-.02-.13,27.512,27.512,0,0,0,4.38,1.23c.02,0,.03.01.05.01.64.12,1.3.23,1.95.31.13.02.26.04.39.05,7.63.95,15.55-.46,18.95-1.19.07-.02.13-.03.19-.05.51-.11.9-.2,1.16-.27C751.038-488.161,751.168-488.191,751.168-488.191Z" fill="#4e2550" fill-rule="evenodd"/>
          <path id="Trazado_264694" data-name="Trazado 264694" d="M751.166-488.188c0,1.442-6.143,2.612-13.721,2.612s-13.721-1.17-13.721-2.612,6.143-2.613,13.721-2.613S751.166-489.631,751.166-488.188Z" fill="#833960" fill-rule="evenodd"/>
          <path id="Trazado_264695" data-name="Trazado 264695" d="M749.712-488.193c0,1.114-4.9,1.464-11.746,2.016-6.461.522-11.746-.9-11.746-2.016s4.237-2.208,10.724-2.208S749.712-489.306,749.712-488.193Z" fill="#f1cdde" fill-rule="evenodd"/>
          <path id="Trazado_264696" data-name="Trazado 264696" d="M743.489-488.6c0,.39-2.464.706-5.5.706s-5.5-.316-5.5-.706,2.464-.706,5.5-.706S743.489-488.993,743.489-488.6Z" fill="#833960" fill-rule="evenodd"/>
          <path id="Trazado_264697" data-name="Trazado 264697" d="M734.273-488.6c-.481-.281,3.735-.586,5.495-.563s2.932.372,2.995.563S735.917-487.646,734.273-488.6Z" fill="#d36e65" fill-rule="evenodd"/>
          <path id="Trazado_264698" data-name="Trazado 264698" d="M733.927-488.371c-.175-.019-1.2-.09-1.164-.279a9.179,9.179,0,0,1,2.421-.419c.108.023-1.082.3-1.09.419S734-488.364,733.927-488.371Z" fill="#7e9f5e" fill-rule="evenodd"/>
        </g>
        <g id="Grupo_128293" data-name="Grupo 128293">
          <path id="Trazado_264699" data-name="Trazado 264699" d="M709.6-486.531l-.14,1.78-.03.46-.27,3.42-.01.16-.01.12c-.31-.1-.62-.2-.93-.29-.01,0-.01,0-.02-.01-.01.01-.01.01-.01,0a11.333,11.333,0,0,1-1.34-.34c-.02,0-.03-.01-.05-.01a6.491,6.491,0,0,1-1.12-.45c-.01,0-.02-.01-.03-.01l-.78-.24c-.8-.26-1.6-.51-2.41-.77-1.26-.41-2.54-.83-3.82-1.25-.6-.19-1.2-.39-1.8-.59h-.02c-.1-.04-.19-.07-.29-.11a63.832,63.832,0,0,0,7.88-.81c1.42-.23,2.62-.47,3.5-.66C708.978-486.361,709.6-486.531,709.6-486.531Z" fill="#4e2550" fill-rule="evenodd"/>
          <path id="Trazado_264700" data-name="Trazado 264700" d="M709.6-486.531c0,.82-1.98,1.56-5.07,2.03a51.454,51.454,0,0,1-5.9.54c-.6-.19-1.2-.39-1.8-.59h-.02c-.1-.04-.19-.07-.29-.11-3.18-1.05-6.38-2.14-9.5-3.25-.38-.13-.75-.27-1.13-.4a52.922,52.922,0,0,1,9.99-.83,59.6,59.6,0,0,1,8.1.51C707.388-488.161,709.6-487.391,709.6-486.531Z" fill="#833960" fill-rule="evenodd"/>
          <path id="Trazado_264701" data-name="Trazado 264701" d="M708.148-486.531a.514.514,0,0,1-.25.4,9.2,9.2,0,0,1-3.47.87c-1.96.26-4.58.47-7.6.71h-.02c-.1-.04-.19-.07-.29-.11-3.18-1.05-6.38-2.14-9.5-3.25a35.12,35.12,0,0,1,8.36-.83,53.347,53.347,0,0,1,8.67.67C706.508-487.661,708.148-487.1,708.148-486.531Z" fill="#f1cdde" fill-rule="evenodd"/>
          <path id="Trazado_264702" data-name="Trazado 264702" d="M701.923-486.943c0,.39-2.464.706-5.5.706s-5.5-.316-5.5-.706,2.464-.706,5.5-.706S701.923-487.333,701.923-486.943Z" fill="#833960" fill-rule="evenodd"/>
          <path id="Trazado_264703" data-name="Trazado 264703" d="M692.707-486.943c-.481-.281,3.736-.586,5.5-.563s2.933.372,2.995.563S694.351-485.986,692.707-486.943Z" fill="#d36e65" fill-rule="evenodd"/>
          <path id="Trazado_264704" data-name="Trazado 264704" d="M692.362-486.711c-.176-.019-1.2-.09-1.165-.279a9.186,9.186,0,0,1,2.421-.419c.108.023-1.082.3-1.09.419S692.431-486.7,692.362-486.711Z" fill="#7e9f5e" fill-rule="evenodd"/>
        </g>
        <g id="Grupo_128294" data-name="Grupo 128294">
          <path id="Trazado_264705" data-name="Trazado 264705" d="M729.828-482.471l-.61,7.88c-.94-.27-2.24-.64-3.83-1.1-3.62-1.06-8.74-2.57-14.56-4.38-.56-.17-1.12-.35-1.69-.52-.31-.1-.62-.2-.93-.29-.01,0-.01,0-.02-.01-.01.01-.01.01-.01,0a11.333,11.333,0,0,1-1.34-.34c.21.04.42.08.63.11.56.1,1.13.19,1.69.25a56.719,56.719,0,0,0,15.47-.54c1.41-.23,2.6-.46,3.48-.65h.01C729.208-482.3,729.828-482.471,729.828-482.471Z" fill="#4e2550" fill-rule="evenodd"/>
          <path id="Trazado_264706" data-name="Trazado 264706" d="M729.828-482.471c0,.82-1.98,1.55-5.07,2.02a57.772,57.772,0,0,1-8.65.59c-1.87,0-3.66-.07-5.28-.21-.56-.17-1.12-.35-1.69-.52-.31-.1-.62-.2-.93-.29-.01,0-.01,0-.02-.01-.01.01-.01.01-.01,0a11.333,11.333,0,0,1-1.34-.34c-.02,0-.03-.01-.05-.01a6.491,6.491,0,0,1-1.12-.45c-.01,0-.02-.01-.03-.01l-.78-.24c-.8-.26-1.6-.51-2.41-.77.2-.43.97-.84,2.16-1.18a27.938,27.938,0,0,1,4.85-.86,63.715,63.715,0,0,1,6.65-.33,59.6,59.6,0,0,1,8.1.51C727.618-484.1,729.828-483.331,729.828-482.471Z" fill="#833960" fill-rule="evenodd"/>
          <path id="Trazado_264707" data-name="Trazado 264707" d="M728.378-482.481a.548.548,0,0,1-.26.42h-.01a9.294,9.294,0,0,1-3.45.86c-2.05.27-4.83.49-8.03.74a31.779,31.779,0,0,1-7.48-.25c-.33-.05-.64-.11-.94-.17-.01,0-.01,0-.02-.01-.01.01-.01.01-.01,0a11.333,11.333,0,0,1-1.34-.34c-.02,0-.03-.01-.05-.01a6.491,6.491,0,0,1-1.12-.45c-.01,0-.02-.01-.03-.01-.49-.26-.76-.53-.76-.78,0-.7,1.68-1.39,4.55-1.81a44.486,44.486,0,0,1,6.18-.39,54.492,54.492,0,0,1,8.67.66C726.748-483.611,728.378-483.051,728.378-482.481Z" fill="#f1cdde" fill-rule="evenodd"/>
          <path id="Trazado_264708" data-name="Trazado 264708" d="M722.15-482.888c0,.39-2.464.706-5.5.706s-5.5-.316-5.5-.706,2.463-.706,5.5-.706S722.15-483.278,722.15-482.888Z" fill="#833960" fill-rule="evenodd"/>
          <path id="Trazado_264709" data-name="Trazado 264709" d="M712.935-482.888c-.482-.28,3.735-.585,5.494-.563s2.933.372,2.995.563S714.579-481.931,712.935-482.888Z" fill="#d36e65" fill-rule="evenodd"/>
          <path id="Trazado_264710" data-name="Trazado 264710" d="M712.589-482.656c-.175-.019-1.2-.089-1.165-.279a9.145,9.145,0,0,1,2.421-.418c.108.022-1.081.3-1.09.418S712.658-482.648,712.589-482.656Z" fill="#7e9f5e" fill-rule="evenodd"/>
        </g>
      </g>
      <path id="Trazado_264711" data-name="Trazado 264711" d="M796.706-497.311v0c0-1.443-6.143-2.612-13.72-2.612a64.231,64.231,0,0,0-6.648.327v0l.139-1.762,0-.006c0-1.443-6.143-2.613-13.721-2.613s-13.713,1.169-13.72,2.611h0v0l0,.009a.606.606,0,0,0,.018.119l.34,2.56v.007a63.289,63.289,0,0,0-6.868-.354c-7.578,0-13.721,1.17-13.721,2.613l0,.005h0a.585.585,0,0,0,.02.13l.36,2.76v0c-2.349-.8-6.826-1.338-11.971-1.338-7.578,0-13.721,1.17-13.721,2.612l0,.008a.582.582,0,0,0,.019.125l.46,3.48a59.6,59.6,0,0,0-8.1-.51,52.922,52.922,0,0,0-9.99.83c.38.13.75.27,1.13.4,3.12,1.11,6.32,2.2,9.5,3.25.1.04.19.07.29.11h.02c.6.2,1.2.4,1.8.59,1.28.42,2.56.84,3.82,1.25.81.26,1.61.51,2.41.77l.78.24c.01,0,.02.01.03.01a6.491,6.491,0,0,0,1.12.45c.02,0,.03.01.05.01a11.333,11.333,0,0,0,1.34.34c0,.01,0,.01.01,0,.01.01.01.01.02.01.31.09.62.19.93.29.57.17,1.13.35,1.69.52,5.82,1.81,10.94,3.32,14.56,4.38,1.59.46,2.89.83,3.83,1.1.12.04.24.07.35.1.89.25,1.37.39,1.37.39,3.76-.43,8.98-1.38,15.1-2.68,1.4-.29,2.84-.6,4.32-.92.2-.05.4-.1.61-.14,1.28-.29,2.59-.58,3.92-.89,4.12-.94,8.47-1.98,12.93-3.07,1.12-.28,2.26-.56,3.39-.84,1.3-.32,2.6-.65,3.9-.98.24-.05.47-.11.71-.18,6.8-1.71,13.69-3.5,20.25-5.24l.64-8.27Z" fill="#f1d1b8" fill-rule="evenodd" style="mix-blend-mode: soft-light;isolation: isolate"/>
      <path id="Trazado_264712" data-name="Trazado 264712" d="M713.852-501.022,801.18-490.4l32.987-9.052s-42.466-7.3-85.129-8.967Z" fill="#f1fffc" fill-rule="evenodd" style="mix-blend-mode: soft-light;isolation: isolate"/>
      <path id="Trazado_264713" data-name="Trazado 264713" d="M707.337-499.411l47.551,20.679-19.045,3.921L699.515-497.5Z" fill="#f1fffc" fill-rule="evenodd" style="mix-blend-mode: soft-light;isolation: isolate"/>
      <path id="Trazado_264714" data-name="Trazado 264714" d="M729.88-466.872s96.831-21.118,127.673-34.5Z" fill="#ffc88b" fill-rule="evenodd"/>
      <g id="Grupo_128296" data-name="Grupo 128296" opacity="0.5" style="mix-blend-mode: multiply;isolation: isolate">
        <path id="Trazado_264715" data-name="Trazado 264715" d="M743.077-457.289c.112.6.416.921,1.117.78a.791.791,0,0,0,.634-.956,1.01,1.01,0,0,0-1.066-.817A.91.91,0,0,0,743.077-457.289Z" fill="#e3d9d2" fill-rule="evenodd"/>
        <path id="Trazado_264716" data-name="Trazado 264716" d="M760.027-450.525a1.4,1.4,0,0,1,1.346-1.1,2.1,2.1,0,0,1,1.379.356,1.033,1.033,0,0,1,.541,1.242,2.236,2.236,0,0,1-.417.647c-.219.176-.656.059-.9.017a1.533,1.533,0,0,1-.931-.521C760.757-450.146,760.005-449.936,760.027-450.525Z" fill="#e3d9d2" fill-rule="evenodd"/>
        <path id="Trazado_264717" data-name="Trazado 264717" d="M743.523-459.871c-.392.16-.95.764-.38,1.015a2.4,2.4,0,0,0,1.521-.24c1.056-.81-.617-1.506-1.3-.653Z" fill="#e3d9d2" fill-rule="evenodd"/>
        <path id="Trazado_264718" data-name="Trazado 264718" d="M744.031-454.694c.384-.676,1.086.1.628.481a.437.437,0,0,1-.707-.333Z" fill="#e3d9d2" fill-rule="evenodd"/>
        <path id="Trazado_264719" data-name="Trazado 264719" d="M745.073-457.262c.257-.451.725.064.419.321a.291.291,0,0,1-.471-.222Z" fill="#e3d9d2" fill-rule="evenodd"/>
        <path id="Trazado_264720" data-name="Trazado 264720" d="M815.874-483.774c-.48.646.4,1.4.746.622.186-.418-.173-.927-.581-.622Z" fill="#e3d9d2" fill-rule="evenodd"/>
        <path id="Trazado_264721" data-name="Trazado 264721" d="M736.692-458.768c-.117-.229-.227-.168-.352-.023-.209.243-.07.3.077.481.327.413.617.4,1.066.113.36-.23.966-.868.314-1.186a1.114,1.114,0,0,0-1.029.272Z" fill="#e3d9d2" fill-rule="evenodd"/>
        <path id="Trazado_264722" data-name="Trazado 264722" d="M735.245-458.311c-.065-.585.8.169.423.487-.323.268-.526-.292-.423-.526Z" fill="#e3d9d2" fill-rule="evenodd"/>
        <path id="Trazado_264723" data-name="Trazado 264723" d="M737-460.329c.243.386.739-.157.563-.412-.211-.3-.519.191-.6.335Z" fill="#e3d9d2" fill-rule="evenodd"/>
        <path id="Trazado_264724" data-name="Trazado 264724" d="M812.433-478.986c.079-.263.4-.02.442.148a.5.5,0,0,1-.4.567c-.384.036-.486-.56-.146-.7Z" fill="#e3d9d2" fill-rule="evenodd"/>
        <path id="Trazado_264725" data-name="Trazado 264725" d="M816.019-478.51c-.228.332.546.4.539.026-.005-.3-.451-.3-.539-.046Z" fill="#e3d9d2" fill-rule="evenodd"/>
        <path id="Trazado_264726" data-name="Trazado 264726" d="M812.806-485.018a.311.311,0,0,1,.295-.474c.313.046.32.479.214.694a.345.345,0,1,1-.612-.3Z" fill="#e3d9d2" fill-rule="evenodd"/>
        <path id="Trazado_264727" data-name="Trazado 264727" d="M736.844-466.345c-.506,1.2,1.456.777,1.563-.189C738.537-467.7,736.989-467.394,736.844-466.345Z" fill="#e3d9d2" fill-rule="evenodd"/>
        <path id="Trazado_264728" data-name="Trazado 264728" d="M763.187-452.139c-.558.761.9,1.13,1.019.174a.769.769,0,0,0-1.178-.1Z" fill="#e3d9d2" fill-rule="evenodd"/>
        <path id="Trazado_264729" data-name="Trazado 264729" d="M755.586-442.954a4.006,4.006,0,0,1,5.268-1.028c.442.3,1.07.846.545,1.337-.456.428-2.646.007-3.259.007A6.172,6.172,0,0,1,755.586-442.954Z" fill="#e3d9d2" fill-rule="evenodd"/>
        <path id="Trazado_264730" data-name="Trazado 264730" d="M751.31-443.746c.1.7,1.334.456,1.153-.122-.121-.383-.795-.482-.915-.116Z" fill="#e3d9d2" fill-rule="evenodd"/>
        <path id="Trazado_264731" data-name="Trazado 264731" d="M758.155-468.273c-.23,1.085,1.152.867,1.148-.006,0-.723-.948-.976-1.148-.223Z" fill="#e3d9d2" fill-rule="evenodd"/>
        <path id="Trazado_264732" data-name="Trazado 264732" d="M735.4-448.07a.775.775,0,0,1,.451-.345c.711.942-.873,1.577-.451.46Z" fill="#e3d9d2" fill-rule="evenodd"/>
        <path id="Trazado_264733" data-name="Trazado 264733" d="M690.7-471.025c-1.1,2.807,3.528.852,4.2-.446.7-1.345-1.074-1.567-2.068-1.387A2.443,2.443,0,0,0,690.7-471.025Z" fill="#e3d9d2" fill-rule="evenodd"/>
        <path id="Trazado_264734" data-name="Trazado 264734" d="M695.04-470.351c.111-.624,1.281-1.164,1.137-.216-.081.531-.833.879-1.041.313Z" fill="#e3d9d2" fill-rule="evenodd"/>
        <path id="Trazado_264735" data-name="Trazado 264735" d="M802.612-466.192c-1.16,1.62,3.7,1.639,3.922.026.23-1.659-3.487-1.094-4.022-.126Z" fill="#e3d9d2" fill-rule="evenodd"/>
        <path id="Trazado_264736" data-name="Trazado 264736" d="M806.019-468.1c.1-1,1.49-.564,1.2.043-.242.5-.944.138-1.2-.143Z" fill="#e3d9d2" fill-rule="evenodd"/>
        <path id="Trazado_264737" data-name="Trazado 264737" d="M809.727-466.893a3.089,3.089,0,0,0,1.293-.308c-.111-.9-1.235-.7-1.5.007.039.143.133.117.21.2Z" fill="#e3d9d2" fill-rule="evenodd"/>
        <path id="Trazado_264738" data-name="Trazado 264738" d="M806.159-479.653c-.005-.206.053-.31.262-.319.256.211.191.621-.153.537Z" fill="#e3d9d2" fill-rule="evenodd"/>
        <path id="Trazado_264739" data-name="Trazado 264739" d="M753.474-451.8c-1.736,1.463,2,1.026.317.211Z" fill="#e3d9d2" fill-rule="evenodd"/>
        <path id="Trazado_264740" data-name="Trazado 264740" d="M746.085-447.863c-.427.437-.265,1.344.5,1.017.582-.25.451-1.269-.261-.938Z" fill="#e3d9d2" fill-rule="evenodd"/>
        <path id="Trazado_264741" data-name="Trazado 264741" d="M749.568-445.488c.14-.482.748-.489.719,0-.025.409-.431.365-.56.081Z" fill="#e3d9d2" fill-rule="evenodd"/>
        <path id="Trazado_264742" data-name="Trazado 264742" d="M845.712-489.5c.112.6.416.92,1.117.779a.791.791,0,0,0,.634-.956,1.01,1.01,0,0,0-1.066-.817A.911.911,0,0,0,845.712-489.5Z" fill="#e3d9d2" fill-rule="evenodd"/>
        <path id="Trazado_264743" data-name="Trazado 264743" d="M807.786-479.6a.763.763,0,0,1,.733-.6,1.14,1.14,0,0,1,.751.193.561.561,0,0,1,.294.676,1.214,1.214,0,0,1-.227.353c-.119.1-.357.031-.492.009a.835.835,0,0,1-.507-.284C808.184-479.394,807.775-479.28,807.786-479.6Z" fill="#e3d9d2" fill-rule="evenodd"/>
        <path id="Trazado_264744" data-name="Trazado 264744" d="M846.158-492.081c-.392.161-.95.764-.38,1.015a2.4,2.4,0,0,0,1.521-.24c1.057-.81-.616-1.506-1.3-.652Z" fill="#e3d9d2" fill-rule="evenodd"/>
        <path id="Trazado_264745" data-name="Trazado 264745" d="M846.666-486.9c.385-.676,1.087.1.628.481a.437.437,0,0,1-.707-.333Z" fill="#e3d9d2" fill-rule="evenodd"/>
        <path id="Trazado_264746" data-name="Trazado 264746" d="M847.709-489.471c.256-.451.724.063.419.32a.292.292,0,0,1-.472-.222Z" fill="#e3d9d2" fill-rule="evenodd"/>
        <path id="Trazado_264747" data-name="Trazado 264747" d="M834.67-487.537c-.88,1.186.734,2.575,1.372,1.142.341-.766-.319-1.7-1.067-1.142Z" fill="#e3d9d2" fill-rule="evenodd"/>
        <path id="Trazado_264748" data-name="Trazado 264748" d="M837.336-484.11c-.117-.229-.227-.168-.352-.023-.21.243-.07.3.077.481.327.413.617.4,1.065.113.361-.23.967-.868.315-1.186a1.114,1.114,0,0,0-1.029.272Z" fill="#e3d9d2" fill-rule="evenodd"/>
        <path id="Trazado_264749" data-name="Trazado 264749" d="M835.889-483.653c-.066-.585.8.169.422.487-.322.268-.525-.292-.422-.526Z" fill="#e3d9d2" fill-rule="evenodd"/>
        <path id="Trazado_264750" data-name="Trazado 264750" d="M837.64-485.671c.243.386.74-.157.564-.412-.211-.3-.519.191-.6.335Z" fill="#e3d9d2" fill-rule="evenodd"/>
        <path id="Trazado_264751" data-name="Trazado 264751" d="M691.976-459.941c-.418.61,1,.739.99.047-.01-.548-.829-.548-.99-.086Z" fill="#e3d9d2" fill-rule="evenodd"/>
        <path id="Trazado_264752" data-name="Trazado 264752" d="M837.488-491.687c-.507,1.2,1.456.777,1.563-.189C839.18-493.042,837.633-492.736,837.488-491.687Z" fill="#e3d9d2" fill-rule="evenodd"/>
        <path id="Trazado_264753" data-name="Trazado 264753" d="M809.506-480.479c-.3.414.491.615.555.1a.418.418,0,0,0-.641-.052Z" fill="#e3d9d2" fill-rule="evenodd"/>
        <path id="Trazado_264754" data-name="Trazado 264754" d="M805.369-475.48a2.181,2.181,0,0,1,2.868-.559c.24.165.582.46.3.728-.248.233-1.44,0-1.774,0A3.343,3.343,0,0,1,805.369-475.48Z" fill="#e3d9d2" fill-rule="evenodd"/>
        <path id="Trazado_264755" data-name="Trazado 264755" d="M778.514-470.479c.1.7,1.334.456,1.152-.122-.12-.383-.794-.482-.914-.116Z" fill="#e3d9d2" fill-rule="evenodd"/>
        <path id="Trazado_264756" data-name="Trazado 264756" d="M693.08-455.487a.771.771,0,0,1,.451-.345c.711.942-.874,1.577-.451.459Z" fill="#e3d9d2" fill-rule="evenodd"/>
        <path id="Trazado_264757" data-name="Trazado 264757" d="M850.624-497.2c-1.736,1.462,2,1.026.317.211Z" fill="#e3d9d2" fill-rule="evenodd"/>
        <path id="Trazado_264758" data-name="Trazado 264758" d="M703.767-455.281c-.427.438-.265,1.344.5,1.017.582-.249.451-1.268-.26-.937Z" fill="#e3d9d2" fill-rule="evenodd"/>
        <path id="Trazado_264759" data-name="Trazado 264759" d="M776.772-472.221c.139-.482.748-.489.719,0-.025.41-.432.365-.561.081Z" fill="#e3d9d2" fill-rule="evenodd"/>
        <path id="Trazado_264760" data-name="Trazado 264760" d="M747.886-456.028a1.729,1.729,0,0,0,.62-.6c-.414-.357-.435-.08-.62.26Z" fill="#e3d9d2" fill-rule="evenodd"/>
      </g>
    </g>
  </g>
</svg>
