<svg xmlns="http://www.w3.org/2000/svg" xmlns:xlink="http://www.w3.org/1999/xlink" width="238" height="170.511" viewBox="0 0 238 170.511">
  <defs>
    <linearGradient id="linear-gradient" y1="0.5" x2="1" y2="0.5" gradientUnits="objectBoundingBox">
      <stop offset="0" stop-color="#52b4ff"/>
      <stop offset="1" stop-color="#175688"/>
    </linearGradient>
    <linearGradient id="linear-gradient-2" x1="1.081" y1="1.025" x2="0.341" y2="0.356" xlink:href="#linear-gradient"/>
    <linearGradient id="linear-gradient-3" x1="0.594" y1="0.346" x2="0.208" y2="1.375" xlink:href="#linear-gradient"/>
  </defs>
  <g id="Grupo_128320" data-name="Grupo 128320" transform="translate(-1134 -1684.5)">
    <g id="Grupo_126473" data-name="Grupo 126473" transform="translate(1202.727 1684.5)">
      <path id="Trazado_252129" data-name="Trazado 252129" d="M976.1,187.41,854.373,117.167l-47.544,27.449,121.722,70.244Z" transform="translate(-806.829 -44.35)" opacity="0.3"/>
      <g id="Grupo_126395" data-name="Grupo 126395" transform="translate(154.136 91.636)">
        <path id="Trazado_252130" data-name="Trazado 252130" d="M885.608,126.549l-3.179,1.85-.563-.326,3.187-1.84Z" transform="translate(-880.241 -126.233)" fill="#666"/>
        <path id="Trazado_252131" data-name="Trazado 252131" d="M882.429,135.425l-.563-.325v-7.98l.563.326Z" transform="translate(-880.241 -125.28)" fill="#4d4d4d"/>
        <path id="Trazado_252132" data-name="Trazado 252132" d="M885.316,134.368l-3.179,1.846v-7.979l3.179-1.85Z" transform="translate(-879.949 -126.069)" fill="#333"/>
        <path id="Trazado_252133" data-name="Trazado 252133" d="M883.149,128.647a.61.61,0,0,0-.288-.507.187.187,0,0,0-.21-.017l-1.521.853.4.729,1.542-.864v0A.213.213,0,0,0,883.149,128.647Z" transform="translate(-881.033 -124.226)" fill="#1f1f1f"/>
        <path id="Trazado_252134" data-name="Trazado 252134" d="M881.668,129.065c0,.187-.135.264-.293.168a.644.644,0,0,1-.293-.511c0-.187.129-.257.293-.166A.66.66,0,0,1,881.668,129.065Z" transform="translate(-881.083 -123.777)" fill="#080808"/>
      </g>
      <path id="Trazado_252135" data-name="Trazado 252135" d="M855.884,149.689,849,153.66s-2.458-4.71,2.728-6.379C856.895,145.615,855.884,149.689,855.884,149.689Z" transform="translate(-762.087 -12.384)" fill="#242424"/>
      <path id="Trazado_252136" data-name="Trazado 252136" d="M812.535,133.19l67.953,39.232V159.053l-67.953-39.225Z" transform="translate(-800.69 -41.488)" fill="#242424"/>
      <path id="Trazado_252137" data-name="Trazado 252137" d="M824.58,131.64l-8.02,4.631,3.163-7.428Z" transform="translate(-796.36 -31.79)" fill="#242424"/>
      <g id="Grupo_126396" data-name="Grupo 126396" transform="translate(23.953 96.432)">
        <path id="Trazado_252138" data-name="Trazado 252138" d="M831.628,142.6c0,4.23-2.973,5.943-6.632,3.83a14.675,14.675,0,0,1-6.628-11.477c0-4.224,2.979-5.941,6.628-3.828A14.668,14.668,0,0,1,831.628,142.6Z" transform="translate(-818.368 -126.734)" fill="#333"/>
        <path id="Trazado_252139" data-name="Trazado 252139" d="M836.643,140.929a14.642,14.642,0,0,0-6.628-11.483c-1.787-1.032-3.4-1.148-4.594-.5l-.008,0-6.088,3.525c1.193-.67,2.835-.565,4.641.477a14.668,14.668,0,0,1,6.632,11.475c0,2.028-.685,3.475-1.8,4.2v0l6.051-3.489v0C835.956,144.4,836.643,142.953,836.643,140.929Z" transform="translate(-817.338 -128.543)" fill="#474747"/>
        <path id="Trazado_252140" data-name="Trazado 252140" d="M830.872,142.533a14.627,14.627,0,0,0-6.634-11.475c-1.783-1.038-3.4-1.154-4.592-.515l-.322.191c1.193-.67,2.835-.565,4.641.477a14.668,14.668,0,0,1,6.632,11.475c0,2.028-.685,3.475-1.8,4.2v0l.266-.16S830.872,145.694,830.872,142.533Z" transform="translate(-817.338 -126.816)" fill="#575757"/>
        <path id="Trazado_252141" data-name="Trazado 252141" d="M831.828,141.984a14.649,14.649,0,0,0-6.638-11.479c-1.781-1.027-3.4-1.146-4.6-.509l-.318.189c1.193-.677,2.838-.56,4.652.482a14.649,14.649,0,0,1,6.621,11.477c0,2.024-.679,3.473-1.793,4.2h0l.264-.154S831.828,145.147,831.828,141.984Z" transform="translate(-816.315 -127.402)" fill="#2b2b2b"/>
        <path id="Trazado_252142" data-name="Trazado 252142" d="M832.806,141.413a14.619,14.619,0,0,0-6.628-11.471c-1.785-1.038-3.4-1.152-4.6-.513l-.32.185c1.206-.666,2.842-.56,4.656.484a14.662,14.662,0,0,1,6.626,11.473c0,2.032-.679,3.475-1.8,4.2l.008,0,.257-.158S832.81,144.579,832.806,141.413Z" transform="translate(-815.261 -128.015)" fill="#2b2b2b"/>
        <path id="Trazado_252143" data-name="Trazado 252143" d="M831.8,142.548l-.884-1.43.509-1.509-1.219-1.15.3-1.623-1.495-.874.158-1.692-1.727-.525-.172-1.607-1.758-.251-.421-1.162-2.15-.239-.675-.617s-1.58.413-2.01.56a3.259,3.259,0,0,0-.452.205v0l-.268.145a3.16,3.16,0,0,1,.689-.28c.386-.11,1.82-.5,1.82-.5l.716.625,2.128.228.388,1.158,1.789.264.137,1.576,1.725.515-.135,1.723,1.476.849-.3,1.584,1.22,1.152-.5,1.528.876,1.362-.824,1.291.409.9-1.109,1.133-.162.558.21-.114.071-.432,1.173-1.175-.39-.911Z" transform="translate(-817.113 -127.117)" fill="#333"/>
        <path id="Trazado_252144" data-name="Trazado 252144" d="M832.813,141.952l-.882-1.426.517-1.513-1.217-1.154.305-1.615-1.5-.88.147-1.688-1.725-.529-.168-1.6-1.762-.253-.415-1.167-2.152-.237-.687-.61s-1.563.407-1.991.556c-.16.058-.316.124-.471.2h0l-.255.147a3.464,3.464,0,0,1,.687-.284c.386-.11,1.823-.5,1.823-.5l.714.623,2.126.226.4,1.16,1.771.268.139,1.569,1.731.515-.135,1.725,1.482.849-.3,1.586,1.223,1.146-.5,1.534.876,1.364-.83,1.287.409.9-1.108,1.133-.158.56.21-.116.071-.43,1.168-1.175-.384-.909Z" transform="translate(-816.01 -127.754)" fill="#333"/>
        <path id="Trazado_252145" data-name="Trazado 252145" d="M833.83,141.364l-.872-1.428.506-1.511-1.22-1.152.309-1.617-1.5-.878.145-1.688-1.725-.527-.164-1.6-1.766-.253-.413-1.171-2.148-.23-.675-.612s-1.576.4-2.007.556a3.415,3.415,0,0,0-.465.2h0l-.264.147a3.2,3.2,0,0,1,.685-.282c.38-.114,1.831-.506,1.831-.506l.706.627,2.121.222.4,1.156,1.791.278.131,1.565,1.721.517-.135,1.725,1.486.845-.3,1.592,1.218,1.144-.5,1.526.874,1.37-.826,1.285.409.909-1.106,1.129-.166.558.21-.116.077-.426,1.167-1.179-.386-.905Z" transform="translate(-814.918 -128.385)" fill="#333"/>
        <path id="Trazado_252146" data-name="Trazado 252146" d="M828.705,140.205c0,3-2.109,4.214-4.708,2.719a10.4,10.4,0,0,1-4.7-8.143c0-3,2.107-4.214,4.7-2.717A10.4,10.4,0,0,1,828.705,140.205Z" transform="translate(-817.37 -125.445)" fill="#1f1f1f"/>
        <path id="Trazado_252147" data-name="Trazado 252147" d="M827.8,139.465c0,2.615-1.839,3.682-4.112,2.373a9.089,9.089,0,0,1-4.1-7.114c0-2.62,1.841-3.676,4.1-2.368A9.069,9.069,0,0,1,827.8,139.465Z" transform="translate(-817.06 -125.046)" fill="#919191"/>
        <path id="Trazado_252148" data-name="Trazado 252148" d="M823.768,136.16c0,.928-.652,1.3-1.455.837a3.226,3.226,0,0,1-1.451-2.514c0-.93.654-1.3,1.451-.839A3.2,3.2,0,0,1,823.768,136.16Z" transform="translate(-815.685 -123.27)" fill="#707070"/>
        <path id="Trazado_252149" data-name="Trazado 252149" d="M822.14,134.823c0,.249-.166.349-.382.224a.847.847,0,0,1-.38-.664c0-.243.17-.345.38-.22A.837.837,0,0,1,822.14,134.823Z" transform="translate(-815.13 -122.556)" fill="#575757"/>
        <path id="Trazado_252150" data-name="Trazado 252150" d="M822.272,134.586a.158.158,0,0,1-.064.1c-.11.058-.286-.039-.392-.222s-.1-.382,0-.44A.163.163,0,0,1,821.9,134a.459.459,0,0,0,.064.34A.418.418,0,0,0,822.272,134.586Z" transform="translate(-814.737 -122.67)" fill="#4f4f4f"/>
        <path id="Trazado_252151" data-name="Trazado 252151" d="M822.2,134.585a.418.418,0,0,1-.305-.241.46.46,0,0,1-.064-.34.437.437,0,0,1,.305.237A.476.476,0,0,1,822.2,134.585Z" transform="translate(-814.661 -122.669)" fill="#2b2b2b"/>
        <path id="Trazado_252152" data-name="Trazado 252152" d="M822.264,135.3c-.017.048-.029.083-.062.1-.106.058-.28-.039-.4-.222-.093-.183-.093-.378,0-.438a.2.2,0,0,1,.087-.021.48.48,0,0,0,.064.345A.408.408,0,0,0,822.264,135.3Z" transform="translate(-814.746 -121.901)" fill="#4f4f4f"/>
        <path id="Trazado_252153" data-name="Trazado 252153" d="M822.189,135.3a.408.408,0,0,1-.307-.237.48.48,0,0,1-.064-.345.43.43,0,0,1,.309.243A.462.462,0,0,1,822.189,135.3Z" transform="translate(-814.67 -121.901)" fill="#2b2b2b"/>
        <path id="Trazado_252154" data-name="Trazado 252154" d="M821.648,134.931a.167.167,0,0,1-.075.1c-.1.058-.276-.042-.384-.222s-.1-.38,0-.44a.18.18,0,0,1,.077-.014.507.507,0,0,0,.068.338A.424.424,0,0,0,821.648,134.931Z" transform="translate(-815.415 -122.293)" fill="#4f4f4f"/>
        <path id="Trazado_252155" data-name="Trazado 252155" d="M821.573,134.931a.424.424,0,0,1-.313-.239.507.507,0,0,1-.068-.338.414.414,0,0,1,.307.237A.468.468,0,0,1,821.573,134.931Z" transform="translate(-815.339 -122.293)" fill="#2b2b2b"/>
        <path id="Trazado_252156" data-name="Trazado 252156" d="M821.649,134.22a.131.131,0,0,1-.064.1c-.106.062-.278-.044-.382-.222s-.112-.384,0-.446a.132.132,0,0,1,.073-.019.457.457,0,0,0,.071.351A.407.407,0,0,0,821.649,134.22Z" transform="translate(-815.409 -123.066)" fill="#4f4f4f"/>
        <path id="Trazado_252157" data-name="Trazado 252157" d="M821.574,134.22a.407.407,0,0,1-.3-.235.2.2,0,1,1,.239-.1A.494.494,0,0,1,821.574,134.22Z" transform="translate(-815.334 -123.066)" fill="#2b2b2b"/>
        <path id="Trazado_252158" data-name="Trazado 252158" d="M823.554,133.94c-.251.336-.708.394-1.245.087a3.3,3.3,0,0,1-1.443-2.217,2.94,2.94,0,0,1,.438.091,3.271,3.271,0,0,0,1.368,1.872A1.123,1.123,0,0,0,823.554,133.94Z" transform="translate(-815.681 -125.029)" fill="#575757"/>
        <path id="Trazado_252159" data-name="Trazado 252159" d="M823.528,133.421a1.021,1.021,0,0,1-.2.471,1.123,1.123,0,0,1-.882-.166,3.271,3.271,0,0,1-1.368-1.872,4.522,4.522,0,0,1,1,.438A6.9,6.9,0,0,1,823.528,133.421Z" transform="translate(-815.454 -124.982)" fill="#2b2b2b"/>
        <path id="Trazado_252160" data-name="Trazado 252160" d="M824.177,137.364a2.175,2.175,0,0,1-1.91.457c-.278-.847-.137-1.613.384-1.81a.159.159,0,0,1,.042-.012,1.788,1.788,0,0,0-.073,1.569A2.315,2.315,0,0,0,824.177,137.364Z" transform="translate(-814.324 -120.524)" fill="#575757"/>
        <path id="Trazado_252161" data-name="Trazado 252161" d="M824.3,137.054a1.679,1.679,0,0,1-.3.328,2.315,2.315,0,0,1-1.557.2,1.789,1.789,0,0,1,.073-1.569C823.05,135.852,823.784,136.294,824.3,137.054Z" transform="translate(-814.141 -120.542)" fill="#2b2b2b"/>
        <path id="Trazado_252162" data-name="Trazado 252162" d="M824.39,137.263c0,.073-.01.137-.01.21a3.209,3.209,0,0,1-1.557-2.051c-.191-.818.027-1.436.5-1.58a1.605,1.605,0,0,0-.131,1.328,3.365,3.365,0,0,0,1.189,1.835C824.38,137.091,824.39,137.18,824.39,137.263Z" transform="translate(-813.65 -122.843)" fill="#575757"/>
        <path id="Trazado_252163" data-name="Trazado 252163" d="M824.193,137.023A3.364,3.364,0,0,1,823,135.188a1.605,1.605,0,0,1,.131-1.328,1.066,1.066,0,0,1,.174-.033A8.144,8.144,0,0,1,824.193,137.023Z" transform="translate(-813.463 -122.861)" fill="#2b2b2b"/>
        <path id="Trazado_252164" data-name="Trazado 252164" d="M822.251,137.447a1.4,1.4,0,0,1-.145.473,9.689,9.689,0,0,1-2.238-3.348.827.827,0,0,1,.457-.021A9.722,9.722,0,0,0,822.251,137.447Z" transform="translate(-816.754 -122.104)" fill="#575757"/>
        <path id="Trazado_252165" data-name="Trazado 252165" d="M822.014,137.436a9.722,9.722,0,0,1-1.926-2.9,2.352,2.352,0,0,1,1.4,1.1A2.985,2.985,0,0,1,822.014,137.436Z" transform="translate(-816.518 -122.092)" fill="#2b2b2b"/>
        <path id="Trazado_252166" data-name="Trazado 252166" d="M821.043,134.717c-.3.4-.874.384-1.455-.041,0-.069,0-.141,0-.208a3.146,3.146,0,0,1,.9-2.435c.023.019.037.044.06.066a3.439,3.439,0,0,0-.6,2.115,1.117,1.117,0,0,0,.013.2A1.246,1.246,0,0,0,821.043,134.717Z" transform="translate(-817.06 -124.789)" fill="#575757"/>
        <path id="Trazado_252167" data-name="Trazado 252167" d="M821,134.417a.922.922,0,0,1-.141.266,1.245,1.245,0,0,1-1.09-.3,1.107,1.107,0,0,1-.013-.2,3.439,3.439,0,0,1,.6-2.115A2.762,2.762,0,0,1,821,134.417Z" transform="translate(-816.875 -124.755)" fill="#2b2b2b"/>
      </g>
      <g id="Grupo_126397" data-name="Grupo 126397" transform="translate(17.994 89.142)">
        <path id="Trazado_252168" data-name="Trazado 252168" d="M817.7,138.177l-2.205-2.289,3.755-8.817,17.145,9.9,3.507,13.049-2.233-.342-2.936-10.92-13.87-8.005Z" transform="translate(-815.497 -122.837)" fill="#575757"/>
        <path id="Trazado_252169" data-name="Trazado 252169" d="M817.306,129.265l7.359-4.234,17.148,9.9-7.361,4.225Z" transform="translate(-813.551 -125.032)" fill="#757575"/>
        <path id="Trazado_252170" data-name="Trazado 252170" d="M832.927,129.8l3.508,13.044-7.361,4.23-3.507-13.049Z" transform="translate(-804.665 -119.898)" fill="#787878"/>
      </g>
      <path id="Trazado_252171" data-name="Trazado 252171" d="M925.988,122.4,856.156,82.088l-47.544,27.449,69.831,40.317Z" transform="translate(-804.91 -82.088)" fill="#b8b8b8"/>
      <path id="Trazado_252172" data-name="Trazado 252172" d="M808.613,95.311l69.831,40.317v54.479l-69.831-40.315Z" transform="translate(-804.91 -67.862)" fill="#919191"/>
      <path id="Trazado_252173" data-name="Trazado 252173" d="M889.8,155.99,842.253,183.44V128.961L889.8,101.509Z" transform="translate(-768.72 -61.195)" fill="#6e6e6e"/>
      <g id="Grupo_126398" data-name="Grupo 126398" transform="translate(87.771 133.29)">
        <path id="Trazado_252174" data-name="Trazado 252174" d="M862.353,160.363c0,4.228-2.96,5.939-6.62,3.826a14.64,14.64,0,0,1-6.622-11.471c0-4.233,2.96-5.945,6.622-3.832A14.642,14.642,0,0,1,862.353,160.363Z" transform="translate(-849.112 -144.491)" fill="#333"/>
        <path id="Trazado_252175" data-name="Trazado 252175" d="M867.373,158.68a14.639,14.639,0,0,0-6.615-11.477c-1.793-1.032-3.417-1.15-4.608-.509v-.006l-6.082,3.523c1.185-.671,2.833-.56,4.639.484a14.642,14.642,0,0,1,6.62,11.477c0,2.022-.675,3.469-1.785,4.193v0l6.032-3.483h0C866.69,162.149,867.373,160.708,867.373,158.68Z" transform="translate(-848.085 -146.3)" fill="#474747"/>
        <path id="Trazado_252176" data-name="Trazado 252176" d="M861.6,160.284a14.633,14.633,0,0,0-6.624-11.473c-1.787-1.036-3.4-1.15-4.6-.515l-.311.189c1.185-.671,2.833-.56,4.639.484a14.642,14.642,0,0,1,6.62,11.477c0,2.022-.675,3.469-1.785,4.193v0l.264-.149S861.608,163.447,861.6,160.284Z" transform="translate(-848.085 -144.573)" fill="#575757"/>
        <path id="Trazado_252177" data-name="Trazado 252177" d="M862.562,159.743a14.641,14.641,0,0,0-6.628-11.481c-1.783-1.03-3.4-1.15-4.6-.511l-.316.189c1.2-.668,2.838-.56,4.648.482A14.657,14.657,0,0,1,862.29,159.9c0,2.024-.689,3.467-1.8,4.191l.01.008.272-.16S862.562,162.9,862.562,159.743Z" transform="translate(-847.064 -145.16)" fill="#2b2b2b"/>
        <path id="Trazado_252178" data-name="Trazado 252178" d="M863.539,159.172a14.664,14.664,0,0,0-6.62-11.483c-1.787-1.028-3.412-1.142-4.6-.507l-.324.187c1.2-.668,2.842-.558,4.646.486a14.645,14.645,0,0,1,6.63,11.475c0,2.024-.681,3.475-1.789,4.2v0l.266-.158S863.539,162.335,863.539,159.172Z" transform="translate(-846.01 -145.772)" fill="#2b2b2b"/>
        <path id="Trazado_252179" data-name="Trazado 252179" d="M862.526,160.3l-.884-1.436.515-1.5-1.216-1.156.3-1.617-1.495-.876.154-1.692-1.729-.523-.164-1.607-1.771-.253-.4-1.162-2.163-.239-.662-.61s-1.578.409-2.016.558a3.029,3.029,0,0,0-.457.2v0l-.257.147a3.193,3.193,0,0,1,.687-.284c.382-.112,1.823-.5,1.823-.5l.706.627,2.134.222.39,1.16,1.781.27.137,1.569,1.729.515-.133,1.725,1.484.845-.313,1.59,1.229,1.15-.511,1.524.884,1.368-.832,1.289.4.905-1.109,1.131-.154.56.21-.12.073-.428,1.169-1.177-.4-.909Z" transform="translate(-847.861 -144.872)" fill="#333"/>
        <path id="Trazado_252180" data-name="Trazado 252180" d="M863.561,159.708l-.895-1.426.515-1.511-1.212-1.152.305-1.619-1.5-.878.158-1.69-1.731-.525-.168-1.6-1.767-.255-.4-1.165-2.161-.239-.673-.612s-1.582.409-2.016.558a2.717,2.717,0,0,0-.444.2h0l-.266.145a3.435,3.435,0,0,1,.683-.286c.378-.108,1.831-.5,1.831-.5l.706.625,2.124.224.4,1.16,1.783.268.137,1.571,1.725.513-.139,1.723,1.486.853-.311,1.586,1.221,1.144-.5,1.534.876,1.364-.83,1.287.409.907-1.117,1.127-.15.56.208-.112.073-.426,1.175-1.181-.4-.913Z" transform="translate(-846.757 -145.513)" fill="#333"/>
        <path id="Trazado_252181" data-name="Trazado 252181" d="M864.572,159.122l-.886-1.424.515-1.519-1.219-1.148.305-1.621-1.5-.874.156-1.692-1.735-.525-.16-1.609-1.768-.251-.4-1.16-2.161-.237-.677-.616s-1.578.4-1.995.556a2.8,2.8,0,0,0-.465.208V147.2l-.263.154a2.989,2.989,0,0,1,.677-.286l1.833-.5.706.623,2.138.224.388,1.162,1.787.268.133,1.573,1.725.511-.131,1.727,1.482.843-.311,1.6,1.227,1.142-.5,1.536.876,1.36-.833,1.285.409.909-1.1,1.127-.156.56.212-.112.066-.432,1.16-1.177-.384-.905Z" transform="translate(-845.664 -146.143)" fill="#333"/>
        <path id="Trazado_252182" data-name="Trazado 252182" d="M859.445,157.962c0,3-2.109,4.218-4.7,2.715a10.4,10.4,0,0,1-4.706-8.139c0-3,2.113-4.216,4.706-2.719A10.406,10.406,0,0,1,859.445,157.962Z" transform="translate(-848.119 -143.202)" fill="#1f1f1f"/>
        <path id="Trazado_252183" data-name="Trazado 252183" d="M858.532,157.218c0,2.618-1.827,3.682-4.1,2.371a9.074,9.074,0,0,1-4.106-7.107c0-2.618,1.843-3.682,4.106-2.368A9.045,9.045,0,0,1,858.532,157.218Z" transform="translate(-847.808 -142.803)" fill="#919191"/>
        <path id="Trazado_252184" data-name="Trazado 252184" d="M854.506,153.915c0,.926-.652,1.3-1.455.834a3.186,3.186,0,0,1-1.445-2.512c0-.926.641-1.3,1.445-.839A3.22,3.22,0,0,1,854.506,153.915Z" transform="translate(-846.429 -141.028)" fill="#707070"/>
        <path id="Trazado_252185" data-name="Trazado 252185" d="M852.888,152.584c0,.245-.174.343-.386.22a.841.841,0,0,1-.386-.662c0-.245.172-.347.386-.226A.864.864,0,0,1,852.888,152.584Z" transform="translate(-845.88 -140.313)" fill="#575757"/>
        <path id="Trazado_252186" data-name="Trazado 252186" d="M853.011,152.342a.223.223,0,0,1-.062.1c-.112.058-.278-.037-.378-.222-.12-.181-.12-.38,0-.44a.072.072,0,0,1,.064-.021.479.479,0,0,0,.069.345A.425.425,0,0,0,853.011,152.342Z" transform="translate(-845.488 -140.428)" fill="#4f4f4f"/>
        <path id="Trazado_252187" data-name="Trazado 252187" d="M852.936,152.341a.425.425,0,0,1-.307-.239.479.479,0,0,1-.069-.345.437.437,0,0,1,.313.237A.486.486,0,0,1,852.936,152.341Z" transform="translate(-845.413 -140.428)" fill="#2b2b2b"/>
        <path id="Trazado_252188" data-name="Trazado 252188" d="M853,153.057a.135.135,0,0,1-.064.1c-.11.06-.276-.035-.382-.218s-.106-.38,0-.438a.115.115,0,0,1,.083-.023.426.426,0,0,0,.071.342A.4.4,0,0,0,853,153.057Z" transform="translate(-845.495 -139.657)" fill="#4f4f4f"/>
        <path id="Trazado_252189" data-name="Trazado 252189" d="M852.922,153.056a.4.4,0,0,1-.293-.239.426.426,0,0,1-.071-.342.433.433,0,0,1,.3.237A.49.49,0,0,1,852.922,153.056Z" transform="translate(-845.418 -139.656)" fill="#2b2b2b"/>
        <path id="Trazado_252190" data-name="Trazado 252190" d="M852.375,152.685a.114.114,0,0,1-.064.1c-.108.066-.278-.033-.374-.216-.114-.187-.114-.38,0-.444a.131.131,0,0,1,.064-.01.5.5,0,0,0,.073.338A.444.444,0,0,0,852.375,152.685Z" transform="translate(-846.165 -140.049)" fill="#4f4f4f"/>
        <path id="Trazado_252191" data-name="Trazado 252191" d="M852.3,152.685a.444.444,0,0,1-.3-.237.5.5,0,0,1-.073-.338.427.427,0,0,1,.315.235A.462.462,0,0,1,852.3,152.685Z" transform="translate(-846.09 -140.049)" fill="#2b2b2b"/>
        <path id="Trazado_252192" data-name="Trazado 252192" d="M852.393,151.98a.157.157,0,0,1-.079.1c-.1.062-.274-.039-.369-.222-.114-.183-.114-.384-.009-.444a.113.113,0,0,1,.077-.021.475.475,0,0,0,.064.347A.453.453,0,0,0,852.393,151.98Z" transform="translate(-846.158 -140.824)" fill="#4f4f4f"/>
        <path id="Trazado_252193" data-name="Trazado 252193" d="M852.32,151.98a.453.453,0,0,1-.316-.243.475.475,0,0,1-.064-.347.429.429,0,0,1,.3.245A.469.469,0,0,1,852.32,151.98Z" transform="translate(-846.084 -140.823)" fill="#2b2b2b"/>
        <path id="Trazado_252194" data-name="Trazado 252194" d="M854.3,151.695a.913.913,0,0,1-1.254.087,3.2,3.2,0,0,1-1.43-2.217,4.148,4.148,0,0,1,.424.093,3.251,3.251,0,0,0,1.362,1.872A1.145,1.145,0,0,0,854.3,151.695Z" transform="translate(-846.421 -142.787)" fill="#575757"/>
        <path id="Trazado_252195" data-name="Trazado 252195" d="M854.262,151.177a.574.574,0,0,1-1.083.305,3.251,3.251,0,0,1-1.362-1.872,4.371,4.371,0,0,1,1.007.438A6.834,6.834,0,0,1,854.262,151.177Z" transform="translate(-846.202 -142.738)" fill="#2b2b2b"/>
        <path id="Trazado_252196" data-name="Trazado 252196" d="M854.918,155.126a2.176,2.176,0,0,1-1.91.453c-.288-.853-.137-1.611.388-1.812a.063.063,0,0,0,.037-.015,1.762,1.762,0,0,0-.062,1.571A2.284,2.284,0,0,0,854.918,155.126Z" transform="translate(-845.076 -138.282)" fill="#575757"/>
        <path id="Trazado_252197" data-name="Trazado 252197" d="M855.034,154.809a1.8,1.8,0,0,1-.3.334,2.284,2.284,0,0,1-1.547.2,1.762,1.762,0,0,1,.062-1.571C853.791,153.607,854.524,154.051,855.034,154.809Z" transform="translate(-844.89 -138.3)" fill="#2b2b2b"/>
        <path id="Trazado_252198" data-name="Trazado 252198" d="M855.122,155.017v.212a3.1,3.1,0,0,1-1.553-2.049c-.2-.82.019-1.438.5-1.584a1.6,1.6,0,0,0-.145,1.329,3.372,3.372,0,0,0,1.2,1.837C855.122,154.845,855.122,154.936,855.122,155.017Z" transform="translate(-844.398 -140.602)" fill="#575757"/>
        <path id="Trazado_252199" data-name="Trazado 252199" d="M854.933,154.777a3.372,3.372,0,0,1-1.2-1.837,1.6,1.6,0,0,1,.145-1.329,1.092,1.092,0,0,1,.168-.029A8.319,8.319,0,0,1,854.933,154.777Z" transform="translate(-844.214 -140.617)" fill="#2b2b2b"/>
        <path id="Trazado_252200" data-name="Trazado 252200" d="M852.989,155.2a1.152,1.152,0,0,1-.154.473,9.787,9.787,0,0,1-2.227-3.346.833.833,0,0,1,.446-.025A10.07,10.07,0,0,0,852.989,155.2Z" transform="translate(-847.503 -139.861)" fill="#575757"/>
        <path id="Trazado_252201" data-name="Trazado 252201" d="M852.758,155.192a10.071,10.071,0,0,1-1.935-2.9,2.3,2.3,0,0,1,1.4,1.1A2.971,2.971,0,0,1,852.758,155.192Z" transform="translate(-847.271 -139.851)" fill="#2b2b2b"/>
        <path id="Trazado_252202" data-name="Trazado 252202" d="M851.781,152.471c-.3.4-.872.386-1.457-.037v-.21a3.094,3.094,0,0,1,.9-2.435.32.32,0,0,1,.048.066,3.483,3.483,0,0,0-.592,2.113v.208A1.291,1.291,0,0,0,851.781,152.471Z" transform="translate(-847.808 -142.546)" fill="#575757"/>
        <path id="Trazado_252203" data-name="Trazado 252203" d="M851.735,152.173a.777.777,0,0,1-.139.264,1.291,1.291,0,0,1-1.1-.295v-.208a3.483,3.483,0,0,1,.592-2.113A2.748,2.748,0,0,1,851.735,152.173Z" transform="translate(-847.623 -142.511)" fill="#2b2b2b"/>
      </g>
      <path id="Trazado_252204" data-name="Trazado 252204" d="M881.224,145.213l-35.953-20.756v49.227l7.116,4.1c0-4.9,3.446-6.887,7.684-4.432a17,17,0,0,1,7.7,13.312l21.779,12.575.235-27.247Z" transform="translate(-765.473 -36.508)" fill="#c2c2c2"/>
      <path id="Trazado_252205" data-name="Trazado 252205" d="M876.038,170.641v1.234l-11.99-6.889V152.86l-10.387-6v-15.61l.985.57v14.433l10.4,6v12.121Z" transform="translate(-756.448 -29.195)" fill="#2565c4"/>
      <path id="Trazado_252206" data-name="Trazado 252206" d="M875.527,159.486v10.86l-11-6.267V151.958l-10.4-6V131.529l15.276,8.821Z" transform="translate(-755.938 -28.9)" fill="url(#linear-gradient)"/>
      <path id="Trazado_252207" data-name="Trazado 252207" d="M858.372,143.391c0,.444-.984.241-2.19-.461s-2.192-1.632-2.192-2.074.984-.239,2.192.461S858.372,142.948,858.372,143.391Z" transform="translate(-756.094 -19.117)" fill="#919191"/>
      <path id="Trazado_252208" data-name="Trazado 252208" d="M856.916,148.491l-10.1-5.837V127.047l10.1,5.84Z" transform="translate(-763.813 -33.721)" fill="#919191"/>
      <path id="Trazado_252209" data-name="Trazado 252209" d="M904.844,163.972l.241-27.253L866.837,158.8l-.235,27.247Z" transform="translate(-742.526 -23.316)" fill="#969696"/>
      <path id="Trazado_252210" data-name="Trazado 252210" d="M909.4,150.6l-8.567-26.781L862.591,145.9l8.56,26.778Z" transform="translate(-746.841 -37.195)" fill="#c2c2c2"/>
      <path id="Trazado_252211" data-name="Trazado 252211" d="M903.255,149.708,867.377,170.42l-.255-.81,35.057-20.246-7.772-24.31.817-.466Z" transform="translate(-741.967 -36.368)" fill="#2565c4"/>
      <path id="Trazado_252212" data-name="Trazado 252212" d="M906.21,149.122l-35.057,20.246-7.778-24.31,35.064-20.246Z" transform="translate(-745.998 -36.126)" fill="url(#linear-gradient-2)"/>
      <path id="Trazado_252213" data-name="Trazado 252213" d="M886.355,125.3l-.215-.137-12.505,7.218,7.833,4.523v2.065l7.484,4.323v9.039l3.517-2.024v-5.875Z" transform="translate(-734.96 -35.746)" fill="url(#linear-gradient-3)"/>
      <g id="Grupo_126399" data-name="Grupo 126399" transform="translate(124.076 134.682)">
        <path id="Trazado_252214" data-name="Trazado 252214" d="M905.811,147.495l-38.3,22.113v5.95l38.3-22.111Z" transform="translate(-865.621 -146.406)" fill="#333"/>
        <path id="Trazado_252215" data-name="Trazado 252215" d="M904.9,146.971l-38.3,22.1,1.893,1.1,38.3-22.109Z" transform="translate(-866.602 -146.971)" fill="#666"/>
        <path id="Trazado_252216" data-name="Trazado 252216" d="M868.495,164.667l-1.893-1.1v-5.946l1.893,1.1Z" transform="translate(-866.602 -135.516)" fill="#4d4d4d"/>
      </g>
      <path id="Trazado_252217" data-name="Trazado 252217" d="M881.223,156.656,845.271,135.9l38.245-22.079,35.949,20.753Z" transform="translate(-765.473 -47.951)" fill="#d9d9d9"/>
      <path id="Trazado_252218" data-name="Trazado 252218" d="M880.106,186.715l-16.364-9.279.2-7.612-11.288-6.5v-33.91l20.119,11.649.044.141,7.292,23.087ZM864.49,177l14.863,8.43V164.4l-7.2-22.844L853.4,130.706v32.187l11.284,6.5Z" transform="translate(-757.533 -31.178)" fill="#919191"/>
      <g id="Grupo_126400" data-name="Grupo 126400" transform="translate(126.602 140.563)">
        <path id="Trazado_252219" data-name="Trazado 252219" d="M871.816,155.535l-4,2.306v-4.616l4-2.308Z" transform="translate(-867.819 -148.605)" fill="#cf6400"/>
        <path id="Trazado_252220" data-name="Trazado 252220" d="M873.744,154.423l-4,2.31v-4.618l4-2.312Z" transform="translate(-865.747 -149.804)" fill="#ffd847"/>
      </g>
      <g id="Grupo_126401" data-name="Grupo 126401" transform="translate(152.707 125.492)">
        <path id="Trazado_252221" data-name="Trazado 252221" d="M884.394,148.275l-4,2.308v-4.617l4-2.311Z" transform="translate(-880.395 -141.347)" fill="#ffd847"/>
        <path id="Trazado_252222" data-name="Trazado 252222" d="M886.321,147.162l-4,2.309v-4.62l4-2.308Z" transform="translate(-878.322 -142.543)" fill="#cf6400"/>
      </g>
      <path id="Trazado_252223" data-name="Trazado 252223" d="M887.436,155.843l-14.987,8.647v-13.3l14.987-8.65Z" transform="translate(-736.235 -17.051)" fill="#696969"/>
      <path id="Trazado_252224" data-name="Trazado 252224" d="M867.788,158.455l35.057-20.246-2.441-3.254-3.049,1.757L894.6,135.12l-13.345,7.7v3.185L866.5,154.523Z" transform="translate(-742.633 -25.213)" fill="#1f8ba6"/>
      <g id="Grupo_126402" data-name="Grupo 126402" transform="translate(111.526 117.025)">
        <path id="Trazado_252225" data-name="Trazado 252225" d="M864.144,139.555a.639.639,0,0,0-.3-.509.189.189,0,0,0-.218-.015l-1.515.853.4.729,1.54-.87h0A.21.21,0,0,0,864.144,139.555Z" transform="translate(-858.88 -137.884)" fill="#1f1f1f"/>
        <path id="Trazado_252226" data-name="Trazado 252226" d="M862.654,139.97c0,.185-.131.266-.295.168a.629.629,0,0,1-.293-.506c0-.187.125-.262.293-.168A.646.646,0,0,1,862.654,139.97Z" transform="translate(-858.93 -137.432)" fill="#ff6a00"/>
        <path id="Trazado_252227" data-name="Trazado 252227" d="M864.3,138.791l-3.2,1.839-.551-.321,3.187-1.844Z" transform="translate(-860.556 -138.464)" fill="#666"/>
        <path id="Trazado_252228" data-name="Trazado 252228" d="M861.107,147.654l-.551-.322v-7.98l.551.321Z" transform="translate(-860.556 -137.509)" fill="#4d4d4d"/>
        <path id="Trazado_252229" data-name="Trazado 252229" d="M864.018,146.6l-3.2,1.842V140.46l3.2-1.839Z" transform="translate(-860.27 -138.295)" fill="#333"/>
      </g>
    </g>
    <g id="Grupo_126474" data-name="Grupo 126474" transform="translate(1134 1731.909)">
      <path id="Trazado_252230" data-name="Trazado 252230" d="M812.616,151.8c-6.991,1.351-20.527-1.8-30.236-7.031s-11.915-10.562-4.924-11.915,20.525,1.8,30.234,7.024S819.6,150.447,812.616,151.8Z" transform="translate(-773.371 -51.988)" opacity="0.3"/>
      <path id="Trazado_252231" data-name="Trazado 252231" d="M782.05,99.139a7.056,7.056,0,0,1-1.2,3.757l1.4,2.439s3.938,1.852,4.008,1.957a18.708,18.708,0,0,0,2.267.316l2.163-1.216.365-3.018-2.528-4.55h-5.289S783.1,97.8,782.05,99.139Z" transform="translate(-765.325 -88.661)" fill="#c7a496"/>
      <path id="Trazado_252232" data-name="Trazado 252232" d="M792.016,117.042s.4,4.1,1.065,4.793a4.952,4.952,0,0,0,3.4,1.719c1.821.168,3.267-1.991,2.9-2.514A3.5,3.5,0,0,0,797,119.728c-1.042-3.037-2.007-3.666-2.007-3.666Z" transform="translate(-753.313 -69.716)"/>
      <path id="Trazado_252233" data-name="Trazado 252233" d="M792.743,106.173a36.02,36.02,0,0,1,1.351,5.061c2.723,4.764,3.423,10.946,6.034,15.467-.782,1.1-2.653,1.439-2.974.98-1.974-2.829-6.865-9.764-7.122-10.686s-2.792-9.028-2.792-9.028Z" transform="translate(-758.45 -80.354)" fill="#f0c6b4"/>
      <path id="Trazado_252234" data-name="Trazado 252234" d="M786.473,99.762a4.958,4.958,0,0,1,5.688,3.691c.629,2.595,2.779,10.468,2.779,10.468a5.681,5.681,0,0,1-4.587,2.055c-.372-1.017-4.585-13.7-4.585-13.7Z" transform="translate(-760.035 -87.312)" fill="#ff9800"/>
      <path id="Trazado_252235" data-name="Trazado 252235" d="M778.4,106.619a29.211,29.211,0,0,0,5.183-5.237s7.064,4.5,7.994,4.023.37-5.32.37-5.32,1.339-1.27,3.726,1.015c.9.864,5.586,5.833,5.129,12.8-.313,1.046-2.057,17.175-2.057,17.175l-10.91,2.848-5.322-12.758S778.775,108.726,778.4,106.619Z" transform="translate(-767.957 -87.283)" fill="#f5b400"/>
      <path id="Trazado_252236" data-name="Trazado 252236" d="M794.812,138.149c1.148,2.375,4.944,3.114,5.528,4.01a2.574,2.574,0,0,1,0,2.161A8.268,8.268,0,0,1,792.113,143c-.5-.394-3.79-.4-4.318-1.634s0-4.112,0-4.112S794.455,137.248,794.812,138.149Z" transform="translate(-758.105 -46.916)" fill="#603913"/>
      <path id="Trazado_252237" data-name="Trazado 252237" d="M796.127,116.181c2.877,8.714,1.526,23.172,2.194,24.295s.689,17.982.583,19.564c-.322,3.369-8.99,2.072-8.99-.878-.106-1.683-.5-14.022.554-18.557.316-2.528-6.375-18.342-6.375-18.342S795.249,115.056,796.127,116.181Z" transform="translate(-761.835 -69.716)" fill="#a62626"/>
      <path id="Trazado_252238" data-name="Trazado 252238" d="M780.75,136.565c-.023,2.665,2.975,5.495.679,7.022-1.158.772-4.515.511-5.972-1.756-.666-1.034-.722-3.556-.915-5.142a21.687,21.687,0,0,1-.421-3.61c.178-1.441,2.163-3.163,2.163-3.163S780.476,136.019,780.75,136.565Z" transform="translate(-772.584 -54.812)" fill="#603913"/>
      <path id="Trazado_252239" data-name="Trazado 252239" d="M805.306,113.241s-7.871,5.412-12.091,4.644a7.137,7.137,0,0,1-3.865-3.1s-3.51,2.389-3.9,8.081c-.183,1.1-2.564,14.342-4.357,15.423-2.034.776-3.973,6.227-6.082,9.389-1.052,5.27,3.06,8.189,5.958,7.207,1.162-3.815,4.8-9.806,6.836-11.637s5.681-7.562,7.79-15.292a23.078,23.078,0,0,0,10.487-8.743Z" transform="translate(-771.788 -72.751)" fill="#d63a3a"/>
      <path id="Trazado_252240" data-name="Trazado 252240" d="M796.346,123.287c-.073-15.182-1.658-19.384-1.658-19.384s-3.226,2.6-11.517,5.549c2.246,7.8,1.385,18.009,1.268,18.769C793.675,129.962,796.346,123.287,796.346,123.287Z" transform="translate(-762.828 -82.796)" fill="#d63a3a"/>
      <path id="Trazado_252241" data-name="Trazado 252241" d="M783.366,100.825c5.717-1.115,9.692,11.093,9.692,11.093l1.685-1.1s-2.775-11.282-9.521-11.6A10.219,10.219,0,0,0,783.366,100.825Z" transform="translate(-762.618 -87.836)" fill="#d63a3a"/>
      <path id="Trazado_252242" data-name="Trazado 252242" d="M779.174,103.3c6.572-.073,9.306,10.547,9.306,10.547l1.852-.735s-2.564-10.709-9.524-11.6A7.986,7.986,0,0,0,779.174,103.3Z" transform="translate(-767.128 -85.369)" fill="#d63a3a"/>
      <path id="Trazado_252243" data-name="Trazado 252243" d="M792.156,96.667a18.342,18.342,0,0,1,.772,3.894,1.729,1.729,0,0,1-.34.791s-.425,6.086-1.136,6.748a4.188,4.188,0,0,1-2,.976c-1.976-.054-5.007-2.572-5.559-3.178a4.6,4.6,0,0,1-.791-1.856,2.5,2.5,0,0,1-1.808-2.182V98.745l2.177-2.508,3.137-1.106,1.947-.156Z" transform="translate(-764.85 -92.401)" fill="#f0c6b4"/>
      <path id="Trazado_252244" data-name="Trazado 252244" d="M781.619,103.195s.21-1.729.874-1.686c.988.069,1.382,1.474,1.725,1.405s.384-.872.552-.913c1.422-.239,1.2-1.507,2.02-1.829s4.141-.23,4.7-.652c2.715-1.9-.737-4.984-2.767-5.5-6.138-1.478-7.3,3.321-7.535,4.191C780.552,102.078,781.619,103.195,781.619,103.195Z" transform="translate(-765.179 -93.735)" fill="#603913"/>
      <path id="Trazado_252245" data-name="Trazado 252245" d="M784.955,121.217s.16,3.718.822,4.417a4.962,4.962,0,0,0,3.4,1.717c1.823.17,3.271-1.991,2.9-2.514a3.537,3.537,0,0,0-2.383-1.314c-1.042-3.035-2.009-3.664-2.009-3.664Z" transform="translate(-760.909 -65.631)"/>
      <path id="Trazado_252246" data-name="Trazado 252246" d="M785.33,110.4a38.315,38.315,0,0,1,1,4.343c3.215,5.378,3.687,9.962,6.74,15.286a2.414,2.414,0,0,1-2.734,1.358c-2.85-4.583-5.694-6.576-8.382-14.269-.158-1.74-2-5.376-2-5.376Z" transform="translate(-766.291 -75.804)" fill="#f0c6b4"/>
      <path id="Trazado_252247" data-name="Trazado 252247" d="M779.522,103.084c-4,2.846-1.212,8.486-1.212,8.486s3.741,8.891,3.9,9.507a7.155,7.155,0,0,0,5.906-2.73l-3.234-9.43S783.107,102.289,779.522,103.084Z" transform="translate(-769.076 -83.748)" fill="#ff9800"/>
      <g id="Grupo_126404" data-name="Grupo 126404" transform="translate(20.221 13.755)">
        <path id="Trazado_252248" data-name="Trazado 252248" d="M806.145,146.416l-16.389-5.041L783.112,104.7l16.389,5.041Z" transform="translate(-783.112 -95.691)" fill="#f5cb95"/>
        <path id="Trazado_252249" data-name="Trazado 252249" d="M792.12,113.978l-7.012-2.209-1.032-5.619,7.012,2.207Z" transform="translate(-782.075 -94.133)" fill="#fff"/>
        <path id="Trazado_252250" data-name="Trazado 252250" d="M788.928,109.055l-4.322-1.359-.193-1,4.322,1.358Z" transform="translate(-781.712 -93.55)" fill="#9e9e9e"/>
        <path id="Trazado_252251" data-name="Trazado 252251" d="M789.082,109.935l-4.322-1.358-.195-1.006,4.324,1.359Z" transform="translate(-781.549 -92.604)" fill="#9e9e9e"/>
        <path id="Trazado_252252" data-name="Trazado 252252" d="M797.651,148.451l15.643-9.033-6.752-36.608-15.534,8.969Z" transform="translate(-774.618 -97.726)" fill="#d1ad7f"/>
        <path id="Trazado_252253" data-name="Trazado 252253" d="M796.551,112.977l1.81-1.042-2.017-7.334-1.81,1.043Z" transform="translate(-770.825 -95.801)" fill="#705c44"/>
        <path id="Trazado_252254" data-name="Trazado 252254" d="M799.5,114.414l-16.389-5.041,15.611-9.012,16.312,5.084Z" transform="translate(-783.112 -100.361)" fill="#ffdaab"/>
        <path id="Trazado_252255" data-name="Trazado 252255" d="M802.953,108.321l1.81-1.043-16.243-5.166-1.812,1.043Z" transform="translate(-779.244 -98.478)" fill="#9c805f"/>
      </g>
      <path id="Trazado_252256" data-name="Trazado 252256" d="M788.867,122.053c.071.438-.529,1.023-1.331,1.152s-1.538.733-1.893-.71c-.112-.432.519-.783,1.32-.911S788.794,121.615,788.867,122.053Z" transform="translate(-760.183 -63.821)"/>
    </g>
  </g>
</svg>
