<?xml version="1.0" encoding="utf-8"?>
<!-- Generator: Adobe Illustrator 25.4.2, SVG Export Plug-In . SVG Version: 6.00 Build 0)  -->
<svg version="1.1" id="Capa_1" xmlns="http://www.w3.org/2000/svg" xmlns:xlink="http://www.w3.org/1999/xlink" x="0px" y="0px"
	 viewBox="0 0 295 472.9" style="enable-background:new 0 0 295 472.9;" xml:space="preserve">
<style type="text/css">
	.st0{opacity:0.25;fill:#28ACD3;enable-background:new    ;}
	.st1{fill:#FFFFFF;}
	.st2{enable-background:new    ;}
	.st3{fill:#12263F;}
	.st4{fill:#28ACD3;}
	.st5{fill:#1E1E1E;}
	.st6{fill:#0C0C0C;}
	.st7{fill:#AFAFAF;}
	.st8{fill:#DBDBDB;}
	.st9{fill:#848484;}
	.st10{fill:#D8D8D8;}
	.st11{opacity:0.2;enable-background:new    ;}
	.st12{fill:#EAEAEA;}
	.st13{fill:#B7B7B7;}
	.st14{fill:#FF8A33;}
	.st15{fill:#D3D3D3;}
	.st16{fill:#727272;}
	.st17{fill:#30A2A5;}
	.st18{fill:#47CFE2;}
	.st19{fill:#155656;}
	.st20{fill:#081216;}
	.st21{fill:#3A3A3A;}
	.st22{fill:#EFEFEF;}
	.st23{fill:#B2B2B2;}
	.st24{fill:#BCBCBC;}
	.st25{fill:#DDDDDD;}
	.st26{opacity:0.34;enable-background:new    ;}
	.st27{opacity:0.4;}
	.st28{fill:#272B2B;}
</style>
<g id="Grupo_128322" transform="translate(-629 -4475)">
	<path id="Trazado_263550" class="st0" d="M629.7,4526.9v379c0,8.1,7.9,14.7,17.6,14.7h85l26.7,0c0.7,0.4,1.7,1.1,2.4,1.5l14.3,25.5
		c0.7,0.4,1.7,0.4,2.4,0l14.3-25.5c0.7-0.4,1.7-1.1,2.4-1.5l26.7,0h85c9.7,0,17.6-6.6,17.6-14.7v-379H629.7z"/>
	<path id="Rectángulo_44002" class="st1" d="M643,4527.1h267l0,0v357c0,12.2-9.8,22-22,22l0,0H665c-12.2,0-22-9.8-22-22l0,0V4527.1
		L643,4527.1z"/>
	<g class="st2">
		<path class="st3" d="M669.8,4695.9h-5.9v-11.2h5.7v1.2h-4.4v3.7h4v1.2h-4v3.9h4.6V4695.9z"/>
		<path class="st3" d="M673,4695.9h-1.3v-11.8h1.3V4695.9z"/>
		<path class="st3" d="M686.3,4687.9l-3.2,8h-1.3l-3-8h1.4l2,5.8c0.2,0.4,0.2,0.8,0.3,1.1h0c0.1-0.4,0.1-0.8,0.2-1.1l2.1-5.8H686.3z
			"/>
		<path class="st3" d="M694.1,4692.2h-5.6c0,0.9,0.3,1.6,0.7,2.1c0.5,0.5,1.1,0.7,1.9,0.7c0.9,0,1.7-0.3,2.5-0.9v1.2
			c-0.7,0.5-1.6,0.8-2.8,0.8c-1.1,0-2-0.4-2.7-1.1c-0.6-0.7-1-1.7-1-3.1c0-1.2,0.4-2.3,1.1-3c0.7-0.8,1.6-1.2,2.6-1.2s1.9,0.3,2.4,1
			c0.6,0.7,0.9,1.6,0.9,2.8V4692.2z M692.8,4691.2c0-0.7-0.2-1.3-0.5-1.7s-0.8-0.6-1.5-0.6c-0.6,0-1.1,0.2-1.5,0.6s-0.7,1-0.8,1.7
			H692.8z"/>
		<path class="st3" d="M702.7,4695.9h-1.3v-4.6c0-1.7-0.6-2.5-1.9-2.5c-0.6,0-1.2,0.2-1.6,0.7c-0.4,0.5-0.6,1.1-0.6,1.9v4.5H696
			v-11.8h1.3v5.2h0c0.6-1,1.5-1.5,2.6-1.5c1.8,0,2.7,1.1,2.7,3.3V4695.9z"/>
		<path class="st3" d="M707.5,4683.8l-2,2.6h-1l1.7-2.6H707.5z M706.4,4695.9h-1.3v-8h1.3V4695.9z"/>
		<path class="st3" d="M714.4,4695.6c-0.6,0.4-1.3,0.6-2.2,0.6c-1.1,0-2.1-0.4-2.8-1.1c-0.7-0.7-1.1-1.7-1.1-2.9
			c0-1.3,0.4-2.4,1.1-3.2c0.8-0.8,1.8-1.2,3-1.2c0.7,0,1.3,0.1,1.9,0.4v1.3c-0.6-0.4-1.2-0.6-1.9-0.6c-0.8,0-1.5,0.3-2,0.9
			s-0.8,1.4-0.8,2.3c0,0.9,0.2,1.7,0.7,2.2s1.2,0.8,2,0.8c0.7,0,1.4-0.2,2-0.7V4695.6z"/>
		<path class="st3" d="M722.8,4695.9h-1.3v-1.3h0c-0.5,1-1.4,1.5-2.5,1.5c-1.9,0-2.9-1.1-2.9-3.4v-4.8h1.3v4.6
			c0,1.7,0.6,2.5,1.9,2.5c0.6,0,1.1-0.2,1.5-0.7c0.4-0.5,0.6-1.1,0.6-1.8v-4.6h1.3V4695.9z"/>
		<path class="st3" d="M726.7,4695.9h-1.3v-11.8h1.3V4695.9z"/>
		<path class="st3" d="M732.6,4696.1c-1.2,0-2.1-0.4-2.8-1.1c-0.7-0.7-1.1-1.7-1.1-3c0-1.3,0.4-2.4,1.1-3.1s1.7-1.1,3-1.1
			c1.2,0,2.1,0.4,2.8,1.1c0.7,0.7,1,1.8,1,3.1c0,1.3-0.4,2.3-1.1,3.1C734.8,4695.7,733.9,4696.1,732.6,4696.1z M732.7,4688.8
			c-0.8,0-1.5,0.3-2,0.8c-0.5,0.6-0.7,1.3-0.7,2.3c0,0.9,0.2,1.7,0.7,2.2s1.1,0.8,1.9,0.8c0.8,0,1.5-0.3,1.9-0.8s0.7-1.3,0.7-2.3
			c0-1-0.2-1.8-0.7-2.3S733.6,4688.8,732.7,4688.8z"/>
		<path class="st3" d="M743.7,4685.9c-0.2,0-0.4-0.1-0.6-0.2c-0.2-0.2-0.2-0.4-0.2-0.6s0.1-0.4,0.2-0.6c0.2-0.2,0.4-0.2,0.6-0.2
			c0.2,0,0.4,0.1,0.6,0.2s0.2,0.4,0.2,0.6c0,0.2-0.1,0.4-0.2,0.6S743.9,4685.9,743.7,4685.9z M744.3,4695.9h-1.3v-8h1.3V4695.9z"/>
		<path class="st3" d="M746.4,4695.6v-1.4c0.7,0.5,1.5,0.8,2.3,0.8c1.1,0,1.7-0.4,1.7-1.1c0-0.2,0-0.4-0.1-0.5
			c-0.1-0.1-0.2-0.3-0.4-0.4s-0.4-0.2-0.6-0.3c-0.2-0.1-0.5-0.2-0.7-0.3c-0.4-0.1-0.7-0.3-0.9-0.4c-0.3-0.1-0.5-0.3-0.7-0.5
			s-0.3-0.4-0.4-0.6c-0.1-0.2-0.1-0.5-0.1-0.8c0-0.4,0.1-0.7,0.3-1s0.4-0.5,0.7-0.7c0.3-0.2,0.6-0.3,1-0.4s0.7-0.1,1.1-0.1
			c0.7,0,1.3,0.1,1.9,0.4v1.3c-0.6-0.4-1.3-0.6-2-0.6c-0.2,0-0.5,0-0.6,0.1c-0.2,0.1-0.4,0.1-0.5,0.2c-0.1,0.1-0.2,0.2-0.3,0.4
			c-0.1,0.1-0.1,0.3-0.1,0.5c0,0.2,0,0.4,0.1,0.5c0.1,0.1,0.2,0.3,0.3,0.4c0.1,0.1,0.3,0.2,0.5,0.3c0.2,0.1,0.4,0.2,0.7,0.3
			c0.4,0.1,0.7,0.3,1,0.4s0.5,0.3,0.7,0.5c0.2,0.2,0.4,0.4,0.5,0.6c0.1,0.2,0.2,0.5,0.2,0.8c0,0.4-0.1,0.7-0.3,1
			c-0.2,0.3-0.4,0.5-0.7,0.7c-0.3,0.2-0.6,0.3-1,0.4c-0.4,0.1-0.8,0.1-1.2,0.1C747.8,4696.1,747,4695.9,746.4,4695.6z"/>
		<path class="st3" d="M757.1,4696.1c-1.2,0-2.1-0.4-2.8-1.1c-0.7-0.7-1.1-1.7-1.1-3c0-1.3,0.4-2.4,1.1-3.1s1.7-1.1,3-1.1
			c1.2,0,2.1,0.4,2.8,1.1c0.7,0.7,1,1.8,1,3.1c0,1.3-0.4,2.3-1.1,3.1C759.2,4695.7,758.3,4696.1,757.1,4696.1z M757.2,4688.8
			c-0.8,0-1.5,0.3-2,0.8c-0.5,0.6-0.7,1.3-0.7,2.3c0,0.9,0.2,1.7,0.7,2.2s1.1,0.8,1.9,0.8c0.8,0,1.5-0.3,1.9-0.8s0.7-1.3,0.7-2.3
			c0-1-0.2-1.8-0.7-2.3S758,4688.8,757.2,4688.8z"/>
		<path class="st3" d="M766.8,4695.8c-0.3,0.2-0.7,0.2-1.2,0.2c-1.4,0-2.1-0.8-2.1-2.3v-4.7h-1.4v-1.1h1.4v-2l1.3-0.4v2.4h2v1.1h-2
			v4.5c0,0.5,0.1,0.9,0.3,1.1c0.2,0.2,0.5,0.3,0.9,0.3c0.3,0,0.6-0.1,0.8-0.3V4695.8z"/>
		<path class="st3" d="M774.9,4692.2h-5.6c0,0.9,0.3,1.6,0.7,2.1c0.5,0.5,1.1,0.7,1.9,0.7c0.9,0,1.7-0.3,2.5-0.9v1.2
			c-0.7,0.5-1.6,0.8-2.8,0.8c-1.1,0-2-0.4-2.7-1.1c-0.6-0.7-1-1.7-1-3.1c0-1.2,0.4-2.3,1.1-3c0.7-0.8,1.6-1.2,2.6-1.2s1.9,0.3,2.4,1
			c0.6,0.7,0.9,1.6,0.9,2.8V4692.2z M773.6,4691.2c0-0.7-0.2-1.3-0.5-1.7s-0.8-0.6-1.5-0.6c-0.6,0-1.1,0.2-1.5,0.6s-0.7,1-0.8,1.7
			H773.6z M773.4,4683.8l-2,2.6h-1l1.7-2.6H773.4z"/>
		<path class="st3" d="M781.1,4689.2c-0.2-0.2-0.5-0.3-1-0.3c-0.5,0-1,0.3-1.4,0.8s-0.6,1.2-0.6,2.1v4.1h-1.3v-8h1.3v1.6h0
			c0.2-0.6,0.5-1,0.8-1.3s0.8-0.5,1.3-0.5c0.3,0,0.6,0,0.8,0.1V4689.2z"/>
		<path class="st3" d="M793.8,4695.9h-1.3v-4.6c0-0.9-0.1-1.5-0.4-1.9s-0.7-0.6-1.4-0.6c-0.5,0-1,0.2-1.4,0.8s-0.6,1.1-0.6,1.8v4.6
			h-1.3v-4.8c0-1.6-0.6-2.4-1.8-2.4c-0.6,0-1,0.2-1.4,0.7c-0.4,0.5-0.5,1.1-0.5,1.8v4.6h-1.3v-8h1.3v1.3h0c0.6-1,1.4-1.5,2.5-1.5
			c0.5,0,1,0.2,1.4,0.5s0.7,0.7,0.8,1.2c0.6-1.1,1.5-1.7,2.7-1.7c1.8,0,2.6,1.1,2.6,3.3V4695.9z"/>
		<path class="st3" d="M796.9,4685.9c-0.2,0-0.4-0.1-0.6-0.2c-0.2-0.2-0.2-0.4-0.2-0.6s0.1-0.4,0.2-0.6c0.2-0.2,0.4-0.2,0.6-0.2
			c0.2,0,0.4,0.1,0.6,0.2s0.2,0.4,0.2,0.6c0,0.2-0.1,0.4-0.2,0.6S797.1,4685.9,796.9,4685.9z M797.5,4695.9h-1.3v-8h1.3V4695.9z"/>
		<path class="st3" d="M805.6,4695.6c-0.6,0.4-1.3,0.6-2.2,0.6c-1.1,0-2.1-0.4-2.8-1.1c-0.7-0.7-1.1-1.7-1.1-2.9
			c0-1.3,0.4-2.4,1.1-3.2c0.8-0.8,1.8-1.2,3-1.2c0.7,0,1.3,0.1,1.9,0.4v1.3c-0.6-0.4-1.2-0.6-1.9-0.6c-0.8,0-1.5,0.3-2,0.9
			s-0.8,1.4-0.8,2.3c0,0.9,0.2,1.7,0.7,2.2s1.2,0.8,2,0.8c0.7,0,1.4-0.2,2-0.7V4695.6z"/>
		<path class="st3" d="M810.8,4696.1c-1.2,0-2.1-0.4-2.8-1.1c-0.7-0.7-1.1-1.7-1.1-3c0-1.3,0.4-2.4,1.1-3.1s1.7-1.1,3-1.1
			c1.2,0,2.1,0.4,2.8,1.1c0.7,0.7,1,1.8,1,3.1c0,1.3-0.4,2.3-1.1,3.1C813,4695.7,812,4696.1,810.8,4696.1z M810.9,4688.8
			c-0.8,0-1.5,0.3-2,0.8c-0.5,0.6-0.7,1.3-0.7,2.3c0,0.9,0.2,1.7,0.7,2.2s1.1,0.8,1.9,0.8c0.8,0,1.5-0.3,1.9-0.8s0.7-1.3,0.7-2.3
			c0-1-0.2-1.8-0.7-2.3S811.8,4688.8,810.9,4688.8z"/>
		<path class="st3" d="M827.7,4692.2H822c0,0.9,0.3,1.6,0.7,2.1c0.5,0.5,1.1,0.7,1.9,0.7c0.9,0,1.7-0.3,2.5-0.9v1.2
			c-0.7,0.5-1.6,0.8-2.8,0.8c-1.1,0-2-0.4-2.7-1.1c-0.6-0.7-1-1.7-1-3.1c0-1.2,0.4-2.3,1.1-3c0.7-0.8,1.6-1.2,2.6-1.2s1.9,0.3,2.4,1
			c0.6,0.7,0.9,1.6,0.9,2.8V4692.2z M826.4,4691.2c0-0.7-0.2-1.3-0.5-1.7s-0.8-0.6-1.5-0.6c-0.6,0-1.1,0.2-1.5,0.6s-0.7,1-0.8,1.7
			H826.4z"/>
		<path class="st3" d="M829.1,4695.6v-1.4c0.7,0.5,1.5,0.8,2.3,0.8c1.1,0,1.7-0.4,1.7-1.1c0-0.2,0-0.4-0.1-0.5
			c-0.1-0.1-0.2-0.3-0.4-0.4s-0.4-0.2-0.6-0.3c-0.2-0.1-0.5-0.2-0.7-0.3c-0.4-0.1-0.7-0.3-0.9-0.4c-0.3-0.1-0.5-0.3-0.7-0.5
			s-0.3-0.4-0.4-0.6c-0.1-0.2-0.1-0.5-0.1-0.8c0-0.4,0.1-0.7,0.3-1s0.4-0.5,0.7-0.7c0.3-0.2,0.6-0.3,1-0.4s0.7-0.1,1.1-0.1
			c0.7,0,1.3,0.1,1.9,0.4v1.3c-0.6-0.4-1.3-0.6-2-0.6c-0.2,0-0.5,0-0.6,0.1c-0.2,0.1-0.4,0.1-0.5,0.2c-0.1,0.1-0.2,0.2-0.3,0.4
			c-0.1,0.1-0.1,0.3-0.1,0.5c0,0.2,0,0.4,0.1,0.5c0.1,0.1,0.2,0.3,0.3,0.4c0.1,0.1,0.3,0.2,0.5,0.3c0.2,0.1,0.4,0.2,0.7,0.3
			c0.4,0.1,0.7,0.3,1,0.4s0.5,0.3,0.7,0.5c0.2,0.2,0.3,0.4,0.5,0.6c0.1,0.2,0.2,0.5,0.2,0.8c0,0.4-0.1,0.7-0.3,1
			c-0.2,0.3-0.4,0.5-0.7,0.7c-0.3,0.2-0.6,0.3-1,0.4c-0.4,0.1-0.8,0.1-1.2,0.1C830.4,4696.1,829.7,4695.9,829.1,4695.6z"/>
		<path class="st3" d="M842.1,4695.9h-1.3v-11.8h1.3V4695.9z"/>
		<path class="st3" d="M850.4,4695.9h-1.3v-1.2h0c-0.6,1-1.4,1.4-2.5,1.4c-0.8,0-1.4-0.2-1.9-0.6c-0.5-0.4-0.7-1-0.7-1.7
			c0-1.5,0.9-2.4,2.6-2.6l2.4-0.3c0-1.4-0.5-2-1.6-2c-1,0-1.8,0.3-2.6,1v-1.3c0.8-0.5,1.7-0.8,2.7-0.8c1.9,0,2.8,1,2.8,3V4695.9z
			 M849.1,4691.9l-1.9,0.3c-0.6,0.1-1,0.2-1.3,0.4c-0.3,0.2-0.5,0.6-0.5,1.1c0,0.4,0.1,0.7,0.4,1c0.3,0.2,0.6,0.4,1.1,0.4
			c0.6,0,1.2-0.2,1.6-0.7s0.6-1,0.6-1.7V4691.9z"/>
	</g>
	<g class="st2">
		<path class="st3" d="M669.1,4719.6c-0.6,0.4-1.3,0.6-2.2,0.6c-1.1,0-2.1-0.4-2.8-1.1c-0.7-0.7-1.1-1.7-1.1-2.9
			c0-1.3,0.4-2.4,1.1-3.2c0.8-0.8,1.8-1.2,3-1.2c0.7,0,1.3,0.1,1.9,0.4v1.3c-0.6-0.4-1.2-0.6-1.9-0.6c-0.8,0-1.5,0.3-2,0.9
			s-0.8,1.4-0.8,2.3c0,0.9,0.2,1.7,0.7,2.2s1.2,0.8,2,0.8c0.7,0,1.4-0.2,2-0.7V4719.6z"/>
		<path class="st3" d="M674.4,4720.1c-1.2,0-2.1-0.4-2.8-1.1c-0.7-0.7-1.1-1.7-1.1-3c0-1.3,0.4-2.4,1.1-3.1s1.7-1.1,3-1.1
			c1.2,0,2.1,0.4,2.8,1.1c0.7,0.7,1,1.8,1,3.1c0,1.3-0.4,2.3-1.1,3.1C676.6,4719.7,675.6,4720.1,674.4,4720.1z M674.5,4712.8
			c-0.8,0-1.5,0.3-2,0.8c-0.5,0.6-0.7,1.3-0.7,2.3c0,0.9,0.2,1.7,0.7,2.2s1.1,0.8,1.9,0.8c0.8,0,1.5-0.3,1.9-0.8s0.7-1.3,0.7-2.3
			c0-1-0.2-1.8-0.7-2.3S675.3,4712.8,674.5,4712.8z"/>
		<path class="st3" d="M687.1,4719.9h-1.3v-4.6c0-1.7-0.6-2.5-1.9-2.5c-0.6,0-1.2,0.2-1.6,0.7c-0.4,0.5-0.6,1.1-0.6,1.8v4.6h-1.3v-8
			h1.3v1.3h0c0.6-1,1.5-1.5,2.6-1.5c0.9,0,1.5,0.3,2,0.8c0.5,0.6,0.7,1.4,0.7,2.4V4719.9z"/>
		<path class="st3" d="M689,4719.6v-1.4c0.7,0.5,1.5,0.8,2.3,0.8c1.1,0,1.7-0.4,1.7-1.1c0-0.2,0-0.4-0.1-0.5
			c-0.1-0.1-0.2-0.3-0.4-0.4s-0.4-0.2-0.6-0.3c-0.2-0.1-0.5-0.2-0.7-0.3c-0.4-0.1-0.7-0.3-0.9-0.4c-0.3-0.1-0.5-0.3-0.7-0.5
			s-0.3-0.4-0.4-0.6c-0.1-0.2-0.1-0.5-0.1-0.8c0-0.4,0.1-0.7,0.3-1s0.4-0.5,0.7-0.7c0.3-0.2,0.6-0.3,1-0.4s0.7-0.1,1.1-0.1
			c0.7,0,1.3,0.1,1.9,0.4v1.3c-0.6-0.4-1.3-0.6-2-0.6c-0.2,0-0.5,0-0.6,0.1c-0.2,0.1-0.4,0.1-0.5,0.2c-0.1,0.1-0.2,0.2-0.3,0.4
			c-0.1,0.1-0.1,0.3-0.1,0.5c0,0.2,0,0.4,0.1,0.5c0.1,0.1,0.2,0.3,0.3,0.4c0.1,0.1,0.3,0.2,0.5,0.3c0.2,0.1,0.4,0.2,0.7,0.3
			c0.4,0.1,0.7,0.3,1,0.4s0.5,0.3,0.7,0.5c0.2,0.2,0.4,0.4,0.5,0.6c0.1,0.2,0.2,0.5,0.2,0.8c0,0.4-0.1,0.7-0.3,1
			c-0.2,0.3-0.4,0.5-0.7,0.7c-0.3,0.2-0.6,0.3-1,0.4c-0.4,0.1-0.8,0.1-1.2,0.1C690.3,4720.1,689.6,4719.9,689,4719.6z"/>
		<path class="st3" d="M700,4719.8c-0.3,0.2-0.7,0.2-1.2,0.2c-1.4,0-2.1-0.8-2.1-2.3v-4.7h-1.4v-1.1h1.4v-2l1.3-0.4v2.4h2v1.1h-2
			v4.5c0,0.5,0.1,0.9,0.3,1.1c0.2,0.2,0.5,0.3,0.9,0.3c0.3,0,0.6-0.1,0.8-0.3V4719.8z"/>
		<path class="st3" d="M705.9,4713.2c-0.2-0.2-0.5-0.3-1-0.3c-0.5,0-1,0.3-1.4,0.8s-0.6,1.2-0.6,2.1v4.1h-1.3v-8h1.3v1.6h0
			c0.2-0.6,0.5-1,0.8-1.3s0.8-0.5,1.3-0.5c0.3,0,0.6,0,0.8,0.1V4713.2z"/>
		<path class="st3" d="M713.7,4719.9h-1.3v-1.3h0c-0.5,1-1.4,1.5-2.5,1.5c-1.9,0-2.9-1.1-2.9-3.4v-4.8h1.3v4.6
			c0,1.7,0.6,2.5,1.9,2.5c0.6,0,1.1-0.2,1.5-0.7c0.4-0.5,0.6-1.1,0.6-1.8v-4.6h1.3V4719.9z"/>
		<path class="st3" d="M721.8,4719.6c-0.6,0.4-1.3,0.6-2.2,0.6c-1.1,0-2.1-0.4-2.8-1.1c-0.7-0.7-1.1-1.7-1.1-2.9
			c0-1.3,0.4-2.4,1.1-3.2c0.8-0.8,1.8-1.2,3-1.2c0.7,0,1.3,0.1,1.9,0.4v1.3c-0.6-0.4-1.2-0.6-1.9-0.6c-0.8,0-1.5,0.3-2,0.9
			s-0.8,1.4-0.8,2.3c0,0.9,0.2,1.7,0.7,2.2s1.2,0.8,2,0.8c0.7,0,1.4-0.2,2-0.7V4719.6z"/>
		<path class="st3" d="M729.2,4719.6c-0.6,0.4-1.3,0.6-2.2,0.6c-1.1,0-2.1-0.4-2.8-1.1c-0.7-0.7-1.1-1.7-1.1-2.9
			c0-1.3,0.4-2.4,1.1-3.2c0.8-0.8,1.8-1.2,3-1.2c0.7,0,1.3,0.1,1.9,0.4v1.3c-0.6-0.4-1.2-0.6-1.9-0.6c-0.8,0-1.5,0.3-2,0.9
			s-0.8,1.4-0.8,2.3c0,0.9,0.2,1.7,0.7,2.2s1.2,0.8,2,0.8c0.7,0,1.4-0.2,2-0.7V4719.6z"/>
		<path class="st3" d="M731.7,4709.9c-0.2,0-0.4-0.1-0.6-0.2c-0.2-0.2-0.2-0.4-0.2-0.6s0.1-0.4,0.2-0.6c0.2-0.2,0.4-0.2,0.6-0.2
			c0.2,0,0.4,0.1,0.6,0.2s0.2,0.4,0.2,0.6c0,0.2-0.1,0.4-0.2,0.6S732,4709.9,731.7,4709.9z M732.4,4719.9h-1.3v-8h1.3V4719.9z"/>
		<path class="st3" d="M738.3,4720.1c-1.2,0-2.1-0.4-2.8-1.1c-0.7-0.7-1.1-1.7-1.1-3c0-1.3,0.4-2.4,1.1-3.1s1.7-1.1,3-1.1
			c1.2,0,2.1,0.4,2.8,1.1c0.7,0.7,1,1.8,1,3.1c0,1.3-0.4,2.3-1.1,3.1C740.5,4719.7,739.5,4720.1,738.3,4720.1z M738.4,4712.8
			c-0.8,0-1.5,0.3-2,0.8c-0.5,0.6-0.7,1.3-0.7,2.3c0,0.9,0.2,1.7,0.7,2.2s1.1,0.8,1.9,0.8c0.8,0,1.5-0.3,1.9-0.8s0.7-1.3,0.7-2.3
			c0-1-0.2-1.8-0.7-2.3S739.2,4712.8,738.4,4712.8z M740.3,4707.8l-2,2.6h-1l1.7-2.6H740.3z"/>
		<path class="st3" d="M751,4719.9h-1.3v-4.6c0-1.7-0.6-2.5-1.9-2.5c-0.6,0-1.2,0.2-1.6,0.7c-0.4,0.5-0.6,1.1-0.6,1.8v4.6h-1.3v-8
			h1.3v1.3h0c0.6-1,1.5-1.5,2.6-1.5c0.9,0,1.5,0.3,2,0.8c0.5,0.6,0.7,1.4,0.7,2.4V4719.9z"/>
		<path class="st3" d="M764.6,4723.6h-1.3v-5.1h0c-0.6,1-1.5,1.6-2.7,1.6c-1,0-1.8-0.4-2.4-1.1c-0.6-0.7-0.9-1.7-0.9-2.9
			c0-1.3,0.3-2.4,1-3.2c0.7-0.8,1.6-1.2,2.7-1.2c1.1,0,1.9,0.4,2.4,1.3h0v-1.1h1.3V4723.6z M763.3,4716.3v-1.2
			c0-0.7-0.2-1.2-0.6-1.7s-1-0.7-1.6-0.7c-0.8,0-1.4,0.3-1.8,0.9c-0.4,0.6-0.7,1.4-0.7,2.4c0,0.9,0.2,1.6,0.6,2.2
			c0.4,0.5,1,0.8,1.7,0.8c0.8,0,1.3-0.3,1.8-0.8S763.3,4717.1,763.3,4716.3z"/>
		<path class="st3" d="M773.7,4719.9h-1.3v-1.3h0c-0.5,1-1.4,1.5-2.5,1.5c-1.9,0-2.9-1.1-2.9-3.4v-4.8h1.3v4.6
			c0,1.7,0.6,2.5,1.9,2.5c0.6,0,1.1-0.2,1.5-0.7c0.4-0.5,0.6-1.1,0.6-1.8v-4.6h1.3V4719.9z"/>
		<path class="st3" d="M782.7,4716.2H777c0,0.9,0.3,1.6,0.7,2.1c0.5,0.5,1.1,0.7,1.9,0.7c0.9,0,1.7-0.3,2.5-0.9v1.2
			c-0.7,0.5-1.6,0.8-2.8,0.8c-1.1,0-2-0.4-2.7-1.1c-0.6-0.7-1-1.7-1-3.1c0-1.2,0.4-2.3,1.1-3c0.7-0.8,1.6-1.2,2.6-1.2s1.9,0.3,2.4,1
			c0.6,0.7,0.9,1.6,0.9,2.8V4716.2z M781.4,4715.2c0-0.7-0.2-1.3-0.5-1.7s-0.8-0.6-1.5-0.6c-0.6,0-1.1,0.2-1.5,0.6s-0.7,1-0.8,1.7
			H781.4z"/>
		<path class="st3" d="M792.7,4719.8c-0.3,0.2-0.7,0.2-1.2,0.2c-1.4,0-2.1-0.8-2.1-2.3v-4.7H788v-1.1h1.4v-2l1.3-0.4v2.4h2v1.1h-2
			v4.5c0,0.5,0.1,0.9,0.3,1.1c0.2,0.2,0.5,0.3,0.9,0.3c0.3,0,0.6-0.1,0.8-0.3V4719.8z"/>
		<path class="st3" d="M795.1,4709.9c-0.2,0-0.4-0.1-0.6-0.2c-0.2-0.2-0.2-0.4-0.2-0.6s0.1-0.4,0.2-0.6c0.2-0.2,0.4-0.2,0.6-0.2
			c0.2,0,0.4,0.1,0.6,0.2s0.2,0.4,0.2,0.6c0,0.2-0.1,0.4-0.2,0.6S795.3,4709.9,795.1,4709.9z M795.7,4719.9h-1.3v-8h1.3V4719.9z"/>
		<path class="st3" d="M804.7,4716.2h-5.6c0,0.9,0.3,1.6,0.7,2.1c0.5,0.5,1.1,0.7,1.9,0.7c0.9,0,1.7-0.3,2.5-0.9v1.2
			c-0.7,0.5-1.6,0.8-2.8,0.8c-1.1,0-2-0.4-2.7-1.1c-0.6-0.7-1-1.7-1-3.1c0-1.2,0.4-2.3,1.1-3c0.7-0.8,1.6-1.2,2.6-1.2s1.9,0.3,2.4,1
			c0.6,0.7,0.9,1.6,0.9,2.8V4716.2z M803.4,4715.2c0-0.7-0.2-1.3-0.5-1.7s-0.8-0.6-1.5-0.6c-0.6,0-1.1,0.2-1.5,0.6s-0.7,1-0.8,1.7
			H803.4z"/>
		<path class="st3" d="M813.3,4719.9H812v-4.6c0-1.7-0.6-2.5-1.9-2.5c-0.6,0-1.2,0.2-1.6,0.7c-0.4,0.5-0.6,1.1-0.6,1.8v4.6h-1.3v-8
			h1.3v1.3h0c0.6-1,1.5-1.5,2.6-1.5c0.9,0,1.5,0.3,2,0.8c0.5,0.6,0.7,1.4,0.7,2.4V4719.9z"/>
		<path class="st3" d="M822.2,4716.2h-5.6c0,0.9,0.3,1.6,0.7,2.1c0.5,0.5,1.1,0.7,1.9,0.7c0.9,0,1.7-0.3,2.5-0.9v1.2
			c-0.7,0.5-1.6,0.8-2.8,0.8c-1.1,0-2-0.4-2.7-1.1c-0.6-0.7-1-1.7-1-3.1c0-1.2,0.4-2.3,1.1-3c0.7-0.8,1.6-1.2,2.6-1.2s1.9,0.3,2.4,1
			c0.6,0.7,0.9,1.6,0.9,2.8V4716.2z M820.8,4715.2c0-0.7-0.2-1.3-0.5-1.7s-0.8-0.6-1.5-0.6c-0.6,0-1.1,0.2-1.5,0.6s-0.7,1-0.8,1.7
			H820.8z"/>
		<path class="st3" d="M829.8,4719.9h-1.3v-11.8h1.3V4719.9z"/>
		<path class="st3" d="M838.1,4719.9h-1.3v-1.2h0c-0.6,1-1.4,1.4-2.5,1.4c-0.8,0-1.4-0.2-1.9-0.6c-0.5-0.4-0.7-1-0.7-1.7
			c0-1.5,0.9-2.4,2.6-2.6l2.4-0.3c0-1.4-0.5-2-1.6-2c-1,0-1.8,0.3-2.6,1v-1.3c0.8-0.5,1.7-0.8,2.7-0.8c1.9,0,2.8,1,2.8,3V4719.9z
			 M836.8,4715.9l-1.9,0.3c-0.6,0.1-1,0.2-1.3,0.4c-0.3,0.2-0.5,0.6-0.5,1.1c0,0.4,0.1,0.7,0.4,1c0.3,0.2,0.6,0.4,1.1,0.4
			c0.6,0,1.2-0.2,1.6-0.7s0.6-1,0.6-1.7V4715.9z"/>
	</g>
	<g class="st2">
		<path class="st3" d="M670.1,4743.9h-1.3v-1.3h0c-0.5,1-1.4,1.5-2.5,1.5c-1.9,0-2.9-1.1-2.9-3.4v-4.8h1.3v4.6
			c0,1.7,0.6,2.5,1.9,2.5c0.6,0,1.1-0.2,1.5-0.7c0.4-0.5,0.6-1.1,0.6-1.8v-4.6h1.3V4743.9z"/>
		<path class="st3" d="M679.4,4743.9h-1.3v-4.6c0-1.7-0.6-2.5-1.9-2.5c-0.6,0-1.2,0.2-1.6,0.7c-0.4,0.5-0.6,1.1-0.6,1.8v4.6h-1.3v-8
			h1.3v1.3h0c0.6-1,1.5-1.5,2.6-1.5c0.9,0,1.5,0.3,2,0.8c0.5,0.6,0.7,1.4,0.7,2.4V4743.9z"/>
		<path class="st3" d="M682.4,4733.9c-0.2,0-0.4-0.1-0.6-0.2c-0.2-0.2-0.2-0.4-0.2-0.6s0.1-0.4,0.2-0.6c0.2-0.2,0.4-0.2,0.6-0.2
			c0.2,0,0.4,0.1,0.6,0.2s0.2,0.4,0.2,0.6c0,0.2-0.1,0.4-0.2,0.6S682.7,4733.9,682.4,4733.9z M683.1,4743.9h-1.3v-8h1.3V4743.9z"/>
		<path class="st3" d="M692.5,4743.9h-1.3v-1.4h0c-0.6,1-1.5,1.5-2.8,1.5c-1,0-1.8-0.4-2.4-1.1s-0.9-1.7-0.9-2.9
			c0-1.3,0.3-2.4,1-3.2c0.7-0.8,1.6-1.2,2.7-1.2c1.1,0,1.9,0.4,2.4,1.3h0v-5h1.3V4743.9z M691.2,4740.3v-1.2c0-0.6-0.2-1.2-0.6-1.6
			c-0.4-0.4-1-0.7-1.6-0.7c-0.8,0-1.4,0.3-1.8,0.9c-0.4,0.6-0.7,1.4-0.7,2.4c0,0.9,0.2,1.6,0.6,2.2s1,0.8,1.7,0.8
			c0.7,0,1.3-0.3,1.7-0.8S691.2,4741.1,691.2,4740.3z"/>
		<path class="st3" d="M700.8,4743.9h-1.3v-1.2h0c-0.6,1-1.4,1.4-2.5,1.4c-0.8,0-1.4-0.2-1.9-0.6c-0.5-0.4-0.7-1-0.7-1.7
			c0-1.5,0.9-2.4,2.6-2.6l2.4-0.3c0-1.4-0.5-2-1.6-2c-1,0-1.8,0.3-2.6,1v-1.3c0.8-0.5,1.7-0.8,2.7-0.8c1.9,0,2.8,1,2.8,3V4743.9z
			 M699.5,4739.9l-1.9,0.3c-0.6,0.1-1,0.2-1.3,0.4c-0.3,0.2-0.5,0.6-0.5,1.1c0,0.4,0.1,0.7,0.4,1c0.3,0.2,0.6,0.4,1.1,0.4
			c0.6,0,1.2-0.2,1.6-0.7s0.6-1,0.6-1.7V4739.9z"/>
		<path class="st3" d="M710,4743.9h-1.3v-1.4h0c-0.6,1-1.5,1.5-2.8,1.5c-1,0-1.8-0.4-2.4-1.1s-0.9-1.7-0.9-2.9c0-1.3,0.3-2.4,1-3.2
			c0.7-0.8,1.6-1.2,2.7-1.2c1.1,0,1.9,0.4,2.4,1.3h0v-5h1.3V4743.9z M708.8,4740.3v-1.2c0-0.6-0.2-1.2-0.6-1.6
			c-0.4-0.4-1-0.7-1.6-0.7c-0.8,0-1.4,0.3-1.8,0.9c-0.4,0.6-0.7,1.4-0.7,2.4c0,0.9,0.2,1.6,0.6,2.2s1,0.8,1.7,0.8
			c0.7,0,1.3-0.3,1.7-0.8S708.8,4741.1,708.8,4740.3z"/>
		<path class="st3" d="M723.8,4743.9h-1.3v-1.4h0c-0.6,1-1.5,1.5-2.8,1.5c-1,0-1.8-0.4-2.4-1.1s-0.9-1.7-0.9-2.9
			c0-1.3,0.3-2.4,1-3.2c0.7-0.8,1.6-1.2,2.7-1.2c1.1,0,1.9,0.4,2.4,1.3h0v-5h1.3V4743.9z M722.6,4740.3v-1.2c0-0.6-0.2-1.2-0.6-1.6
			c-0.4-0.4-1-0.7-1.6-0.7c-0.8,0-1.4,0.3-1.8,0.9c-0.4,0.6-0.7,1.4-0.7,2.4c0,0.9,0.2,1.6,0.6,2.2s1,0.8,1.7,0.8
			c0.7,0,1.3-0.3,1.7-0.8S722.6,4741.1,722.6,4740.3z"/>
		<path class="st3" d="M732.9,4740.2h-5.6c0,0.9,0.3,1.6,0.7,2.1c0.5,0.5,1.1,0.7,1.9,0.7c0.9,0,1.7-0.3,2.5-0.9v1.2
			c-0.7,0.5-1.6,0.8-2.8,0.8c-1.1,0-2-0.4-2.7-1.1c-0.6-0.7-1-1.7-1-3.1c0-1.2,0.4-2.3,1.1-3c0.7-0.8,1.6-1.2,2.6-1.2s1.9,0.3,2.4,1
			c0.6,0.7,0.9,1.6,0.9,2.8V4740.2z M731.6,4739.2c0-0.7-0.2-1.3-0.5-1.7s-0.8-0.6-1.5-0.6c-0.6,0-1.1,0.2-1.5,0.6s-0.7,1-0.8,1.7
			H731.6z"/>
		<path class="st3" d="M742.9,4743.8c-0.3,0.2-0.7,0.2-1.2,0.2c-1.4,0-2.1-0.8-2.1-2.3v-4.7h-1.4v-1.1h1.4v-2l1.3-0.4v2.4h2v1.1h-2
			v4.5c0,0.5,0.1,0.9,0.3,1.1c0.2,0.2,0.5,0.3,0.9,0.3c0.3,0,0.6-0.1,0.8-0.3V4743.8z"/>
		<path class="st3" d="M748.8,4737.2c-0.2-0.2-0.5-0.3-1-0.3c-0.5,0-1,0.3-1.4,0.8s-0.6,1.2-0.6,2.1v4.1h-1.3v-8h1.3v1.6h0
			c0.2-0.6,0.5-1,0.8-1.3s0.8-0.5,1.3-0.5c0.3,0,0.6,0,0.8,0.1V4737.2z"/>
		<path class="st3" d="M755.9,4743.9h-1.3v-1.2h0c-0.6,1-1.4,1.4-2.5,1.4c-0.8,0-1.4-0.2-1.9-0.6c-0.5-0.4-0.7-1-0.7-1.7
			c0-1.5,0.9-2.4,2.6-2.6l2.4-0.3c0-1.4-0.5-2-1.6-2c-1,0-1.8,0.3-2.6,1v-1.3c0.8-0.5,1.7-0.8,2.7-0.8c1.9,0,2.8,1,2.8,3V4743.9z
			 M754.6,4739.9l-1.9,0.3c-0.6,0.1-1,0.2-1.3,0.4c-0.3,0.2-0.5,0.6-0.5,1.1c0,0.4,0.1,0.7,0.4,1c0.3,0.2,0.6,0.4,1.1,0.4
			c0.6,0,1.2-0.2,1.6-0.7s0.6-1,0.6-1.7V4739.9z"/>
		<path class="st3" d="M765,4743.9h-1.3v-4.6c0-1.7-0.6-2.5-1.9-2.5c-0.6,0-1.2,0.2-1.6,0.7c-0.4,0.5-0.6,1.1-0.6,1.8v4.6h-1.3v-8
			h1.3v1.3h0c0.6-1,1.5-1.5,2.6-1.5c0.9,0,1.5,0.3,2,0.8c0.5,0.6,0.7,1.4,0.7,2.4V4743.9z"/>
		<path class="st3" d="M766.9,4743.6v-1.4c0.7,0.5,1.5,0.8,2.3,0.8c1.1,0,1.7-0.4,1.7-1.1c0-0.2,0-0.4-0.1-0.5
			c-0.1-0.1-0.2-0.3-0.4-0.4s-0.4-0.2-0.6-0.3c-0.2-0.1-0.5-0.2-0.7-0.3c-0.4-0.1-0.7-0.3-0.9-0.4c-0.3-0.1-0.5-0.3-0.7-0.5
			s-0.3-0.4-0.4-0.6c-0.1-0.2-0.1-0.5-0.1-0.8c0-0.4,0.1-0.7,0.3-1s0.4-0.5,0.7-0.7c0.3-0.2,0.6-0.3,1-0.4s0.7-0.1,1.1-0.1
			c0.7,0,1.3,0.1,1.9,0.4v1.3c-0.6-0.4-1.3-0.6-2-0.6c-0.2,0-0.5,0-0.6,0.1c-0.2,0.1-0.4,0.1-0.5,0.2c-0.1,0.1-0.2,0.2-0.3,0.4
			c-0.1,0.1-0.1,0.3-0.1,0.5c0,0.2,0,0.4,0.1,0.5c0.1,0.1,0.2,0.3,0.3,0.4c0.1,0.1,0.3,0.2,0.5,0.3c0.2,0.1,0.4,0.2,0.7,0.3
			c0.4,0.1,0.7,0.3,1,0.4s0.5,0.3,0.7,0.5c0.2,0.2,0.4,0.4,0.5,0.6c0.1,0.2,0.2,0.5,0.2,0.8c0,0.4-0.1,0.7-0.3,1
			c-0.2,0.3-0.4,0.5-0.7,0.7c-0.3,0.2-0.6,0.3-1,0.4c-0.4,0.1-0.8,0.1-1.2,0.1C768.2,4744.1,767.5,4743.9,766.9,4743.6z"/>
		<path class="st3" d="M775.5,4742.8L775.5,4742.8l0,4.8h-1.3v-11.7h1.3v1.4h0c0.6-1.1,1.6-1.6,2.8-1.6c1,0,1.8,0.4,2.4,1.1
			s0.9,1.7,0.9,2.9c0,1.3-0.3,2.4-1,3.2c-0.7,0.8-1.5,1.2-2.7,1.2C776.8,4744.1,776,4743.7,775.5,4742.8z M775.4,4739.5v1.1
			c0,0.7,0.2,1.2,0.6,1.7s1,0.7,1.6,0.7c0.8,0,1.4-0.3,1.8-0.9c0.4-0.6,0.7-1.4,0.7-2.5c0-0.9-0.2-1.6-0.6-2.1
			c-0.4-0.5-1-0.8-1.7-0.8c-0.7,0-1.3,0.3-1.8,0.8S775.4,4738.8,775.4,4739.5z"/>
		<path class="st3" d="M786.9,4744.1c-1.2,0-2.1-0.4-2.8-1.1c-0.7-0.7-1.1-1.7-1.1-3c0-1.3,0.4-2.4,1.1-3.1s1.7-1.1,3-1.1
			c1.2,0,2.1,0.4,2.8,1.1c0.7,0.7,1,1.8,1,3.1c0,1.3-0.4,2.3-1.1,3.1C789.1,4743.7,788.1,4744.1,786.9,4744.1z M787,4736.8
			c-0.8,0-1.5,0.3-2,0.8c-0.5,0.6-0.7,1.3-0.7,2.3c0,0.9,0.2,1.7,0.7,2.2s1.1,0.8,1.9,0.8c0.8,0,1.5-0.3,1.9-0.8s0.7-1.3,0.7-2.3
			c0-1-0.2-1.8-0.7-2.3S787.8,4736.8,787,4736.8z"/>
		<path class="st3" d="M797.1,4737.2c-0.2-0.2-0.5-0.3-1-0.3c-0.5,0-1,0.3-1.4,0.8s-0.6,1.2-0.6,2.1v4.1h-1.3v-8h1.3v1.6h0
			c0.2-0.6,0.5-1,0.8-1.3s0.8-0.5,1.3-0.5c0.3,0,0.6,0,0.8,0.1V4737.2z"/>
		<path class="st3" d="M802.2,4743.8c-0.3,0.2-0.7,0.2-1.2,0.2c-1.4,0-2.1-0.8-2.1-2.3v-4.7h-1.4v-1.1h1.4v-2l1.3-0.4v2.4h2v1.1h-2
			v4.5c0,0.5,0.1,0.9,0.3,1.1c0.2,0.2,0.5,0.3,0.9,0.3c0.3,0,0.6-0.1,0.8-0.3V4743.8z"/>
		<path class="st3" d="M810.4,4740.2h-5.6c0,0.9,0.3,1.6,0.7,2.1c0.5,0.5,1.1,0.7,1.9,0.7c0.9,0,1.7-0.3,2.5-0.9v1.2
			c-0.7,0.5-1.6,0.8-2.8,0.8c-1.1,0-2-0.4-2.7-1.1c-0.6-0.7-1-1.7-1-3.1c0-1.2,0.4-2.3,1.1-3c0.7-0.8,1.6-1.2,2.6-1.2s1.9,0.3,2.4,1
			c0.6,0.7,0.9,1.6,0.9,2.8V4740.2z M809,4739.2c0-0.7-0.2-1.3-0.5-1.7s-0.8-0.6-1.5-0.6c-0.6,0-1.1,0.2-1.5,0.6s-0.7,1-0.8,1.7H809
			z"/>
		<path class="st3" d="M813.5,4742.1l-1.2,3.8h-0.9l0.9-3.8H813.5z"/>
		<path class="st3" d="M826.6,4740.2h-5.6c0,0.9,0.3,1.6,0.7,2.1c0.5,0.5,1.1,0.7,1.9,0.7c0.9,0,1.7-0.3,2.5-0.9v1.2
			c-0.7,0.5-1.6,0.8-2.8,0.8c-1.1,0-2-0.4-2.7-1.1c-0.6-0.7-1-1.7-1-3.1c0-1.2,0.4-2.3,1.1-3c0.7-0.8,1.6-1.2,2.6-1.2s1.9,0.3,2.4,1
			c0.6,0.7,0.9,1.6,0.9,2.8V4740.2z M825.3,4739.2c0-0.7-0.2-1.3-0.5-1.7s-0.8-0.6-1.5-0.6c-0.6,0-1.1,0.2-1.5,0.6s-0.7,1-0.8,1.7
			H825.3z"/>
		<path class="st3" d="M835.1,4743.9h-1.3v-4.6c0-1.7-0.6-2.5-1.9-2.5c-0.6,0-1.2,0.2-1.6,0.7c-0.4,0.5-0.6,1.1-0.6,1.8v4.6h-1.3v-8
			h1.3v1.3h0c0.6-1,1.5-1.5,2.6-1.5c0.9,0,1.5,0.3,2,0.8c0.5,0.6,0.7,1.4,0.7,2.4V4743.9z"/>
	</g>
	<g class="st2">
		<path class="st3" d="M665,4766.8L665,4766.8l0,4.8h-1.3v-11.7h1.3v1.4h0c0.6-1.1,1.6-1.6,2.8-1.6c1,0,1.8,0.4,2.4,1.1
			s0.9,1.7,0.9,2.9c0,1.3-0.3,2.4-1,3.2c-0.7,0.8-1.5,1.2-2.7,1.2C666.3,4768.1,665.5,4767.7,665,4766.8z M664.9,4763.5v1.1
			c0,0.7,0.2,1.2,0.6,1.7s1,0.7,1.6,0.7c0.8,0,1.4-0.3,1.8-0.9c0.4-0.6,0.7-1.4,0.7-2.5c0-0.9-0.2-1.6-0.6-2.1
			c-0.4-0.5-1-0.8-1.7-0.8c-0.7,0-1.3,0.3-1.8,0.8S664.9,4762.8,664.9,4763.5z"/>
		<path class="st3" d="M678.8,4767.9h-1.3v-1.2h0c-0.6,1-1.4,1.4-2.5,1.4c-0.8,0-1.4-0.2-1.9-0.6c-0.5-0.4-0.7-1-0.7-1.7
			c0-1.5,0.9-2.4,2.6-2.6l2.4-0.3c0-1.4-0.5-2-1.6-2c-1,0-1.8,0.3-2.6,1v-1.3c0.8-0.5,1.7-0.8,2.7-0.8c1.9,0,2.8,1,2.8,3V4767.9z
			 M677.5,4763.9l-1.9,0.3c-0.6,0.1-1,0.2-1.3,0.4c-0.3,0.2-0.5,0.6-0.5,1.1c0,0.4,0.1,0.7,0.4,1c0.3,0.2,0.6,0.4,1.1,0.4
			c0.6,0,1.2-0.2,1.6-0.7s0.6-1,0.6-1.7V4763.9z"/>
		<path class="st3" d="M685.4,4761.2c-0.2-0.2-0.5-0.3-1-0.3c-0.5,0-1,0.3-1.4,0.8s-0.6,1.2-0.6,2.1v4.1h-1.3v-8h1.3v1.6h0
			c0.2-0.6,0.5-1,0.8-1.3s0.8-0.5,1.3-0.5c0.3,0,0.6,0,0.8,0.1V4761.2z"/>
		<path class="st3" d="M693.2,4764.2h-5.6c0,0.9,0.3,1.6,0.7,2.1c0.5,0.5,1.1,0.7,1.9,0.7c0.9,0,1.7-0.3,2.5-0.9v1.2
			c-0.7,0.5-1.6,0.8-2.8,0.8c-1.1,0-2-0.4-2.7-1.1c-0.6-0.7-1-1.7-1-3.1c0-1.2,0.4-2.3,1.1-3c0.7-0.8,1.6-1.2,2.6-1.2s1.9,0.3,2.4,1
			c0.6,0.7,0.9,1.6,0.9,2.8V4764.2z M691.9,4763.2c0-0.7-0.2-1.3-0.5-1.7s-0.8-0.6-1.5-0.6c-0.6,0-1.1,0.2-1.5,0.6s-0.7,1-0.8,1.7
			H691.9z"/>
		<path class="st3" d="M702,4767.9h-1.3v-1.4h0c-0.6,1-1.5,1.5-2.8,1.5c-1,0-1.8-0.4-2.4-1.1s-0.9-1.7-0.9-2.9c0-1.3,0.3-2.4,1-3.2
			c0.7-0.8,1.6-1.2,2.7-1.2c1.1,0,1.9,0.4,2.4,1.3h0v-5h1.3V4767.9z M700.7,4764.3v-1.2c0-0.6-0.2-1.2-0.6-1.6
			c-0.4-0.4-1-0.7-1.6-0.7c-0.8,0-1.4,0.3-1.8,0.9c-0.4,0.6-0.7,1.4-0.7,2.4c0,0.9,0.2,1.6,0.6,2.2s1,0.8,1.7,0.8
			c0.7,0,1.3-0.3,1.7-0.8S700.7,4765.1,700.7,4764.3z"/>
		<path class="st3" d="M711,4764.2h-5.6c0,0.9,0.3,1.6,0.7,2.1c0.5,0.5,1.1,0.7,1.9,0.7c0.9,0,1.7-0.3,2.5-0.9v1.2
			c-0.7,0.5-1.6,0.8-2.8,0.8c-1.1,0-2-0.4-2.7-1.1c-0.6-0.7-1-1.7-1-3.1c0-1.2,0.4-2.3,1.1-3c0.7-0.8,1.6-1.2,2.6-1.2s1.9,0.3,2.4,1
			c0.6,0.7,0.9,1.6,0.9,2.8V4764.2z M709.7,4763.2c0-0.7-0.2-1.3-0.5-1.7s-0.8-0.6-1.5-0.6c-0.6,0-1.1,0.2-1.5,0.6s-0.7,1-0.8,1.7
			H709.7z"/>
		<path class="st3" d="M712.4,4767.6v-1.4c0.7,0.5,1.5,0.8,2.3,0.8c1.1,0,1.7-0.4,1.7-1.1c0-0.2,0-0.4-0.1-0.5
			c-0.1-0.1-0.2-0.3-0.4-0.4s-0.4-0.2-0.6-0.3c-0.2-0.1-0.5-0.2-0.7-0.3c-0.4-0.1-0.7-0.3-0.9-0.4c-0.3-0.1-0.5-0.3-0.7-0.5
			s-0.3-0.4-0.4-0.6c-0.1-0.2-0.1-0.5-0.1-0.8c0-0.4,0.1-0.7,0.3-1s0.4-0.5,0.7-0.7c0.3-0.2,0.6-0.3,1-0.4s0.7-0.1,1.1-0.1
			c0.7,0,1.3,0.1,1.9,0.4v1.3c-0.6-0.4-1.3-0.6-2-0.6c-0.2,0-0.5,0-0.6,0.1c-0.2,0.1-0.4,0.1-0.5,0.2c-0.1,0.1-0.2,0.2-0.3,0.4
			c-0.1,0.1-0.1,0.3-0.1,0.5c0,0.2,0,0.4,0.1,0.5c0.1,0.1,0.2,0.3,0.3,0.4c0.1,0.1,0.3,0.2,0.5,0.3c0.2,0.1,0.4,0.2,0.7,0.3
			c0.4,0.1,0.7,0.3,1,0.4s0.5,0.3,0.7,0.5c0.2,0.2,0.4,0.4,0.5,0.6c0.1,0.2,0.2,0.5,0.2,0.8c0,0.4-0.1,0.7-0.3,1
			c-0.2,0.3-0.4,0.5-0.7,0.7c-0.3,0.2-0.6,0.3-1,0.4c-0.4,0.1-0.8,0.1-1.2,0.1C713.8,4768.1,713,4767.9,712.4,4767.6z"/>
		<path class="st3" d="M720.9,4766.1l-1.2,3.8h-0.9l0.9-3.8H720.9z"/>
		<path class="st3" d="M731.3,4767.8c-0.3,0.2-0.7,0.2-1.2,0.2c-1.4,0-2.1-0.8-2.1-2.3v-4.7h-1.4v-1.1h1.4v-2l1.3-0.4v2.4h2v1.1h-2
			v4.5c0,0.5,0.1,0.9,0.3,1.1c0.2,0.2,0.5,0.3,0.9,0.3c0.3,0,0.6-0.1,0.8-0.3V4767.8z"/>
		<path class="st3" d="M739.4,4764.2h-5.6c0,0.9,0.3,1.6,0.7,2.1c0.5,0.5,1.1,0.7,1.9,0.7c0.9,0,1.7-0.3,2.5-0.9v1.2
			c-0.7,0.5-1.6,0.8-2.8,0.8c-1.1,0-2-0.4-2.7-1.1c-0.6-0.7-1-1.7-1-3.1c0-1.2,0.4-2.3,1.1-3c0.7-0.8,1.6-1.2,2.6-1.2s1.9,0.3,2.4,1
			c0.6,0.7,0.9,1.6,0.9,2.8V4764.2z M738.1,4763.2c0-0.7-0.2-1.3-0.5-1.7s-0.8-0.6-1.5-0.6c-0.6,0-1.1,0.2-1.5,0.6s-0.7,1-0.8,1.7
			H738.1z"/>
		<path class="st3" d="M746.8,4767.6c-0.6,0.4-1.3,0.6-2.2,0.6c-1.1,0-2.1-0.4-2.8-1.1c-0.7-0.7-1.1-1.7-1.1-2.9
			c0-1.3,0.4-2.4,1.1-3.2c0.8-0.8,1.8-1.2,3-1.2c0.7,0,1.3,0.1,1.9,0.4v1.3c-0.6-0.4-1.2-0.6-1.9-0.6c-0.8,0-1.5,0.3-2,0.9
			s-0.8,1.4-0.8,2.3c0,0.9,0.2,1.7,0.7,2.2s1.2,0.8,2,0.8c0.7,0,1.4-0.2,2-0.7V4767.6z"/>
		<path class="st3" d="M755.4,4767.9h-1.3v-4.6c0-1.7-0.6-2.5-1.9-2.5c-0.6,0-1.2,0.2-1.6,0.7c-0.4,0.5-0.6,1.1-0.6,1.9v4.5h-1.3
			v-11.8h1.3v5.2h0c0.6-1,1.5-1.5,2.6-1.5c1.8,0,2.7,1.1,2.7,3.3V4767.9z"/>
		<path class="st3" d="M761.1,4768.1c-1.2,0-2.1-0.4-2.8-1.1c-0.7-0.7-1.1-1.7-1.1-3c0-1.3,0.4-2.4,1.1-3.1s1.7-1.1,3-1.1
			c1.2,0,2.1,0.4,2.8,1.1c0.7,0.7,1,1.8,1,3.1c0,1.3-0.4,2.3-1.1,3.1C763.3,4767.7,762.4,4768.1,761.1,4768.1z M761.2,4760.8
			c-0.8,0-1.5,0.3-2,0.8c-0.5,0.6-0.7,1.3-0.7,2.3c0,0.9,0.2,1.7,0.7,2.2s1.1,0.8,1.9,0.8c0.8,0,1.5-0.3,1.9-0.8s0.7-1.3,0.7-2.3
			c0-1-0.2-1.8-0.7-2.3S762.1,4760.8,761.2,4760.8z"/>
		<path class="st3" d="M766.7,4767.6v-1.4c0.7,0.5,1.5,0.8,2.3,0.8c1.1,0,1.7-0.4,1.7-1.1c0-0.2,0-0.4-0.1-0.5
			c-0.1-0.1-0.2-0.3-0.4-0.4s-0.4-0.2-0.6-0.3c-0.2-0.1-0.5-0.2-0.7-0.3c-0.4-0.1-0.7-0.3-0.9-0.4c-0.3-0.1-0.5-0.3-0.7-0.5
			s-0.3-0.4-0.4-0.6c-0.1-0.2-0.1-0.5-0.1-0.8c0-0.4,0.1-0.7,0.3-1s0.4-0.5,0.7-0.7c0.3-0.2,0.6-0.3,1-0.4s0.7-0.1,1.1-0.1
			c0.7,0,1.3,0.1,1.9,0.4v1.3c-0.6-0.4-1.3-0.6-2-0.6c-0.2,0-0.5,0-0.6,0.1c-0.2,0.1-0.4,0.1-0.5,0.2c-0.1,0.1-0.2,0.2-0.3,0.4
			c-0.1,0.1-0.1,0.3-0.1,0.5c0,0.2,0,0.4,0.1,0.5c0.1,0.1,0.2,0.3,0.3,0.4c0.1,0.1,0.3,0.2,0.5,0.3c0.2,0.1,0.4,0.2,0.7,0.3
			c0.4,0.1,0.7,0.3,1,0.4s0.5,0.3,0.7,0.5c0.2,0.2,0.4,0.4,0.5,0.6c0.1,0.2,0.2,0.5,0.2,0.8c0,0.4-0.1,0.7-0.3,1
			c-0.2,0.3-0.4,0.5-0.7,0.7c-0.3,0.2-0.6,0.3-1,0.4c-0.4,0.1-0.8,0.1-1.2,0.1C768,4768.1,767.3,4767.9,766.7,4767.6z"/>
		<path class="st3" d="M775.1,4766.1l-1.2,3.8H773l0.9-3.8H775.1z"/>
		<path class="st3" d="M783.1,4766.8L783.1,4766.8l0,4.8h-1.3v-11.7h1.3v1.4h0c0.6-1.1,1.6-1.6,2.8-1.6c1,0,1.8,0.4,2.4,1.1
			s0.9,1.7,0.9,2.9c0,1.3-0.3,2.4-1,3.2c-0.7,0.8-1.5,1.2-2.7,1.2C784.5,4768.1,783.7,4767.7,783.1,4766.8z M783.1,4763.5v1.1
			c0,0.7,0.2,1.2,0.6,1.7s1,0.7,1.6,0.7c0.8,0,1.4-0.3,1.8-0.9c0.4-0.6,0.7-1.4,0.7-2.5c0-0.9-0.2-1.6-0.6-2.1
			c-0.4-0.5-1-0.8-1.7-0.8c-0.7,0-1.3,0.3-1.8,0.8S783.1,4762.8,783.1,4763.5z"/>
		<path class="st3" d="M791.9,4757.9c-0.2,0-0.4-0.1-0.6-0.2c-0.2-0.2-0.2-0.4-0.2-0.6s0.1-0.4,0.2-0.6c0.2-0.2,0.4-0.2,0.6-0.2
			c0.2,0,0.4,0.1,0.6,0.2s0.2,0.4,0.2,0.6c0,0.2-0.1,0.4-0.2,0.6S792.1,4757.9,791.9,4757.9z M792.5,4767.9h-1.3v-8h1.3V4767.9z"/>
		<path class="st3" d="M794.6,4767.6v-1.4c0.7,0.5,1.5,0.8,2.3,0.8c1.1,0,1.7-0.4,1.7-1.1c0-0.2,0-0.4-0.1-0.5
			c-0.1-0.1-0.2-0.3-0.4-0.4s-0.4-0.2-0.6-0.3c-0.2-0.1-0.5-0.2-0.7-0.3c-0.4-0.1-0.7-0.3-0.9-0.4c-0.3-0.1-0.5-0.3-0.7-0.5
			s-0.3-0.4-0.4-0.6c-0.1-0.2-0.1-0.5-0.1-0.8c0-0.4,0.1-0.7,0.3-1s0.4-0.5,0.7-0.7c0.3-0.2,0.6-0.3,1-0.4s0.7-0.1,1.1-0.1
			c0.7,0,1.3,0.1,1.9,0.4v1.3c-0.6-0.4-1.3-0.6-2-0.6c-0.2,0-0.5,0-0.6,0.1c-0.2,0.1-0.4,0.1-0.5,0.2c-0.1,0.1-0.2,0.2-0.3,0.4
			c-0.1,0.1-0.1,0.3-0.1,0.5c0,0.2,0,0.4,0.1,0.5c0.1,0.1,0.2,0.3,0.3,0.4c0.1,0.1,0.3,0.2,0.5,0.3c0.2,0.1,0.4,0.2,0.7,0.3
			c0.4,0.1,0.7,0.3,1,0.4s0.5,0.3,0.7,0.5c0.2,0.2,0.3,0.4,0.5,0.6c0.1,0.2,0.2,0.5,0.2,0.8c0,0.4-0.1,0.7-0.3,1
			c-0.2,0.3-0.4,0.5-0.7,0.7c-0.3,0.2-0.6,0.3-1,0.4c-0.4,0.1-0.8,0.1-1.2,0.1C795.9,4768.1,795.2,4767.9,794.6,4767.6z"/>
		<path class="st3" d="M805.2,4768.1c-1.2,0-2.1-0.4-2.8-1.1c-0.7-0.7-1.1-1.7-1.1-3c0-1.3,0.4-2.4,1.1-3.1s1.7-1.1,3-1.1
			c1.2,0,2.1,0.4,2.8,1.1c0.7,0.7,1,1.8,1,3.1c0,1.3-0.4,2.3-1.1,3.1C807.4,4767.7,806.4,4768.1,805.2,4768.1z M805.3,4760.8
			c-0.8,0-1.5,0.3-2,0.8c-0.5,0.6-0.7,1.3-0.7,2.3c0,0.9,0.2,1.7,0.7,2.2s1.1,0.8,1.9,0.8c0.8,0,1.5-0.3,1.9-0.8s0.7-1.3,0.7-2.3
			c0-1-0.2-1.8-0.7-2.3S806.2,4760.8,805.3,4760.8z"/>
		<path class="st3" d="M810.8,4767.6v-1.4c0.7,0.5,1.5,0.8,2.3,0.8c1.1,0,1.7-0.4,1.7-1.1c0-0.2,0-0.4-0.1-0.5
			c-0.1-0.1-0.2-0.3-0.4-0.4s-0.4-0.2-0.6-0.3c-0.2-0.1-0.5-0.2-0.7-0.3c-0.4-0.1-0.7-0.3-0.9-0.4c-0.3-0.1-0.5-0.3-0.7-0.5
			s-0.3-0.4-0.4-0.6c-0.1-0.2-0.1-0.5-0.1-0.8c0-0.4,0.1-0.7,0.3-1s0.4-0.5,0.7-0.7c0.3-0.2,0.6-0.3,1-0.4s0.7-0.1,1.1-0.1
			c0.7,0,1.3,0.1,1.9,0.4v1.3c-0.6-0.4-1.3-0.6-2-0.6c-0.2,0-0.5,0-0.6,0.1c-0.2,0.1-0.4,0.1-0.5,0.2c-0.1,0.1-0.2,0.2-0.3,0.4
			c-0.1,0.1-0.1,0.3-0.1,0.5c0,0.2,0,0.4,0.1,0.5c0.1,0.1,0.2,0.3,0.3,0.4c0.1,0.1,0.3,0.2,0.5,0.3c0.2,0.1,0.4,0.2,0.7,0.3
			c0.4,0.1,0.7,0.3,1,0.4s0.5,0.3,0.7,0.5c0.2,0.2,0.3,0.4,0.5,0.6c0.1,0.2,0.2,0.5,0.2,0.8c0,0.4-0.1,0.7-0.3,1
			c-0.2,0.3-0.4,0.5-0.7,0.7c-0.3,0.2-0.6,0.3-1,0.4c-0.4,0.1-0.8,0.1-1.2,0.1C812.1,4768.1,811.4,4767.9,810.8,4767.6z"/>
		<path class="st3" d="M828.8,4759.9l-3.7,9.3c-0.7,1.7-1.6,2.5-2.8,2.5c-0.3,0-0.6,0-0.8-0.1v-1.1c0.3,0.1,0.5,0.1,0.8,0.1
			c0.6,0,1.1-0.4,1.5-1.2l0.6-1.5l-3.1-8h1.4l2.2,6.2c0,0.1,0.1,0.3,0.2,0.6h0c0-0.1,0.1-0.3,0.2-0.6l2.3-6.2H828.8z"/>
		<path class="st3" d="M835.9,4766.8L835.9,4766.8l0,4.8h-1.3v-11.7h1.3v1.4h0c0.6-1.1,1.6-1.6,2.8-1.6c1,0,1.8,0.4,2.4,1.1
			s0.9,1.7,0.9,2.9c0,1.3-0.3,2.4-1,3.2c-0.7,0.8-1.5,1.2-2.7,1.2C837.2,4768.1,836.4,4767.7,835.9,4766.8z M835.8,4763.5v1.1
			c0,0.7,0.2,1.2,0.6,1.7s1,0.7,1.6,0.7c0.8,0,1.4-0.3,1.8-0.9c0.4-0.6,0.7-1.4,0.7-2.5c0-0.9-0.2-1.6-0.6-2.1
			c-0.4-0.5-1-0.8-1.7-0.8c-0.7,0-1.3,0.3-1.8,0.8S835.8,4762.8,835.8,4763.5z"/>
		<path class="st3" d="M850.4,4767.9h-1.3v-1.3h0c-0.5,1-1.4,1.5-2.5,1.5c-1.9,0-2.9-1.1-2.9-3.4v-4.8h1.3v4.6
			c0,1.7,0.6,2.5,1.9,2.5c0.6,0,1.1-0.2,1.5-0.7c0.4-0.5,0.6-1.1,0.6-1.8v-4.6h1.3V4767.9z"/>
		<path class="st3" d="M859.5,4764.2h-5.6c0,0.9,0.3,1.6,0.7,2.1c0.5,0.5,1.1,0.7,1.9,0.7c0.9,0,1.7-0.3,2.5-0.9v1.2
			c-0.7,0.5-1.6,0.8-2.8,0.8c-1.1,0-2-0.4-2.7-1.1c-0.6-0.7-1-1.7-1-3.1c0-1.2,0.4-2.3,1.1-3c0.7-0.8,1.6-1.2,2.6-1.2s1.9,0.3,2.4,1
			c0.6,0.7,0.9,1.6,0.9,2.8V4764.2z M858.1,4763.2c0-0.7-0.2-1.3-0.5-1.7s-0.8-0.6-1.5-0.6c-0.6,0-1.1,0.2-1.5,0.6s-0.7,1-0.8,1.7
			H858.1z"/>
		<path class="st3" d="M865.6,4761.2c-0.2-0.2-0.5-0.3-1-0.3c-0.5,0-1,0.3-1.4,0.8s-0.6,1.2-0.6,2.1v4.1h-1.3v-8h1.3v1.6h0
			c0.2-0.6,0.5-1,0.8-1.3s0.8-0.5,1.3-0.5c0.3,0,0.6,0,0.8,0.1V4761.2z"/>
		<path class="st3" d="M870.7,4767.8c-0.3,0.2-0.7,0.2-1.2,0.2c-1.4,0-2.1-0.8-2.1-2.3v-4.7H866v-1.1h1.4v-2l1.3-0.4v2.4h2v1.1h-2
			v4.5c0,0.5,0.1,0.9,0.3,1.1c0.2,0.2,0.5,0.3,0.9,0.3c0.3,0,0.6-0.1,0.8-0.3V4767.8z"/>
		<path class="st3" d="M878.1,4767.9h-1.3v-1.2h0c-0.6,1-1.4,1.4-2.5,1.4c-0.8,0-1.4-0.2-1.9-0.6c-0.5-0.4-0.7-1-0.7-1.7
			c0-1.5,0.9-2.4,2.6-2.6l2.4-0.3c0-1.4-0.5-2-1.6-2c-1,0-1.8,0.3-2.6,1v-1.3c0.8-0.5,1.7-0.8,2.7-0.8c1.9,0,2.8,1,2.8,3V4767.9z
			 M876.8,4763.9l-1.9,0.3c-0.6,0.1-1,0.2-1.3,0.4c-0.3,0.2-0.5,0.6-0.5,1.1c0,0.4,0.1,0.7,0.4,1c0.3,0.2,0.6,0.4,1.1,0.4
			c0.6,0,1.2-0.2,1.6-0.7s0.6-1,0.6-1.7V4763.9z"/>
		<path class="st3" d="M880,4767.6v-1.4c0.7,0.5,1.5,0.8,2.3,0.8c1.1,0,1.7-0.4,1.7-1.1c0-0.2,0-0.4-0.1-0.5
			c-0.1-0.1-0.2-0.3-0.4-0.4s-0.4-0.2-0.6-0.3c-0.2-0.1-0.5-0.2-0.7-0.3c-0.4-0.1-0.7-0.3-0.9-0.4c-0.3-0.1-0.5-0.3-0.7-0.5
			s-0.3-0.4-0.4-0.6c-0.1-0.2-0.1-0.5-0.1-0.8c0-0.4,0.1-0.7,0.3-1s0.4-0.5,0.7-0.7c0.3-0.2,0.6-0.3,1-0.4s0.7-0.1,1.1-0.1
			c0.7,0,1.3,0.1,1.9,0.4v1.3c-0.6-0.4-1.3-0.6-2-0.6c-0.2,0-0.5,0-0.6,0.1c-0.2,0.1-0.4,0.1-0.5,0.2c-0.1,0.1-0.2,0.2-0.3,0.4
			c-0.1,0.1-0.1,0.3-0.1,0.5c0,0.2,0,0.4,0.1,0.5c0.1,0.1,0.2,0.3,0.3,0.4c0.1,0.1,0.3,0.2,0.5,0.3c0.2,0.1,0.4,0.2,0.7,0.3
			c0.4,0.1,0.7,0.3,1,0.4s0.5,0.3,0.7,0.5c0.2,0.2,0.3,0.4,0.5,0.6c0.1,0.2,0.2,0.5,0.2,0.8c0,0.4-0.1,0.7-0.3,1
			c-0.2,0.3-0.4,0.5-0.7,0.7c-0.3,0.2-0.6,0.3-1,0.4c-0.4,0.1-0.8,0.1-1.2,0.1C881.3,4768.1,880.6,4767.9,880,4767.6z"/>
	</g>
	<g class="st2">
		<path class="st3" d="M670.5,4795.6h-1.3v-5.1h0c-0.6,1-1.5,1.6-2.7,1.6c-1,0-1.8-0.4-2.4-1.1c-0.6-0.7-0.9-1.7-0.9-2.9
			c0-1.3,0.3-2.4,1-3.2c0.7-0.8,1.6-1.2,2.7-1.2c1.1,0,1.9,0.4,2.4,1.3h0v-1.1h1.3V4795.6z M669.2,4788.3v-1.2
			c0-0.7-0.2-1.2-0.6-1.7s-1-0.7-1.6-0.7c-0.8,0-1.4,0.3-1.8,0.9c-0.4,0.6-0.7,1.4-0.7,2.4c0,0.9,0.2,1.6,0.6,2.2
			c0.4,0.5,1,0.8,1.7,0.8c0.8,0,1.3-0.3,1.8-0.8S669.2,4789.1,669.2,4788.3z"/>
		<path class="st3" d="M679.6,4791.9h-1.3v-1.3h0c-0.5,1-1.4,1.5-2.5,1.5c-1.9,0-2.9-1.1-2.9-3.4v-4.8h1.3v4.6
			c0,1.7,0.6,2.5,1.9,2.5c0.6,0,1.1-0.2,1.5-0.7c0.4-0.5,0.6-1.1,0.6-1.8v-4.6h1.3V4791.9z"/>
		<path class="st3" d="M688.6,4788.2h-5.6c0,0.9,0.3,1.6,0.7,2.1c0.5,0.5,1.1,0.7,1.9,0.7c0.9,0,1.7-0.3,2.5-0.9v1.2
			c-0.7,0.5-1.6,0.8-2.8,0.8c-1.1,0-2-0.4-2.7-1.1c-0.6-0.7-1-1.7-1-3.1c0-1.2,0.4-2.3,1.1-3c0.7-0.8,1.6-1.2,2.6-1.2s1.9,0.3,2.4,1
			c0.6,0.7,0.9,1.6,0.9,2.8V4788.2z M687.3,4787.2c0-0.7-0.2-1.3-0.5-1.7s-0.8-0.6-1.5-0.6c-0.6,0-1.1,0.2-1.5,0.6s-0.7,1-0.8,1.7
			H687.3z"/>
		<path class="st3" d="M700.6,4791.9h-1.3v-1.2h0c-0.6,1-1.4,1.4-2.5,1.4c-0.8,0-1.4-0.2-1.9-0.6c-0.5-0.4-0.7-1-0.7-1.7
			c0-1.5,0.9-2.4,2.6-2.6l2.4-0.3c0-1.4-0.5-2-1.6-2c-1,0-1.8,0.3-2.6,1v-1.3c0.8-0.5,1.7-0.8,2.7-0.8c1.9,0,2.8,1,2.8,3V4791.9z
			 M699.3,4787.9l-1.9,0.3c-0.6,0.1-1,0.2-1.3,0.4c-0.3,0.2-0.5,0.6-0.5,1.1c0,0.4,0.1,0.7,0.4,1c0.3,0.2,0.6,0.4,1.1,0.4
			c0.6,0,1.2-0.2,1.6-0.7s0.6-1,0.6-1.7V4787.9z"/>
		<path class="st3" d="M705.5,4779.8l-2,2.6h-1l1.7-2.6H705.5z M704.3,4791.9H703v-8h1.3V4791.9z"/>
		<path class="st3" d="M706.4,4791.6v-1.4c0.7,0.5,1.5,0.8,2.3,0.8c1.1,0,1.7-0.4,1.7-1.1c0-0.2,0-0.4-0.1-0.5
			c-0.1-0.1-0.2-0.3-0.4-0.4s-0.4-0.2-0.6-0.3c-0.2-0.1-0.5-0.2-0.7-0.3c-0.4-0.1-0.7-0.3-0.9-0.4c-0.3-0.1-0.5-0.3-0.7-0.5
			s-0.3-0.4-0.4-0.6c-0.1-0.2-0.1-0.5-0.1-0.8c0-0.4,0.1-0.7,0.3-1s0.4-0.5,0.7-0.7c0.3-0.2,0.6-0.3,1-0.4s0.7-0.1,1.1-0.1
			c0.7,0,1.3,0.1,1.9,0.4v1.3c-0.6-0.4-1.3-0.6-2-0.6c-0.2,0-0.5,0-0.6,0.1c-0.2,0.1-0.4,0.1-0.5,0.2c-0.1,0.1-0.2,0.2-0.3,0.4
			c-0.1,0.1-0.1,0.3-0.1,0.5c0,0.2,0,0.4,0.1,0.5c0.1,0.1,0.2,0.3,0.3,0.4c0.1,0.1,0.3,0.2,0.5,0.3c0.2,0.1,0.4,0.2,0.7,0.3
			c0.4,0.1,0.7,0.3,1,0.4s0.5,0.3,0.7,0.5c0.2,0.2,0.4,0.4,0.5,0.6c0.1,0.2,0.2,0.5,0.2,0.8c0,0.4-0.1,0.7-0.3,1
			c-0.2,0.3-0.4,0.5-0.7,0.7c-0.3,0.2-0.6,0.3-1,0.4c-0.4,0.1-0.8,0.1-1.2,0.1C707.7,4792.1,707,4791.9,706.4,4791.6z"/>
		<path class="st3" d="M715,4791.9h-1.3v-11.8h1.3V4791.9z"/>
		<path class="st3" d="M723.3,4791.9H722v-1.2h0c-0.6,1-1.4,1.4-2.5,1.4c-0.8,0-1.4-0.2-1.9-0.6c-0.5-0.4-0.7-1-0.7-1.7
			c0-1.5,0.9-2.4,2.6-2.6l2.4-0.3c0-1.4-0.5-2-1.6-2c-1,0-1.8,0.3-2.6,1v-1.3c0.8-0.5,1.7-0.8,2.7-0.8c1.9,0,2.8,1,2.8,3V4791.9z
			 M722,4787.9l-1.9,0.3c-0.6,0.1-1,0.2-1.3,0.4c-0.3,0.2-0.5,0.6-0.5,1.1c0,0.4,0.1,0.7,0.4,1c0.3,0.2,0.6,0.4,1.1,0.4
			c0.6,0,1.2-0.2,1.6-0.7s0.6-1,0.6-1.7V4787.9z"/>
		<path class="st3" d="M736.5,4783.9l-3.7,9.3c-0.7,1.7-1.6,2.5-2.8,2.5c-0.3,0-0.6,0-0.8-0.1v-1.1c0.3,0.1,0.5,0.1,0.8,0.1
			c0.6,0,1.1-0.4,1.5-1.2l0.6-1.5l-3.1-8h1.4l2.2,6.2c0,0.1,0.1,0.3,0.2,0.6h0c0-0.1,0.1-0.3,0.2-0.6l2.3-6.2H736.5z"/>
		<path class="st3" d="M743.5,4791.9h-1.3v-11.8h1.3V4791.9z"/>
		<path class="st3" d="M746.7,4781.9c-0.2,0-0.4-0.1-0.6-0.2c-0.2-0.2-0.2-0.4-0.2-0.6s0.1-0.4,0.2-0.6c0.2-0.2,0.4-0.2,0.6-0.2
			c0.2,0,0.4,0.1,0.6,0.2s0.2,0.4,0.2,0.6c0,0.2-0.1,0.4-0.2,0.6S747,4781.9,746.7,4781.9z M747.4,4791.9h-1.3v-8h1.3V4791.9z"/>
		<path class="st3" d="M761.3,4791.9H760v-4.6c0-0.9-0.1-1.5-0.4-1.9s-0.7-0.6-1.4-0.6c-0.5,0-1,0.2-1.4,0.8s-0.6,1.1-0.6,1.8v4.6
			H755v-4.8c0-1.6-0.6-2.4-1.8-2.4c-0.6,0-1,0.2-1.4,0.7c-0.4,0.5-0.5,1.1-0.5,1.8v4.6H750v-8h1.3v1.3h0c0.6-1,1.4-1.5,2.5-1.5
			c0.5,0,1,0.2,1.4,0.5s0.7,0.7,0.8,1.2c0.6-1.1,1.5-1.7,2.7-1.7c1.8,0,2.6,1.1,2.6,3.3V4791.9z"/>
		<path class="st3" d="M764.4,4781.9c-0.2,0-0.4-0.1-0.6-0.2c-0.2-0.2-0.2-0.4-0.2-0.6s0.1-0.4,0.2-0.6c0.2-0.2,0.4-0.2,0.6-0.2
			c0.2,0,0.4,0.1,0.6,0.2s0.2,0.4,0.2,0.6c0,0.2-0.1,0.4-0.2,0.6S764.6,4781.9,764.4,4781.9z M765,4791.9h-1.3v-8h1.3V4791.9z"/>
		<path class="st3" d="M771.3,4791.8c-0.3,0.2-0.7,0.2-1.2,0.2c-1.4,0-2.1-0.8-2.1-2.3v-4.7h-1.4v-1.1h1.4v-2l1.3-0.4v2.4h2v1.1h-2
			v4.5c0,0.5,0.1,0.9,0.3,1.1c0.2,0.2,0.5,0.3,0.9,0.3c0.3,0,0.6-0.1,0.8-0.3V4791.8z"/>
		<path class="st3" d="M778.8,4791.9h-1.3v-1.2h0c-0.6,1-1.4,1.4-2.5,1.4c-0.8,0-1.4-0.2-1.9-0.6c-0.5-0.4-0.7-1-0.7-1.7
			c0-1.5,0.9-2.4,2.6-2.6l2.4-0.3c0-1.4-0.5-2-1.6-2c-1,0-1.8,0.3-2.6,1v-1.3c0.8-0.5,1.7-0.8,2.7-0.8c1.9,0,2.8,1,2.8,3V4791.9z
			 M777.5,4787.9l-1.9,0.3c-0.6,0.1-1,0.2-1.3,0.4c-0.3,0.2-0.5,0.6-0.5,1.1c0,0.4,0.1,0.7,0.4,1c0.3,0.2,0.6,0.4,1.1,0.4
			c0.6,0,1.2-0.2,1.6-0.7s0.6-1,0.6-1.7V4787.9z"/>
		<path class="st3" d="M786.9,4790.8L786.9,4790.8l0,4.8h-1.3v-11.7h1.3v1.4h0c0.6-1.1,1.6-1.6,2.8-1.6c1,0,1.8,0.4,2.4,1.1
			s0.9,1.7,0.9,2.9c0,1.3-0.3,2.4-1,3.2c-0.7,0.8-1.5,1.2-2.7,1.2C788.2,4792.1,787.4,4791.7,786.9,4790.8z M786.9,4787.5v1.1
			c0,0.7,0.2,1.2,0.6,1.7s1,0.7,1.6,0.7c0.8,0,1.4-0.3,1.8-0.9c0.4-0.6,0.7-1.4,0.7-2.5c0-0.9-0.2-1.6-0.6-2.1
			c-0.4-0.5-1-0.8-1.7-0.8c-0.7,0-1.3,0.3-1.8,0.8S786.9,4786.8,786.9,4787.5z"/>
		<path class="st3" d="M798.3,4792.1c-1.2,0-2.1-0.4-2.8-1.1c-0.7-0.7-1.1-1.7-1.1-3c0-1.3,0.4-2.4,1.1-3.1s1.7-1.1,3-1.1
			c1.2,0,2.1,0.4,2.8,1.1c0.7,0.7,1,1.8,1,3.1c0,1.3-0.4,2.3-1.1,3.1C800.5,4791.7,799.5,4792.1,798.3,4792.1z M798.4,4784.8
			c-0.8,0-1.5,0.3-2,0.8c-0.5,0.6-0.7,1.3-0.7,2.3c0,0.9,0.2,1.7,0.7,2.2s1.1,0.8,1.9,0.8c0.8,0,1.5-0.3,1.9-0.8s0.7-1.3,0.7-2.3
			c0-1-0.2-1.8-0.7-2.3S799.2,4784.8,798.4,4784.8z"/>
		<path class="st3" d="M803.9,4791.6v-1.4c0.7,0.5,1.5,0.8,2.3,0.8c1.1,0,1.7-0.4,1.7-1.1c0-0.2,0-0.4-0.1-0.5
			c-0.1-0.1-0.2-0.3-0.4-0.4s-0.4-0.2-0.6-0.3c-0.2-0.1-0.5-0.2-0.7-0.3c-0.4-0.1-0.7-0.3-0.9-0.4c-0.3-0.1-0.5-0.3-0.7-0.5
			s-0.3-0.4-0.4-0.6c-0.1-0.2-0.1-0.5-0.1-0.8c0-0.4,0.1-0.7,0.3-1s0.4-0.5,0.7-0.7c0.3-0.2,0.6-0.3,1-0.4s0.7-0.1,1.1-0.1
			c0.7,0,1.3,0.1,1.9,0.4v1.3c-0.6-0.4-1.3-0.6-2-0.6c-0.2,0-0.5,0-0.6,0.1c-0.2,0.1-0.4,0.1-0.5,0.2c-0.1,0.1-0.2,0.2-0.3,0.4
			c-0.1,0.1-0.1,0.3-0.1,0.5c0,0.2,0,0.4,0.1,0.5c0.1,0.1,0.2,0.3,0.3,0.4c0.1,0.1,0.3,0.2,0.5,0.3c0.2,0.1,0.4,0.2,0.7,0.3
			c0.4,0.1,0.7,0.3,1,0.4s0.5,0.3,0.7,0.5c0.2,0.2,0.3,0.4,0.5,0.6c0.1,0.2,0.2,0.5,0.2,0.8c0,0.4-0.1,0.7-0.3,1
			c-0.2,0.3-0.4,0.5-0.7,0.7c-0.3,0.2-0.6,0.3-1,0.4c-0.4,0.1-0.8,0.1-1.2,0.1C805.2,4792.1,804.5,4791.9,803.9,4791.6z"/>
		<path class="st3" d="M811.8,4781.9c-0.2,0-0.4-0.1-0.6-0.2c-0.2-0.2-0.2-0.4-0.2-0.6s0.1-0.4,0.2-0.6c0.2-0.2,0.4-0.2,0.6-0.2
			c0.2,0,0.4,0.1,0.6,0.2s0.2,0.4,0.2,0.6c0,0.2-0.1,0.4-0.2,0.6S812,4781.9,811.8,4781.9z M812.4,4791.9h-1.3v-8h1.3V4791.9z"/>
		<path class="st3" d="M816.3,4790.8L816.3,4790.8l0,1.2H815v-11.8h1.3v5.2h0c0.6-1.1,1.6-1.6,2.8-1.6c1,0,1.8,0.4,2.4,1.1
			c0.6,0.7,0.9,1.7,0.9,2.9c0,1.3-0.3,2.4-1,3.2c-0.7,0.8-1.5,1.2-2.7,1.2C817.7,4792.1,816.9,4791.7,816.3,4790.8z M816.3,4787.5
			v1.1c0,0.7,0.2,1.2,0.6,1.7s1,0.7,1.6,0.7c0.8,0,1.4-0.3,1.8-0.9c0.4-0.6,0.7-1.4,0.7-2.5c0-0.9-0.2-1.6-0.6-2.1
			c-0.4-0.5-1-0.8-1.7-0.8c-0.7,0-1.3,0.3-1.8,0.8S816.3,4786.8,816.3,4787.5z"/>
		<path class="st3" d="M825.7,4791.9h-1.3v-11.8h1.3V4791.9z"/>
		<path class="st3" d="M834.7,4788.2h-5.6c0,0.9,0.3,1.6,0.7,2.1c0.5,0.5,1.1,0.7,1.9,0.7c0.9,0,1.7-0.3,2.5-0.9v1.2
			c-0.7,0.5-1.6,0.8-2.8,0.8c-1.1,0-2-0.4-2.7-1.1c-0.6-0.7-1-1.7-1-3.1c0-1.2,0.4-2.3,1.1-3c0.7-0.8,1.6-1.2,2.6-1.2s1.9,0.3,2.4,1
			c0.6,0.7,0.9,1.6,0.9,2.8V4788.2z M833.4,4787.2c0-0.7-0.2-1.3-0.5-1.7s-0.8-0.6-1.5-0.6c-0.6,0-1.1,0.2-1.5,0.6s-0.7,1-0.8,1.7
			H833.4z"/>
		<path class="st3" d="M836.2,4791.6v-1.4c0.7,0.5,1.5,0.8,2.3,0.8c1.1,0,1.7-0.4,1.7-1.1c0-0.2,0-0.4-0.1-0.5
			c-0.1-0.1-0.2-0.3-0.4-0.4s-0.4-0.2-0.6-0.3c-0.2-0.1-0.5-0.2-0.7-0.3c-0.4-0.1-0.7-0.3-0.9-0.4c-0.3-0.1-0.5-0.3-0.7-0.5
			s-0.3-0.4-0.4-0.6c-0.1-0.2-0.1-0.5-0.1-0.8c0-0.4,0.1-0.7,0.3-1s0.4-0.5,0.7-0.7c0.3-0.2,0.6-0.3,1-0.4s0.7-0.1,1.1-0.1
			c0.7,0,1.3,0.1,1.9,0.4v1.3c-0.6-0.4-1.3-0.6-2-0.6c-0.2,0-0.5,0-0.6,0.1c-0.2,0.1-0.4,0.1-0.5,0.2c-0.1,0.1-0.2,0.2-0.3,0.4
			c-0.1,0.1-0.1,0.3-0.1,0.5c0,0.2,0,0.4,0.1,0.5c0.1,0.1,0.2,0.3,0.3,0.4c0.1,0.1,0.3,0.2,0.5,0.3c0.2,0.1,0.4,0.2,0.7,0.3
			c0.4,0.1,0.7,0.3,1,0.4s0.5,0.3,0.7,0.5c0.2,0.2,0.3,0.4,0.5,0.6c0.1,0.2,0.2,0.5,0.2,0.8c0,0.4-0.1,0.7-0.3,1
			c-0.2,0.3-0.4,0.5-0.7,0.7c-0.3,0.2-0.6,0.3-1,0.4c-0.4,0.1-0.8,0.1-1.2,0.1C837.5,4792.1,836.8,4791.9,836.2,4791.6z"/>
	</g>
	<g class="st2">
		<path class="st3" d="M664.3,4805.9c-0.2,0-0.4-0.1-0.6-0.2c-0.2-0.2-0.2-0.4-0.2-0.6s0.1-0.4,0.2-0.6c0.2-0.2,0.4-0.2,0.6-0.2
			c0.2,0,0.4,0.1,0.6,0.2s0.2,0.4,0.2,0.6c0,0.2-0.1,0.4-0.2,0.6S664.6,4805.9,664.3,4805.9z M664.9,4815.9h-1.3v-8h1.3V4815.9z"/>
		<path class="st3" d="M674.2,4815.9h-1.3v-4.6c0-1.7-0.6-2.5-1.9-2.5c-0.6,0-1.2,0.2-1.6,0.7c-0.4,0.5-0.6,1.1-0.6,1.8v4.6h-1.3v-8
			h1.3v1.3h0c0.6-1,1.5-1.5,2.6-1.5c0.9,0,1.5,0.3,2,0.8c0.5,0.6,0.7,1.4,0.7,2.4V4815.9z"/>
		<path class="st3" d="M680.3,4815.8c-0.3,0.2-0.7,0.2-1.2,0.2c-1.4,0-2.1-0.8-2.1-2.3v-4.7h-1.4v-1.1h1.4v-2l1.3-0.4v2.4h2v1.1h-2
			v4.5c0,0.5,0.1,0.9,0.3,1.1c0.2,0.2,0.5,0.3,0.9,0.3c0.3,0,0.6-0.1,0.8-0.3V4815.8z"/>
		<path class="st3" d="M688.4,4812.2h-5.6c0,0.9,0.3,1.6,0.7,2.1c0.5,0.5,1.1,0.7,1.9,0.7c0.9,0,1.7-0.3,2.5-0.9v1.2
			c-0.7,0.5-1.6,0.8-2.8,0.8c-1.1,0-2-0.4-2.7-1.1c-0.6-0.7-1-1.7-1-3.1c0-1.2,0.4-2.3,1.1-3c0.7-0.8,1.6-1.2,2.6-1.2s1.9,0.3,2.4,1
			c0.6,0.7,0.9,1.6,0.9,2.8V4812.2z M687.1,4811.2c0-0.7-0.2-1.3-0.5-1.7s-0.8-0.6-1.5-0.6c-0.6,0-1.1,0.2-1.5,0.6s-0.7,1-0.8,1.7
			H687.1z"/>
		<path class="st3" d="M694.6,4809.2c-0.2-0.2-0.5-0.3-1-0.3c-0.5,0-1,0.3-1.4,0.8s-0.6,1.2-0.6,2.1v4.1h-1.3v-8h1.3v1.6h0
			c0.2-0.6,0.5-1,0.8-1.3s0.8-0.5,1.3-0.5c0.3,0,0.6,0,0.8,0.1V4809.2z"/>
		<path class="st3" d="M701.4,4815.6c-0.6,0.4-1.3,0.6-2.2,0.6c-1.1,0-2.1-0.4-2.8-1.1c-0.7-0.7-1.1-1.7-1.1-2.9
			c0-1.3,0.4-2.4,1.1-3.2c0.8-0.8,1.8-1.2,3-1.2c0.7,0,1.3,0.1,1.9,0.4v1.3c-0.6-0.4-1.2-0.6-1.9-0.6c-0.8,0-1.5,0.3-2,0.9
			s-0.8,1.4-0.8,2.3c0,0.9,0.2,1.7,0.7,2.2s1.2,0.8,2,0.8c0.7,0,1.4-0.2,2-0.7V4815.6z"/>
		<path class="st3" d="M709.1,4815.9h-1.3v-1.2h0c-0.6,1-1.4,1.4-2.5,1.4c-0.8,0-1.4-0.2-1.9-0.6c-0.5-0.4-0.7-1-0.7-1.7
			c0-1.5,0.9-2.4,2.6-2.6l2.4-0.3c0-1.4-0.5-2-1.6-2c-1,0-1.8,0.3-2.6,1v-1.3c0.8-0.5,1.7-0.8,2.7-0.8c1.9,0,2.8,1,2.8,3V4815.9z
			 M707.8,4811.9l-1.9,0.3c-0.6,0.1-1,0.2-1.3,0.4c-0.3,0.2-0.5,0.6-0.5,1.1c0,0.4,0.1,0.7,0.4,1c0.3,0.2,0.6,0.4,1.1,0.4
			c0.6,0,1.2-0.2,1.6-0.7s0.6-1,0.6-1.7V4811.9z"/>
		<path class="st3" d="M722.8,4815.9h-1.3v-4.6c0-0.9-0.1-1.5-0.4-1.9s-0.7-0.6-1.4-0.6c-0.5,0-1,0.2-1.4,0.8s-0.6,1.1-0.6,1.8v4.6
			h-1.3v-4.8c0-1.6-0.6-2.4-1.8-2.4c-0.6,0-1,0.2-1.4,0.7c-0.4,0.5-0.5,1.1-0.5,1.8v4.6h-1.3v-8h1.3v1.3h0c0.6-1,1.4-1.5,2.5-1.5
			c0.5,0,1,0.2,1.4,0.5s0.7,0.7,0.8,1.2c0.6-1.1,1.5-1.7,2.7-1.7c1.8,0,2.6,1.1,2.6,3.3V4815.9z"/>
		<path class="st3" d="M726.6,4814.8L726.6,4814.8l0,1.2h-1.3v-11.8h1.3v5.2h0c0.6-1.1,1.6-1.6,2.8-1.6c1,0,1.8,0.4,2.4,1.1
			c0.6,0.7,0.9,1.7,0.9,2.9c0,1.3-0.3,2.4-1,3.2c-0.7,0.8-1.5,1.2-2.7,1.2C727.9,4816.1,727.1,4815.7,726.6,4814.8z M726.5,4811.5
			v1.1c0,0.7,0.2,1.2,0.6,1.7s1,0.7,1.6,0.7c0.8,0,1.4-0.3,1.8-0.9c0.4-0.6,0.7-1.4,0.7-2.5c0-0.9-0.2-1.6-0.6-2.1
			c-0.4-0.5-1-0.8-1.7-0.8c-0.7,0-1.3,0.3-1.8,0.8S726.5,4810.8,726.5,4811.5z"/>
		<path class="st3" d="M735.3,4805.9c-0.2,0-0.4-0.1-0.6-0.2c-0.2-0.2-0.2-0.4-0.2-0.6s0.1-0.4,0.2-0.6c0.2-0.2,0.4-0.2,0.6-0.2
			c0.2,0,0.4,0.1,0.6,0.2s0.2,0.4,0.2,0.6c0,0.2-0.1,0.4-0.2,0.6S735.6,4805.9,735.3,4805.9z M735.9,4815.9h-1.3v-8h1.3V4815.9z"/>
		<path class="st3" d="M741.9,4816.1c-1.2,0-2.1-0.4-2.8-1.1c-0.7-0.7-1.1-1.7-1.1-3c0-1.3,0.4-2.4,1.1-3.1s1.7-1.1,3-1.1
			c1.2,0,2.1,0.4,2.8,1.1c0.7,0.7,1,1.8,1,3.1c0,1.3-0.4,2.3-1.1,3.1C744.1,4815.7,743.1,4816.1,741.9,4816.1z M742,4808.8
			c-0.8,0-1.5,0.3-2,0.8c-0.5,0.6-0.7,1.3-0.7,2.3c0,0.9,0.2,1.7,0.7,2.2s1.1,0.8,1.9,0.8c0.8,0,1.5-0.3,1.9-0.8s0.7-1.3,0.7-2.3
			c0-1-0.2-1.8-0.7-2.3S742.8,4808.8,742,4808.8z"/>
		<path class="st3" d="M747.4,4815.6v-1.4c0.7,0.5,1.5,0.8,2.3,0.8c1.1,0,1.7-0.4,1.7-1.1c0-0.2,0-0.4-0.1-0.5
			c-0.1-0.1-0.2-0.3-0.4-0.4s-0.4-0.2-0.6-0.3c-0.2-0.1-0.5-0.2-0.7-0.3c-0.4-0.1-0.7-0.3-0.9-0.4c-0.3-0.1-0.5-0.3-0.7-0.5
			s-0.3-0.4-0.4-0.6c-0.1-0.2-0.1-0.5-0.1-0.8c0-0.4,0.1-0.7,0.3-1s0.4-0.5,0.7-0.7c0.3-0.2,0.6-0.3,1-0.4s0.7-0.1,1.1-0.1
			c0.7,0,1.3,0.1,1.9,0.4v1.3c-0.6-0.4-1.3-0.6-2-0.6c-0.2,0-0.5,0-0.6,0.1c-0.2,0.1-0.4,0.1-0.5,0.2c-0.1,0.1-0.2,0.2-0.3,0.4
			c-0.1,0.1-0.1,0.3-0.1,0.5c0,0.2,0,0.4,0.1,0.5c0.1,0.1,0.2,0.3,0.3,0.4c0.1,0.1,0.3,0.2,0.5,0.3c0.2,0.1,0.4,0.2,0.7,0.3
			c0.4,0.1,0.7,0.3,1,0.4s0.5,0.3,0.7,0.5c0.2,0.2,0.4,0.4,0.5,0.6c0.1,0.2,0.2,0.5,0.2,0.8c0,0.4-0.1,0.7-0.3,1
			c-0.2,0.3-0.4,0.5-0.7,0.7c-0.3,0.2-0.6,0.3-1,0.4c-0.4,0.1-0.8,0.1-1.2,0.1C748.7,4816.1,748,4815.9,747.4,4815.6z"/>
		<path class="st3" d="M765.9,4815.9h-1.3v-1.4h0c-0.6,1-1.5,1.5-2.8,1.5c-1,0-1.8-0.4-2.4-1.1s-0.9-1.7-0.9-2.9
			c0-1.3,0.3-2.4,1-3.2c0.7-0.8,1.6-1.2,2.7-1.2c1.1,0,1.9,0.4,2.4,1.3h0v-5h1.3V4815.9z M764.6,4812.3v-1.2c0-0.6-0.2-1.2-0.6-1.6
			c-0.4-0.4-1-0.7-1.6-0.7c-0.8,0-1.4,0.3-1.8,0.9c-0.4,0.6-0.7,1.4-0.7,2.4c0,0.9,0.2,1.6,0.6,2.2s1,0.8,1.7,0.8
			c0.7,0,1.3-0.3,1.7-0.8S764.6,4813.1,764.6,4812.3z"/>
		<path class="st3" d="M774.9,4812.2h-5.6c0,0.9,0.3,1.6,0.7,2.1c0.5,0.5,1.1,0.7,1.9,0.7c0.9,0,1.7-0.3,2.5-0.9v1.2
			c-0.7,0.5-1.6,0.8-2.8,0.8c-1.1,0-2-0.4-2.7-1.1c-0.6-0.7-1-1.7-1-3.1c0-1.2,0.4-2.3,1.1-3c0.7-0.8,1.6-1.2,2.6-1.2s1.9,0.3,2.4,1
			c0.6,0.7,0.9,1.6,0.9,2.8V4812.2z M773.6,4811.2c0-0.7-0.2-1.3-0.5-1.7s-0.8-0.6-1.5-0.6c-0.6,0-1.1,0.2-1.5,0.6s-0.7,1-0.8,1.7
			H773.6z"/>
		<path class="st3" d="M786.7,4815.6c-0.6,0.4-1.3,0.6-2.2,0.6c-1.1,0-2.1-0.4-2.8-1.1c-0.7-0.7-1.1-1.7-1.1-2.9
			c0-1.3,0.4-2.4,1.1-3.2c0.8-0.8,1.8-1.2,3-1.2c0.7,0,1.3,0.1,1.9,0.4v1.3c-0.6-0.4-1.2-0.6-1.9-0.6c-0.8,0-1.5,0.3-2,0.9
			s-0.8,1.4-0.8,2.3c0,0.9,0.2,1.7,0.7,2.2s1.2,0.8,2,0.8c0.7,0,1.4-0.2,2-0.7V4815.6z"/>
		<path class="st3" d="M794.4,4815.9h-1.3v-1.2h0c-0.6,1-1.4,1.4-2.5,1.4c-0.8,0-1.4-0.2-1.9-0.6c-0.5-0.4-0.7-1-0.7-1.7
			c0-1.5,0.9-2.4,2.6-2.6l2.4-0.3c0-1.4-0.5-2-1.6-2c-1,0-1.8,0.3-2.6,1v-1.3c0.8-0.5,1.7-0.8,2.7-0.8c1.9,0,2.8,1,2.8,3V4815.9z
			 M793.1,4811.9l-1.9,0.3c-0.6,0.1-1,0.2-1.3,0.4c-0.3,0.2-0.5,0.6-0.5,1.1c0,0.4,0.1,0.7,0.4,1c0.3,0.2,0.6,0.4,1.1,0.4
			c0.6,0,1.2-0.2,1.6-0.7s0.6-1,0.6-1.7V4811.9z"/>
		<path class="st3" d="M798.1,4815.9h-1.3v-11.8h1.3V4815.9z"/>
		<path class="st3" d="M804,4816.1c-1.2,0-2.1-0.4-2.8-1.1c-0.7-0.7-1.1-1.7-1.1-3c0-1.3,0.4-2.4,1.1-3.1s1.7-1.1,3-1.1
			c1.2,0,2.1,0.4,2.8,1.1c0.7,0.7,1,1.8,1,3.1c0,1.3-0.4,2.3-1.1,3.1C806.2,4815.7,805.2,4816.1,804,4816.1z M804.1,4808.8
			c-0.8,0-1.5,0.3-2,0.8c-0.5,0.6-0.7,1.3-0.7,2.3c0,0.9,0.2,1.7,0.7,2.2s1.1,0.8,1.9,0.8c0.8,0,1.5-0.3,1.9-0.8s0.7-1.3,0.7-2.3
			c0-1-0.2-1.8-0.7-2.3S804.9,4808.8,804.1,4808.8z"/>
		<path class="st3" d="M814.2,4809.2c-0.2-0.2-0.5-0.3-1-0.3c-0.5,0-1,0.3-1.4,0.8s-0.6,1.2-0.6,2.1v4.1H810v-8h1.3v1.6h0
			c0.2-0.6,0.5-1,0.8-1.3s0.8-0.5,1.3-0.5c0.3,0,0.6,0,0.8,0.1V4809.2z"/>
		<path class="st3" d="M826.4,4812.2h-5.6c0,0.9,0.3,1.6,0.7,2.1c0.5,0.5,1.1,0.7,1.9,0.7c0.9,0,1.7-0.3,2.5-0.9v1.2
			c-0.7,0.5-1.6,0.8-2.8,0.8c-1.1,0-2-0.4-2.7-1.1c-0.6-0.7-1-1.7-1-3.1c0-1.2,0.4-2.3,1.1-3c0.7-0.8,1.6-1.2,2.6-1.2s1.9,0.3,2.4,1
			c0.6,0.7,0.9,1.6,0.9,2.8V4812.2z M825.1,4811.2c0-0.7-0.2-1.3-0.5-1.7s-0.8-0.6-1.5-0.6c-0.6,0-1.1,0.2-1.5,0.6s-0.7,1-0.8,1.7
			H825.1z"/>
		<path class="st3" d="M835,4815.9h-1.3v-4.6c0-1.7-0.6-2.5-1.9-2.5c-0.6,0-1.2,0.2-1.6,0.7c-0.4,0.5-0.6,1.1-0.6,1.8v4.6h-1.3v-8
			h1.3v1.3h0c0.6-1,1.5-1.5,2.6-1.5c0.9,0,1.5,0.3,2,0.8c0.5,0.6,0.7,1.4,0.7,2.4V4815.9z"/>
		<path class="st3" d="M841.1,4815.8c-0.3,0.2-0.7,0.2-1.2,0.2c-1.4,0-2.1-0.8-2.1-2.3v-4.7h-1.4v-1.1h1.4v-2l1.3-0.4v2.4h2v1.1h-2
			v4.5c0,0.5,0.1,0.9,0.3,1.1c0.2,0.2,0.5,0.3,0.9,0.3c0.3,0,0.6-0.1,0.8-0.3V4815.8z"/>
		<path class="st3" d="M847,4809.2c-0.2-0.2-0.5-0.3-1-0.3c-0.5,0-1,0.3-1.4,0.8s-0.6,1.2-0.6,2.1v4.1h-1.3v-8h1.3v1.6h0
			c0.2-0.6,0.5-1,0.8-1.3s0.8-0.5,1.3-0.5c0.3,0,0.6,0,0.8,0.1V4809.2z"/>
		<path class="st3" d="M854.8,4812.2h-5.6c0,0.9,0.3,1.6,0.7,2.1c0.5,0.5,1.1,0.7,1.9,0.7c0.9,0,1.7-0.3,2.5-0.9v1.2
			c-0.7,0.5-1.6,0.8-2.8,0.8c-1.1,0-2-0.4-2.7-1.1c-0.6-0.7-1-1.7-1-3.1c0-1.2,0.4-2.3,1.1-3c0.7-0.8,1.6-1.2,2.6-1.2s1.9,0.3,2.4,1
			c0.6,0.7,0.9,1.6,0.9,2.8V4812.2z M853.5,4811.2c0-0.7-0.2-1.3-0.5-1.7s-0.8-0.6-1.5-0.6c-0.6,0-1.1,0.2-1.5,0.6s-0.7,1-0.8,1.7
			H853.5z"/>
		<path class="st3" d="M867.6,4812.2h-5.6c0,0.9,0.3,1.6,0.7,2.1c0.5,0.5,1.1,0.7,1.9,0.7c0.9,0,1.7-0.3,2.5-0.9v1.2
			c-0.7,0.5-1.6,0.8-2.8,0.8c-1.1,0-2-0.4-2.7-1.1c-0.6-0.7-1-1.7-1-3.1c0-1.2,0.4-2.3,1.1-3c0.7-0.8,1.6-1.2,2.6-1.2s1.9,0.3,2.4,1
			c0.6,0.7,0.9,1.6,0.9,2.8V4812.2z M866.3,4811.2c0-0.7-0.2-1.3-0.5-1.7s-0.8-0.6-1.5-0.6c-0.6,0-1.1,0.2-1.5,0.6s-0.7,1-0.8,1.7
			H866.3z"/>
		<path class="st3" d="M870.8,4815.9h-1.3v-11.8h1.3V4815.9z"/>
	</g>
	<g class="st2">
		<path class="st3" d="M670.1,4836.2h-5.6c0,0.9,0.3,1.6,0.7,2.1c0.5,0.5,1.1,0.7,1.9,0.7c0.9,0,1.7-0.3,2.5-0.9v1.2
			c-0.7,0.5-1.6,0.8-2.8,0.8c-1.1,0-2-0.4-2.7-1.1c-0.6-0.7-1-1.7-1-3.1c0-1.2,0.4-2.3,1.1-3c0.7-0.8,1.6-1.2,2.6-1.2s1.9,0.3,2.4,1
			c0.6,0.7,0.9,1.6,0.9,2.8V4836.2z M668.8,4835.2c0-0.7-0.2-1.3-0.5-1.7s-0.8-0.6-1.5-0.6c-0.6,0-1.1,0.2-1.5,0.6s-0.7,1-0.8,1.7
			H668.8z"/>
		<path class="st3" d="M677.9,4831.9l-2.7,4l2.6,4h-1.5l-1.6-2.6c-0.1-0.2-0.2-0.4-0.4-0.6h0c0,0-0.1,0.2-0.4,0.6l-1.6,2.6h-1.5
			l2.7-3.9l-2.6-4.1h1.5l1.5,2.7c0.1,0.2,0.2,0.4,0.3,0.6h0l2-3.4H677.9z"/>
		<path class="st3" d="M683.1,4839.8c-0.3,0.2-0.7,0.2-1.2,0.2c-1.4,0-2.1-0.8-2.1-2.3v-4.7h-1.4v-1.1h1.4v-2l1.3-0.4v2.4h2v1.1h-2
			v4.5c0,0.5,0.1,0.9,0.3,1.1c0.2,0.2,0.5,0.3,0.9,0.3c0.3,0,0.6-0.1,0.8-0.3V4839.8z"/>
		<path class="st3" d="M691.2,4836.2h-5.6c0,0.9,0.3,1.6,0.7,2.1c0.5,0.5,1.1,0.7,1.9,0.7c0.9,0,1.7-0.3,2.5-0.9v1.2
			c-0.7,0.5-1.6,0.8-2.8,0.8c-1.1,0-2-0.4-2.7-1.1c-0.6-0.7-1-1.7-1-3.1c0-1.2,0.4-2.3,1.1-3c0.7-0.8,1.6-1.2,2.6-1.2s1.9,0.3,2.4,1
			c0.6,0.7,0.9,1.6,0.9,2.8V4836.2z M689.9,4835.2c0-0.7-0.2-1.3-0.5-1.7s-0.8-0.6-1.5-0.6c-0.6,0-1.1,0.2-1.5,0.6s-0.7,1-0.8,1.7
			H689.9z"/>
		<path class="st3" d="M697.3,4833.2c-0.2-0.2-0.5-0.3-1-0.3c-0.5,0-1,0.3-1.4,0.8s-0.6,1.2-0.6,2.1v4.1h-1.3v-8h1.3v1.6h0
			c0.2-0.6,0.5-1,0.8-1.3s0.8-0.5,1.3-0.5c0.3,0,0.6,0,0.8,0.1V4833.2z"/>
		<path class="st3" d="M699.4,4829.9c-0.2,0-0.4-0.1-0.6-0.2c-0.2-0.2-0.2-0.4-0.2-0.6s0.1-0.4,0.2-0.6c0.2-0.2,0.4-0.2,0.6-0.2
			c0.2,0,0.4,0.1,0.6,0.2s0.2,0.4,0.2,0.6c0,0.2-0.1,0.4-0.2,0.6S699.6,4829.9,699.4,4829.9z M700,4839.9h-1.3v-8h1.3V4839.9z"/>
		<path class="st3" d="M705.9,4840.1c-1.2,0-2.1-0.4-2.8-1.1c-0.7-0.7-1.1-1.7-1.1-3c0-1.3,0.4-2.4,1.1-3.1s1.7-1.1,3-1.1
			c1.2,0,2.1,0.4,2.8,1.1c0.7,0.7,1,1.8,1,3.1c0,1.3-0.4,2.3-1.1,3.1C708.1,4839.7,707.2,4840.1,705.9,4840.1z M706,4832.8
			c-0.8,0-1.5,0.3-2,0.8c-0.5,0.6-0.7,1.3-0.7,2.3c0,0.9,0.2,1.7,0.7,2.2s1.1,0.8,1.9,0.8c0.8,0,1.5-0.3,1.9-0.8s0.7-1.3,0.7-2.3
			c0-1-0.2-1.8-0.7-2.3S706.9,4832.8,706,4832.8z"/>
		<path class="st3" d="M716.1,4833.2c-0.2-0.2-0.5-0.3-1-0.3c-0.5,0-1,0.3-1.4,0.8s-0.6,1.2-0.6,2.1v4.1H712v-8h1.3v1.6h0
			c0.2-0.6,0.5-1,0.8-1.3s0.8-0.5,1.3-0.5c0.3,0,0.6,0,0.8,0.1V4833.2z"/>
		<path class="st3" d="M728.3,4831.9l-3.7,9.3c-0.7,1.7-1.6,2.5-2.8,2.5c-0.3,0-0.6,0-0.8-0.1v-1.1c0.3,0.1,0.5,0.1,0.8,0.1
			c0.6,0,1.1-0.4,1.5-1.2l0.6-1.5l-3.1-8h1.4l2.2,6.2c0,0.1,0.1,0.3,0.2,0.6h0c0-0.1,0.1-0.3,0.2-0.6l2.3-6.2H728.3z"/>
		<path class="st3" d="M740.5,4836.2h-5.6c0,0.9,0.3,1.6,0.7,2.1c0.5,0.5,1.1,0.7,1.9,0.7c0.9,0,1.7-0.3,2.5-0.9v1.2
			c-0.7,0.5-1.6,0.8-2.8,0.8c-1.1,0-2-0.4-2.7-1.1c-0.6-0.7-1-1.7-1-3.1c0-1.2,0.4-2.3,1.1-3c0.7-0.8,1.6-1.2,2.6-1.2s1.9,0.3,2.4,1
			c0.6,0.7,0.9,1.6,0.9,2.8V4836.2z M739.2,4835.2c0-0.7-0.2-1.3-0.5-1.7s-0.8-0.6-1.5-0.6c-0.6,0-1.1,0.2-1.5,0.6s-0.7,1-0.8,1.7
			H739.2z"/>
		<path class="st3" d="M743.7,4839.9h-1.3v-11.8h1.3V4839.9z"/>
		<path class="st3" d="M751.3,4829.9c-0.2,0-0.4-0.1-0.6-0.2c-0.2-0.2-0.2-0.4-0.2-0.6s0.1-0.4,0.2-0.6c0.2-0.2,0.4-0.2,0.6-0.2
			c0.2,0,0.4,0.1,0.6,0.2s0.2,0.4,0.2,0.6c0,0.2-0.1,0.4-0.2,0.6S751.6,4829.9,751.3,4829.9z M752,4839.9h-1.3v-8h1.3V4839.9z"/>
		<path class="st3" d="M761.2,4839.9h-1.3v-4.6c0-1.7-0.6-2.5-1.9-2.5c-0.6,0-1.2,0.2-1.6,0.7c-0.4,0.5-0.6,1.1-0.6,1.8v4.6h-1.3v-8
			h1.3v1.3h0c0.6-1,1.5-1.5,2.6-1.5c0.9,0,1.5,0.3,2,0.8c0.5,0.6,0.7,1.4,0.7,2.4V4839.9z"/>
		<path class="st3" d="M767.3,4839.8c-0.3,0.2-0.7,0.2-1.2,0.2c-1.4,0-2.1-0.8-2.1-2.3v-4.7h-1.4v-1.1h1.4v-2l1.3-0.4v2.4h2v1.1h-2
			v4.5c0,0.5,0.1,0.9,0.3,1.1c0.2,0.2,0.5,0.3,0.9,0.3c0.3,0,0.6-0.1,0.8-0.3V4839.8z"/>
		<path class="st3" d="M775.5,4836.2h-5.6c0,0.9,0.3,1.6,0.7,2.1c0.5,0.5,1.1,0.7,1.9,0.7c0.9,0,1.7-0.3,2.5-0.9v1.2
			c-0.7,0.5-1.6,0.8-2.8,0.8c-1.1,0-2-0.4-2.7-1.1c-0.6-0.7-1-1.7-1-3.1c0-1.2,0.4-2.3,1.1-3c0.7-0.8,1.6-1.2,2.6-1.2s1.9,0.3,2.4,1
			c0.6,0.7,0.9,1.6,0.9,2.8V4836.2z M774.1,4835.2c0-0.7-0.2-1.3-0.5-1.7s-0.8-0.6-1.5-0.6c-0.6,0-1.1,0.2-1.5,0.6s-0.7,1-0.8,1.7
			H774.1z"/>
		<path class="st3" d="M781.6,4833.2c-0.2-0.2-0.5-0.3-1-0.3c-0.5,0-1,0.3-1.4,0.8s-0.6,1.2-0.6,2.1v4.1h-1.3v-8h1.3v1.6h0
			c0.2-0.6,0.5-1,0.8-1.3s0.8-0.5,1.3-0.5c0.3,0,0.6,0,0.8,0.1V4833.2z"/>
		<path class="st3" d="M783.6,4829.9c-0.2,0-0.4-0.1-0.6-0.2c-0.2-0.2-0.2-0.4-0.2-0.6s0.1-0.4,0.2-0.6c0.2-0.2,0.4-0.2,0.6-0.2
			c0.2,0,0.4,0.1,0.6,0.2s0.2,0.4,0.2,0.6c0,0.2-0.1,0.4-0.2,0.6S783.8,4829.9,783.6,4829.9z M784.2,4839.9H783v-8h1.3V4839.9z"/>
		<path class="st3" d="M790.2,4840.1c-1.2,0-2.1-0.4-2.8-1.1c-0.7-0.7-1.1-1.7-1.1-3c0-1.3,0.4-2.4,1.1-3.1s1.7-1.1,3-1.1
			c1.2,0,2.1,0.4,2.8,1.1c0.7,0.7,1,1.8,1,3.1c0,1.3-0.4,2.3-1.1,3.1C792.4,4839.7,791.4,4840.1,790.2,4840.1z M790.3,4832.8
			c-0.8,0-1.5,0.3-2,0.8c-0.5,0.6-0.7,1.3-0.7,2.3c0,0.9,0.2,1.7,0.7,2.2s1.1,0.8,1.9,0.8c0.8,0,1.5-0.3,1.9-0.8s0.7-1.3,0.7-2.3
			c0-1-0.2-1.8-0.7-2.3S791.1,4832.8,790.3,4832.8z"/>
		<path class="st3" d="M800.4,4833.2c-0.2-0.2-0.5-0.3-1-0.3c-0.5,0-1,0.3-1.4,0.8s-0.6,1.2-0.6,2.1v4.1h-1.3v-8h1.3v1.6h0
			c0.2-0.6,0.5-1,0.8-1.3s0.8-0.5,1.3-0.5c0.3,0,0.6,0,0.8,0.1V4833.2z"/>
		<path class="st3" d="M813,4839.9h-1.3v-1.4h0c-0.6,1-1.5,1.5-2.8,1.5c-1,0-1.8-0.4-2.4-1.1s-0.9-1.7-0.9-2.9c0-1.3,0.3-2.4,1-3.2
			c0.7-0.8,1.6-1.2,2.7-1.2c1.1,0,1.9,0.4,2.4,1.3h0v-5h1.3V4839.9z M811.7,4836.3v-1.2c0-0.6-0.2-1.2-0.6-1.6
			c-0.4-0.4-1-0.7-1.6-0.7c-0.8,0-1.4,0.3-1.8,0.9c-0.4,0.6-0.7,1.4-0.7,2.4c0,0.9,0.2,1.6,0.6,2.2s1,0.8,1.7,0.8
			c0.7,0,1.3-0.3,1.7-0.8S811.7,4837.1,811.7,4836.3z"/>
		<path class="st3" d="M822,4836.2h-5.6c0,0.9,0.3,1.6,0.7,2.1c0.5,0.5,1.1,0.7,1.9,0.7c0.9,0,1.7-0.3,2.5-0.9v1.2
			c-0.7,0.5-1.6,0.8-2.8,0.8c-1.1,0-2-0.4-2.7-1.1c-0.6-0.7-1-1.7-1-3.1c0-1.2,0.4-2.3,1.1-3c0.7-0.8,1.6-1.2,2.6-1.2s1.9,0.3,2.4,1
			c0.6,0.7,0.9,1.6,0.9,2.8V4836.2z M820.7,4835.2c0-0.7-0.2-1.3-0.5-1.7s-0.8-0.6-1.5-0.6c-0.6,0-1.1,0.2-1.5,0.6s-0.7,1-0.8,1.7
			H820.7z"/>
		<path class="st3" d="M829.6,4839.9h-1.3v-11.8h1.3V4839.9z"/>
		<path class="st3" d="M837.9,4839.9h-1.3v-1.2h0c-0.6,1-1.4,1.4-2.5,1.4c-0.8,0-1.4-0.2-1.9-0.6c-0.5-0.4-0.7-1-0.7-1.7
			c0-1.5,0.9-2.4,2.6-2.6l2.4-0.3c0-1.4-0.5-2-1.6-2c-1,0-1.8,0.3-2.6,1v-1.3c0.8-0.5,1.7-0.8,2.7-0.8c1.9,0,2.8,1,2.8,3V4839.9z
			 M836.6,4835.9l-1.9,0.3c-0.6,0.1-1,0.2-1.3,0.4c-0.3,0.2-0.5,0.6-0.5,1.1c0,0.4,0.1,0.7,0.4,1c0.3,0.2,0.6,0.4,1.1,0.4
			c0.6,0,1.2-0.2,1.6-0.7s0.6-1,0.6-1.7V4835.9z"/>
	</g>
	<g class="st2">
		<path class="st3" d="M670.1,4863.9h-1.3v-1.3h0c-0.5,1-1.4,1.5-2.5,1.5c-1.9,0-2.9-1.1-2.9-3.4v-4.8h1.3v4.6
			c0,1.7,0.6,2.5,1.9,2.5c0.6,0,1.1-0.2,1.5-0.7c0.4-0.5,0.6-1.1,0.6-1.8v-4.6h1.3V4863.9z"/>
		<path class="st3" d="M679.4,4863.9h-1.3v-4.6c0-1.7-0.6-2.5-1.9-2.5c-0.6,0-1.2,0.2-1.6,0.7c-0.4,0.5-0.6,1.1-0.6,1.8v4.6h-1.3v-8
			h1.3v1.3h0c0.6-1,1.5-1.5,2.6-1.5c0.9,0,1.5,0.3,2,0.8c0.5,0.6,0.7,1.4,0.7,2.4V4863.9z"/>
		<path class="st3" d="M682.4,4853.9c-0.2,0-0.4-0.1-0.6-0.2c-0.2-0.2-0.2-0.4-0.2-0.6s0.1-0.4,0.2-0.6c0.2-0.2,0.4-0.2,0.6-0.2
			c0.2,0,0.4,0.1,0.6,0.2s0.2,0.4,0.2,0.6c0,0.2-0.1,0.4-0.2,0.6S682.7,4853.9,682.4,4853.9z M683.1,4863.9h-1.3v-8h1.3V4863.9z"/>
		<path class="st3" d="M692.5,4863.9h-1.3v-1.4h0c-0.6,1-1.5,1.5-2.8,1.5c-1,0-1.8-0.4-2.4-1.1s-0.9-1.7-0.9-2.9
			c0-1.3,0.3-2.4,1-3.2c0.7-0.8,1.6-1.2,2.7-1.2c1.1,0,1.9,0.4,2.4,1.3h0v-5h1.3V4863.9z M691.2,4860.3v-1.2c0-0.6-0.2-1.2-0.6-1.6
			c-0.4-0.4-1-0.7-1.6-0.7c-0.8,0-1.4,0.3-1.8,0.9c-0.4,0.6-0.7,1.4-0.7,2.4c0,0.9,0.2,1.6,0.6,2.2s1,0.8,1.7,0.8
			c0.7,0,1.3-0.3,1.7-0.8S691.2,4861.1,691.2,4860.3z"/>
		<path class="st3" d="M700.8,4863.9h-1.3v-1.2h0c-0.6,1-1.4,1.4-2.5,1.4c-0.8,0-1.4-0.2-1.9-0.6c-0.5-0.4-0.7-1-0.7-1.7
			c0-1.5,0.9-2.4,2.6-2.6l2.4-0.3c0-1.4-0.5-2-1.6-2c-1,0-1.8,0.3-2.6,1v-1.3c0.8-0.5,1.7-0.8,2.7-0.8c1.9,0,2.8,1,2.8,3V4863.9z
			 M699.5,4859.9l-1.9,0.3c-0.6,0.1-1,0.2-1.3,0.4c-0.3,0.2-0.5,0.6-0.5,1.1c0,0.4,0.1,0.7,0.4,1c0.3,0.2,0.6,0.4,1.1,0.4
			c0.6,0,1.2-0.2,1.6-0.7s0.6-1,0.6-1.7V4859.9z"/>
		<path class="st3" d="M710,4863.9h-1.3v-1.4h0c-0.6,1-1.5,1.5-2.8,1.5c-1,0-1.8-0.4-2.4-1.1s-0.9-1.7-0.9-2.9c0-1.3,0.3-2.4,1-3.2
			c0.7-0.8,1.6-1.2,2.7-1.2c1.1,0,1.9,0.4,2.4,1.3h0v-5h1.3V4863.9z M708.8,4860.3v-1.2c0-0.6-0.2-1.2-0.6-1.6
			c-0.4-0.4-1-0.7-1.6-0.7c-0.8,0-1.4,0.3-1.8,0.9c-0.4,0.6-0.7,1.4-0.7,2.4c0,0.9,0.2,1.6,0.6,2.2s1,0.8,1.7,0.8
			c0.7,0,1.3-0.3,1.7-0.8S708.8,4861.1,708.8,4860.3z"/>
		<path class="st3" d="M723.8,4863.9h-1.3v-1.4h0c-0.6,1-1.5,1.5-2.8,1.5c-1,0-1.8-0.4-2.4-1.1s-0.9-1.7-0.9-2.9
			c0-1.3,0.3-2.4,1-3.2c0.7-0.8,1.6-1.2,2.7-1.2c1.1,0,1.9,0.4,2.4,1.3h0v-5h1.3V4863.9z M722.6,4860.3v-1.2c0-0.6-0.2-1.2-0.6-1.6
			c-0.4-0.4-1-0.7-1.6-0.7c-0.8,0-1.4,0.3-1.8,0.9c-0.4,0.6-0.7,1.4-0.7,2.4c0,0.9,0.2,1.6,0.6,2.2s1,0.8,1.7,0.8
			c0.7,0,1.3-0.3,1.7-0.8S722.6,4861.1,722.6,4860.3z"/>
		<path class="st3" d="M732.9,4860.2h-5.6c0,0.9,0.3,1.6,0.7,2.1c0.5,0.5,1.1,0.7,1.9,0.7c0.9,0,1.7-0.3,2.5-0.9v1.2
			c-0.7,0.5-1.6,0.8-2.8,0.8c-1.1,0-2-0.4-2.7-1.1c-0.6-0.7-1-1.7-1-3.1c0-1.2,0.4-2.3,1.1-3c0.7-0.8,1.6-1.2,2.6-1.2s1.9,0.3,2.4,1
			c0.6,0.7,0.9,1.6,0.9,2.8V4860.2z M731.6,4859.2c0-0.7-0.2-1.3-0.5-1.7s-0.8-0.6-1.5-0.6c-0.6,0-1.1,0.2-1.5,0.6s-0.7,1-0.8,1.7
			H731.6z"/>
		<path class="st3" d="M742.9,4863.8c-0.3,0.2-0.7,0.2-1.2,0.2c-1.4,0-2.1-0.8-2.1-2.3v-4.7h-1.4v-1.1h1.4v-2l1.3-0.4v2.4h2v1.1h-2
			v4.5c0,0.5,0.1,0.9,0.3,1.1c0.2,0.2,0.5,0.3,0.9,0.3c0.3,0,0.6-0.1,0.8-0.3V4863.8z"/>
		<path class="st3" d="M748.8,4857.2c-0.2-0.2-0.5-0.3-1-0.3c-0.5,0-1,0.3-1.4,0.8s-0.6,1.2-0.6,2.1v4.1h-1.3v-8h1.3v1.6h0
			c0.2-0.6,0.5-1,0.8-1.3s0.8-0.5,1.3-0.5c0.3,0,0.6,0,0.8,0.1V4857.2z"/>
		<path class="st3" d="M755.9,4863.9h-1.3v-1.2h0c-0.6,1-1.4,1.4-2.5,1.4c-0.8,0-1.4-0.2-1.9-0.6c-0.5-0.4-0.7-1-0.7-1.7
			c0-1.5,0.9-2.4,2.6-2.6l2.4-0.3c0-1.4-0.5-2-1.6-2c-1,0-1.8,0.3-2.6,1v-1.3c0.8-0.5,1.7-0.8,2.7-0.8c1.9,0,2.8,1,2.8,3V4863.9z
			 M754.6,4859.9l-1.9,0.3c-0.6,0.1-1,0.2-1.3,0.4c-0.3,0.2-0.5,0.6-0.5,1.1c0,0.4,0.1,0.7,0.4,1c0.3,0.2,0.6,0.4,1.1,0.4
			c0.6,0,1.2-0.2,1.6-0.7s0.6-1,0.6-1.7V4859.9z"/>
		<path class="st3" d="M765,4863.9h-1.3v-4.6c0-1.7-0.6-2.5-1.9-2.5c-0.6,0-1.2,0.2-1.6,0.7c-0.4,0.5-0.6,1.1-0.6,1.8v4.6h-1.3v-8
			h1.3v1.3h0c0.6-1,1.5-1.5,2.6-1.5c0.9,0,1.5,0.3,2,0.8c0.5,0.6,0.7,1.4,0.7,2.4V4863.9z"/>
		<path class="st3" d="M766.9,4863.6v-1.4c0.7,0.5,1.5,0.8,2.3,0.8c1.1,0,1.7-0.4,1.7-1.1c0-0.2,0-0.4-0.1-0.5
			c-0.1-0.1-0.2-0.3-0.4-0.4s-0.4-0.2-0.6-0.3c-0.2-0.1-0.5-0.2-0.7-0.3c-0.4-0.1-0.7-0.3-0.9-0.4c-0.3-0.1-0.5-0.3-0.7-0.5
			s-0.3-0.4-0.4-0.6c-0.1-0.2-0.1-0.5-0.1-0.8c0-0.4,0.1-0.7,0.3-1s0.4-0.5,0.7-0.7c0.3-0.2,0.6-0.3,1-0.4s0.7-0.1,1.1-0.1
			c0.7,0,1.3,0.1,1.9,0.4v1.3c-0.6-0.4-1.3-0.6-2-0.6c-0.2,0-0.5,0-0.6,0.1c-0.2,0.1-0.4,0.1-0.5,0.2c-0.1,0.1-0.2,0.2-0.3,0.4
			c-0.1,0.1-0.1,0.3-0.1,0.5c0,0.2,0,0.4,0.1,0.5c0.1,0.1,0.2,0.3,0.3,0.4c0.1,0.1,0.3,0.2,0.5,0.3c0.2,0.1,0.4,0.2,0.7,0.3
			c0.4,0.1,0.7,0.3,1,0.4s0.5,0.3,0.7,0.5c0.2,0.2,0.4,0.4,0.5,0.6c0.1,0.2,0.2,0.5,0.2,0.8c0,0.4-0.1,0.7-0.3,1
			c-0.2,0.3-0.4,0.5-0.7,0.7c-0.3,0.2-0.6,0.3-1,0.4c-0.4,0.1-0.8,0.1-1.2,0.1C768.2,4864.1,767.5,4863.9,766.9,4863.6z"/>
		<path class="st3" d="M775.5,4862.8L775.5,4862.8l0,4.8h-1.3v-11.7h1.3v1.4h0c0.6-1.1,1.6-1.6,2.8-1.6c1,0,1.8,0.4,2.4,1.1
			s0.9,1.7,0.9,2.9c0,1.3-0.3,2.4-1,3.2c-0.7,0.8-1.5,1.2-2.7,1.2C776.8,4864.1,776,4863.7,775.5,4862.8z M775.4,4859.5v1.1
			c0,0.7,0.2,1.2,0.6,1.7s1,0.7,1.6,0.7c0.8,0,1.4-0.3,1.8-0.9c0.4-0.6,0.7-1.4,0.7-2.5c0-0.9-0.2-1.6-0.6-2.1
			c-0.4-0.5-1-0.8-1.7-0.8c-0.7,0-1.3,0.3-1.8,0.8S775.4,4858.8,775.4,4859.5z"/>
		<path class="st3" d="M786.9,4864.1c-1.2,0-2.1-0.4-2.8-1.1c-0.7-0.7-1.1-1.7-1.1-3c0-1.3,0.4-2.4,1.1-3.1s1.7-1.1,3-1.1
			c1.2,0,2.1,0.4,2.8,1.1c0.7,0.7,1,1.8,1,3.1c0,1.3-0.4,2.3-1.1,3.1C789.1,4863.7,788.1,4864.1,786.9,4864.1z M787,4856.8
			c-0.8,0-1.5,0.3-2,0.8c-0.5,0.6-0.7,1.3-0.7,2.3c0,0.9,0.2,1.7,0.7,2.2s1.1,0.8,1.9,0.8c0.8,0,1.5-0.3,1.9-0.8s0.7-1.3,0.7-2.3
			c0-1-0.2-1.8-0.7-2.3S787.8,4856.8,787,4856.8z"/>
		<path class="st3" d="M797.1,4857.2c-0.2-0.2-0.5-0.3-1-0.3c-0.5,0-1,0.3-1.4,0.8s-0.6,1.2-0.6,2.1v4.1h-1.3v-8h1.3v1.6h0
			c0.2-0.6,0.5-1,0.8-1.3s0.8-0.5,1.3-0.5c0.3,0,0.6,0,0.8,0.1V4857.2z"/>
		<path class="st3" d="M802.2,4863.8c-0.3,0.2-0.7,0.2-1.2,0.2c-1.4,0-2.1-0.8-2.1-2.3v-4.7h-1.4v-1.1h1.4v-2l1.3-0.4v2.4h2v1.1h-2
			v4.5c0,0.5,0.1,0.9,0.3,1.1c0.2,0.2,0.5,0.3,0.9,0.3c0.3,0,0.6-0.1,0.8-0.3V4863.8z"/>
		<path class="st3" d="M810.4,4860.2h-5.6c0,0.9,0.3,1.6,0.7,2.1c0.5,0.5,1.1,0.7,1.9,0.7c0.9,0,1.7-0.3,2.5-0.9v1.2
			c-0.7,0.5-1.6,0.8-2.8,0.8c-1.1,0-2-0.4-2.7-1.1c-0.6-0.7-1-1.7-1-3.1c0-1.2,0.4-2.3,1.1-3c0.7-0.8,1.6-1.2,2.6-1.2s1.9,0.3,2.4,1
			c0.6,0.7,0.9,1.6,0.9,2.8V4860.2z M809,4859.2c0-0.7-0.2-1.3-0.5-1.7s-0.8-0.6-1.5-0.6c-0.6,0-1.1,0.2-1.5,0.6s-0.7,1-0.8,1.7H809
			z"/>
		<path class="st3" d="M812.7,4864.1c-0.2,0-0.4-0.1-0.6-0.3c-0.2-0.2-0.3-0.4-0.3-0.6s0.1-0.4,0.3-0.6c0.2-0.2,0.4-0.3,0.6-0.3
			c0.2,0,0.5,0.1,0.6,0.3s0.3,0.4,0.3,0.6s-0.1,0.4-0.3,0.6S813,4864.1,812.7,4864.1z"/>
	</g>
	<path id="Rectángulo_43950" class="st4" d="M651,4475h251c12.2,0,22,9.8,22,22v29.9l0,0H629l0,0V4497
		C629,4484.8,638.8,4475,651,4475z"/>
	<g class="st2">
		<path class="st3" d="M705.3,4494.4l-4.3,12.6h-3.2l-4.3-12.6h3.1l2.6,8.8c0.1,0.5,0.2,0.9,0.3,1.3h0.1c0-0.4,0.1-0.8,0.3-1.3
			l2.6-8.7H705.3z"/>
		<path class="st3" d="M713.4,4503.3h-5.9c0.1,1.3,0.9,2,2.5,2c1,0,1.9-0.2,2.6-0.7v2c-0.8,0.4-1.9,0.7-3.2,0.7
			c-1.5,0-2.6-0.4-3.4-1.2s-1.2-1.9-1.2-3.4c0-1.5,0.4-2.7,1.3-3.6s1.9-1.3,3.2-1.3c1.3,0,2.3,0.4,3,1.2s1.1,1.8,1.1,3.2V4503.3z
			 M710.9,4501.6c0-1.3-0.5-1.9-1.6-1.9c-0.4,0-0.8,0.2-1.2,0.6s-0.5,0.8-0.6,1.4H710.9z"/>
		<path class="st3" d="M723.7,4507H721v-5.1c0-1.3-0.5-2-1.4-2c-0.5,0-0.9,0.2-1.2,0.6s-0.5,0.8-0.5,1.4v5.1h-2.8v-13.3h2.8v5.7h0
			c0.7-1,1.6-1.6,2.8-1.6c2,0,3.1,1.2,3.1,3.7V4507z"/>
		<path class="st3" d="M730.1,4493.7l-2.8,2.8h-2l2.3-2.8H730.1z M728.7,4507h-2.8v-9h2.8V4507z"/>
		<path class="st3" d="M737.9,4506.7c-0.6,0.4-1.5,0.5-2.7,0.5c-1.4,0-2.5-0.4-3.4-1.3s-1.3-1.9-1.3-3.2c0-1.5,0.5-2.7,1.4-3.6
			s2.1-1.3,3.7-1.3c1.1,0,1.8,0.1,2.3,0.4v2.4c-0.6-0.4-1.2-0.7-1.9-0.7c-0.8,0-1.4,0.2-1.9,0.7c-0.5,0.5-0.7,1.1-0.7,1.9
			c0,0.8,0.2,1.4,0.7,1.9s1.1,0.7,1.8,0.7c0.7,0,1.4-0.2,2-0.7V4506.7z"/>
		<path class="st3" d="M748.2,4507h-2.8v-1.4h0c-0.7,1.1-1.6,1.6-2.8,1.6c-2.1,0-3.1-1.3-3.1-3.8v-5.4h2.8v5.2
			c0,1.3,0.5,1.9,1.5,1.9c0.5,0,0.9-0.2,1.2-0.5s0.4-0.8,0.4-1.4v-5.2h2.8V4507z"/>
		<path class="st3" d="M753.3,4507h-2.8v-13.3h2.8V4507z"/>
		<path class="st3" d="M760,4507.2c-1.5,0-2.7-0.4-3.5-1.3s-1.3-2-1.3-3.4c0-1.5,0.4-2.7,1.3-3.5c0.9-0.8,2.1-1.3,3.6-1.3
			c1.5,0,2.7,0.4,3.5,1.3c0.8,0.8,1.3,2,1.3,3.3c0,1.5-0.4,2.7-1.3,3.5S761.5,4507.2,760,4507.2z M760,4499.9
			c-0.7,0-1.2,0.2-1.5,0.7s-0.5,1.1-0.5,1.9c0,1.7,0.7,2.6,2.1,2.6c1.3,0,2-0.9,2-2.7C762.1,4500.7,761.4,4499.9,760,4499.9z"/>
		<path class="st3" d="M773.1,4496.6c-0.5,0-0.9-0.1-1.2-0.4c-0.3-0.3-0.4-0.6-0.4-1c0-0.4,0.1-0.8,0.4-1s0.7-0.4,1.2-0.4
			c0.5,0,0.9,0.1,1.2,0.4s0.4,0.6,0.4,1c0,0.4-0.1,0.8-0.4,1S773.5,4496.6,773.1,4496.6z M774.4,4507h-2.8v-9h2.8V4507z"/>
		<path class="st3" d="M776.2,4506.8v-2.2c0.5,0.3,0.9,0.5,1.4,0.6s0.9,0.2,1.3,0.2c0.5,0,0.9-0.1,1.2-0.2s0.4-0.3,0.4-0.6
			c0-0.2-0.1-0.3-0.2-0.4s-0.3-0.2-0.5-0.3s-0.4-0.2-0.7-0.2s-0.5-0.1-0.7-0.2c-0.4-0.1-0.7-0.3-0.9-0.4c-0.3-0.2-0.5-0.3-0.7-0.5
			s-0.3-0.4-0.4-0.7s-0.1-0.6-0.1-1c0-0.5,0.1-0.9,0.3-1.3s0.5-0.7,0.9-0.9s0.8-0.4,1.3-0.5s1-0.2,1.5-0.2c0.4,0,0.8,0,1.2,0.1
			c0.4,0.1,0.8,0.2,1.2,0.3v2.1c-0.4-0.2-0.7-0.4-1.1-0.5s-0.8-0.2-1.2-0.2c-0.2,0-0.4,0-0.5,0s-0.3,0.1-0.4,0.1
			c-0.1,0.1-0.2,0.1-0.3,0.2c-0.1,0.1-0.1,0.2-0.1,0.3c0,0.2,0.1,0.3,0.2,0.4s0.2,0.2,0.4,0.3c0.2,0.1,0.4,0.2,0.6,0.2
			c0.2,0.1,0.4,0.1,0.6,0.2c0.4,0.1,0.7,0.3,1,0.4s0.6,0.3,0.8,0.5s0.4,0.4,0.5,0.7s0.2,0.6,0.2,1c0,0.5-0.1,1-0.3,1.4
			c-0.2,0.4-0.5,0.7-0.9,0.9c-0.4,0.2-0.8,0.4-1.3,0.5c-0.5,0.1-1,0.2-1.6,0.2C777.9,4507.2,777,4507.1,776.2,4506.8z"/>
		<path class="st3" d="M789,4507.2c-1.5,0-2.7-0.4-3.5-1.3s-1.3-2-1.3-3.4c0-1.5,0.4-2.7,1.3-3.5c0.9-0.8,2.1-1.3,3.6-1.3
			c1.5,0,2.7,0.4,3.5,1.3c0.8,0.8,1.3,2,1.3,3.3c0,1.5-0.4,2.7-1.3,3.5S790.5,4507.2,789,4507.2z M789,4499.9
			c-0.7,0-1.2,0.2-1.5,0.7s-0.5,1.1-0.5,1.9c0,1.7,0.7,2.6,2.1,2.6c1.3,0,2-0.9,2-2.7C791.1,4500.7,790.4,4499.9,789,4499.9z"/>
		<path class="st3" d="M801.1,4506.9c-0.4,0.2-1,0.3-1.9,0.3c-2,0-2.9-1-2.9-3v-4.1h-1.5v-2h1.5v-1.9l2.8-0.8v2.7h2v2h-2v3.6
			c0,0.9,0.4,1.4,1.1,1.4c0.3,0,0.6-0.1,0.9-0.3V4506.9z"/>
		<path class="st3" d="M810.7,4503.3h-5.9c0.1,1.3,0.9,2,2.5,2c1,0,1.9-0.2,2.6-0.7v2c-0.8,0.4-1.9,0.7-3.2,0.7
			c-1.5,0-2.6-0.4-3.4-1.2s-1.2-1.9-1.2-3.4c0-1.5,0.4-2.7,1.3-3.6s1.9-1.3,3.2-1.3c1.3,0,2.3,0.4,3,1.2s1.1,1.8,1.1,3.2V4503.3z
			 M809.6,4493.7l-2.8,2.8h-2l2.3-2.8H809.6z M808.1,4501.6c0-1.3-0.5-1.9-1.6-1.9c-0.4,0-0.8,0.2-1.2,0.6s-0.5,0.8-0.6,1.4H808.1z"
			/>
		<path class="st3" d="M818.2,4500.5c-0.3-0.2-0.7-0.3-1.2-0.3c-0.6,0-1.1,0.2-1.4,0.7s-0.5,1-0.5,1.8v4.3h-2.8v-9h2.8v1.7h0
			c0.4-1.2,1.2-1.8,2.4-1.8c0.3,0,0.5,0,0.7,0.1V4500.5z"/>
		<path class="st3" d="M833.9,4507h-2.8v-5.1c0-1.3-0.5-2-1.4-2c-0.5,0-0.8,0.2-1.1,0.6s-0.4,0.9-0.4,1.5v5h-2.8v-5.2
			c0-1.3-0.5-1.9-1.4-1.9c-0.5,0-0.9,0.2-1.1,0.6s-0.4,0.9-0.4,1.5v5h-2.8v-9h2.8v1.4h0c0.3-0.5,0.7-0.9,1.2-1.2
			c0.5-0.3,1.1-0.5,1.7-0.5c1.3,0,2.1,0.6,2.6,1.7c0.7-1.1,1.7-1.7,3-1.7c2,0,2.9,1.2,2.9,3.6V4507z"/>
		<path class="st3" d="M837.5,4496.6c-0.5,0-0.9-0.1-1.2-0.4c-0.3-0.3-0.4-0.6-0.4-1c0-0.4,0.1-0.8,0.4-1s0.7-0.4,1.2-0.4
			c0.5,0,0.9,0.1,1.2,0.4s0.4,0.6,0.4,1c0,0.4-0.1,0.8-0.4,1S837.9,4496.6,837.5,4496.6z M838.8,4507h-2.8v-9h2.8V4507z"/>
		<path class="st3" d="M848,4506.7c-0.6,0.4-1.5,0.5-2.7,0.5c-1.4,0-2.5-0.4-3.4-1.3s-1.3-1.9-1.3-3.2c0-1.5,0.5-2.7,1.4-3.6
			s2.1-1.3,3.7-1.3c1.1,0,1.8,0.1,2.3,0.4v2.4c-0.6-0.4-1.2-0.7-1.9-0.7c-0.8,0-1.4,0.2-1.9,0.7c-0.5,0.5-0.7,1.1-0.7,1.9
			c0,0.8,0.2,1.4,0.7,1.9s1.1,0.7,1.8,0.7c0.7,0,1.4-0.2,2-0.7V4506.7z"/>
		<path class="st3" d="M854.1,4507.2c-1.5,0-2.7-0.4-3.5-1.3s-1.3-2-1.3-3.4c0-1.5,0.4-2.7,1.3-3.5c0.9-0.8,2.1-1.3,3.6-1.3
			c1.5,0,2.7,0.4,3.5,1.3c0.8,0.8,1.3,2,1.3,3.3c0,1.5-0.4,2.7-1.3,3.5S855.6,4507.2,854.1,4507.2z M854.2,4499.9
			c-0.7,0-1.2,0.2-1.5,0.7s-0.5,1.1-0.5,1.9c0,1.7,0.7,2.6,2.1,2.6c1.3,0,2-0.9,2-2.7C856.2,4500.7,855.5,4499.9,854.2,4499.9z"/>
	</g>
	<g id="Grupo_127945" transform="translate(551.092 3847.362)">
		<path id="Rectángulo_43956" class="st5" d="M302.1,791h20.9c2.6,0,4.8,2.1,4.8,4.8l0,0c0,2.6-2.1,4.8-4.8,4.8h-20.9
			c-2.6,0-4.8-2.1-4.8-4.8l0,0C297.3,793.1,299.4,791,302.1,791z"/>
		<path id="Trazado_263417" class="st6" d="M297.4,799.1c0.3,0.8,1,1.4,1.9,1.4h26.4c0.9,0,1.6-0.6,1.9-1.4H297.4z"/>
		<path id="Trazado_263418" class="st6" d="M327.6,792.3c-0.3-0.8-1-1.4-1.9-1.4h-26.4c-0.9,0-1.6,0.6-1.9,1.4H327.6z"/>
		
			<rect id="Rectángulo_43957" x="249.1" y="767.5" transform="matrix(0.1749 -0.9846 0.9846 0.1749 -580.2064 905.8989)" class="st6" width="2.6" height="63.3"/>
		<path id="Trazado_263419" class="st5" d="M185.8,760.7h2v22.7h144.3v4.5h-48.8l-23,4.5h-19.5v6h-56.7l-3.6,5h-5l-29.7-6.5
			l-4.6-1.3l5.6-22.3l31.3-6.7L185.8,760.7z"/>
		<g id="Grupo_127924" transform="translate(141.378 780.814)">
			<circle id="Elipse_6194" class="st6" cx="20.1" cy="20.1" r="16.7"/>
			<circle id="Elipse_6195" class="st5" cx="20.1" cy="20.1" r="14.6"/>
			<circle id="Elipse_6196" class="st7" cx="20.1" cy="20.1" r="11.1"/>
			<g id="Grupo_127921" transform="translate(26.968 12.892)">
				<path id="Trazado_263420" class="st8" d="M1.7,2.8C1.4,2.8,1.2,2.7,1,2.4C0.8,2,0.5,1.6,0.2,1.2c-0.3-0.3-0.2-0.8,0.1-1.1
					c0.3-0.3,0.8-0.2,1.1,0.1c0.4,0.4,0.7,0.9,1,1.4c0.2,0.4,0.1,0.8-0.3,1C2,2.8,1.8,2.8,1.7,2.8L1.7,2.8z"/>
			</g>
			<g id="Grupo_127922" transform="translate(9.374 9.374)">
				<path id="Trazado_263421" class="st8" d="M5.4,20c-0.1,0-0.3,0-0.4-0.1C0,16.7-1.5,10,1.7,5c2.8-4.5,8.4-6.2,13.3-4.2
					c0.4,0.2,0.6,0.6,0.4,1s-0.6,0.6-1,0.4l0,0C9.6,0.2,4.2,2.4,2.2,7.1c-1.8,4.2-0.2,9,3.6,11.4c0.4,0.2,0.5,0.7,0.2,1
					C5.9,19.8,5.7,20,5.4,20L5.4,20z"/>
			</g>
			<circle id="Elipse_6197" class="st9" cx="20.1" cy="20.1" r="8.8"/>
			<g id="Grupo_127923" transform="translate(11.857 12.216)">
				<path id="Trazado_263422" class="st7" d="M5.7,15.8c-0.4-0.1-0.6-0.6-0.5-0.9c0,0,0,0,0,0l0,0c0.1-0.4,0.6-0.6,0.9-0.5
					c0,0,0,0,0,0l0,0c0.4,0.1,0.6,0.5,0.5,0.9c0,0,0,0,0,0l0,0c-0.1,0.3-0.4,0.5-0.7,0.5l0,0C5.9,15.8,5.8,15.8,5.7,15.8z M9.9,15.3
					c-0.1-0.4,0.1-0.8,0.5-0.9c0,0,0,0,0,0l0,0c0.4-0.1,0.8,0.1,0.9,0.5c0,0,0,0,0,0l0,0c0.1,0.4-0.1,0.8-0.5,1l0,0
					c-0.1,0-0.2,0-0.2,0l0,0C10.3,15.8,10,15.6,9.9,15.3L9.9,15.3z M1.6,12.8c-0.2-0.3-0.2-0.8,0.2-1c0,0,0,0,0,0l0,0
					c0.3-0.2,0.8-0.2,1.1,0.2c0,0,0,0,0,0l0,0C3,12.2,3,12.7,2.6,12.9l0,0c-0.1,0.1-0.3,0.1-0.4,0.1l0,0C2,13.1,1.7,13,1.6,12.8
					L1.6,12.8z M13.9,12.9c-0.3-0.2-0.4-0.7-0.2-1.1l0,0c0.2-0.3,0.7-0.4,1-0.2c0,0,0,0,0,0l0,0c0.3,0.2,0.4,0.7,0.2,1.1l0,0
					c-0.1,0.2-0.4,0.3-0.6,0.3l0,0C14.2,13.1,14,13,13.9,12.9L13.9,12.9z M0,7.9c0-0.4,0.3-0.8,0.8-0.8l0,0c0.4,0,0.8,0.3,0.8,0.8
					c0,0,0,0,0,0l0,0c0,0.4-0.3,0.8-0.7,0.8l0,0C0.3,8.7,0,8.3,0,7.9C0,7.9,0,7.9,0,7.9L0,7.9z M15,7.9L15,7.9L15,7.9
					c0-0.5,0.3-0.8,0.7-0.8c0,0,0,0,0,0l0,0c0.4,0,0.8,0.3,0.8,0.7l0,0v0l0,0v0l0,0c0,0.4-0.3,0.8-0.8,0.8c0,0,0,0,0,0l0,0
					C15.3,8.7,15,8.3,15,7.9C15,7.9,15,7.9,15,7.9L15,7.9z M1.7,4.1C1.4,3.9,1.3,3.4,1.6,3.1l0,0c0.2-0.3,0.7-0.4,1.1-0.2l0,0
					C2.9,3.1,3,3.6,2.8,4c0,0,0,0,0,0l0,0C2.6,4.2,2.4,4.3,2.2,4.3l0,0C2,4.3,1.9,4.2,1.7,4.1L1.7,4.1z M13.7,3.9
					c-0.2-0.3-0.2-0.8,0.2-1.1c0,0,0,0,0,0l0,0c0.3-0.2,0.8-0.2,1.1,0.2c0,0,0,0,0,0l0,0c0.2,0.3,0.2,0.8-0.2,1.1l0,0
					c-0.1,0.1-0.3,0.1-0.4,0.1l0,0C14.1,4.2,13.8,4.1,13.7,3.9L13.7,3.9z M5.2,1c-0.1-0.4,0.1-0.8,0.5-1l0,0c0.4-0.1,0.8,0.1,1,0.5
					l0,0c0.1,0.4-0.1,0.8-0.5,0.9l0,0c-0.1,0-0.2,0-0.2,0l0,0C5.6,1.5,5.3,1.3,5.2,1L5.2,1z M10.3,1.5C9.9,1.4,9.7,0.9,9.8,0.5
					c0,0,0,0,0,0l0,0C10,0.1,10.4-0.1,10.8,0c0,0,0,0,0,0l0,0c0.4,0.1,0.6,0.5,0.5,0.9c0,0,0,0,0,0l0,0c-0.1,0.3-0.4,0.5-0.7,0.5
					l0,0C10.5,1.5,10.4,1.5,10.3,1.5L10.3,1.5z"/>
			</g>
			<circle id="Elipse_6198" class="st7" cx="20.1" cy="20.1" r="6"/>
			<circle id="Elipse_6199" class="st10" cx="20.1" cy="20.1" r="3.2"/>
		</g>
		<path id="Trazado_263423" class="st11" d="M142,795.5l40.4,6.2v-10.8l-0.8-5.5l-3.4-5.3l-7-4.3l-15.7-0.7l-11.9,7.3L142,795.5z"/>
		<g id="Grupo_127925" transform="translate(161.492 774.696)">
			<path id="Trazado_263424" class="st6" d="M20.6,31.9L20.6,31.9c-0.3,0-0.5-0.2-0.5-0.5V15.9C20.1,8,13.7,1.5,5.7,1.5c0,0,0,0,0,0
				H0V0h5.7c8.8,0,15.9,7.1,15.9,15.9l-0.5,15.5C21.1,31.7,20.9,31.9,20.6,31.9z"/>
		</g>
		<g id="Grupo_127926" transform="translate(142.006 791.499)">
			<path id="Trazado_263425" class="st6" d="M1.1,13.1L1.1,13.1c-0.2,0-0.4-0.2-0.4-0.4L0,0h1.5v12.7C1.5,12.9,1.3,13.1,1.1,13.1
				C1.1,13.1,1.1,13.1,1.1,13.1z"/>
		</g>
		<path id="Trazado_263426" class="st12" d="M118.1,787v-24.6c0-6.1,1.6-12.2,4.7-17.5l11.7-20.3c1.6-2.9,4.7-4.6,8-4.6h38.4
			c2.7,0,5,2.2,5,5v51.4h-23.8c-10.6,0-19.2,8.6-19.2,19.2l0,0v3H122c-2.6,0-5-1.6-6.1-4l-1-2.4c-0.8-1.8,0-4,1.8-4.8
			c0.3-0.1,0.7-0.2,1-0.3C117.9,787,118,787,118.1,787L118.1,787z"/>
		<path id="Trazado_263427" class="st13" d="M185.8,767.4v6.8c-0.7-1.5-1.3-2.8-1.8-3.7l-19.1,0.8c-5.4,0.2-10.8,1.7-15.6,4.3
			L128.3,787c-1.1,0.6-2.3,1.1-3.5,1.5v-3.2c0.7-0.3,1.4-0.6,2.1-0.9l20.9-11.5c5.2-2.8,11-4.5,16.9-4.7L185.8,767.4z"/>
		<g id="Grupo_127927" transform="translate(139.91 765.579)">
			<path id="Trazado_263428" class="st1" d="M0.6,9.8C0.3,9.8,0,9.6,0,9.2C0,9,0.1,8.8,0.3,8.6l7.3-4c2.7-1.5,5.5-2.6,8.4-3.4
				c0.3-0.1,0.7,0.1,0.8,0.4c0.1,0.3-0.1,0.7-0.4,0.8l0,0c-2.8,0.8-5.6,1.9-8.2,3.3l-7.3,4C0.8,9.8,0.7,9.8,0.6,9.8z M20.3,1.6
				c-0.3,0-0.6-0.3-0.6-0.6c0-0.3,0.2-0.6,0.5-0.6C21.2,0.2,22.1,0.1,23,0c0.3,0,0.7,0.2,0.7,0.6c0,0.3-0.2,0.7-0.6,0.7
				C22.2,1.3,21.3,1.5,20.3,1.6C20.4,1.6,20.4,1.6,20.3,1.6L20.3,1.6z"/>
		</g>
		<path id="Trazado_263429" class="st1" d="M147.8,774.2l-20.9,11.5c-0.7,0.4-1.3,0.7-2.1,0.9v1.9c1.2-0.4,2.4-0.9,3.5-1.5
			l20.9-11.5c4.8-2.6,10.1-4.1,15.6-4.3l15.2-0.6c2.5-0.1,4.7,1.3,5.8,3.5l0,0v-5.6l-21.1,0.9C158.8,769.7,153,771.4,147.8,774.2z"
			/>
		<g id="Grupo_127928" transform="translate(117.646 774.781)">
			<path id="Trazado_263430" class="st1" d="M4.9,11.2L4.9,11.2c1.4-0.3,2.3-1.5,2.3-2.9V1.9c0-1-0.9-1.9-1.9-1.9C5.2,0,5.1,0,5,0
				C1.3,0.6,0.5,2.4,0.5,2.4l0,0c-0.6,3-0.6,6.2-0.1,9.2l0.1,0.6L4.9,11.2z"/>
		</g>
		<path id="Trazado_263431" class="st14" d="M122.6,774.8c-0.6,0.1-1.1,0.2-1.7,0.4c0,0.1,0,0.2,0,0.4v4.4c0,0.9,0.7,1.7,1.7,1.7
			s1.7-0.7,1.7-1.7l0,0v-4.4c0-0.1,0-0.2,0-0.3C123.7,774.9,123.2,774.7,122.6,774.8z"/>
		<path id="Trazado_263432" class="st15" d="M115.1,792.5l0.8,1.9c1,2.4,3.4,4,6.1,4h20.8v-3c0-1,0.1-1.9,0.2-2.9L115.1,792.5z"/>
		<path id="Trazado_263433" class="st16" d="M173.2,776.3h0.6l7-8.7v-41.3c0-2.4-2-4.4-4.4-4.4h-29.8c-4.6,0-8.8,2.5-11,6.6
			l-4.7,8.7c-4.2,7.7-6.3,16.2-6.3,24.9v26.7c0,1.3,0.2,2.6,0.5,3.8l1.6,5.9h0.5l-1.6-6c-0.3-1.2-0.5-2.5-0.5-3.7V762
			c0-8.6,2.2-17.1,6.3-24.7l4.7-8.7c2.1-3.9,6.2-6.3,10.6-6.3h29.8c2.1,0,3.9,1.7,3.9,3.9v41.2L173.2,776.3z"/>
		<path id="Trazado_263434" class="st13" d="M178.4,764v-1.9c0-1-0.8-1.8-1.8-1.8l0,0h-2.4c-1.8,0-3.6,0.6-5,1.7l0,0
			c-0.7,0.6-1.3,1.3-1.6,2.2c-0.2,0.6,0.1,1.3,0.7,1.6c0.1,0,0.3,0.1,0.4,0.1h7.8C177.6,765.8,178.4,765,178.4,764z"/>
		<path id="Trazado_263435" class="st17" d="M128.8,757.9V755c0-5,1.2-10,3.5-14.4l4.6-9.1c2.1-4.2,6.4-6.8,11.1-6.8h25.1
			c2,0,3.6,1.6,3.6,3.6V739c0,4.4-2.9,8.3-7.1,9.7l-37.1,11.8c-1.5,0.5-3.1-0.3-3.5-1.8C128.9,758.4,128.8,758.1,128.8,757.9z"/>
		<path id="Trazado_263436" class="st18" d="M138.1,751.4v-2.3c0-4,1-8,2.8-11.6l3.7-7.3c1.7-3.4,5.2-5.5,8.9-5.5h20.2
			c1.6,0,2.9,1.3,2.9,2.9l0,0v8.6c0,3.6-2.3,6.7-5.7,7.8l-29.9,9.5c-1.2,0.4-2.5-0.3-2.8-1.5C138.2,751.9,138.1,751.7,138.1,751.4z"
			/>
		<path id="Trazado_263437" class="st19" d="M132.8,739.7l1.1,0.5c1.1,0.5,2.4,0.1,2.9-1l1.5-2.8c0.6-1.1,0.2-2.4-0.9-3c0,0,0,0,0,0
			l-1.2-0.6h0l-0.5,0.9l1.2,0.6c0.6,0.3,0.8,1.1,0.5,1.7c0,0,0,0,0,0l-1.5,2.8c-0.3,0.6-1,0.8-1.6,0.5l-1.1-0.5L132.8,739.7
			C132.8,739.7,132.8,739.7,132.8,739.7z"/>
		<path id="Trazado_263438" class="st19" d="M172.3,747.4l-2.9-3.8c-0.1-0.2-0.3-0.3-0.5-0.3h0l-14.3,0c-0.2,0-0.5,0.1-0.6,0.3l0,0
			l-9.8,13.3l3.6-1.2l7.2-10.9l13.6,0l2.9,3.2C171.8,747.7,172.1,747.6,172.3,747.4z"/>
		<path id="Trazado_263439" class="st19" d="M139.4,755.5c0-1-0.4-1.9-1.2-2.6l-1.4-1.2c-1.3-1.1-2.9-1.6-4.6-1.4l-3,0.4
			c-0.2,1.4-0.3,2.9-0.3,4.3v2.9c0,1.6,1.3,2.8,2.8,2.8c0.3,0,0.6,0,0.9-0.1l6.9-2.2L139.4,755.5z"/>
		<path id="Trazado_263440" class="st17" d="M119.8,751.8h1.3c1.3,0,2.4-0.7,3-1.8l13.2-26.4c0.3-0.6,0.4-1.2,0.4-1.8v-0.4
			c-1.3,0.8-2.4,1.9-3.2,3.2l-11.7,20.3C121.5,747.1,120.5,749.4,119.8,751.8z"/>
		<g id="Grupo_127929" transform="translate(119.268 720.838)">
			<path id="Trazado_263441" class="st20" d="M1.8,31.4H0.5c-0.3,0-0.5-0.2-0.5-0.5s0.2-0.5,0.5-0.5h1.3c1.1,0,2-0.6,2.5-1.5
				L17.5,2.5c0.2-0.5,0.4-1,0.4-1.6V0.5c0-0.3,0.2-0.5,0.5-0.5c0.3,0,0.5,0.2,0.5,0.5v0.4c0,0.7-0.2,1.4-0.5,2.1L5.2,29.3
				C4.5,30.6,3.2,31.4,1.8,31.4z"/>
		</g>
		<path id="Rectángulo_43958" class="st20" d="M121.6,748.2h1.5c1,0,1.8,0.8,1.8,1.8l0,0c0,1-0.8,1.8-1.8,1.8h-1.5
			c-1,0-1.8-0.8-1.8-1.8l0,0C119.8,749,120.6,748.2,121.6,748.2z"/>
		<g id="Grupo_127930" transform="translate(110.537 744.148)">
			<path id="Trazado_263442" class="st20" d="M3.8,11.7H2.7C1.2,11.7,0,10.5,0,9l0,0V0.7C0,0.3,0.3,0,0.8,0c0.4,0,0.8,0.3,0.8,0.8V9
				c0,0.7,0.5,1.2,1.2,1.2h1.1c0.4,0,0.8-0.2,1-0.6l1.1-1.9c0.9-1.6,2.7-2.6,4.6-2.6h1.4c0.4,0,0.8,0.3,0.8,0.8
				c0,0.4-0.3,0.8-0.8,0.8h-1.4c-1.3,0-2.6,0.7-3.2,1.9l-1.1,1.9C5.6,11.2,4.7,11.7,3.8,11.7z"/>
		</g>
		<path id="Trazado_263443" class="st20" d="M114.1,737.7L114.1,737.7c-1.6,0-2.8,1.3-2.8,2.8v9.8h0c2.2,0,4-1.8,4-4l0,0v-7.5
			C115.3,738.2,114.8,737.7,114.1,737.7C114.1,737.7,114.1,737.7,114.1,737.7z"/>
		<path id="Trazado_263444" class="st20" d="M111.3,748.7L111.3,748.7v-6.3l0,0c-0.8,0-1.4,0.6-1.4,1.4v3.5
			C109.9,748.1,110.5,748.7,111.3,748.7z"/>
		<g id="Grupo_127931" transform="translate(256.8 792.668)">
			<path id="Trazado_263445" class="st6" d="M57.4,0C38.7,5.7,18.8,5.7,0.2,0L0,0.6c18.8,5.7,38.8,5.7,57.5,0L57.4,0z"/>
			<path id="Trazado_263446" class="st6" d="M55,1.4c-17.1,4.7-35.2,4.7-52.4,0L2.4,2c17.3,4.8,35.5,4.8,52.7,0L55,1.4z"/>
			<path id="Trazado_263447" class="st6" d="M53.1,2.5c-15.9,4-32.6,4-48.6,0C4.4,2.7,4.4,2.9,4.3,3.1c16,4.1,32.8,4.1,48.9,0
				L53.1,2.5z"/>
			<path id="Trazado_263448" class="st6" d="M50.9,3.7C36.3,7,21.2,7,6.6,3.7L6.5,4.3c14.7,3.3,29.9,3.3,44.6,0L50.9,3.7z"/>
		</g>
		<g id="Grupo_127932" transform="translate(187.765 783.328)">
			<path id="Trazado_263449" class="st21" d="M0,0v1.5h142.8V3H95.4l-0.1,0L72.4,7.5H51.5v6H0v1.5h53v-6h19.5l23-4.5h48.8V0L0,0z"/>
		</g>
		<rect id="Rectángulo_43959" x="197.4" y="790.3" class="st22" width="14.4" height="10.1"/>
		<rect id="Rectángulo_43960" x="197.4" y="798.1" class="st10" width="14.4" height="2.2"/>
		<rect id="Rectángulo_43961" x="197.4" y="790.3" class="st23" width="14.4" height="1.2"/>
		<rect id="Rectángulo_43962" x="196.1" y="788.9" class="st21" width="16.9" height="1.4"/>
		<g id="Grupo_127933" transform="translate(197.592 786.387)">
			<rect id="Rectángulo_43963" x="0" y="1.5" class="st15" width="4.3" height="1"/>
			<rect id="Rectángulo_43964" x="0.9" y="0" class="st24" width="2.5" height="1.5"/>
			<rect id="Rectángulo_43965" x="9.7" y="1.5" class="st15" width="4.3" height="1"/>
			<rect id="Rectángulo_43966" x="10.6" y="0" class="st24" width="2.5" height="1.5"/>
		</g>
		<g id="Grupo_127934" transform="translate(254.927 787.183)">
			<path id="Trazado_263450" class="st21" d="M2.3,8.9L2.3,8.9C1,8.9,0,7.9,0,6.6V0h4.6v6.6C4.6,7.9,3.5,8.9,2.3,8.9z"/>
			<path id="Trazado_263451" class="st21" d="M59,8.9L59,8.9c-1.3,0-2.3-1-2.3-2.3V0h4.6v6.6C61.3,7.9,60.3,8.9,59,8.9z"/>
		</g>
		<g id="Grupo_127938" transform="translate(265.572 783.504)">
			<circle id="Elipse_6200" class="st6" cx="20" cy="20" r="14.1"/>
			<circle id="Elipse_6201" class="st5" cx="20" cy="20" r="12.4"/>
			<circle id="Elipse_6202" class="st7" cx="20" cy="20" r="9.4"/>
			<g id="Grupo_127935" transform="translate(25.798 13.892)">
				<path id="Trazado_263452" class="st8" d="M1.4,2.4C1.2,2.4,1,2.2,0.9,2.1c-0.2-0.4-0.5-0.7-0.7-1C-0.1,0.8,0,0.4,0.2,0.2
					C0.5-0.1,0.9,0,1.1,0.2C1.4,0.6,1.7,1,2,1.4c0.2,0.3,0.1,0.7-0.2,0.9C1.7,2.3,1.5,2.4,1.4,2.4L1.4,2.4z"/>
			</g>
			<g id="Grupo_127936" transform="translate(10.916 10.916)">
				<path id="Trazado_263453" class="st8" d="M4.6,16.9c-0.1,0-0.2,0-0.3-0.1C0,14.1-1.3,8.5,1.4,4.3C3.8,0.5,8.5-1,12.6,0.7
					c0.3,0.1,0.5,0.5,0.3,0.8S12.4,2,12.1,1.9l0,0C8.1,0.2,3.6,2.1,1.9,6c-1.5,3.5-0.2,7.6,3,9.7c0.3,0.2,0.4,0.6,0.2,0.9
					C5,16.8,4.8,16.9,4.6,16.9L4.6,16.9z"/>
			</g>
			<circle id="Elipse_6203" class="st9" cx="20" cy="20" r="7.4"/>
			<g id="Grupo_127937" transform="translate(13.016 13.321)">
				<path id="Trazado_263454" class="st7" d="M4.8,13.3c-0.3-0.1-0.5-0.5-0.4-0.8l0,0c0.1-0.3,0.5-0.5,0.8-0.4l0,0
					c0.3,0.1,0.5,0.5,0.4,0.8c0,0,0,0,0,0l0,0c-0.1,0.3-0.3,0.4-0.6,0.4l0,0C5,13.4,4.9,13.3,4.8,13.3z M8.3,12.9
					c-0.1-0.3,0.1-0.7,0.4-0.8l0,0c0.3-0.1,0.7,0.1,0.8,0.4l0,0c0.1,0.3-0.1,0.7-0.4,0.8l0,0c-0.1,0-0.1,0-0.2,0l0,0
					C8.7,13.3,8.4,13.2,8.3,12.9z M1.3,10.8c-0.2-0.3-0.1-0.7,0.1-0.9c0,0,0,0,0,0l0,0C1.8,9.7,2.2,9.8,2.4,10c0,0,0,0,0,0l0,0
					c0.2,0.3,0.1,0.7-0.1,0.9l0,0C2.1,11,2,11.1,1.9,11.1l0,0C1.7,11.1,1.5,11,1.3,10.8L1.3,10.8z M11.7,10.9
					c-0.3-0.2-0.3-0.6-0.1-0.9l0,0c0.2-0.3,0.6-0.3,0.9-0.1c0,0,0,0,0,0l0,0c0.3,0.2,0.3,0.6,0.1,0.9l0,0c-0.1,0.2-0.3,0.3-0.5,0.3
					l0,0C12,11,11.9,11,11.7,10.9L11.7,10.9z M0,6.7c0-0.4,0.3-0.6,0.6-0.6l0,0c0.4,0,0.6,0.3,0.6,0.6c0,0,0,0,0,0l0,0
					C1.3,7,1,7.3,0.6,7.3l0,0C0.3,7.3,0,7,0,6.7L0,6.7z M12.7,6.7L12.7,6.7L12.7,6.7C12.7,6.3,13,6,13.3,6c0,0,0,0,0,0l0,0
					C13.7,6,14,6.3,14,6.7l0,0v0l0,0v0l0,0c0,0.4-0.3,0.6-0.6,0.6l0,0C13,7.3,12.7,7,12.7,6.7L12.7,6.7z M1.5,3.5
					C1.2,3.3,1.1,2.9,1.3,2.6l0,0c0.2-0.3,0.6-0.3,0.9-0.1c0,0,0,0,0,0l0,0c0.3,0.2,0.3,0.6,0.1,0.9c0,0,0,0,0,0l0,0
					C2.2,3.5,2,3.6,1.8,3.6l0,0C1.7,3.6,1.6,3.6,1.5,3.5L1.5,3.5z M11.6,3.3c-0.2-0.3-0.1-0.7,0.1-0.9c0,0,0,0,0,0l0,0
					c0.3-0.2,0.7-0.1,0.9,0.1c0,0,0,0,0,0l0,0c0.2,0.3,0.1,0.7-0.1,0.9l0,0c-0.1,0.1-0.2,0.1-0.4,0.1l0,0
					C11.9,3.6,11.7,3.5,11.6,3.3L11.6,3.3z M4.4,0.9C4.3,0.5,4.5,0.2,4.8,0.1l0,0c0.3-0.1,0.7,0.1,0.8,0.4l0,0l0,0
					c0.1,0.3-0.1,0.7-0.4,0.8l0,0c-0.1,0-0.1,0-0.2,0l0,0C4.7,1.3,4.5,1.1,4.4,0.9L4.4,0.9z M8.7,1.3C8.4,1.1,8.2,0.8,8.3,0.5
					c0,0,0,0,0,0l0,0C8.4,0.1,8.8-0.1,9.1,0c0,0,0,0,0,0l0,0c0.3,0.1,0.5,0.5,0.4,0.8c0,0,0,0,0,0l0,0C9.4,1.1,9.2,1.3,8.9,1.3l0,0
					C8.9,1.3,8.8,1.3,8.7,1.3L8.7,1.3z"/>
			</g>
			<circle id="Elipse_6204" class="st7" cx="20" cy="20" r="5.1"/>
			<circle id="Elipse_6205" class="st10" cx="20" cy="20" r="2.7"/>
		</g>
		<rect id="Rectángulo_43967" x="330.5" y="787.9" class="st6" width="1.6" height="7.9"/>
		<g id="Grupo_127939" transform="translate(189.55 714.438)">
			<path id="Rectángulo_43968" class="st1" d="M4.3,1.5h142.1c1.6,0,2.8,1.3,2.8,2.8v60.2c0,1.6-1.3,2.8-2.8,2.8H4.3
				c-1.6,0-2.8-1.3-2.8-2.8V4.3C1.5,2.8,2.8,1.5,4.3,1.5z"/>
			<path id="Trazado_263455" class="st25" d="M148.5,0H2.2C1,0,0,1,0,2.2v64.5c0,1.2,1,2.2,2.2,2.2h0h146.3c1.2,0,2.2-1,2.2-2.2l0,0
				V2.2C150.7,1,149.7,0,148.5,0z M147.7,65.9H3V3h144.7L147.7,65.9z"/>
		</g>
		<path id="Trazado_263456" class="st26" d="M283.3,787.9h28.3v2l4.6,0.2v-2.2h14.3v3l1.6,0.1v-7.6H191.7l89.9,4.9L283.3,787.9z"/>
		<path id="Trazado_263457" class="st26" d="M269.3,786.6l-3.7,9.8l41.8,4.5l-6-16.9h-31.8L269.3,786.6z"/>
		<path id="Trazado_263458" class="st25" d="M301.8,783.3h-32.4l-5.9,17.5c-0.1,0.2,0,0.5,0.3,0.6c0,0,0.1,0,0.1,0l0,0
			c0.2,0,0.4-0.1,0.5-0.3l5.8-16.7h31l5.8,16.7c0.1,0.2,0.3,0.3,0.5,0.3l0,0c0.2,0,0.4-0.3,0.4-0.5c0,0,0-0.1,0-0.1L301.8,783.3z"/>
		<g id="Grupo_127940" transform="translate(117.87 774.532)">
			<path id="Trazado_263459" class="st20" d="M0.3,12.7c-0.1,0-0.3-0.1-0.3-0.2c0-0.1,0.1-0.2,0.2-0.3l4.4-1
				c1.2-0.3,2.1-1.4,2.1-2.6V2.1c0-0.5-0.2-0.9-0.6-1.2C5.8,0.6,5.3,0.5,4.8,0.5C1.3,1,0.5,2.7,0.5,2.7C0.4,2.9,0.3,2.9,0.1,2.9
				C0,2.8,0,2.7,0,2.5c0-0.1,0.9-2,4.7-2.5C5.3-0.1,6,0.1,6.5,0.5c0.5,0.4,0.7,1,0.7,1.6v6.5c0,1.5-1,2.8-2.5,3.1l0,0L0.3,12.7
				C0.3,12.7,0.3,12.7,0.3,12.7z"/>
		</g>
		<g id="Grupo_127941" transform="translate(128.849 724.746)" class="st27">
			<path id="Trazado_263460" class="st1" d="M47.8,6.3L0,31v2.1c0,0.4,0.1,0.9,0.3,1.2L47.9,9.9L47.8,6.3z"/>
			<path id="Trazado_263461" class="st1" d="M47.7,2.5C47.2,1,45.8,0,44.3,0H19.2c-4.7,0-9,2.6-11.1,6.8l-4.6,9.1
				C1.7,19.3,0.6,23.1,0.2,27L47.7,2.5z"/>
		</g>
		<g id="Grupo_127942" transform="translate(128.346 724.243)">
			<path id="Trazado_263462" class="st20" d="M3.3,36.9c-1.8,0-3.3-1.5-3.3-3.3v-2.9c0-5.1,1.2-10.1,3.5-14.6l4.6-9.1
				C10.4,2.7,14.8,0,19.7,0h25.1c2.3,0,4.1,1.8,4.1,4.1v10.7c0,4.6-3,8.8-7.4,10.2L4.3,36.8C4,36.9,3.7,36.9,3.3,36.9z M19.7,1
				C15.2,1,11.1,3.5,9,7.5l-4.6,9.1C2.2,21,1,25.8,1,30.8v2.9c0,1.3,1,2.3,2.3,2.3c0.2,0,0.5,0,0.7-0.1L41.1,24c4-1.3,6.7-5,6.7-9.2
				V4.1c0-1.7-1.4-3.1-3.1-3.1L19.7,1z"/>
		</g>
		<path id="Trazado_263463" class="st20" d="M174.4,766L174.4,766c-0.5,0-0.9-0.4-0.9-0.9v-4c0-0.5,0.4-0.9,0.9-0.9l0,0
			c0.5,0,0.9,0.4,0.9,0.9v4C175.3,765.6,174.9,766,174.4,766z"/>
		<path id="Trazado_263464" class="st28" d="M112.7,746.3L112.7,746.3c0.4,0,0.7-0.3,0.7-0.7l0,0v-5.7c0-0.4-0.3-0.7-0.7-0.7
			c0,0,0,0,0,0l0,0c-0.4,0-0.7,0.3-0.7,0.7l0,0v5.7C111.9,746,112.3,746.3,112.7,746.3C112.7,746.3,112.7,746.3,112.7,746.3z"/>
		<g id="Grupo_127943" transform="translate(248.088 715.263)">
			<path id="Trazado_263465" class="st1" d="M5.7,1.3H0.6C0.3,1.3,0,1,0,0.6S0.3,0,0.6,0h5.1C6,0,6.3,0.3,6.3,0.6S6,1.3,5.7,1.3z"/>
		</g>
		<g id="Grupo_127944" transform="translate(201.567 715.263)">
			<path id="Trazado_263466" class="st1" d="M38.6,1.3H0.6C0.3,1.3,0,1,0,0.6S0.3,0,0.6,0h37.9c0.3,0,0.6,0.3,0.6,0.6
				S38.9,1.3,38.6,1.3L38.6,1.3z"/>
		</g>
	</g>
</g>
</svg>
